<svg width="15" height="12" viewBox="0 0 15 12" fill="none" xmlns="http://www.w3.org/2000/svg">
<path d="M6.79891 6.772H3.94291V9.782H2.92791V6.772H0.0859063V5.827H2.92791V2.838H3.94291V5.827H6.79891V6.772ZM10.034 4.756C10.5567 4.644 11.0373 4.588 11.476 4.588C11.9987 4.588 12.4607 4.665 12.862 4.819C13.2633 4.973 13.597 5.18533 13.863 5.456C14.1337 5.72667 14.3367 6.04633 14.472 6.415C14.612 6.78367 14.682 7.185 14.682 7.619C14.682 8.151 14.5887 8.63167 14.402 9.061C14.22 9.49033 13.9657 9.859 13.639 10.167C13.317 10.4703 12.9367 10.7037 12.498 10.867C12.0593 11.0303 11.5857 11.112 11.077 11.112C10.783 11.112 10.5007 11.0817 10.23 11.021C9.95933 10.965 9.705 10.888 9.467 10.79C9.23367 10.692 9.01667 10.58 8.816 10.454C8.61533 10.328 8.438 10.195 8.284 10.055L8.669 9.523C8.753 9.40167 8.86267 9.341 8.998 9.341C9.09133 9.341 9.19633 9.37833 9.313 9.453C9.42967 9.523 9.572 9.60233 9.74 9.691C9.908 9.77967 10.104 9.86133 10.328 9.936C10.5567 10.006 10.8273 10.041 11.14 10.041C11.49 10.041 11.805 9.985 12.085 9.873C12.365 9.761 12.6053 9.60233 12.806 9.397C13.0067 9.187 13.1607 8.93733 13.268 8.648C13.3753 8.35867 13.429 8.03433 13.429 7.675C13.429 7.36233 13.3823 7.08 13.289 6.828C13.2003 6.576 13.0627 6.36133 12.876 6.184C12.694 6.00667 12.4653 5.869 12.19 5.771C11.9147 5.673 11.5927 5.624 11.224 5.624C10.972 5.624 10.7083 5.645 10.433 5.687C10.1623 5.729 9.88467 5.79667 9.6 5.89L8.816 5.659L9.621 0.968999H14.374V1.515C14.374 1.69233 14.318 1.83933 14.206 1.956C14.0987 2.068 13.912 2.124 13.646 2.124H10.496L10.034 4.756Z" fill="#8181A5"/>
</svg>
