<svg width="20" height="16" viewBox="0 0 20 16" fill="none" xmlns="http://www.w3.org/2000/svg">
<path d="M16.1875 13.2188C16 13.4062 15.7708 13.5 15.5 13.5C15.2292 13.5 14.9896 13.4062 14.7812 13.2188C14.5938 13.0104 14.5 12.7708 14.5 12.5C14.5 12.2292 14.5938 12 14.7812 11.8125C14.9896 11.6042 15.2292 11.5 15.5 11.5C15.7708 11.5 16 11.6042 16.1875 11.8125C16.3958 12 16.5 12.2292 16.5 12.5C16.5 12.7708 16.3958 13.0104 16.1875 13.2188ZM9.5 14.5C9.5 15.1875 9.57292 15.6875 9.71875 16H1.5C1.08333 16 0.729167 15.8542 0.4375 15.5625C0.145833 15.2708 0 14.9167 0 14.5V13.6875C0 12.5417 0.40625 11.5625 1.21875 10.75C2.05208 9.91667 3.04167 9.5 4.1875 9.5C4.45833 9.5 4.85417 9.58333 5.375 9.75C5.91667 9.91667 6.45833 10 7 10C7.5 10 8.01042 9.92708 8.53125 9.78125C9.05208 9.63542 9.39583 9.55208 9.5625 9.53125C9.52083 9.67708 9.5 9.83333 9.5 10V11.0625C9.47917 11.0625 9.36458 11.0938 9.15625 11.1562C8.96875 11.2188 8.79167 11.2708 8.625 11.3125C8.45833 11.3542 8.21875 11.3958 7.90625 11.4375C7.61458 11.4792 7.3125 11.5 7 11.5C6.375 11.5 5.76042 11.4167 5.15625 11.25C4.57292 11.0833 4.25 11 4.1875 11C3.45833 11 2.82292 11.2708 2.28125 11.8125C1.76042 12.3333 1.5 12.9583 1.5 13.6875V14.5H9.5ZM19 9C19.2708 9 19.5 9.10417 19.6875 9.3125C19.8958 9.5 20 9.72917 20 10V15C20 15.2708 19.8958 15.5 19.6875 15.6875C19.5 15.8958 19.2708 16 19 16H12C11.7292 16 11.4896 15.8958 11.2812 15.6875C11.0938 15.5 11 15.2708 11 15V10C11 9.72917 11.0938 9.5 11.2812 9.3125C11.4896 9.10417 11.7292 9 12 9H13V7.5C13 6.8125 13.2396 6.22917 13.7188 5.75C14.2188 5.25 14.8125 5 15.5 5C16.1875 5 16.7708 5.25 17.25 5.75C17.75 6.22917 18 6.8125 18 7.5V9H19ZM14.5 7.5V9H16.5V7.5C16.5 7.22917 16.3958 7 16.1875 6.8125C16 6.60417 15.7708 6.5 15.5 6.5C15.2292 6.5 14.9896 6.60417 14.7812 6.8125C14.5938 7 14.5 7.22917 14.5 7.5ZM18.5 14.5V10.5H12.5V14.5H18.5ZM3.8125 1.3125C4.6875 0.4375 5.75 0 7 0C8.25 0 9.3125 0.4375 10.1875 1.3125C11.0625 2.1875 11.5 3.25 11.5 4.5C11.5 5.75 11.0625 6.8125 10.1875 7.6875C9.3125 8.5625 8.25 9 7 9C5.75 9 4.6875 8.5625 3.8125 7.6875C2.9375 6.8125 2.5 5.75 2.5 4.5C2.5 3.25 2.9375 2.1875 3.8125 1.3125ZM4.875 6.625C5.45833 7.20833 6.16667 7.5 7 7.5C7.83333 7.5 8.54167 7.20833 9.125 6.625C9.70833 6.04167 10 5.33333 10 4.5C10 3.66667 9.70833 2.95833 9.125 2.375C8.54167 1.79167 7.83333 1.5 7 1.5C6.16667 1.5 5.45833 1.79167 4.875 2.375C4.29167 2.95833 4 3.66667 4 4.5C4 5.33333 4.29167 6.04167 4.875 6.625Z" fill="#8181A5"/>
</svg>
