<svg width="13" height="14" viewBox="0 0 13 14" fill="none" xmlns="http://www.w3.org/2000/svg">
<path d="M2.35938 0.504639V1.06714H0.109375V13.4421H12.4844V1.06714H10.2344V0.504639H9.10938V1.06714H3.48438V0.504639H2.35938ZM1.23438 2.19214H2.35938V2.75464H3.48438V2.19214H9.10938V2.75464H10.2344V2.19214H11.3594V3.31714H1.23438V2.19214ZM1.23438 4.44214H11.3594V12.3171H1.23438V4.44214ZM4.60938 5.56714V6.69214H5.73438V5.56714H4.60938ZM6.85938 5.56714V6.69214H7.98438V5.56714H6.85938ZM9.10938 5.56714V6.69214H10.2344V5.56714H9.10938ZM2.35938 7.81714V8.94214H3.48438V7.81714H2.35938ZM4.60938 7.81714V8.94214H5.73438V7.81714H4.60938ZM6.85938 7.81714V8.94214H7.98438V7.81714H6.85938ZM9.10938 7.81714V8.94214H10.2344V7.81714H9.10938ZM2.35938 10.0671V11.1921H10.2344V10.0671H2.35938Z" fill="#8181A5"/>
</svg>
