<svg width="17" height="19" viewBox="0 0 17 19" fill="none" xmlns="http://www.w3.org/2000/svg">
<path d="M6.3902 6.85938L4.87848 6.71875C4.33942 8.40625 4.33942 10.1055 4.87848 11.8164L6.3902 11.6406C6.64801 11.6172 6.88239 11.6758 7.09332 11.8164C7.3277 11.957 7.49176 12.1445 7.58551 12.3789L8.74567 15.2266C8.83942 15.4844 8.83942 15.7422 8.74567 16C8.67535 16.2812 8.51129 16.4922 8.25348 16.6328L5.96832 18.0742C5.4527 18.4023 4.97223 18.3438 4.52692 17.8984C2.9566 16.3281 1.8902 14.5 1.3277 12.4141C0.765198 10.3047 0.765198 8.20703 1.3277 6.12109C1.8902 4.01172 2.9566 2.17188 4.52692 0.601562C4.97223 0.15625 5.4527 0.0976563 5.96832 0.425781L8.25348 1.86719C8.51129 2.00781 8.67535 2.21875 8.74567 2.5C8.83942 2.75781 8.83942 3.01563 8.74567 3.27344L7.58551 6.12109C7.49176 6.35547 7.3277 6.54297 7.09332 6.68359C6.88239 6.82422 6.64801 6.88281 6.3902 6.85938ZM4.10504 13.0117C3.61285 11.6523 3.35504 10.4102 3.3316 9.28516C3.3316 8.16016 3.58942 6.89453 4.10504 5.48828L6.49567 5.73438C6.5191 5.73438 6.53082 5.72266 6.53082 5.69922L7.69098 2.85156C7.69098 2.82812 7.67926 2.81641 7.65582 2.81641L5.37067 1.375C5.37067 1.375 5.35895 1.375 5.33551 1.375C3.15582 3.55469 2.06598 6.17969 2.06598 9.25C2.06598 12.3203 3.15582 14.9453 5.33551 17.125C5.35895 17.125 5.37067 17.125 5.37067 17.125L7.65582 15.6836C7.67926 15.6836 7.69098 15.6719 7.69098 15.6484L6.53082 12.8008C6.53082 12.7773 6.5191 12.7656 6.49567 12.7656L4.10504 13.0117ZM11.2066 3.51953C11.3004 3.42578 11.4175 3.39062 11.5582 3.41406C11.6988 3.41406 11.8043 3.47266 11.8746 3.58984C12.3199 4.36328 12.3199 5.125 11.8746 5.875C11.8043 5.99219 11.6988 6.0625 11.5582 6.08594C11.4175 6.10938 11.3004 6.07422 11.2066 5.98047L10.9957 5.76953C10.855 5.62891 10.8316 5.46484 10.9254 5.27734C11.1129 4.92578 11.1129 4.57422 10.9254 4.22266C10.8316 4.03516 10.855 3.87109 10.9957 3.73047L11.2066 3.51953ZM13.4918 1.97266C14.1246 2.79297 14.441 3.71875 14.441 4.75C14.441 5.78125 14.1246 6.70703 13.4918 7.52734C13.3043 7.76172 13.0933 7.77344 12.8589 7.5625L12.648 7.35156C12.4605 7.1875 12.4488 7 12.6129 6.78906C13.0816 6.20312 13.316 5.52344 13.316 4.75C13.316 3.97656 13.0816 3.28516 12.6129 2.67578C12.4488 2.48828 12.4605 2.3125 12.648 2.14844L12.8589 1.9375C13.0933 1.72656 13.3043 1.73828 13.4918 1.97266ZM15.1089 0.390625C16.1636 1.65625 16.691 3.10937 16.691 4.75C16.691 6.39063 16.1636 7.84375 15.1089 9.10938C14.9214 9.34375 14.7105 9.35547 14.4761 9.14453L14.3004 8.93359C14.0894 8.74609 14.0777 8.55859 14.2652 8.37109C15.1324 7.31641 15.566 6.10938 15.566 4.75C15.566 3.39062 15.1324 2.18359 14.2652 1.12891C14.0777 0.941406 14.0894 0.753906 14.3004 0.566406L14.4761 0.355469C14.7105 0.167969 14.9214 0.179688 15.1089 0.390625Z" fill="#8181A5"/>
</svg>
