<svg width="46" height="46" viewBox="0 0 46 46" fill="none" xmlns="http://www.w3.org/2000/svg">
<path opacity="0.195638" d="M23 0.25C18.8802 0.25 15.0521 1.28906 11.5156 3.36719C8.08854 5.3724 5.3724 8.08854 3.36719 11.5156C1.28906 15.0521 0.25 18.8802 0.25 23C0.25 27.1198 1.28906 30.9479 3.36719 34.4844C5.3724 37.9115 8.08854 40.6276 11.5156 42.6328C15.0521 44.7109 18.8802 45.75 23 45.75C27.1198 45.75 30.9479 44.7109 34.4844 42.6328C37.9115 40.6276 40.6276 37.9115 42.6328 34.4844C44.7109 30.9479 45.75 27.1198 45.75 23C45.75 18.8802 44.7109 15.0521 42.6328 11.5156C40.6276 8.08854 37.9115 5.3724 34.4844 3.36719C30.9479 1.28906 27.1198 0.25 23 0.25ZM23 3.75C26.5 3.75 29.7448 4.625 32.7344 6.375C35.6146 8.08854 37.9115 10.3854 39.625 13.2656C41.375 16.2552 42.25 19.5 42.25 23C42.25 26.5 41.375 29.7448 39.625 32.7344C37.9115 35.6146 35.6146 37.9115 32.7344 39.625C29.7448 41.375 26.5 42.25 23 42.25C19.5 42.25 16.2552 41.375 13.2656 39.625C10.3854 37.9115 8.08854 35.6146 6.375 32.7344C4.625 29.7448 3.75 26.5 3.75 23C3.75 19.5 4.625 16.2552 6.375 13.2656C8.08854 10.3854 10.3854 8.08854 13.2656 6.375C16.2552 4.625 19.5 3.75 23 3.75ZM16.3828 13.8672L13.8672 16.3828L20.4844 23L13.8672 29.6172L16.3828 32.1328L23 25.5156L29.6172 32.1328L32.1328 29.6172L25.5156 23L32.1328 16.3828L29.6172 13.8672L23 20.4844L16.3828 13.8672Z" fill="#8181A5"/>
</svg>
