<svg width="11" height="12" viewBox="0 0 11 12" fill="none" xmlns="http://www.w3.org/2000/svg">
<path d="M6.09375 6L9.96875 9.875C10.0729 9.97917 10.0729 10.0938 9.96875 10.2188L9.25 10.9375C9.125 11.0417 9.01042 11.0417 8.90625 10.9375L8.25 10.25L5.03125 7.0625L1.15625 10.9375C1.05208 11.0417 0.9375 11.0417 0.8125 10.9375L0.09375 10.2188C-0.0104167 10.0938 -0.0104167 9.97917 0.09375 9.875L3.96875 6L0.09375 2.125C-0.0104167 2.02083 -0.0104167 1.90625 0.09375 1.78125L0.8125 1.0625C0.9375 0.958333 1.05208 0.958333 1.15625 1.0625L5.03125 4.9375L8.90625 1.0625C9.01042 0.958333 9.125 0.958333 9.25 1.0625L9.96875 1.78125C10.0729 1.90625 10.0729 2.02083 9.96875 2.125L9.28125 2.78125L6.09375 6Z" fill="white"/>
</svg>
