<svg width="23" height="19" viewBox="0 0 23 19" fill="none" xmlns="http://www.w3.org/2000/svg">
<path d="M22.4254 6.4375C22.6363 6.8125 22.6246 7.1875 22.3902 7.5625C22.1793 7.9375 21.8629 8.125 21.441 8.125H20.316V17.9688C20.316 18.1562 20.2222 18.25 20.0347 18.25H19.4722C19.2847 18.25 19.191 18.1562 19.191 17.9688V8.125H13.566V17.0547C13.566 17.3828 13.4488 17.6641 13.2144 17.8984C13.0035 18.1328 12.7457 18.25 12.441 18.25H3.44098C3.13629 18.25 2.86676 18.1328 2.63239 17.8984C2.42145 17.6641 2.31598 17.3828 2.31598 17.0547V8.125H1.19098C0.769104 8.125 0.440979 7.9375 0.206604 7.5625C-0.0043335 7.1875 -0.0043335 6.8125 0.206604 6.4375L3.44098 0.8125C3.65192 0.4375 3.98004 0.25 4.42535 0.25H18.2066C18.6519 0.25 18.98 0.4375 19.191 0.8125L22.4254 6.4375ZM12.441 17.0547V12.625H3.44098V17.0547L3.47614 17.125H12.441C12.441 17.1016 12.441 17.0781 12.441 17.0547ZM12.441 11.5V8.125H3.44098V11.5H12.441ZM1.19098 7H21.441L18.2066 1.375H4.42535L1.19098 7Z" fill="#1C1D21"/>
</svg>
