<svg width="14" height="16" viewBox="0 0 14 16" fill="none" xmlns="http://www.w3.org/2000/svg">
<path d="M6.25 12.75C6.08333 12.75 6 12.6667 6 12.5V11.5C6 11.3333 6.08333 11.25 6.25 11.25H10.75C10.9167 11.25 11 11.3333 11 11.5V12.5C11 12.6667 10.9167 12.75 10.75 12.75H6.25ZM3.5 13C3.35417 13 3.22917 12.9583 3.125 12.875C3.04167 12.7708 3 12.6458 3 12.5V11.5C3 11.3542 3.04167 11.2396 3.125 11.1562C3.22917 11.0521 3.35417 11 3.5 11H4.5C4.64583 11 4.76042 11.0521 4.84375 11.1562C4.94792 11.2396 5 11.3542 5 11.5V12.5C5 12.6458 4.94792 12.7708 4.84375 12.875C4.76042 12.9583 4.64583 13 4.5 13H3.5ZM3.5 9C3.35417 9 3.22917 8.95833 3.125 8.875C3.04167 8.77083 3 8.64583 3 8.5V7.5C3 7.35417 3.04167 7.23958 3.125 7.15625C3.22917 7.05208 3.35417 7 3.5 7H4.5C4.64583 7 4.76042 7.05208 4.84375 7.15625C4.94792 7.23958 5 7.35417 5 7.5V8.5C5 8.64583 4.94792 8.77083 4.84375 8.875C4.76042 8.95833 4.64583 9 4.5 9H3.5ZM6.25 8.75C6.08333 8.75 6 8.66667 6 8.5V7.5C6 7.33333 6.08333 7.25 6.25 7.25H10.75C10.9167 7.25 11 7.33333 11 7.5V8.5C11 8.66667 10.9167 8.75 10.75 8.75H6.25ZM3.5 5C3.35417 5 3.22917 4.95833 3.125 4.875C3.04167 4.77083 3 4.64583 3 4.5V3.5C3 3.35417 3.04167 3.23958 3.125 3.15625C3.22917 3.05208 3.35417 3 3.5 3H4.5C4.64583 3 4.76042 3.05208 4.84375 3.15625C4.94792 3.23958 5 3.35417 5 3.5V4.5C5 4.64583 4.94792 4.77083 4.84375 4.875C4.76042 4.95833 4.64583 5 4.5 5H3.5ZM6.25 4.75C6.08333 4.75 6 4.66667 6 4.5V3.5C6 3.33333 6.08333 3.25 6.25 3.25H10.75C10.9167 3.25 11 3.33333 11 3.5V4.5C11 4.66667 10.9167 4.75 10.75 4.75H6.25ZM13 0C13.2708 0 13.5 0.104167 13.6875 0.3125C13.8958 0.5 14 0.729167 14 1V15C14 15.2708 13.8958 15.5 13.6875 15.6875C13.5 15.8958 13.2708 16 13 16H1C0.729167 16 0.489583 15.8958 0.28125 15.6875C0.09375 15.5 0 15.2708 0 15V1C0 0.729167 0.09375 0.5 0.28125 0.3125C0.489583 0.104167 0.729167 0 1 0H13ZM12.5 14.5V1.5H1.5V14.5H12.5Z" fill="#8181A5"/>
</svg>
