<svg width="18" height="12" viewBox="0 0 18 12" fill="none" xmlns="http://www.w3.org/2000/svg">
<path fill-rule="evenodd" clip-rule="evenodd" d="M16.7999 0.666687H15.7764C15.2111 0.666687 14.7528 1.1144 14.7528 1.66669V10.3334C14.7528 10.8856 15.2111 11.3334 15.7764 11.3334H16.7999C17.3652 11.3334 17.8235 10.8856 17.8235 10.3334V1.66669C17.8235 1.1144 17.3652 0.666687 16.7999 0.666687ZM10.9999 3.00002H12.0234C12.5887 3.00002 13.047 3.44774 13.047 4.00002V10.3334C13.047 10.8856 12.5887 11.3334 12.0234 11.3334H10.9999C10.4346 11.3334 9.97638 10.8856 9.97638 10.3334V4.00002C9.97638 3.44774 10.4346 3.00002 10.9999 3.00002ZM7.24695 5.33335H6.22342C5.65814 5.33335 5.19989 5.78107 5.19989 6.33335V10.3334C5.19989 10.8856 5.65814 11.3334 6.22342 11.3334H7.24695C7.81223 11.3334 8.27048 10.8856 8.27048 10.3334V6.33335C8.27048 5.78107 7.81223 5.33335 7.24695 5.33335ZM2.4705 7.33335H1.44698C0.881707 7.33335 0.423462 7.78107 0.423462 8.33335V10.3334C0.423462 10.8856 0.881707 11.3334 1.44698 11.3334H2.4705C3.03577 11.3334 3.49402 10.8856 3.49402 10.3334V8.33335C3.49402 7.78107 3.03577 7.33335 2.4705 7.33335Z" fill="white"/>
</svg>
