<svg width="14" height="16" viewBox="0 0 14 16" fill="none" xmlns="http://www.w3.org/2000/svg">
<path d="M13.625 5H13V7H13.625C13.875 7 14 7.125 14 7.375V8.625C14 8.875 13.875 9 13.625 9H13V11H13.625C13.875 11 14 11.125 14 11.375V12.625C14 12.875 13.875 13 13.625 13H13V14.5C13 14.9167 12.8542 15.2708 12.5625 15.5625C12.2708 15.8542 11.9167 16 11.5 16H1.5C1.08333 16 0.729167 15.8542 0.4375 15.5625C0.145833 15.2708 0 14.9167 0 14.5V1.5C0 1.08333 0.145833 0.729167 0.4375 0.4375C0.729167 0.145833 1.08333 0 1.5 0H11.5C11.9167 0 12.2708 0.145833 12.5625 0.4375C12.8542 0.729167 13 1.08333 13 1.5V3H13.625C13.875 3 14 3.125 14 3.375V4.625C14 4.875 13.875 5 13.625 5ZM11.5 14.5V1.5H1.5V14.5H11.5ZM7.90625 7.40625C7.51042 7.80208 7.04167 8 6.5 8C5.95833 8 5.48958 7.80208 5.09375 7.40625C4.69792 7.01042 4.5 6.54167 4.5 6C4.5 5.45833 4.69792 4.98958 5.09375 4.59375C5.48958 4.19792 5.95833 4 6.5 4C7.04167 4 7.51042 4.19792 7.90625 4.59375C8.30208 4.98958 8.5 5.45833 8.5 6C8.5 6.54167 8.30208 7.01042 7.90625 7.40625ZM3.6875 12C3.5 12 3.33333 11.9479 3.1875 11.8438C3.0625 11.7188 3 11.5729 3 11.4062V10.8125C3 10.3125 3.19792 9.88542 3.59375 9.53125C4.01042 9.17708 4.51042 9 5.09375 9C5.17708 9 5.35417 9.04167 5.625 9.125C5.89583 9.20833 6.1875 9.25 6.5 9.25C6.8125 9.25 7.10417 9.20833 7.375 9.125C7.64583 9.04167 7.82292 9 7.90625 9C8.48958 9 8.97917 9.17708 9.375 9.53125C9.79167 9.88542 10 10.3125 10 10.8125V11.4062C10 11.5729 9.92708 11.7188 9.78125 11.8438C9.65625 11.9479 9.5 12 9.3125 12H3.6875Z" fill="#8181A5"/>
</svg>
