<svg width="12" height="16" viewBox="0 0 12 16" fill="none" xmlns="http://www.w3.org/2000/svg">
<path d="M10.5 2C10.9167 2 11.2708 2.14583 11.5625 2.4375C11.8542 2.72917 12 3.08333 12 3.5V14.5C12 14.9167 11.8542 15.2708 11.5625 15.5625C11.2708 15.8542 10.9167 16 10.5 16H1.5C1.08333 16 0.729167 15.8542 0.4375 15.5625C0.145833 15.2708 0 14.9167 0 14.5V3.5C0 3.08333 0.145833 2.72917 0.4375 2.4375C0.729167 2.14583 1.08333 2 1.5 2H4C4 1.45833 4.19792 0.989583 4.59375 0.59375C4.98958 0.197917 5.45833 0 6 0C6.54167 0 7.01042 0.197917 7.40625 0.59375C7.80208 0.989583 8 1.45833 8 2H10.5ZM6.53125 1.46875C6.38542 1.32292 6.20833 1.25 6 1.25C5.79167 1.25 5.61458 1.32292 5.46875 1.46875C5.32292 1.61458 5.25 1.79167 5.25 2C5.25 2.20833 5.32292 2.38542 5.46875 2.53125C5.61458 2.67708 5.79167 2.75 6 2.75C6.20833 2.75 6.38542 2.67708 6.53125 2.53125C6.67708 2.38542 6.75 2.20833 6.75 2C6.75 1.79167 6.67708 1.61458 6.53125 1.46875ZM10.5 14.3125V3.6875C10.5 3.5625 10.4375 3.5 10.3125 3.5H9V4.625C9 4.875 8.875 5 8.625 5H3.375C3.125 5 3 4.875 3 4.625V3.5H1.6875C1.5625 3.5 1.5 3.5625 1.5 3.6875V14.3125C1.5 14.4375 1.5625 14.5 1.6875 14.5H10.3125C10.4375 14.5 10.5 14.4375 10.5 14.3125ZM7.40625 11C7.98958 11 8.47917 11.1771 8.875 11.5312C9.29167 11.8854 9.5 12.3125 9.5 12.8125V13C9.5 13.1458 9.44792 13.2708 9.34375 13.375C9.26042 13.4583 9.14583 13.5 9 13.5H3C2.85417 13.5 2.72917 13.4583 2.625 13.375C2.54167 13.2708 2.5 13.1458 2.5 13V12.8125C2.5 12.3125 2.69792 11.8854 3.09375 11.5312C3.51042 11.1771 4.01042 11 4.59375 11H4.75C5.14583 11.1667 5.5625 11.25 6 11.25C6.4375 11.25 6.85417 11.1667 7.25 11H7.40625ZM7.40625 9.90625C7.01042 10.3021 6.54167 10.5 6 10.5C5.45833 10.5 4.98958 10.3021 4.59375 9.90625C4.19792 9.51042 4 9.04167 4 8.5C4 7.95833 4.19792 7.48958 4.59375 7.09375C4.98958 6.69792 5.45833 6.5 6 6.5C6.54167 6.5 7.01042 6.69792 7.40625 7.09375C7.80208 7.48958 8 7.95833 8 8.5C8 9.04167 7.80208 9.51042 7.40625 9.90625Z" fill="#8181A5"/>
</svg>
