<svg width="18" height="14" viewBox="0 0 18 14" fill="none" xmlns="http://www.w3.org/2000/svg">
<path d="M3.28125 8.3125C3.48958 8.10417 3.72917 8 4 8C4.27083 8 4.5 8.10417 4.6875 8.3125C4.89583 8.5 5 8.72917 5 9C5 9.27083 4.89583 9.51042 4.6875 9.71875C4.5 9.90625 4.27083 10 4 10C3.72917 10 3.48958 9.90625 3.28125 9.71875C3.09375 9.51042 3 9.27083 3 9C3 8.72917 3.09375 8.5 3.28125 8.3125ZM8.84375 4.96875C8.67708 4.94792 8.53125 4.89583 8.40625 4.8125C8.28125 4.70833 8.17708 4.59375 8.09375 4.46875C8.03125 4.32292 8 4.16667 8 4C8 3.72917 8.09375 3.5 8.28125 3.3125C8.48958 3.10417 8.72917 3 9 3C9.16667 3 9.33333 3.05208 9.5 3.15625C9.39583 3.30208 9.34375 3.39583 9.34375 3.4375L8.84375 4.96875ZM4.78125 4.8125C4.98958 4.60417 5.22917 4.5 5.5 4.5C5.77083 4.5 6 4.60417 6.1875 4.8125C6.39583 5 6.5 5.22917 6.5 5.5C6.5 5.77083 6.39583 6.01042 6.1875 6.21875C6 6.40625 5.77083 6.5 5.5 6.5C5.22917 6.5 4.98958 6.40625 4.78125 6.21875C4.59375 6.01042 4.5 5.77083 4.5 5.5C4.5 5.22917 4.59375 5 4.78125 4.8125ZM2.625 2.65625C4.39583 0.885417 6.52083 0 9 0C11.4792 0 13.5938 0.885417 15.3438 2.65625C17.1146 4.40625 18 6.52083 18 9C18 10.625 17.5938 12.1354 16.7812 13.5312C16.5938 13.8438 16.3125 14 15.9375 14H2.0625C1.6875 14 1.40625 13.8438 1.21875 13.5312C0.40625 12.1354 0 10.625 0 9C0 6.52083 0.875 4.40625 2.625 2.65625ZM15.625 12.5C16.2083 11.4167 16.5 10.25 16.5 9C16.5 6.9375 15.7604 5.17708 14.2812 3.71875C12.8229 2.23958 11.0625 1.5 9 1.5C6.9375 1.5 5.16667 2.23958 3.6875 3.71875C2.22917 5.17708 1.5 6.9375 1.5 9C1.5 10.25 1.79167 11.4167 2.375 12.5H15.625ZM13.2812 9.71875C13.0938 9.51042 13 9.27083 13 9C13 8.72917 13.0938 8.5 13.2812 8.3125C13.4896 8.10417 13.7292 8 14 8C14.2708 8 14.5 8.10417 14.6875 8.3125C14.8958 8.5 15 8.72917 15 9C15 9.27083 14.8958 9.51042 14.6875 9.71875C14.5 9.90625 14.2708 10 14 10C13.7292 10 13.4896 9.90625 13.2812 9.71875ZM10.6562 3.34375C10.8438 3.23958 11.0312 3.21875 11.2188 3.28125C11.4271 3.34375 11.5729 3.46875 11.6562 3.65625C11.7604 3.84375 11.7812 4.04167 11.7188 4.25L10.2812 8.5C10.7604 8.89583 11 9.39583 11 10C11 10.3542 10.9062 10.6875 10.7188 11H7.28125C7.09375 10.6875 7 10.3542 7 10C7 9.64583 7.08333 9.32292 7.25 9.03125C7.41667 8.73958 7.63542 8.5 7.90625 8.3125C8.19792 8.125 8.52083 8.02083 8.875 8L10.2812 3.75C10.3438 3.5625 10.4688 3.42708 10.6562 3.34375ZM13.5 5.5C13.5 5.77083 13.3958 6.01042 13.1875 6.21875C13 6.40625 12.7708 6.5 12.5 6.5C12.3542 6.5 12.2083 6.45833 12.0625 6.375L12.6562 4.5625C12.6562 4.5625 12.6562 4.55208 12.6562 4.53125C12.9062 4.57292 13.1042 4.6875 13.25 4.875C13.4167 5.04167 13.5 5.25 13.5 5.5Z" fill="#8181A5"/>
</svg>
