<svg width="740" height="814" viewBox="0 0 740 814" fill="none" xmlns="http://www.w3.org/2000/svg">
<path opacity="0.2" d="M157.88 341.883C135.328 360.264 113.48 380.832 99.7521 406.78C79.564 444.93 79.8753 492.921 100.593 528.296C118.134 558.289 147.714 577.818 173.021 600.986C204.2 629.519 229.426 664.291 253.301 699.65C266.13 718.643 279.066 738.338 297.803 751.058C323.82 768.715 358.894 770.462 389.526 759.125C420.157 747.789 446.377 724.386 465.206 696.574C475.226 681.774 483.515 665.048 484.71 647.455C485.975 628.84 479.231 610.845 480.632 592.23C481.929 574.98 490.137 558.664 499.732 543.996C512.258 524.845 527.421 507.554 544.773 492.635C564.441 475.745 586.59 462.269 606.322 445.516C626.053 428.763 643.913 407.552 650.09 382.318C655.9 358.596 650.794 334.272 644.596 311.42C634.505 274.078 621.391 237.62 605.384 202.408C594.637 178.81 582.364 155.535 564.39 137.47C530.029 102.925 475.317 91.5729 428.067 109.175C388.92 123.761 357.308 155.415 330.085 188.549C305.26 218.764 282.614 257.198 250.432 279.624C219.726 300.999 187.337 317.884 157.88 341.883Z" fill="#1B51E5"/>
<path d="M491.32 383.097C491.32 383.097 553.988 330.586 567.924 304.111C581.86 277.635 599.6 254.82 599.6 254.82" stroke="#535461" stroke-width="2"/>
<path d="M591.36 314.007L564.251 307.895C564.251 307.895 570.648 336.487 591.36 314.007Z" fill="#1B51E5"/>
<path d="M549.937 284.82L565.535 308.181C565.535 308.181 535.039 310.384 549.937 284.82Z" fill="#1B51E5"/>
<path d="M602.026 292.048L577.25 287.705C577.25 287.705 592.812 311.376 602.026 292.048Z" fill="#1B51E5"/>
<path d="M565.362 271.169L577.566 287.153C577.566 287.153 555.961 289.2 565.362 271.169Z" fill="#1B51E5"/>
<path d="M590.063 267.986C590.063 267.986 611.159 268.992 613.641 271.008C616.123 273.025 610.495 284.845 602.472 282.915C594.45 280.985 590.063 267.986 590.063 267.986Z" fill="#1B51E5"/>
<path d="M581.631 249.13C581.631 249.13 590.249 264.834 589.926 267.825C589.604 270.816 576.791 274.173 574.203 262.861C571.616 251.55 581.631 249.13 581.631 249.13Z" fill="#1B51E5"/>
<path d="M608.432 261.124C609.407 258.035 607.694 254.739 604.604 253.764C601.515 252.788 598.219 254.502 597.244 257.591C596.268 260.681 597.982 263.976 601.071 264.952C604.161 265.927 607.456 264.214 608.432 261.124Z" fill="#FFD037"/>
<path d="M599.248 255.087C600.224 251.998 598.51 248.703 595.421 247.727C592.331 246.751 589.036 248.465 588.06 251.554C587.085 254.644 588.798 257.939 591.888 258.915C594.977 259.89 598.273 258.177 599.248 255.087Z" fill="#FFD037"/>
<path d="M295.852 588.94C295.852 588.94 305.91 559.02 242.15 522.952C242.15 522.952 177.409 504.071 184.03 439.231C184.03 439.231 109.399 493.908 159.899 563.556C210.4 633.205 253.988 618.003 253.988 618.003L295.852 588.94Z" fill="#1B51E5"/>
<path d="M276.412 602.454C276.412 602.454 245.302 568.83 215.482 555.831C209.525 553.15 204.051 549.504 199.281 545.041C180.27 527.668 171.98 501.453 176.882 476.168L184.048 439.231" stroke="#535461" stroke-width="2"/>
<rect x="198.816" y="213.285" width="354.05" height="411.084" fill="url(#paint0_linear)"/>
<rect x="202.942" y="218.069" width="345.804" height="401.504" fill="#F7F7FD"/>
<rect x="223.827" y="263.327" width="87.4188" height="6.96174" fill="#E2E2EC"/>
<rect x="223.827" y="280.346" width="149.305" height="6.96174" fill="#E2E2EC"/>
<rect x="470.144" y="256.675" width="62.0414" height="53.5346" fill="white"/>
<path fill-rule="evenodd" clip-rule="evenodd" d="M469.808 256.365H532.476V310.52H469.808V256.365ZM531.856 309.9V256.985H470.429V309.9H531.856Z" fill="#E2E2EC"/>
<rect x="407.482" y="256.675" width="62.0414" height="53.5346" fill="white"/>
<path fill-rule="evenodd" clip-rule="evenodd" d="M407.14 256.365H469.808V310.52H407.14V256.365ZM469.188 309.9V256.985H407.761V309.9H469.188Z" fill="#E2E2EC"/>
<rect x="470.144" y="310.83" width="62.0414" height="53.5346" fill="white"/>
<path fill-rule="evenodd" clip-rule="evenodd" d="M469.808 310.52H532.476V364.675H469.808V310.52ZM531.856 364.055V311.14H470.429V364.055H531.856Z" fill="#E2E2EC"/>
<rect x="407.482" y="310.83" width="62.0414" height="53.5346" fill="white"/>
<path fill-rule="evenodd" clip-rule="evenodd" d="M407.14 310.52H469.808V364.675H407.14V310.52ZM469.188 364.055V311.14H407.761V364.055H469.188Z" fill="#E2E2EC"/>
<rect x="344.82" y="310.83" width="62.0414" height="53.5346" fill="white"/>
<path fill-rule="evenodd" clip-rule="evenodd" d="M344.503 310.52H407.171V364.675H344.503V310.52ZM406.551 364.055V311.14H345.124V364.055H406.551Z" fill="#E2E2EC"/>
<rect x="282.158" y="310.83" width="62.0414" height="53.5346" fill="white"/>
<path fill-rule="evenodd" clip-rule="evenodd" d="M281.842 310.52H344.51V364.675H281.842V310.52ZM343.889 364.055V311.14H282.462V364.055H343.889Z" fill="#E2E2EC"/>
<rect x="219.496" y="310.83" width="62.0414" height="53.5346" fill="white"/>
<path fill-rule="evenodd" clip-rule="evenodd" d="M219.18 310.52H281.848V364.675H219.18V310.52ZM281.227 364.055V311.14H219.8V364.055H281.227Z" fill="#E2E2EC"/>
<rect x="470.144" y="364.979" width="62.0414" height="53.5346" fill="white"/>
<path fill-rule="evenodd" clip-rule="evenodd" d="M469.808 364.675H532.476V418.83H469.808V364.675ZM531.856 418.21V365.296H470.429V418.21H531.856Z" fill="#E2E2EC"/>
<rect x="407.482" y="364.979" width="62.0414" height="53.5346" fill="white"/>
<path fill-rule="evenodd" clip-rule="evenodd" d="M407.14 364.675H469.808V418.83H407.14V364.675ZM469.188 418.21V365.296H407.761V418.21H469.188Z" fill="#E2E2EC"/>
<rect x="344.82" y="364.979" width="62.0414" height="53.5346" fill="white"/>
<path fill-rule="evenodd" clip-rule="evenodd" d="M344.503 364.675H407.171V418.83H344.503V364.675ZM406.551 418.21V365.296H345.124V418.21H406.551Z" fill="#E2E2EC"/>
<rect x="282.158" y="364.979" width="62.0414" height="53.5346" fill="white"/>
<path fill-rule="evenodd" clip-rule="evenodd" d="M281.842 364.675H344.51V418.83H281.842V364.675ZM343.889 418.21V365.296H282.462V418.21H343.889Z" fill="#E2E2EC"/>
<rect x="219.496" y="364.979" width="62.0414" height="53.5346" fill="white"/>
<path fill-rule="evenodd" clip-rule="evenodd" d="M219.18 364.675H281.848V418.83H219.18V364.675ZM281.227 418.21V365.296H219.8V418.21H281.227Z" fill="#E2E2EC"/>
<rect x="470.144" y="419.134" width="62.0414" height="53.5346" fill="white"/>
<path fill-rule="evenodd" clip-rule="evenodd" d="M469.808 418.824H532.476V472.979H469.808V418.824ZM531.856 472.359V419.445H470.429V472.359H531.856Z" fill="#E2E2EC"/>
<rect x="407.482" y="419.134" width="62.0414" height="53.5346" fill="white"/>
<path fill-rule="evenodd" clip-rule="evenodd" d="M407.14 418.824H469.808V472.979H407.14V418.824ZM469.188 472.359V419.445H407.761V472.359H469.188Z" fill="#E2E2EC"/>
<rect x="344.82" y="419.134" width="62.0414" height="53.5346" fill="white"/>
<path fill-rule="evenodd" clip-rule="evenodd" d="M344.503 418.824H407.171V472.979H344.503V418.824ZM406.551 472.359V419.445H345.124V472.359H406.551Z" fill="#E2E2EC"/>
<rect x="282.158" y="419.134" width="62.0414" height="53.5346" fill="white"/>
<path fill-rule="evenodd" clip-rule="evenodd" d="M281.842 418.824H344.51V472.979H281.842V418.824ZM343.889 472.359V419.445H282.462V472.359H343.889Z" fill="#E2E2EC"/>
<rect x="219.496" y="419.134" width="62.0414" height="53.5346" fill="white"/>
<path fill-rule="evenodd" clip-rule="evenodd" d="M219.18 418.824H281.848V472.979H219.18V418.824ZM281.227 472.359V419.445H219.8V472.359H281.227Z" fill="#E2E2EC"/>
<rect x="470.144" y="473.283" width="62.0414" height="53.5346" fill="white"/>
<path fill-rule="evenodd" clip-rule="evenodd" d="M469.808 472.979H532.476V527.128H469.808V472.979ZM531.856 526.508V473.6H470.429V526.508H531.856Z" fill="#E2E2EC"/>
<rect x="407.482" y="473.283" width="62.0414" height="53.5346" fill="white"/>
<path fill-rule="evenodd" clip-rule="evenodd" d="M407.14 472.979H469.808V527.128H407.14V472.979ZM469.188 526.508V473.6H407.761V526.508H469.188Z" fill="#E2E2EC"/>
<rect x="344.82" y="473.283" width="62.0414" height="53.5346" fill="white"/>
<path fill-rule="evenodd" clip-rule="evenodd" d="M344.503 472.979H407.171V527.128H344.503V472.979ZM406.551 526.508V473.6H345.124V526.508H406.551Z" fill="#E2E2EC"/>
<rect x="282.158" y="473.283" width="62.0414" height="53.5346" fill="white"/>
<path fill-rule="evenodd" clip-rule="evenodd" d="M281.842 472.979H344.51V527.128H281.842V472.979ZM343.889 526.508V473.6H282.462V526.508H343.889Z" fill="#E2E2EC"/>
<rect x="219.496" y="473.283" width="62.0414" height="53.5346" fill="white"/>
<path fill-rule="evenodd" clip-rule="evenodd" d="M219.18 472.979H281.848V527.128H219.18V472.979ZM281.227 526.508V473.6H219.8V526.508H281.227Z" fill="#E2E2EC"/>
<rect x="470.144" y="527.438" width="62.0414" height="53.5346" fill="white"/>
<path fill-rule="evenodd" clip-rule="evenodd" d="M469.808 527.128H532.476V581.283H469.808V527.128ZM531.856 580.663V527.749H470.429V580.663H531.856Z" fill="#E2E2EC"/>
<rect x="407.482" y="527.438" width="62.0414" height="53.5346" fill="white"/>
<path fill-rule="evenodd" clip-rule="evenodd" d="M407.14 527.128H469.808V581.283H407.14V527.128ZM469.188 580.663V527.749H407.761V580.663H469.188Z" fill="#E2E2EC"/>
<rect x="344.82" y="527.438" width="62.0414" height="53.5346" fill="white"/>
<path fill-rule="evenodd" clip-rule="evenodd" d="M344.503 527.128H407.171V581.283H344.503V527.128ZM406.551 580.663V527.749H345.124V580.663H406.551Z" fill="#E2E2EC"/>
<rect x="282.158" y="527.438" width="62.0414" height="53.5346" fill="white"/>
<path fill-rule="evenodd" clip-rule="evenodd" d="M281.842 527.128H344.51V581.283H281.842V527.128ZM343.889 580.663V527.749H282.462V580.663H343.889Z" fill="#E2E2EC"/>
<rect x="219.496" y="527.438" width="62.0414" height="53.5346" fill="white"/>
<path fill-rule="evenodd" clip-rule="evenodd" d="M219.18 527.128H281.848V581.283H219.18V527.128ZM281.227 580.663V527.749H219.8V580.663H281.227Z" fill="#E2E2EC"/>
<path d="M349.808 630.053C351.583 628.706 353.252 627.118 353.767 625.182C354.316 623.054 353.098 620.87 351 620.218C348.462 619.424 345.751 620.839 343.691 622.309C341.631 623.78 339.279 625.411 336.586 625.107C339.372 623.091 340.7 619.821 339.931 616.849C339.799 616.209 339.474 615.624 339 615.174C337.591 613.933 335.035 614.472 333.347 615.44C327.98 618.543 326.485 624.468 326.454 629.823C325.914 627.893 326.367 625.883 326.355 623.898C326.342 621.912 325.678 619.722 323.631 618.654C322.32 618.086 320.901 617.813 319.473 617.854C317.06 617.78 314.373 617.978 312.729 619.418C310.681 621.205 311.215 624.208 312.996 626.175C314.776 628.142 317.488 629.376 319.976 630.735C321.875 631.771 323.798 632.981 324.94 634.619C325.09 634.836 325.214 635.069 325.312 635.314H340.433C343.764 633.955 346.913 632.188 349.808 630.053Z" fill="#1B51E5"/>
<path d="M227.68 322.508C229.633 322.508 231.217 320.924 231.217 318.971C231.217 317.018 229.633 315.434 227.68 315.434C225.727 315.434 224.143 317.018 224.143 318.971C224.143 320.924 225.727 322.508 227.68 322.508Z" fill="#FC6681"/>
<path d="M236.516 322.508C238.469 322.508 240.052 320.924 240.052 318.971C240.052 317.018 238.469 315.434 236.516 315.434C234.562 315.434 232.979 317.018 232.979 318.971C232.979 320.924 234.562 322.508 236.516 322.508Z" fill="#FFD037"/>
<path d="M352.569 374.938C354.523 374.938 356.106 373.354 356.106 371.401C356.106 369.448 354.523 367.864 352.569 367.864C350.616 367.864 349.033 369.448 349.033 371.401C349.033 373.354 350.616 374.938 352.569 374.938Z" fill="#1B51E5"/>
<path d="M361.411 374.938C363.364 374.938 364.948 373.354 364.948 371.401C364.948 369.448 363.364 367.864 361.411 367.864C359.458 367.864 357.875 369.448 357.875 371.401C357.875 373.354 359.458 374.938 361.411 374.938Z" fill="#1B51E5"/>
<path d="M541.672 476.261C543.625 476.261 545.209 474.678 545.209 472.725C545.209 470.771 543.625 469.188 541.672 469.188C539.719 469.188 538.135 470.771 538.135 472.725C538.135 474.678 539.719 476.261 541.672 476.261Z" fill="#1B51E5"/>
<path d="M543.44 472.142C545.394 472.142 546.977 470.558 546.977 468.605C546.977 466.652 545.394 465.068 543.44 465.068C541.487 465.068 539.904 466.652 539.904 468.605C539.904 470.558 541.487 472.142 543.44 472.142Z" fill="#1B51E5"/>
<path d="M545.209 468.605C547.162 468.605 548.745 467.021 548.745 465.068C548.745 463.115 547.162 461.531 545.209 461.531C543.255 461.531 541.672 463.115 541.672 465.068C541.672 467.021 543.255 468.605 545.209 468.605Z" fill="#1B51E5"/>
<path d="M479.227 322.508C481.18 322.508 482.764 320.924 482.764 318.971C482.764 317.018 481.18 315.434 479.227 315.434C477.274 315.434 475.69 317.018 475.69 318.971C475.69 320.924 477.274 322.508 479.227 322.508Z" fill="#1B51E5"/>
<path d="M488.063 322.508C490.016 322.508 491.6 320.924 491.6 318.971C491.6 317.018 490.016 315.434 488.063 315.434C486.11 315.434 484.526 317.018 484.526 318.971C484.526 320.924 486.11 322.508 488.063 322.508Z" fill="#1B51E5"/>
<path d="M496.905 322.508C498.858 322.508 500.441 320.924 500.441 318.971C500.441 317.018 498.858 315.434 496.905 315.434C494.951 315.434 493.368 317.018 493.368 318.971C493.368 320.924 494.951 322.508 496.905 322.508Z" fill="#1B51E5"/>
<path d="M505.74 322.508C507.693 322.508 509.277 320.924 509.277 318.971C509.277 317.018 507.693 315.434 505.74 315.434C503.787 315.434 502.203 317.018 502.203 318.971C502.203 320.924 503.787 322.508 505.74 322.508Z" fill="#1B51E5"/>
<path d="M479.227 432.077C481.18 432.077 482.764 430.494 482.764 428.541C482.764 426.587 481.18 425.004 479.227 425.004C477.274 425.004 475.69 426.587 475.69 428.541C475.69 430.494 477.274 432.077 479.227 432.077Z" fill="#1B51E5"/>
<path d="M488.063 432.077C490.016 432.077 491.6 430.494 491.6 428.541C491.6 426.587 490.016 425.004 488.063 425.004C486.11 425.004 484.526 426.587 484.526 428.541C484.526 430.494 486.11 432.077 488.063 432.077Z" fill="#1B51E5"/>
<path d="M496.905 432.077C498.858 432.077 500.441 430.494 500.441 428.541C500.441 426.587 498.858 425.004 496.905 425.004C494.951 425.004 493.368 426.587 493.368 428.541C493.368 430.494 494.951 432.077 496.905 432.077Z" fill="#1B51E5"/>
<path d="M505.74 432.077C507.693 432.077 509.277 430.494 509.277 428.541C509.277 426.587 507.693 425.004 505.74 425.004C503.787 425.004 502.203 426.587 502.203 428.541C502.203 430.494 503.787 432.077 505.74 432.077Z" fill="#1B51E5"/>
<path d="M290.125 374.938C292.078 374.938 293.662 373.354 293.662 371.401C293.662 369.448 292.078 367.864 290.125 367.864C288.172 367.864 286.588 369.448 286.588 371.401C286.588 373.354 288.172 374.938 290.125 374.938Z" fill="#FFD037"/>
<path d="M227.68 428.547C229.633 428.547 231.217 426.963 231.217 425.01C231.217 423.057 229.633 421.474 227.68 421.474C225.727 421.474 224.143 423.057 224.143 425.01C224.143 426.963 225.727 428.547 227.68 428.547Z" fill="#FC6681"/>
<path fill-rule="evenodd" clip-rule="evenodd" d="M556.21 480.456C548.547 485.376 542.497 483.887 538.619 481.598C537.442 480.92 536.666 479.714 536.537 478.362C536.408 477.011 536.941 475.68 537.968 474.791C540.171 472.732 542.085 470.384 543.657 467.811C546.983 462.58 552.561 459.751 556.377 458.348V456.648L556.141 456.605L556.247 455.023H556.141L556.414 450.847V450.81L557.773 429.943C557.773 429.943 562.669 416.069 553.97 403.263C545.271 390.456 553.424 378.177 561.577 373.374C561.577 373.374 565.386 353.091 562.123 348.288C566.542 345.72 571.099 343.396 575.773 341.327C575.844 341.074 575.91 340.818 575.972 340.557C576.038 339.113 576.122 337.654 576.206 336.217C576.231 335.771 576.257 335.327 576.282 334.886C576.174 333.905 575.995 332.932 575.748 331.976C575.649 331.579 575.531 331.176 575.401 330.766C567.423 327.671 562.151 320.009 562.11 311.451C562.105 309.018 562.534 306.604 563.376 304.321C562.962 303.608 562.647 302.842 562.439 302.044C561.912 299.879 562.489 297.577 563.73 295.387C565.889 290.621 571.324 286.179 575.271 284.566C580.923 282.27 589.43 282.797 595.312 283.511C598.613 283.908 602.385 285.018 603.577 288.071C603.839 288.736 603.95 289.443 604.06 290.151C604.136 290.632 604.211 291.114 604.334 291.583C605.14 294.644 607.719 296.632 610.328 298.642C611.696 299.697 613.072 300.757 614.206 301.982C617.116 305.128 618.4 309.385 619.343 313.536C622.049 325.433 622.693 337.706 621.248 349.821C620.919 352.607 620.479 355.38 620.007 358.154C621.986 360.946 623.779 365.891 622.96 374.479L629.482 405.434L632.199 423.583C632.199 423.583 633.831 431.06 627.31 437.463C623.147 441.546 618.102 448.452 615 452.919C616.366 456.868 617.05 461.02 617.022 465.198C616.954 467.103 616.849 468.94 616.718 470.69C616.442 474.403 615.743 478.074 614.634 481.629C613.87 489.081 612.363 498.611 609.415 504.692L608.311 537.248C608.311 537.248 609.943 567.136 613.2 573.006C616.458 578.876 606.133 628.514 606.133 628.514V635.445L607.877 640.576L608.311 640.247C616.464 650.404 608.311 654.127 608.311 654.127C608.311 654.127 606.096 654.233 602.547 654.369C603.174 657.291 601.745 660.267 599.072 661.604C599.072 661.604 552.878 663.738 544.725 661.604C536.572 659.469 538.749 651.999 543.093 652.532C544.749 652.737 547.207 652.297 549.602 651.676C547.064 648.704 549.093 644.665 552.332 645.062C556.675 645.596 566.454 641.718 566.454 641.718L566.497 641.78C566.811 641.661 567.132 641.563 567.459 641.488C571.093 640.663 574.682 639.652 578.212 638.46C580.309 633.962 585.142 621.881 581.674 612.506C580.104 608.268 579.595 602.634 579.595 597.167C579.514 580.669 577.103 564.266 572.435 548.441L565.92 526.042C565.92 526.042 556.681 498.797 556.135 491.351L556.21 480.456ZM604.24 426.144C604.24 426.147 604.24 426.149 604.241 426.152L604.234 426.146C604.236 426.145 604.238 426.145 604.24 426.144ZM604.24 426.144C607.181 425.187 611.586 422.935 610.483 418.235C610.297 417.453 610.141 416.597 610.011 415.697C608.729 415.693 607.449 415.678 606.17 415.653C604.582 418.909 603.915 422.537 604.24 426.144Z" fill="url(#paint1_linear)"/>
<path d="M605.314 633.012L607.405 639.285L600.58 646.111L578.094 651.341L561.881 649.771L562.929 644.02C563.561 641.498 565.549 639.542 568.079 638.95C574.743 637.387 587.451 633.813 590.119 628.855L605.314 633.012Z" fill="#DB8B8B"/>
<path opacity="0.1" d="M605.314 633.012L607.405 639.285L600.58 646.111L578.094 651.341L561.881 649.771L562.929 644.02C563.561 641.498 565.549 639.542 568.079 638.95C574.743 637.387 587.451 633.813 590.119 628.855L605.314 633.012Z" fill="black"/>
<path d="M567.136 648.177L570.276 643.995L567.136 639.149C567.136 639.149 557.723 642.946 553.541 642.425C549.359 641.904 547.268 649.25 555.111 651.316C562.954 653.382 607.405 651.316 607.405 651.316C607.405 651.316 615.248 647.655 607.405 637.722L600.58 642.952C600.58 642.952 589.076 649.225 583.324 648.183L567.136 648.177Z" fill="#2E3037"/>
<path d="M553.014 657.056L569.227 658.626L591.713 653.395L598.538 646.57L597.986 644.907L597.204 642.574L596.423 640.303L581.258 636.121C580.483 637.385 579.42 638.448 578.156 639.223C573.229 642.592 564.381 645.025 559.188 646.241C558.977 646.293 558.77 646.357 558.567 646.433C556.332 647.184 554.634 649.023 554.063 651.31L553.014 657.056Z" fill="#DB8B8B"/>
<path opacity="0.1" d="M553.014 657.056L569.227 658.625L591.713 653.395L598.538 646.57L597.986 644.907L591.744 649.709C591.744 649.709 580.241 655.982 574.489 654.94H558.245L561.384 650.758L558.567 646.414C556.332 647.165 554.634 649.004 554.063 651.291L553.014 657.056Z" fill="black"/>
<path d="M558.245 655.498L561.384 651.316L558.245 646.47C558.245 646.47 548.832 650.268 544.65 649.746C540.468 649.225 538.377 656.572 546.22 658.638C554.063 660.704 598.514 658.638 598.514 658.638C598.514 658.638 606.356 654.977 598.514 645.043L591.688 650.274C591.688 650.274 580.185 656.547 574.433 655.504L558.245 655.498Z" fill="#2E3037"/>
<path d="M571.318 352.191C571.318 352.191 596.423 354.803 592.762 344.348C591.738 341.383 591.471 338.21 591.986 335.116C592.637 331.28 594.155 327.642 596.423 324.481L572.888 328.142C574.298 330.5 575.372 333.043 576.077 335.699C578.882 346.787 571.318 352.191 571.318 352.191Z" fill="#DB8B8B"/>
<path d="M614.199 471.422C614.199 471.422 613.678 493.908 608.447 504.89L607.399 536.789C607.399 536.789 608.969 566.075 612.108 571.827C615.248 577.579 605.283 626.212 605.283 626.212V634.582C605.283 634.582 588.53 640.855 583.839 633.534L588.549 571.3L586.458 485.016L614.199 471.422Z" fill="#474463"/>
<path opacity="0.1" d="M614.199 471.422C614.199 471.422 613.678 493.908 608.447 504.89L607.399 536.789C607.399 536.789 608.969 566.075 612.108 571.827C615.248 577.579 605.283 626.212 605.283 626.212V634.582C605.283 634.582 588.53 640.855 583.839 633.534L588.549 571.3L586.458 485.016L614.199 471.422Z" fill="black"/>
<path d="M624.661 399.254L627.8 407.624L630.412 425.407C631.128 430.433 629.375 435.496 625.703 439.002C619.43 445.275 611.06 458.348 611.06 458.348L601.132 428.566C601.132 428.566 611.06 426.996 609.502 420.195C607.945 413.395 608.447 400.799 608.447 400.799L624.661 399.254Z" fill="#FC6681"/>
<path opacity="0.05" d="M624.661 399.254L627.8 407.624L630.412 425.407C631.128 430.433 629.375 435.496 625.703 439.002C619.43 445.275 611.06 458.348 611.06 458.348L601.132 428.566C601.132 428.566 611.06 426.996 609.502 420.195C607.945 413.395 608.447 400.799 608.447 400.799L624.661 399.254Z" fill="black"/>
<path opacity="0.1" d="M578.181 639.229C584.888 649.778 595.331 643.802 597.18 642.611L596.423 640.303L581.258 636.121C580.491 637.385 579.437 638.45 578.181 639.229H578.181Z" fill="black"/>
<path d="M557.202 491.817C557.724 499.139 566.615 525.807 566.615 525.807L572.888 547.753C577.383 563.27 579.703 579.337 579.782 595.492C579.782 600.847 580.272 606.369 581.786 610.52C585.968 622.024 577.604 637.716 577.604 637.716C584.925 650.789 597.459 641.898 597.459 641.898V633.534C597.459 633.534 607.386 588.034 604.78 579.149C602.174 570.264 601.12 546.202 601.12 546.202V502.768C609.497 494.421 614.591 483.339 615.471 471.546C615.595 469.833 615.695 468.034 615.763 466.166C616.185 454.377 608.119 440.535 604.967 435.608C604.21 434.417 603.726 433.747 603.726 433.747L557.55 452.063L557.444 452.106V453.893V457.846L557.202 491.817Z" fill="#474463"/>
<path opacity="0.1" d="M572.888 328.135C574.298 330.493 575.372 333.037 576.077 335.693C581.242 337.652 586.979 337.442 591.986 335.109C592.638 331.276 594.155 327.641 596.423 324.481L572.888 328.135Z" fill="black"/>
<path d="M583.349 335.972C594.613 335.972 603.744 326.841 603.744 315.577C603.744 304.313 594.613 295.182 583.349 295.182C572.085 295.182 562.954 304.313 562.954 315.577C562.954 326.841 572.085 335.972 583.349 335.972Z" fill="#DB8B8B"/>
<path opacity="0.1" d="M557.202 457.827L557.426 457.871C579.353 462.381 606.884 439.523 606.884 439.523C606.146 438.279 605.509 436.978 604.979 435.633C604.222 434.441 603.738 433.771 603.738 433.771L557.562 452.088L557.444 453.918L557.202 457.827Z" fill="black"/>
<path d="M562.954 351.664C562.954 351.664 592.241 333.881 601.653 341.203L614.727 357.955C614.727 357.955 623.097 360.568 621.552 377.302L627.8 407.624L608.975 412.334C608.975 412.334 597.992 422.795 606.884 437.96C606.884 437.96 579.167 460.967 557.202 456.264L558.772 431.687C558.772 431.687 563.482 418.092 555.111 405.54C546.741 392.987 554.59 380.963 562.433 376.253C562.433 376.247 566.088 356.373 562.954 351.664Z" fill="#FC6681"/>
<path d="M561.384 458.348C561.384 458.348 550.402 460.439 545.171 468.81C543.662 471.32 541.821 473.616 539.699 475.635C538.731 476.513 538.233 477.796 538.355 479.097C538.477 480.399 539.205 481.566 540.319 482.249C544.47 484.731 551.239 486.276 559.79 479.252C574.458 467.24 561.384 458.348 561.384 458.348Z" fill="#DB8B8B"/>
<path opacity="0.1" d="M577.598 361.604C577.598 361.604 588.059 360.555 590.671 387.751C593.283 414.946 597.496 421.219 597.496 421.219C597.496 421.219 600.108 435.341 593.835 443.705C587.562 452.069 575.531 469.852 575.531 469.852C575.531 469.852 562.458 473.513 559.846 460.439L576.059 430.111C576.059 430.111 578.671 419.649 572.398 412.328C566.125 405.006 561.384 356.373 577.598 361.604Z" fill="black"/>
<path d="M576.53 360.034C576.53 360.034 586.991 358.985 589.604 386.181C592.216 413.376 596.429 419.649 596.429 419.649C596.429 419.649 599.041 433.771 592.768 442.135C586.495 450.499 574.464 468.282 574.464 468.282C574.464 468.282 561.391 471.943 558.778 458.87L574.991 428.541C574.991 428.541 577.604 418.079 571.331 410.758C565.058 403.436 560.336 354.803 576.53 360.034Z" fill="#FC6681"/>
<path opacity="0.1" d="M567.918 379.641C567.918 379.641 566.876 395.835 571.566 404.745C576.257 413.655 576.276 425.14 571.566 431.426" fill="black"/>
<path opacity="0.1" d="M565.306 359.773C565.306 359.773 569.488 355.591 581.519 355.064C593.55 354.537 598.774 350.882 598.774 350.882" fill="black"/>
<path opacity="0.1" d="M594.394 289.225C597.571 289.616 601.219 290.708 602.348 293.693C602.77 294.791 602.783 296.001 603.074 297.136C604.259 301.703 609.403 303.831 612.574 307.325C615.372 310.427 616.607 314.578 617.537 318.642C620.148 330.296 620.778 342.307 619.399 354.17C618.381 362.857 616.296 371.382 615.713 380.094C615.13 388.805 616.197 397.97 620.956 405.291C623.004 408.437 625.709 411.205 627.161 414.667C624.164 417.099 620.026 417.447 616.16 417.577C611.664 417.73 607.165 417.73 602.665 417.577C600.307 417.496 597.844 417.341 595.808 416.15C594.301 415.186 593.063 413.856 592.21 412.284C589.635 407.941 588.989 402.667 589.107 397.604C589.225 392.541 590.019 387.502 590.112 382.433C590.162 379.672 589.945 376.737 588.356 374.479C587.209 372.847 585.465 371.749 583.976 370.427C578.392 365.463 576.456 357.509 576.27 350.032C576.083 342.555 577.318 335.066 576.685 327.614C576.437 324.698 575.345 321.192 572.478 320.628C571.573 320.448 570.617 320.628 569.748 320.28C567.446 319.393 567.67 316.148 567.012 313.771C566.274 311.103 563.997 309.043 563.357 306.326C561.85 299.997 569.904 292.446 575.184 290.243C580.551 287.997 588.735 288.53 594.394 289.225Z" fill="black"/>
<path d="M594.915 288.183C598.092 288.574 601.74 289.666 602.869 292.65C603.291 293.749 603.304 294.959 603.595 296.094C604.78 300.661 609.924 302.789 613.095 306.282C615.893 309.385 617.128 313.536 618.059 317.6C620.67 329.254 621.299 341.265 619.92 353.128C618.903 361.815 616.818 370.34 616.234 379.052C615.651 387.763 616.718 396.927 621.477 404.249C623.525 407.395 626.23 410.162 627.682 413.624C624.685 416.057 620.547 416.404 616.681 416.535C612.185 416.688 607.686 416.688 603.186 416.535C600.828 416.454 598.365 416.299 596.33 415.107C594.823 414.144 593.585 412.814 592.731 411.242C590.156 406.899 589.511 401.624 589.628 396.561C589.746 391.498 590.541 386.46 590.634 381.391C590.683 378.63 590.466 375.695 588.878 373.436C587.73 371.804 585.986 370.706 584.497 369.385C578.913 364.421 576.977 356.466 576.791 348.99C576.605 341.513 577.839 334.024 577.207 326.572C576.958 323.656 575.866 320.15 573 319.585C572.094 319.405 571.138 319.585 570.27 319.238C567.968 318.35 568.191 315.105 567.533 312.729C566.795 310.061 564.518 308.001 563.879 305.283C562.371 298.954 570.425 291.403 575.705 289.201C581.072 286.948 589.256 287.482 594.915 288.183Z" fill="#472727"/>
<defs>
<linearGradient id="paint0_linear" x1="552.866" y1="624.363" x2="552.866" y2="213.285" gradientUnits="userSpaceOnUse">
<stop stop-color="#808080" stop-opacity="0.25"/>
<stop offset="0.54" stop-color="#808080" stop-opacity="0.12"/>
<stop offset="1" stop-color="#808080" stop-opacity="0.1"/>
</linearGradient>
<linearGradient id="paint1_linear" x1="632.399" y1="662.559" x2="632.399" y2="282.896" gradientUnits="userSpaceOnUse">
<stop stop-color="#808080" stop-opacity="0.25"/>
<stop offset="0.54" stop-color="#808080" stop-opacity="0.12"/>
<stop offset="1" stop-color="#808080" stop-opacity="0.1"/>
</linearGradient>
</defs>
</svg>
