<svg width="740" height="814" viewBox="0 0 740 814" fill="none" xmlns="http://www.w3.org/2000/svg">
<path opacity="0.2" d="M157.88 341.883C135.328 360.264 113.48 380.832 99.7521 406.78C79.564 444.93 79.8753 492.921 100.593 528.296C118.134 558.289 147.714 577.818 173.021 600.986C204.2 629.519 229.426 664.291 253.301 699.65C266.13 718.643 279.066 738.338 297.803 751.058C323.82 768.715 358.894 770.462 389.526 759.125C420.157 747.789 446.377 724.386 465.206 696.574C475.226 681.774 483.515 665.048 484.71 647.455C485.975 628.84 479.231 610.845 480.632 592.23C481.929 574.98 490.137 558.664 499.732 543.996C512.258 524.845 527.421 507.554 544.773 492.635C564.441 475.745 586.59 462.269 606.322 445.516C626.053 428.763 643.913 407.552 650.09 382.318C655.9 358.596 650.794 334.272 644.596 311.42C634.505 274.078 621.391 237.62 605.384 202.408C594.637 178.81 582.364 155.535 564.39 137.47C530.029 102.925 475.317 91.5729 428.067 109.175C388.92 123.761 357.308 155.415 330.085 188.549C305.26 218.764 282.614 257.198 250.432 279.624C219.726 300.999 187.337 317.884 157.88 341.883Z" fill="#1B51E5"/>
<path d="M385.4 574.466V598.686H392.4L391.045 572.686L385.4 574.466Z" fill="#AAABB0"/>
<path d="M285.4 570.466V594.686H292.4L291.046 568.686L285.4 570.466Z" fill="#AAABB0"/>
<rect x="393.4" y="531.686" width="9" height="42" rx="4.5" fill="#AAABB0"/>
<rect x="282.4" y="522.686" width="9" height="52" rx="4.5" fill="#AAABB0"/>
<path d="M414.4 279.316C414.4 279.316 423.127 275.648 424.436 279.316C425.745 282.984 426.4 314.686 426.4 314.686H418.105L414.4 279.316Z" fill="#AAABB0"/>
<path d="M318.4 279.316C318.4 279.316 309.671 275.648 308.363 279.316C307.054 282.984 306.4 314.686 306.4 314.686H314.69L318.4 279.316Z" fill="#AAABB0"/>
<path d="M319.733 247.357L318.4 274.686H324.4V246.686L319.733 247.357Z" fill="#AAABB0"/>
<path d="M314.4 315.686L316.144 277.106C316.144 277.106 315.491 268.558 336.173 271.188C356.856 273.818 417.4 279.079 417.4 279.079V315.686H314.4Z" fill="#33323D"/>
<path d="M397.4 516.417L394.113 574.568C394.113 574.568 345.904 600.946 287.4 575.865L292.659 514.686L397.4 516.417Z" fill="#33323D"/>
<path d="M351.4 285.856L352.491 323.686H420.4L416.457 273.686L351.4 285.856Z" fill="#444053"/>
<rect x="295.4" y="491.686" width="63" height="80" fill="#4C4981"/>
<path d="M335.424 524.131C335.424 524.131 344.648 516.912 346.183 519.098C347.718 521.283 340.702 530.693 337.842 529.597C334.983 528.501 335.424 524.131 335.424 524.131Z" fill="#FFB9B9"/>
<rect x="171.4" y="312.686" width="417" height="208" fill="#504F60"/>
<path d="M314.847 245.209C314.847 245.209 311.591 214.783 314.847 211.093C318.103 207.403 372.807 172.407 423.387 213.479C423.387 213.479 428.161 213.7 427.295 224.562C426.784 231.436 426.819 238.34 427.399 245.209C427.399 245.209 318.54 253.032 314.847 245.209Z" fill="#33323D"/>
<path opacity="0.1" d="M314.847 245.209C314.847 245.209 311.591 214.783 314.847 211.093C318.103 207.403 372.807 172.407 423.387 213.479C423.387 213.479 428.161 213.7 427.295 224.562C426.784 231.436 426.819 238.34 427.399 245.209C427.399 245.209 318.54 253.032 314.847 245.209Z" fill="black"/>
<path d="M314.847 250.209C314.847 250.209 311.591 219.783 314.847 216.093C318.103 212.403 372.807 177.407 423.387 218.479C423.387 218.479 428.161 218.7 427.295 229.562C426.784 236.436 426.819 243.34 427.399 250.209C427.399 250.209 318.54 258.032 314.847 250.209Z" fill="#33323D"/>
<path d="M429.764 235.686C429.764 235.686 433.285 248.774 432.188 250.953C431.092 253.133 431.29 259.245 431.29 259.245C431.29 259.245 431.528 263.172 429.764 263.603C428 264.035 426.46 264.258 427.887 265.567C429.314 266.876 427.887 268.839 427.887 268.839C427.887 268.839 427.114 271.895 427.887 273.858C428.66 275.822 423.368 276.64 423.818 279.094C424.267 281.548 425.747 288.472 423.818 288.694C421.889 288.917 424.478 297.418 422.741 297.418C421.003 297.418 419.768 312.686 419.768 312.686C419.768 312.686 407.546 302.437 399.4 305.271C399.4 305.271 400.061 296.763 402.703 293.707C405.346 290.651 404.546 282.804 404.546 282.804L417.654 243.755L429.764 235.686Z" fill="#4C4981"/>
<path d="M364.853 415.3C362.084 418.388 359.097 401.898 359.097 401.898C359.097 401.898 351.212 412.857 346.096 405.553C342.553 400.493 345.347 386.156 347.375 377.834C348.283 374.134 349.05 371.619 349.05 371.619L360.562 369.685C360.562 369.685 360.6 372.212 360.856 375.281C361.201 379.426 361.949 384.57 363.542 385.802C366.349 387.935 367.628 412.187 364.853 415.3Z" fill="#AE6E79"/>
<path opacity="0.1" d="M358.196 220.748C358.196 220.748 337.713 220.534 332.706 231.359C327.7 242.184 327.478 245.875 325.517 247.603C323.556 249.331 346.863 258.435 346.863 258.435L347.955 295.686C347.955 295.686 352.53 291.079 359.935 293.164C367.34 295.25 376.712 293.164 376.712 293.164C376.712 293.164 376.274 292.378 382.379 293.164C388.483 293.951 407.868 283.775 407.868 283.775C407.868 283.775 408.189 267.479 407.757 264.01C407.326 260.54 421.587 235.043 421.587 235.043C421.587 235.043 432.698 224.432 421.156 220.748C421.156 220.748 417.071 214.627 406.561 214.686C396.052 214.744 358.196 220.748 358.196 220.748Z" fill="black"/>
<path d="M359.161 219.748C359.161 219.748 338.7 219.534 333.699 230.359C328.698 241.184 328.476 244.875 326.517 246.603C324.558 248.331 347.84 257.435 347.84 257.435L348.93 294.686C348.93 294.686 353.501 290.079 360.898 292.164C368.295 294.25 377.657 292.164 377.657 292.164C377.657 292.164 377.22 291.378 383.318 292.164C389.416 292.951 408.78 282.775 408.78 282.775C408.78 282.775 416.393 270.43 415.962 266.967C415.531 263.503 431.194 237.292 431.194 237.292C431.194 237.292 433.59 223.432 422.053 219.748C422.053 219.748 417.973 213.627 407.474 213.686C396.976 213.744 359.161 219.748 359.161 219.748Z" fill="#4C4981"/>
<path opacity="0.1" d="M360.4 375.154C356.163 373.799 349.515 376.787 347.4 377.685C348.276 374.053 349.016 371.584 349.016 371.584L360.116 369.685C360.116 369.685 360.135 372.166 360.4 375.154Z" fill="black"/>
<path d="M333.285 246.686H326.98C326.98 246.686 325.675 259.984 326.98 263.906C328.286 267.829 328.938 267.26 328.501 270.163C328.064 273.066 331.549 277.512 331.549 277.512C331.549 277.512 331.98 288.469 334.16 292.549C336.34 296.629 331.764 314.922 331.764 314.922C333.012 318.08 334.859 320.966 337.202 323.421C340.902 327.121 342.861 340.851 341.771 346.081C340.68 351.312 344.819 353.273 344.819 353.273C344.819 353.273 346.561 377.686 347.214 377.686C347.867 377.686 360.484 371.148 364.4 376.809L361.352 354.365L361.574 310.999C361.574 310.999 357.436 305.546 359.616 300.754C361.796 295.962 357.873 284.625 357.873 284.625L352.214 259.349L333.285 246.686Z" fill="#4C4981"/>
<path d="M293.008 590.557C293.008 590.557 283.87 588.596 283.655 590.557C283.44 592.519 272.774 612.572 286.051 618.456C299.327 624.341 334.782 636.979 392.442 620.633C392.442 620.633 396.136 621.941 395.268 613.879C394.4 605.818 394.4 596.88 394.4 596.88C394.4 596.88 385.693 594.48 379.166 595.356C372.639 596.233 315.853 607.779 293.008 590.557Z" fill="#33323D"/>
<path opacity="0.1" d="M293.008 590.557C293.008 590.557 283.87 588.596 283.655 590.557C283.44 592.519 272.774 612.572 286.051 618.456C299.327 624.341 334.782 636.979 392.442 620.633C392.442 620.633 396.136 621.941 395.268 613.879C394.4 605.818 394.4 596.88 394.4 596.88C394.4 596.88 385.693 594.48 379.166 595.356C372.639 596.233 315.853 607.779 293.008 590.557Z" fill="black"/>
<path d="M293.008 587.557C293.008 587.557 283.87 585.596 283.655 587.557C283.44 589.519 272.774 609.572 286.051 615.456C299.327 621.341 334.782 633.979 392.442 617.633C392.442 617.633 396.136 618.941 395.268 610.879C394.4 602.818 394.4 593.88 394.4 593.88C394.4 593.88 385.693 591.48 379.166 592.356C372.639 593.233 315.853 604.779 293.008 587.557Z" fill="#33323D"/>
<path d="M346.449 254.983C345.888 258.155 344.616 261.205 344.42 264.416C344.224 267.627 345.47 271.28 348.453 272.538C349.285 272.786 350.091 273.111 350.861 273.512C352.01 274.284 352.479 275.737 352.721 277.099C353.041 278.858 353.118 280.652 352.949 282.432C352.786 284.222 352.401 286.149 353.289 287.713C354.848 290.483 358.914 290.074 362.008 289.296L360.944 297.49C360.859 298.138 360.807 298.871 361.283 299.313C361.738 299.631 362.303 299.753 362.849 299.65C365.538 299.481 368.305 299.111 370.609 297.704C372.913 296.296 374.629 293.675 374.192 291.034C373.683 287.972 370.498 285.539 370.929 282.464C371.262 280.083 373.604 278.572 375.145 276.742C377.931 273.395 378.081 268.309 375.895 264.52C373.709 260.731 369.486 258.383 365.14 257.954C362.732 257.714 360.226 258.006 357.961 257.176C356.364 256.593 355.133 255.302 354.633 253.686" fill="#444053"/>
<path d="M271.4 544.588L273.655 539.491C273.655 539.491 285.829 527.721 288.627 526.896C291.425 526.071 302.843 522.476 304.568 522.476C306.293 522.476 337.743 520.686 337.743 520.686L341.4 529.632L301.932 538.626L288.627 548.686L271.4 544.588Z" fill="#767D9F"/>
<path d="M367.4 411.148L365.308 427.199L364.501 433.378L355.103 434.685C355.103 434.685 354.087 432.515 352.65 429.18C348.289 419.059 340.078 398.19 344.839 394.587C351.168 389.789 352.709 405.702 352.709 405.702L359.923 402.211L367.4 411.148Z" fill="#FFB9B9"/>
<rect x="318.4" y="440.685" width="47" height="71" fill="white"/>
<rect opacity="0.1" x="318.4" y="440.685" width="47" height="71" fill="black"/>
<path d="M339.555 437.776L386.264 444.679L375.832 515.214L329.123 508.311L339.555 437.776Z" fill="white"/>
<path d="M343.952 444.503L367.994 448.056L362.625 484.359L338.583 480.806L343.952 444.503Z" fill="#1B51E5"/>
<path d="M336.005 491.137L365.133 495.442L363.967 503.326L334.839 499.021L336.005 491.137Z" fill="#1B51E5"/>
<path opacity="0.1" d="M377.4 260.686C392.312 260.686 404.4 248.597 404.4 233.686C404.4 218.774 392.312 206.686 377.4 206.686C362.488 206.686 350.4 218.774 350.4 233.686C350.4 248.597 362.488 260.686 377.4 260.686Z" fill="black"/>
<path d="M377.4 259.686C392.312 259.686 404.4 247.597 404.4 232.686C404.4 217.774 392.312 205.686 377.4 205.686C362.488 205.686 350.4 217.774 350.4 232.686C350.4 247.597 362.488 259.686 377.4 259.686Z" fill="#AE6E79"/>
<path d="M355.065 253.438C354.878 252.731 354.946 251.98 355.256 251.318C356.304 249.144 359.287 248.954 361.704 249.066C367.388 249.328 373.625 249.361 378.071 245.783C379.915 244.312 381.977 240.616 384.657 241.319C387.041 241.942 388.036 245.166 390.519 245.881C392.317 246.4 394.181 245.573 396.012 245.225C398.646 244.706 401.347 245.14 404.021 245.159C406.694 245.179 409.599 244.673 411.423 242.724C413.887 240.097 413.485 235.994 413.267 232.396C412.997 227.749 413.314 223.086 414.209 218.517C415.105 213.974 416.482 208.893 413.966 204.999C411.568 201.29 406.602 200.272 403.21 197.43C400.036 194.804 398.356 190.595 395.004 188.159C390.782 185.094 385.046 185.533 379.856 186.065L368.593 187.26C365.689 187.569 362.666 187.917 360.275 189.643C355.961 192.755 355.368 199.222 351.285 202.629C349.467 204.139 347.142 204.888 345.068 206.017C342.993 207.146 340.991 208.932 340.754 211.269C340.556 213.239 341.623 215.057 342.143 216.955C343.375 221.485 341.452 226.146 340.22 230.709C338.989 235.272 338.751 240.813 342.328 243.84C343.052 244.457 343.895 244.93 344.6 245.573C347.017 247.772 347.346 251.482 346.787 254.686" fill="#444053"/>
<path d="M379.9 266.686C380.176 266.686 380.4 265.79 380.4 264.686C380.4 263.581 380.176 262.686 379.9 262.686C379.624 262.686 379.4 263.581 379.4 264.686C379.4 265.79 379.624 266.686 379.9 266.686Z" fill="#444053"/>
<path d="M379.9 274.686C380.176 274.686 380.4 273.79 380.4 272.686C380.4 271.581 380.176 270.686 379.9 270.686C379.624 270.686 379.4 271.581 379.4 272.686C379.4 273.79 379.624 274.686 379.9 274.686Z" fill="#444053"/>
<path d="M365.93 416.239C366.648 415.422 367.125 413.324 367.4 410.554L359.4 400.685C359.4 400.685 362.789 419.819 365.93 416.239Z" fill="#AE6E79"/>
<path opacity="0.1" d="M374.476 576.022C374.476 576.022 361.667 595.629 321.651 593.528C283.953 591.583 265.552 573.215 266.43 566.731C267.307 560.247 264.027 544.466 272.101 539.927C276.783 537.301 282.945 538.857 287.293 540.634C290.359 541.867 293.867 541.244 296.31 539.032C300.284 535.486 307.697 531.492 319.399 534.636C320.904 535.034 322.493 535.005 323.982 534.552C328.854 533.08 340.451 530.526 348.866 536.199C351.58 538.052 355.132 538.186 357.981 536.543L358.099 536.471C362.028 534.092 380.363 556.571 380.363 556.571C380.363 556.571 381.24 573.863 374.476 576.022Z" fill="black"/>
<path d="M374.476 577.022C374.476 577.022 361.667 596.629 321.651 594.528C283.953 592.583 265.552 574.215 266.43 567.731C267.307 561.247 264.027 545.466 272.101 540.927C276.783 538.301 282.945 539.857 287.293 541.634C290.359 542.867 293.867 542.244 296.31 540.032C300.284 536.486 307.697 532.492 319.399 535.636C320.904 536.034 322.493 536.005 323.982 535.552C328.854 534.08 340.451 531.526 348.866 537.199C351.58 539.052 355.132 539.186 357.981 537.543L358.099 537.471C362.028 535.092 380.363 557.571 380.363 557.571C380.363 557.571 381.24 574.863 374.476 577.022Z" fill="#767D9F"/>
<path opacity="0.1" d="M321.4 583.686C335.759 583.686 347.4 572.045 347.4 557.686C347.4 543.326 335.759 531.686 321.4 531.686C307.041 531.686 295.4 543.326 295.4 557.686C295.4 572.045 307.041 583.686 321.4 583.686Z" fill="black"/>
<path d="M321.4 584.686C335.759 584.686 347.4 573.045 347.4 558.686C347.4 544.326 335.759 532.686 321.4 532.686C307.041 532.686 295.4 544.326 295.4 558.686C295.4 573.045 307.041 584.686 321.4 584.686Z" fill="#FFB9B9"/>
<path d="M314.079 536.302C311.321 537.039 308.603 538.449 307.257 540.766C306.445 542.163 306.162 543.841 304.987 545.003C303.325 546.654 300.521 546.687 298.271 547.614C296.021 548.541 294.537 551.804 296.74 552.836C294.444 552.953 292.742 555.049 292.459 557.131C292.175 559.213 292.973 561.289 293.745 563.273C296.265 569.696 298.977 576.4 304.532 580.969C313.584 588.423 327.227 588.077 339.387 587.288C340.38 587.32 341.365 587.095 342.243 586.635C343.563 585.773 343.728 584.122 343.945 582.673C344.862 576.485 348.254 570.865 350.47 564.957C352.687 559.05 353.598 552.111 349.863 546.883C344.368 539.128 323.328 533.821 314.079 536.302Z" fill="#B96B6B"/>
<path opacity="0.1" d="M364.4 427.052L363.635 433.352L354.725 434.685C354.725 434.685 353.762 432.472 352.4 429.072L364.257 426.685L364.4 427.052Z" fill="black"/>
<path d="M374.048 563.685L379.389 557.373L378.319 522.56C378.845 520.049 379.203 517.504 379.389 514.942C379.6 511.241 376.719 502.977 376.719 502.977C377.166 501.323 377.773 499.718 378.531 498.186C379.811 495.575 376.725 489.7 376.725 489.7C376.725 489.7 372.127 474.47 374.048 466.852C375.969 459.234 373.581 454.887 373.581 454.887C373.581 454.887 371.705 446.401 371.916 442.921C372.127 439.442 367.645 436.172 367.645 436.172L364.232 427.685L350.574 430.297V459.672C350.574 459.672 351.425 487.741 350.574 493.185C349.722 498.63 352.277 503.845 352.277 503.845C352.277 503.845 350.785 511.894 352.066 514.942C353.346 517.991 355.908 525.387 355.908 525.387C355.432 528.03 355.579 530.751 356.337 533.325C357.617 537.137 356.337 539.311 356.337 539.311L374.048 563.685Z" fill="#767D9F"/>
<g opacity="0.1">
<path d="M413.821 217.091C413.082 220.854 412.751 224.683 412.832 228.515C412.888 225.329 413.228 222.154 413.847 219.026C414.424 216.172 415.158 213.099 415 210.251C414.759 212.554 414.365 214.839 413.821 217.091Z" fill="black"/>
<path d="M344.576 243.628C343.875 242.986 343.036 242.536 342.315 241.925C340.402 240.324 339.596 238.003 339.439 235.496C339.249 238.711 339.918 241.822 342.315 243.853C343.036 244.464 343.875 244.927 344.576 245.557C346.041 246.98 346.891 248.903 346.948 250.925C347.138 248.225 346.581 245.416 344.576 243.628Z" fill="black"/>
<path d="M342.486 219.624C342.6 218.266 342.481 216.899 342.132 215.58C341.752 214.205 341.071 212.861 340.822 211.479C340.822 211.627 340.769 211.781 340.75 211.942C340.56 213.87 341.621 215.651 342.132 217.509C342.32 218.201 342.439 218.909 342.486 219.624Z" fill="black"/>
<path d="M411.05 240.793C409.235 242.722 406.345 243.198 403.685 243.178C401.025 243.159 398.333 242.735 395.719 243.249C393.897 243.609 392.043 244.413 390.254 243.892C387.784 243.191 386.795 240.035 384.43 239.424C381.737 238.73 379.686 242.349 377.878 243.789C373.456 247.261 367.251 247.228 361.597 247.003C359.193 246.894 356.225 247.081 355.19 249.215C354.874 249.862 354.806 250.599 355 251.291L346.993 252.526C346.963 253.172 346.891 253.816 346.777 254.454L355 253.168C354.806 252.476 354.874 251.739 355.19 251.092C356.225 248.958 359.193 248.771 361.597 248.881C367.251 249.138 373.456 249.17 377.878 245.666C379.713 244.226 381.763 240.607 384.43 241.301C386.795 241.906 387.784 245.068 390.254 245.769C392.043 246.271 393.897 245.467 395.719 245.126C398.339 244.612 401.025 245.036 403.685 245.056C406.345 245.075 409.235 244.58 411.05 242.671C412.864 240.761 413.126 237.913 413.015 235.136C412.936 237.29 412.484 239.283 411.05 240.793Z" fill="black"/>
</g>
<g opacity="0.1">
<path d="M350.088 270.906C349.326 270.497 348.526 270.165 347.7 269.916C346.296 269.264 345.181 268.101 344.575 266.653C345.06 268.932 346.289 271.005 348.347 271.897C349.173 272.146 349.973 272.478 350.735 272.887C351.222 273.239 351.616 273.709 351.88 274.254C351.621 272.96 351.149 271.639 350.088 270.906Z" fill="black"/>
<path d="M361.139 286.973C358.156 287.746 354.261 288.149 352.624 285.567C352.675 286.189 352.851 286.794 353.142 287.343C354.539 289.886 357.956 289.8 360.861 289.172L361.139 286.973Z" fill="black"/>
<path d="M373.226 288.783C373.641 291.464 371.932 294.138 369.668 295.545C367.403 296.952 364.64 297.341 361.974 297.526C361.55 297.582 361.12 297.532 360.719 297.381C360.47 297.951 360.576 298.618 360.989 299.079C361.401 299.54 362.042 299.708 362.621 299.507C365.287 299.335 368.031 298.959 370.315 297.526C372.599 296.093 374.307 293.425 373.867 290.737C373.743 290.059 373.527 289.401 373.226 288.783V288.783Z" fill="black"/>
<path d="M376.099 264.877C376.9 268.131 376.183 271.579 374.158 274.221C372.631 276.11 370.308 277.622 369.978 280.046C369.868 281.16 370.094 282.282 370.625 283.262C370.567 282.852 370.567 282.436 370.625 282.027C370.955 279.603 373.278 278.065 374.805 276.202C377.316 273.105 377.665 268.542 376.099 264.877Z" fill="black"/>
</g>
<g opacity="0.1">
<path d="M298.843 548.372C301.061 547.457 303.833 547.425 305.483 545.777C306.643 544.623 306.924 542.956 307.726 541.574C309.03 539.265 311.737 537.87 314.463 537.137C323.593 534.672 344.411 539.939 349.837 547.574C351.427 549.884 352.294 552.61 352.328 555.41C352.537 552.178 351.663 548.969 349.843 546.283C344.417 538.649 323.619 533.382 314.469 535.846C311.743 536.579 309.056 537.974 307.733 540.283C306.93 541.665 306.65 543.332 305.489 544.486C303.839 546.128 301.067 546.16 298.85 547.081C297.161 547.775 295.909 549.825 296.365 551.2C296.733 549.941 297.64 548.907 298.843 548.372Z" fill="black"/>
<path d="M293.104 557.797C293.378 555.721 295.061 553.645 297.337 553.529C296.853 553.328 296.486 552.92 296.339 552.419C294.575 553.071 293.319 554.643 293.078 556.499C293.016 557.027 293.016 557.561 293.078 558.089C293.104 557.991 293.104 557.894 293.104 557.797Z" fill="black"/>
</g>
<rect x="371.4" y="322.686" width="60" height="77" fill="white"/>
<rect opacity="0.1" x="371.4" y="322.686" width="60" height="77" fill="black"/>
<path d="M394.869 336.443L453.381 326.383L466.506 402.656L407.994 412.717L394.869 336.443Z" fill="white"/>
<path d="M409.05 388.439L422.797 386.075L425.881 403.994L412.134 406.358L409.05 388.439Z" fill="#1B51E5"/>
<path d="M428.073 385.164L441.82 382.801L444.904 400.72L431.157 403.084L428.073 385.164Z" fill="#1B51E5"/>
<path d="M407.053 364.822L455.263 356.547L458.356 374.548L410.145 382.823L407.053 364.822Z" fill="#1B51E5"/>
<path d="M403.034 343.338L451.245 335.063L451.935 339.079L403.724 347.354L403.034 343.338Z" fill="#1B51E5"/>
<path d="M404.615 350.726L452.826 342.451L453.516 346.467L405.305 354.742L404.615 350.726Z" fill="#1B51E5"/>
<path d="M404.452 300.686C404.452 300.686 377.765 328.546 391.163 335.624C404.56 342.702 413.282 312.075 413.282 312.075L415.4 305.11L404.452 300.686Z" fill="#AE6E79"/>
<path opacity="0.1" d="M402.754 298.677L399.4 306.224C399.4 306.224 415.942 308.59 419.4 313.686L417.35 300.369L414.917 294.686L402.754 298.677Z" fill="black"/>
<path d="M402.754 297.677L399.4 305.224C399.4 305.224 415.942 307.59 419.4 312.686L417.35 299.369L414.917 293.686L402.754 297.677Z" fill="#4C4981"/>
<path d="M503.727 434.825L503.4 435.205L503.852 435.545L504.34 435.475L504.4 434.905L503.727 434.825Z" fill="#464A5F"/>
<path opacity="0.1" d="M503.727 434.825L503.4 435.205L503.852 435.545L504.34 435.475L504.4 434.905L503.727 434.825Z" fill="black"/>
<path d="M504.4 435.346L503.84 435.685L503.4 435.176L503.67 434.761L503.92 434.685L504.4 435.346Z" fill="#9C9CA1"/>
<path opacity="0.1" d="M504.4 435.346L503.84 435.685L503.4 435.176L503.67 434.761L503.92 434.685L504.4 435.346Z" fill="black"/>
<path d="M567.4 389.675L540.707 351.065C540.229 350.369 539.495 349.891 538.666 349.738C537.836 349.585 536.98 349.769 536.286 350.248L476.784 391.151C475.335 392.148 474.964 394.131 475.956 395.585L502.577 434.685L567.4 389.675Z" fill="#9C9CA1"/>
<path opacity="0.1" d="M567.4 389.675L540.707 351.065C540.229 350.369 539.495 349.891 538.666 349.738C537.836 349.585 536.98 349.769 536.286 350.248L476.784 391.151C475.335 392.148 474.964 394.131 475.956 395.585L502.577 434.685L567.4 389.675Z" fill="black"/>
<path d="M568.4 389.654L541.707 351.064C541.229 350.368 540.493 349.891 539.663 349.738C538.832 349.585 537.975 349.769 537.28 350.249L477.786 391.155C476.338 392.151 475.965 394.131 476.951 395.587L503.572 434.685L568.4 389.654Z" fill="#9C9CA1"/>
<path d="M590.887 396.876L568.851 389.685L504.4 435.076L526.787 442.517C527.803 442.852 528.915 442.681 529.787 442.056L591.069 398.095C591.304 397.961 591.433 397.693 591.393 397.422C591.352 397.151 591.151 396.934 590.887 396.876Z" fill="#464A5F"/>
<path opacity="0.1" d="M590.887 396.876L568.851 389.685L504.4 435.076L526.787 442.517C527.803 442.852 528.915 442.681 529.787 442.056L591.069 398.095C591.304 397.961 591.433 397.693 591.393 397.422C591.352 397.151 591.151 396.934 590.887 396.876Z" fill="black"/>
<path d="M590.903 396.884L568.863 389.685L504.4 435.083L526.791 442.512C527.805 442.854 528.92 442.685 529.792 442.058L591.085 398.089C591.311 397.952 591.432 397.689 591.392 397.425C591.353 397.16 591.159 396.947 590.903 396.884Z" fill="#464A5F"/>
<g opacity="0.1">
<path d="M557.847 388.373L556.216 386.031C556.012 385.749 555.623 385.677 555.332 385.869L552.907 387.489C552.625 387.688 552.548 388.074 552.732 388.367L554.233 390.677C554.429 390.964 554.815 391.047 555.111 390.865L557.665 389.258C557.954 389.06 558.035 388.669 557.847 388.373Z" fill="black"/>
<path d="M553.492 391.392L551.854 389.057C551.651 388.774 551.261 388.703 550.97 388.894L548.552 390.527C548.268 390.724 548.188 391.111 548.37 391.405L549.872 393.715C550.065 394.005 550.452 394.091 550.749 393.91L553.31 392.303C553.457 392.208 553.558 392.057 553.592 391.886C553.627 391.715 553.591 391.537 553.492 391.392Z" fill="black"/>
<path d="M548.916 394.561L547.278 392.225C547.075 391.943 546.685 391.871 546.394 392.062L543.97 393.695C543.683 393.895 543.606 394.286 543.794 394.58L545.296 396.89C545.491 397.177 545.878 397.26 546.173 397.078L548.728 395.472C548.875 395.377 548.978 395.227 549.014 395.056C549.049 394.884 549.014 394.706 548.916 394.561Z" fill="black"/>
<path d="M544.282 397.775L542.644 395.432C542.441 395.154 542.056 395.083 541.766 395.27L539.342 396.909C539.059 397.109 538.982 397.495 539.166 397.788L540.668 400.097C540.861 400.383 541.243 400.469 541.539 400.292L544.1 398.679C544.244 398.583 544.345 398.434 544.379 398.265C544.413 398.095 544.378 397.919 544.282 397.775Z" fill="black"/>
<path d="M539.654 400.982L538.016 398.646C537.812 398.364 537.423 398.293 537.132 398.484L534.714 400.117C534.429 400.314 534.349 400.701 534.532 400.995L536.033 403.305C536.227 403.594 536.613 403.68 536.911 403.5L539.472 401.886C539.616 401.791 539.717 401.642 539.751 401.472C539.785 401.302 539.75 401.126 539.654 400.982Z" fill="black"/>
<path d="M535.227 404.482L533.193 401.581C533.149 401.515 533.081 401.47 533.005 401.456C532.928 401.441 532.848 401.458 532.783 401.503L529.806 403.513C529.74 403.556 529.694 403.623 529.678 403.7C529.662 403.777 529.678 403.858 529.722 403.923L531.587 406.792C531.676 406.929 531.858 406.97 531.997 406.883L535.143 404.931C535.219 404.888 535.273 404.813 535.289 404.726C535.305 404.64 535.283 404.551 535.227 404.482Z" fill="black"/>
<path d="M530.599 407.69L528.552 404.788C528.507 404.722 528.438 404.677 528.36 404.663C528.282 404.648 528.201 404.665 528.136 404.71L525.159 406.72C525.026 406.813 524.992 406.995 525.081 407.13L526.946 409.999C526.987 410.068 527.054 410.117 527.131 410.134C527.209 410.152 527.29 410.136 527.356 410.091L530.495 408.139C530.577 408.101 530.636 408.027 530.657 407.94C530.677 407.852 530.656 407.76 530.599 407.69Z" fill="black"/>
<path d="M526.498 410.533L524.463 407.657C524.369 407.527 524.187 407.495 524.054 407.586L521.077 409.59C520.941 409.683 520.904 409.867 520.992 410.006L522.858 412.875C522.949 413.009 523.128 413.049 523.267 412.966L526.413 411.014C526.501 410.973 526.563 410.891 526.58 410.796C526.597 410.7 526.566 410.602 526.498 410.533Z" fill="black"/>
<path d="M521.909 413.708L519.874 410.806C519.78 410.676 519.598 410.644 519.465 410.735L516.488 412.738C516.421 412.782 516.375 412.851 516.359 412.929C516.343 413.007 516.359 413.089 516.403 413.155L518.269 416.024C518.36 416.158 518.539 416.198 518.678 416.115L521.824 414.163C521.901 414.118 521.955 414.042 521.971 413.955C521.987 413.867 521.965 413.777 521.909 413.708Z" fill="black"/>
<path d="M517.463 416.766L515.428 413.864C515.385 413.799 515.317 413.754 515.24 413.739C515.163 413.725 515.083 413.741 515.019 413.786L512.042 415.796C511.976 415.839 511.929 415.906 511.914 415.983C511.898 416.061 511.913 416.141 511.957 416.206L513.823 419.075C513.912 419.213 514.094 419.253 514.232 419.166L517.378 417.215C517.455 417.171 517.508 417.096 517.525 417.01C517.541 416.923 517.518 416.834 517.463 416.766Z" fill="black"/>
<path d="M513.017 419.876L511.002 416.967C510.907 416.837 510.726 416.805 510.592 416.896L507.615 418.9C507.549 418.943 507.502 419.012 507.487 419.09C507.471 419.168 507.487 419.25 507.531 419.316L509.396 422.185C509.487 422.319 509.667 422.359 509.806 422.276L512.952 420.324C513.025 420.278 513.075 420.201 513.087 420.115C513.1 420.029 513.074 419.941 513.017 419.876Z" fill="black"/>
<path d="M508.571 422.953L506.536 420.051C506.493 419.986 506.425 419.941 506.348 419.926C506.271 419.912 506.191 419.929 506.127 419.973L503.15 421.971C503.084 422.013 503.037 422.081 503.022 422.158C503.006 422.235 503.021 422.315 503.065 422.38L504.931 425.25C505.02 425.387 505.202 425.427 505.34 425.341L508.486 423.389C508.559 423.345 508.609 423.273 508.625 423.19C508.641 423.107 508.622 423.021 508.571 422.953Z" fill="black"/>
<path d="M554.922 384.138L553.284 381.796C553.081 381.514 552.691 381.442 552.4 381.633L550.002 383.273C549.717 383.47 549.637 383.856 549.82 384.151L551.321 386.461C551.517 386.748 551.903 386.831 552.199 386.649L554.76 385.042C555.054 384.837 555.127 384.433 554.922 384.138Z" fill="black"/>
<path d="M548.52 374.88L546.882 372.525C546.679 372.246 546.294 372.175 546.004 372.362L543.58 373.995C543.295 374.193 543.215 374.579 543.398 374.873L544.899 377.183C545.093 377.473 545.479 377.559 545.777 377.378L548.338 375.771C548.631 375.573 548.711 375.177 548.52 374.88Z" fill="black"/>
<path d="M550.561 387.157L548.923 384.821C548.72 384.543 548.335 384.471 548.045 384.658L545.621 386.291C545.338 386.491 545.261 386.877 545.445 387.17L546.94 389.479C547.134 389.769 547.52 389.855 547.818 389.675L550.379 388.068C550.525 387.972 550.627 387.822 550.661 387.65C550.695 387.479 550.659 387.301 550.561 387.157Z" fill="black"/>
<path d="M545.985 390.325L544.347 387.99C544.143 387.707 543.754 387.636 543.463 387.827L541.045 389.44C540.756 389.638 540.676 390.029 540.863 390.325L542.364 392.635C542.56 392.922 542.946 393.005 543.242 392.824L545.803 391.217C546.096 391.018 546.176 390.622 545.985 390.325Z" fill="black"/>
<path d="M541.35 393.539L539.719 391.197C539.515 390.915 539.126 390.843 538.835 391.034L536.41 392.693C536.128 392.893 536.051 393.279 536.235 393.572L537.736 395.881C537.932 396.169 538.318 396.252 538.614 396.07L541.168 394.463C541.318 394.368 541.423 394.215 541.457 394.04C541.491 393.866 541.453 393.685 541.35 393.539Z" fill="black"/>
<path d="M544.262 378.048L542.624 375.713C542.421 375.434 542.036 375.363 541.747 375.55L539.322 377.183C539.038 377.38 538.958 377.767 539.14 378.061L540.642 380.371C540.835 380.661 541.222 380.747 541.519 380.566L544.08 378.959C544.227 378.864 544.328 378.713 544.362 378.542C544.397 378.371 544.361 378.193 544.262 378.048Z" fill="black"/>
<path d="M539.686 381.223L538.048 378.881C537.845 378.599 537.455 378.527 537.164 378.718L534.746 380.332C534.462 380.529 534.382 380.916 534.564 381.21L536.066 383.52C536.261 383.807 536.648 383.89 536.943 383.709L539.504 382.102C539.789 381.904 539.869 381.518 539.686 381.223Z" fill="black"/>
<path d="M535.052 384.431L533.414 382.095C533.213 381.814 532.827 381.74 532.536 381.926L530.112 383.585C529.829 383.784 529.752 384.17 529.936 384.463L531.438 386.773C531.631 387.063 532.018 387.149 532.315 386.968L534.87 385.355C535.02 385.259 535.124 385.106 535.159 384.932C535.193 384.757 535.154 384.576 535.052 384.431Z" fill="black"/>
<path d="M536.722 396.747L535.084 394.411C534.883 394.13 534.498 394.056 534.207 394.242L531.802 395.881C531.519 396.081 531.442 396.467 531.626 396.76L533.102 399.069C533.295 399.355 533.677 399.441 533.973 399.265L536.534 397.651C536.679 397.557 536.781 397.408 536.816 397.238C536.852 397.068 536.818 396.891 536.722 396.747Z" fill="black"/>
<path d="M532.094 399.954L530.456 397.618C530.253 397.336 529.863 397.265 529.572 397.456L527.154 399.089C526.87 399.286 526.79 399.673 526.972 399.967L528.474 402.277C528.667 402.566 529.054 402.652 529.351 402.472L531.912 400.865C532.059 400.769 532.16 400.619 532.194 400.448C532.229 400.276 532.193 400.099 532.094 399.954Z" fill="black"/>
<path d="M527.668 403.454L525.633 400.553C525.59 400.487 525.522 400.443 525.445 400.428C525.368 400.413 525.288 400.43 525.224 400.475L522.247 402.485C522.181 402.528 522.134 402.595 522.119 402.672C522.103 402.749 522.118 402.83 522.162 402.895L524.028 405.764C524.069 405.831 524.136 405.879 524.213 405.896C524.291 405.913 524.371 405.899 524.437 405.855L527.583 403.903C527.66 403.86 527.713 403.785 527.73 403.698C527.746 403.612 527.723 403.523 527.668 403.454Z" fill="black"/>
<path d="M523.566 406.298L521.532 403.389C521.437 403.259 521.256 403.227 521.122 403.318L518.152 405.322C518.016 405.415 517.979 405.599 518.067 405.738L519.933 408.607C520.024 408.741 520.203 408.781 520.342 408.698L523.488 406.746C523.568 406.705 523.623 406.629 523.639 406.541C523.654 406.453 523.627 406.363 523.566 406.298Z" fill="black"/>
<path d="M518.977 409.472L516.943 406.571C516.848 406.44 516.667 406.409 516.533 406.499L513.556 408.503C513.49 408.546 513.444 408.613 513.428 408.69C513.412 408.767 513.428 408.848 513.472 408.913L515.337 411.789C515.428 411.923 515.608 411.963 515.747 411.88L518.893 409.928C518.97 409.883 519.023 409.807 519.039 409.72C519.056 409.632 519.033 409.542 518.977 409.472Z" fill="black"/>
<path d="M514.531 412.556L512.497 409.655C512.453 409.589 512.385 409.544 512.308 409.53C512.232 409.515 512.152 409.532 512.087 409.577L509.11 411.561C509.044 411.603 508.998 411.671 508.982 411.748C508.966 411.825 508.982 411.905 509.026 411.971L510.891 414.84C510.98 414.977 511.162 415.018 511.301 414.931L514.447 412.979C514.515 412.935 514.563 412.866 514.579 412.786C514.595 412.706 514.578 412.623 514.531 412.556Z" fill="black"/>
<path d="M542.936 385.921L541.298 383.585C541.095 383.307 540.71 383.235 540.421 383.422L537.996 385.062C537.714 385.261 537.637 385.647 537.821 385.94L539.322 388.25C539.517 388.533 539.899 388.616 540.193 388.438L542.754 386.831C542.901 386.736 543.002 386.586 543.036 386.414C543.071 386.243 543.035 386.065 542.936 385.921Z" fill="black"/>
<path d="M538.302 389.135L536.664 386.792C536.46 386.51 536.071 386.439 535.78 386.63L533.362 388.269C533.077 388.467 532.997 388.853 533.18 389.148L534.681 391.457C534.875 391.747 535.261 391.833 535.559 391.652L538.12 390.039C538.264 389.943 538.365 389.794 538.399 389.625C538.433 389.455 538.398 389.279 538.302 389.135Z" fill="black"/>
<path d="M533.68 392.342L532.042 390.006C531.839 389.724 531.449 389.652 531.158 389.844L528.734 391.477C528.451 391.676 528.374 392.062 528.558 392.355L530.06 394.665C530.253 394.954 530.64 395.04 530.937 394.86L533.492 393.246C533.637 393.152 533.739 393.003 533.774 392.834C533.81 392.664 533.776 392.487 533.68 392.342Z" fill="black"/>
<path d="M529.046 395.55L527.408 393.214C527.205 392.936 526.82 392.864 526.53 393.051L524.106 394.684C523.823 394.884 523.746 395.27 523.93 395.563L525.432 397.898C525.625 398.184 526.007 398.27 526.303 398.093L528.864 396.486C529.018 396.391 529.125 396.236 529.159 396.058C529.194 395.88 529.153 395.696 529.046 395.55Z" fill="black"/>
<path d="M524.652 399.05L522.617 396.148C522.574 396.083 522.506 396.038 522.429 396.023C522.352 396.009 522.272 396.025 522.208 396.07L519.231 398.08C519.096 398.171 519.059 398.353 519.146 398.49L521.012 401.366C521.054 401.432 521.122 401.479 521.199 401.494C521.276 401.51 521.356 401.495 521.421 401.451L524.567 399.499C524.644 399.455 524.697 399.38 524.714 399.294C524.73 399.207 524.707 399.118 524.652 399.05Z" fill="black"/>
<path d="M520.524 401.893L518.49 398.985C518.393 398.853 518.209 398.822 518.074 398.913L515.103 400.917C514.968 401.01 514.93 401.194 515.019 401.333L516.884 404.203C516.973 404.34 517.155 404.38 517.294 404.294L520.44 402.342C520.516 402.298 520.57 402.223 520.586 402.137C520.602 402.05 520.58 401.961 520.524 401.893Z" fill="black"/>
<path d="M515.935 405.055L513.901 402.147C513.804 402.015 513.62 401.984 513.485 402.075L510.508 404.079C510.375 404.174 510.338 404.356 510.423 404.495L512.295 407.364C512.384 407.502 512.566 407.542 512.705 407.456L515.844 405.504C515.924 405.463 515.98 405.389 515.998 405.301C516.016 405.214 515.993 405.123 515.935 405.055Z" fill="black"/>
<path d="M511.489 408.152L509.455 405.25C509.41 405.184 509.341 405.139 509.263 405.125C509.185 405.11 509.104 405.127 509.039 405.172L506.062 407.182C505.929 407.275 505.895 407.457 505.984 407.592L507.849 410.461C507.89 410.53 507.957 410.579 508.034 410.596C508.112 410.614 508.193 410.598 508.259 410.552L511.398 408.601C511.478 408.56 511.534 408.486 511.552 408.398C511.57 408.311 511.547 408.22 511.489 408.152Z" fill="black"/>
<path d="M510.085 415.634L508.051 412.732C507.956 412.602 507.775 412.57 507.641 412.66L504.664 414.664C504.598 414.707 504.552 414.774 504.536 414.851C504.52 414.929 504.536 415.009 504.58 415.074L506.445 417.95C506.536 418.084 506.716 418.124 506.855 418.041L510.001 416.089C510.078 416.044 510.131 415.968 510.147 415.881C510.164 415.793 510.141 415.703 510.085 415.634Z" fill="black"/>
<path d="M505.639 418.718L503.605 415.816C503.561 415.751 503.493 415.706 503.417 415.691C503.34 415.676 503.26 415.693 503.195 415.738L500.218 417.748C500.152 417.791 500.106 417.858 500.09 417.935C500.074 418.012 500.09 418.093 500.134 418.158L501.999 421.027C502.088 421.164 502.27 421.205 502.409 421.118L505.555 419.166C505.631 419.123 505.685 419.048 505.701 418.962C505.717 418.875 505.695 418.786 505.639 418.718Z" fill="black"/>
<path d="M512.62 400.279L510.67 397.547C510.543 397.37 510.298 397.327 510.118 397.449L507.31 399.343C507.222 399.401 507.16 399.492 507.139 399.596C507.119 399.7 507.14 399.808 507.199 399.896L508.954 402.596C509.009 402.686 509.098 402.75 509.201 402.773C509.304 402.796 509.412 402.777 509.5 402.719L512.471 400.852C512.57 400.799 512.642 400.707 512.671 400.598C512.699 400.49 512.681 400.374 512.62 400.279Z" fill="black"/>
<path d="M508.174 403.363L506.257 400.631C506.198 400.543 506.106 400.483 506.002 400.464C505.899 400.444 505.791 400.467 505.704 400.527L502.896 402.452C502.809 402.51 502.747 402.6 502.726 402.702C502.706 402.805 502.727 402.912 502.786 402.999L504.541 405.705C504.66 405.887 504.901 405.942 505.087 405.829L508.057 403.962C508.159 403.904 508.23 403.804 508.253 403.689C508.275 403.574 508.246 403.455 508.174 403.363Z" fill="black"/>
<path d="M503.728 406.447L501.811 403.708C501.683 403.532 501.439 403.488 501.258 403.611L498.45 405.504C498.362 405.562 498.301 405.653 498.28 405.757C498.259 405.861 498.281 405.969 498.34 406.057L500.095 408.757C500.15 408.847 500.239 408.911 500.342 408.934C500.445 408.958 500.553 408.938 500.641 408.88L503.611 407.013C503.705 406.956 503.77 406.863 503.792 406.755C503.814 406.648 503.791 406.537 503.728 406.447Z" fill="black"/>
<path d="M499.341 409.609L497.306 406.701C497.212 406.57 497.03 406.539 496.897 406.629L493.92 408.633C493.784 408.727 493.747 408.911 493.835 409.05L495.701 411.919C495.792 412.053 495.971 412.093 496.11 412.01L499.256 410.058C499.337 410.018 499.394 409.943 499.41 409.855C499.427 409.766 499.401 409.676 499.341 409.609Z" fill="black"/>
<path d="M551.952 379.584L550.19 377.079C549.985 376.799 549.595 376.73 549.306 376.923L542.429 381.744C542.153 381.945 542.079 382.326 542.26 382.616L543.918 385.179C544.014 385.322 544.164 385.421 544.333 385.454C544.503 385.487 544.678 385.451 544.821 385.355L551.802 380.469C552.08 380.261 552.146 379.871 551.952 379.584Z" fill="black"/>
<path d="M507.03 411.138L504.872 408.087C504.828 408.021 504.758 407.976 504.68 407.962C504.601 407.949 504.521 407.968 504.456 408.015L497.033 413.22C496.902 413.31 496.867 413.49 496.955 413.623L498.983 416.766C499.027 416.834 499.097 416.882 499.177 416.898C499.256 416.914 499.339 416.897 499.406 416.85L506.952 411.561C507.09 411.465 507.125 411.277 507.03 411.138Z" fill="black"/>
<path d="M530.645 387.801L528.656 384.886C528.563 384.753 528.382 384.719 528.246 384.808L511.762 395.946C511.628 396.037 511.59 396.219 511.678 396.356L513.712 399.479C513.756 399.548 513.826 399.595 513.906 399.611C513.985 399.627 514.068 399.61 514.135 399.564L530.567 388.217C530.632 388.172 530.678 388.103 530.692 388.025C530.707 387.947 530.69 387.866 530.645 387.801Z" fill="black"/>
</g>
<path d="M558.297 388.185L556.76 385.944C556.569 385.673 556.204 385.605 555.931 385.788L553.663 387.357C553.395 387.546 553.32 387.916 553.492 388.198L554.901 390.408C555.082 390.686 555.445 390.768 555.724 390.595L558.126 389.051C558.262 388.96 558.356 388.817 558.388 388.654C558.42 388.492 558.387 388.323 558.297 388.185Z" fill="#464A5F"/>
<path d="M553.294 391.181L551.759 388.941C551.568 388.674 551.207 388.606 550.936 388.785L548.663 390.351C548.395 390.54 548.32 390.911 548.492 391.193L549.9 393.408C550.081 393.686 550.443 393.768 550.722 393.595L553.124 392.054C553.261 391.963 553.356 391.818 553.388 391.654C553.42 391.49 553.386 391.319 553.294 391.181Z" fill="#464A5F"/>
<path d="M549.294 394.181L547.759 391.944C547.568 391.673 547.202 391.605 546.93 391.788L544.663 393.359C544.395 393.548 544.32 393.918 544.492 394.2L545.9 396.413C546.083 396.688 546.445 396.767 546.722 396.593L549.124 395.054C549.261 394.962 549.356 394.818 549.388 394.654C549.42 394.49 549.386 394.32 549.294 394.181Z" fill="#464A5F"/>
<path d="M544.281 398.169L542.751 395.939C542.561 395.674 542.202 395.607 541.931 395.785L539.667 397.345C539.532 397.438 539.44 397.582 539.41 397.745C539.381 397.908 539.416 398.076 539.509 398.212L540.911 400.41C541.092 400.686 541.453 400.768 541.731 400.596L544.117 399.06C544.26 398.968 544.358 398.82 544.39 398.651C544.421 398.482 544.381 398.307 544.281 398.169Z" fill="#464A5F"/>
<path d="M540.297 400.181L538.759 397.941C538.568 397.674 538.207 397.606 537.935 397.785L535.659 399.351C535.393 399.542 535.321 399.913 535.494 400.193L536.898 402.408C537.079 402.686 537.442 402.768 537.721 402.595L540.126 401.048C540.262 400.956 540.356 400.813 540.388 400.651C540.42 400.488 540.387 400.319 540.297 400.181Z" fill="#464A5F"/>
<path d="M536.34 404.453L534.531 401.804C534.492 401.745 534.432 401.704 534.364 401.69C534.295 401.677 534.224 401.692 534.167 401.733L531.519 403.568C531.461 403.607 531.419 403.668 531.405 403.739C531.391 403.809 531.405 403.882 531.444 403.942L533.103 406.561C533.182 406.686 533.344 406.723 533.468 406.644L536.265 404.862C536.333 404.823 536.381 404.754 536.395 404.675C536.41 404.596 536.39 404.515 536.34 404.453Z" fill="#464A5F"/>
<path d="M530.343 407.451L528.533 404.805C528.493 404.745 528.432 404.704 528.362 404.69C528.293 404.677 528.221 404.692 528.163 404.733L525.52 406.567C525.461 406.605 525.419 406.667 525.405 406.737C525.391 406.808 525.405 406.881 525.444 406.94L527.104 409.563C527.142 409.623 527.202 409.665 527.271 409.68C527.339 409.694 527.411 409.68 527.469 409.64L530.268 407.86C530.335 407.819 530.381 407.751 530.395 407.673C530.41 407.594 530.391 407.514 530.343 407.451Z" fill="#464A5F"/>
<path d="M527.352 410.467L525.538 407.798C525.453 407.679 525.292 407.65 525.173 407.733L522.518 409.548C522.397 409.633 522.364 409.802 522.443 409.93L524.106 412.562C524.187 412.685 524.347 412.722 524.471 412.646L527.277 410.855C527.338 410.815 527.381 410.751 527.395 410.677C527.409 410.604 527.394 410.528 527.352 410.467Z" fill="#464A5F"/>
<path d="M522.327 413.43L520.523 410.798C520.438 410.679 520.278 410.65 520.16 410.733L517.52 412.562C517.46 412.602 517.419 412.665 517.405 412.737C517.391 412.808 517.405 412.882 517.445 412.943L519.099 415.563C519.179 415.685 519.339 415.722 519.462 415.646L522.252 413.864C522.328 413.825 522.381 413.752 522.396 413.666C522.411 413.581 522.385 413.493 522.327 413.43Z" fill="#464A5F"/>
<path d="M517.34 416.451L515.531 413.804C515.492 413.745 515.432 413.704 515.364 413.69C515.295 413.677 515.224 413.692 515.167 413.733L512.519 415.567C512.461 415.606 512.419 415.667 512.405 415.738C512.391 415.808 512.405 415.881 512.444 415.941L514.103 418.559C514.14 418.62 514.2 418.663 514.268 418.679C514.337 418.695 514.409 418.681 514.468 418.642L517.265 416.861C517.333 416.821 517.381 416.753 517.395 416.674C517.41 416.595 517.39 416.514 517.34 416.451Z" fill="#464A5F"/>
<path d="M512.34 419.454L510.53 416.798C510.446 416.679 510.285 416.65 510.166 416.733L507.518 418.562C507.397 418.648 507.364 418.816 507.443 418.943L509.102 421.563C509.183 421.685 509.343 421.722 509.466 421.646L512.265 419.864C512.333 419.824 512.381 419.756 512.395 419.677C512.41 419.598 512.39 419.516 512.34 419.454Z" fill="#464A5F"/>
<path d="M508.34 423.451L506.531 420.804C506.492 420.745 506.432 420.704 506.364 420.69C506.295 420.677 506.224 420.692 506.167 420.733L503.519 422.567C503.461 422.606 503.419 422.667 503.405 422.738C503.391 422.808 503.405 422.881 503.444 422.941L505.103 425.559C505.14 425.62 505.2 425.663 505.268 425.679C505.337 425.695 505.409 425.681 505.468 425.642L508.265 423.861C508.333 423.821 508.381 423.753 508.395 423.674C508.41 423.595 508.39 423.514 508.34 423.451Z" fill="#464A5F"/>
<path d="M555.297 383.184L553.759 380.941C553.568 380.674 553.207 380.606 552.935 380.785L550.659 382.355C550.393 382.546 550.321 382.916 550.494 383.196L551.898 385.408C552.079 385.686 552.442 385.768 552.721 385.595L555.126 384.05C555.262 383.959 555.356 383.816 555.388 383.653C555.42 383.491 555.387 383.322 555.297 383.184Z" fill="#464A5F"/>
<path d="M549.294 374.182L547.757 371.941C547.566 371.674 547.205 371.606 546.934 371.785L544.658 373.352C544.393 373.543 544.321 373.914 544.494 374.195L545.903 376.41C546.084 376.685 546.442 376.767 546.72 376.598L549.123 375.056C549.261 374.964 549.356 374.82 549.388 374.656C549.42 374.491 549.386 374.321 549.294 374.182Z" fill="#464A5F"/>
<path d="M551.3 387.195L549.761 384.941C549.57 384.674 549.208 384.606 548.937 384.785L546.659 386.352C546.393 386.543 546.321 386.914 546.494 387.195L547.904 389.41C548.086 389.685 548.445 389.767 548.723 389.598L551.129 388.056C551.407 387.866 551.484 387.481 551.3 387.195Z" fill="#464A5F"/>
<path d="M546.286 390.18L544.769 387.941C544.578 387.674 544.216 387.606 543.943 387.785L541.662 389.351C541.392 389.542 541.319 389.917 541.497 390.199L542.904 392.412C543.087 392.688 543.451 392.768 543.729 392.593L546.139 391.053C546.273 390.958 546.364 390.812 546.391 390.648C546.419 390.484 546.381 390.315 546.286 390.18Z" fill="#464A5F"/>
<path d="M542.297 393.185L540.76 390.944C540.569 390.673 540.204 390.605 539.931 390.788L537.663 392.357C537.395 392.546 537.32 392.916 537.492 393.198L538.901 395.408C539.082 395.686 539.445 395.768 539.724 395.595L542.126 394.051C542.262 393.96 542.356 393.817 542.388 393.654C542.42 393.492 542.387 393.323 542.297 393.185Z" fill="#464A5F"/>
<path d="M544.3 377.195L542.761 374.941C542.57 374.674 542.208 374.606 541.937 374.785L539.659 376.352C539.393 376.543 539.321 376.914 539.494 377.195L540.904 379.41C541.086 379.685 541.445 379.767 541.723 379.598L544.129 378.056C544.407 377.866 544.484 377.481 544.3 377.195Z" fill="#464A5F"/>
<path d="M540.297 381.184L538.76 378.941C538.57 378.674 538.209 378.606 537.937 378.785L535.663 380.355C535.395 380.544 535.32 380.914 535.492 381.196L536.901 383.408C537.082 383.686 537.445 383.768 537.724 383.595L540.126 382.05C540.262 381.959 540.356 381.816 540.388 381.653C540.42 381.491 540.387 381.322 540.297 381.184Z" fill="#464A5F"/>
<path d="M536.296 384.179L534.76 381.944C534.569 381.673 534.203 381.605 533.931 381.788L531.663 383.351C531.395 383.54 531.32 383.91 531.492 384.192L532.9 386.408C533.081 386.686 533.444 386.768 533.723 386.595L536.119 385.051C536.257 384.961 536.354 384.817 536.387 384.653C536.421 384.489 536.388 384.318 536.296 384.179Z" fill="#464A5F"/>
<path d="M536.302 396.188L534.763 393.942C534.572 393.674 534.21 393.606 533.938 393.786L531.659 395.344C531.393 395.536 531.321 395.907 531.494 396.188L532.905 398.41C533.087 398.685 533.446 398.767 533.724 398.597L536.131 397.046C536.406 396.855 536.482 396.474 536.302 396.188Z" fill="#464A5F"/>
<path d="M532.28 399.165L530.748 396.94C530.559 396.674 530.199 396.606 529.928 396.785L527.662 398.372C527.395 398.56 527.321 398.928 527.492 399.209L528.895 401.41C529.076 401.686 529.437 401.768 529.716 401.596L532.11 400.064C532.255 399.973 532.357 399.824 532.389 399.653C532.421 399.482 532.382 399.305 532.28 399.165Z" fill="#464A5F"/>
<path d="M528.335 403.451L526.519 400.804C526.48 400.745 526.42 400.704 526.351 400.69C526.282 400.677 526.211 400.692 526.154 400.733L523.52 402.567C523.461 402.606 523.42 402.667 523.405 402.738C523.391 402.808 523.405 402.881 523.445 402.941L525.11 405.559C525.147 405.62 525.206 405.663 525.275 405.679C525.344 405.695 525.416 405.681 525.475 405.642L528.283 403.861C528.346 403.816 528.388 403.746 528.398 403.668C528.408 403.59 528.385 403.511 528.335 403.451Z" fill="#464A5F"/>
<path d="M523.339 406.453L521.531 403.798C521.445 403.679 521.282 403.65 521.161 403.733L518.516 405.562C518.398 405.649 518.365 405.815 518.441 405.942L520.104 408.561C520.183 408.686 520.345 408.723 520.468 408.644L523.258 406.862C523.329 406.825 523.379 406.757 523.395 406.678C523.411 406.598 523.39 406.515 523.339 406.453Z" fill="#464A5F"/>
<path d="M519.334 408.454L517.526 405.798C517.442 405.679 517.281 405.65 517.163 405.733L514.518 407.562C514.397 407.648 514.364 407.816 514.443 407.943L516.1 410.563C516.181 410.685 516.34 410.722 516.464 410.646L519.259 408.864C519.33 408.827 519.381 408.758 519.396 408.678C519.41 408.597 519.387 408.514 519.334 408.454Z" fill="#464A5F"/>
<path d="M514.331 412.453L512.536 409.804C512.497 409.745 512.436 409.704 512.368 409.69C512.299 409.677 512.228 409.692 512.171 409.733L509.518 411.568C509.397 411.651 509.364 411.817 509.442 411.942L511.105 414.561C511.184 414.686 511.346 414.723 511.47 414.644L514.273 412.862C514.341 412.821 514.386 412.751 514.397 412.672C514.408 412.592 514.384 412.512 514.331 412.453Z" fill="#464A5F"/>
<path d="M543.297 385.188L541.765 382.944C541.574 382.673 541.208 382.605 540.935 382.788L538.659 384.359C538.393 384.55 538.321 384.919 538.494 385.2L539.904 387.413C540.087 387.688 540.45 387.767 540.728 387.593L543.126 386.054C543.262 385.962 543.356 385.82 543.388 385.657C543.42 385.494 543.387 385.325 543.297 385.188Z" fill="#464A5F"/>
<path d="M538.297 389.184L536.759 386.945C536.57 386.677 536.208 386.605 535.935 386.783L533.659 388.355C533.393 388.546 533.321 388.916 533.494 389.197L534.904 391.411C535.085 391.685 535.443 391.767 535.721 391.598L538.126 390.051C538.262 389.96 538.356 389.817 538.388 389.654C538.42 389.491 538.387 389.322 538.297 389.184Z" fill="#464A5F"/>
<path d="M534.284 392.179L532.723 389.944C532.532 389.673 532.165 389.605 531.891 389.788L529.664 391.349C529.395 391.538 529.32 391.909 529.492 392.192L530.906 394.408C531.088 394.686 531.452 394.768 531.732 394.595L534.143 393.053C534.276 392.957 534.365 392.81 534.392 392.646C534.418 392.482 534.379 392.314 534.284 392.179Z" fill="#464A5F"/>
<path d="M529.294 395.182L527.757 392.941C527.566 392.674 527.205 392.606 526.934 392.785L524.658 394.352C524.393 394.543 524.321 394.914 524.494 395.195L525.903 397.41C526.084 397.685 526.442 397.767 526.72 397.598L529.123 396.056C529.261 395.964 529.356 395.82 529.388 395.656C529.42 395.491 529.386 395.321 529.294 395.182Z" fill="#464A5F"/>
<path d="M525.342 399.45L523.534 396.804C523.494 396.745 523.432 396.704 523.363 396.69C523.294 396.677 523.222 396.692 523.164 396.733L520.517 398.566C520.397 398.649 520.364 398.815 520.442 398.94L522.101 401.562C522.139 401.623 522.2 401.666 522.27 401.68C522.339 401.695 522.411 401.68 522.47 401.64L525.261 399.86C525.33 399.821 525.379 399.753 525.395 399.674C525.41 399.595 525.391 399.513 525.342 399.45Z" fill="#464A5F"/>
<path d="M520.334 401.454L518.52 398.804C518.482 398.745 518.421 398.704 518.352 398.69C518.284 398.677 518.213 398.692 518.155 398.733L515.518 400.563C515.397 400.648 515.364 400.816 515.443 400.943L517.106 403.563C517.187 403.685 517.347 403.722 517.471 403.646L520.277 401.864C520.342 401.821 520.386 401.751 520.397 401.672C520.408 401.594 520.385 401.514 520.334 401.454Z" fill="#464A5F"/>
<path d="M516.34 405.453L514.53 402.798C514.444 402.679 514.281 402.65 514.16 402.733L511.518 404.562C511.397 404.647 511.364 404.815 511.443 404.942L513.102 407.561C513.181 407.686 513.343 407.723 513.466 407.644L516.265 405.862C516.333 405.823 516.381 405.754 516.395 405.675C516.41 405.597 516.39 405.515 516.34 405.453Z" fill="#464A5F"/>
<path d="M512.343 407.451L510.533 404.805C510.493 404.745 510.432 404.704 510.362 404.69C510.293 404.677 510.221 404.692 510.163 404.733L507.52 406.567C507.461 406.605 507.419 406.667 507.405 406.737C507.391 406.808 507.405 406.881 507.444 406.94L509.104 409.563C509.142 409.623 509.202 409.665 509.271 409.68C509.339 409.694 509.411 409.68 509.469 409.64L512.268 407.86C512.335 407.819 512.381 407.751 512.395 407.673C512.41 407.594 512.391 407.514 512.343 407.451Z" fill="#464A5F"/>
<path d="M510.339 415.454L508.532 412.798C508.445 412.679 508.283 412.65 508.162 412.733L505.518 414.563C505.397 414.648 505.364 414.816 505.443 414.943L507.1 417.563C507.18 417.685 507.34 417.722 507.464 417.646L510.258 415.864C510.329 415.827 510.379 415.759 510.395 415.679C510.41 415.599 510.39 415.516 510.339 415.454Z" fill="#464A5F"/>
<path d="M505.339 418.451L503.532 415.805C503.492 415.745 503.431 415.704 503.361 415.69C503.292 415.677 503.22 415.692 503.162 415.733L500.517 417.567C500.397 417.65 500.364 417.816 500.442 417.941L502.099 420.558C502.137 420.62 502.198 420.664 502.267 420.679C502.337 420.695 502.409 420.681 502.469 420.641L505.258 418.861C505.329 418.824 505.379 418.756 505.395 418.676C505.41 418.596 505.39 418.514 505.339 418.451Z" fill="#464A5F"/>
<path d="M512.34 399.375L510.609 396.84C510.494 396.677 510.273 396.637 510.111 396.75L507.559 398.502C507.395 398.616 507.351 398.844 507.459 399.014L509.043 401.519C509.153 401.688 509.374 401.736 509.542 401.627L512.217 399.899C512.304 399.849 512.367 399.764 512.39 399.664C512.413 399.565 512.395 399.46 512.34 399.375Z" fill="#464A5F"/>
<path d="M508.335 403.374L506.6 400.846C506.546 400.765 506.463 400.71 506.369 400.692C506.275 400.674 506.178 400.695 506.1 400.75L503.558 402.507C503.396 402.619 503.351 402.845 503.458 403.013L505.047 405.516C505.157 405.685 505.377 405.736 505.547 405.631L508.235 403.904C508.317 403.847 508.374 403.76 508.393 403.66C508.412 403.561 508.391 403.458 508.335 403.374Z" fill="#464A5F"/>
<path d="M504.342 406.375L502.585 403.84C502.472 403.677 502.254 403.637 502.093 403.749L499.558 405.502C499.395 405.616 499.351 405.843 499.459 406.013L501.04 408.518C501.149 408.688 501.37 408.736 501.537 408.627L504.213 406.899C504.301 406.85 504.365 406.765 504.389 406.666C504.414 406.566 504.396 406.461 504.342 406.375Z" fill="#464A5F"/>
<path d="M499.34 409.453L497.531 406.798C497.445 406.679 497.282 406.65 497.161 406.733L494.514 408.562C494.395 408.649 494.364 408.817 494.444 408.942L496.103 411.561C496.182 411.686 496.344 411.723 496.468 411.644L499.265 409.862C499.333 409.823 499.381 409.754 499.395 409.675C499.41 409.597 499.39 409.515 499.34 409.453Z" fill="#464A5F"/>
<path d="M553.295 379.574L551.543 376.961C551.336 376.67 550.943 376.599 550.651 376.799L543.671 381.813C543.392 382.023 543.317 382.419 543.5 382.72L545.18 385.387C545.277 385.536 545.428 385.639 545.599 385.673C545.77 385.707 545.947 385.67 546.091 385.569L553.131 380.487C553.412 380.276 553.484 379.875 553.295 379.574Z" fill="#464A5F"/>
<path d="M507.346 410.885L505.226 407.815C505.182 407.749 505.114 407.703 505.037 407.69C504.959 407.676 504.88 407.695 504.817 407.743L497.525 412.979C497.395 413.073 497.361 413.256 497.448 413.392L499.447 416.547C499.49 416.616 499.559 416.664 499.637 416.68C499.715 416.696 499.797 416.678 499.862 416.632L507.276 411.31C507.408 411.212 507.44 411.023 507.346 410.885Z" fill="#464A5F"/>
<path d="M531.336 387.745L529.39 384.819C529.297 384.682 529.114 384.644 528.975 384.734L512.534 395.976C512.468 396.019 512.422 396.087 512.406 396.165C512.39 396.243 512.406 396.324 512.45 396.39L514.473 399.546C514.517 399.615 514.587 399.663 514.666 399.68C514.746 399.696 514.828 399.678 514.895 399.631L531.291 388.166C531.416 388.061 531.437 387.874 531.336 387.745Z" fill="#464A5F"/>
<path opacity="0.1" d="M532.106 377.306L523.138 364.402C522.622 363.655 521.594 363.461 520.836 363.967L496.134 380.388C495.767 380.634 495.514 381.015 495.43 381.446C495.346 381.878 495.439 382.324 495.689 382.687L504.83 395.96C505.078 396.324 505.463 396.575 505.899 396.657C506.335 396.738 506.786 396.644 507.151 396.395L531.68 379.591C532.043 379.345 532.293 378.965 532.372 378.536C532.452 378.107 532.356 377.664 532.106 377.306Z" fill="black"/>
<path d="M532.101 377.304L523.128 364.399C522.609 363.656 521.584 363.462 520.825 363.964L496.142 380.4C495.772 380.644 495.516 381.024 495.431 381.456C495.346 381.888 495.439 382.336 495.689 382.699L504.809 395.96C505.057 396.324 505.443 396.575 505.879 396.657C506.315 396.738 506.766 396.644 507.132 396.395L531.689 379.59C532.05 379.341 532.297 378.961 532.374 378.532C532.452 378.103 532.353 377.661 532.101 377.304Z" fill="#939498"/>
<path d="M585.909 397.939L567.249 391.685L507.4 433.454L525.923 439.517C526.936 439.849 528.044 439.684 528.918 439.072L586.079 399.139C586.306 399.004 586.431 398.744 586.393 398.482C586.356 398.219 586.165 398.005 585.909 397.939Z" fill="#1B51E5"/>
</svg>
