<svg width="740" height="814" viewBox="0 0 740 814" fill="none" xmlns="http://www.w3.org/2000/svg">
<path opacity="0.2" d="M157.88 341.883C135.328 360.264 113.48 380.832 99.7521 406.78C79.564 444.93 79.8753 492.921 100.593 528.296C118.134 558.289 147.714 577.818 173.021 600.986C204.2 629.519 229.426 664.291 253.301 699.65C266.13 718.643 279.066 738.338 297.803 751.058C323.82 768.715 358.894 770.462 389.526 759.125C420.157 747.789 446.377 724.386 465.206 696.574C475.226 681.774 483.515 665.048 484.71 647.455C485.975 628.84 479.231 610.845 480.632 592.23C481.929 574.98 490.137 558.664 499.732 543.996C512.258 524.845 527.421 507.554 544.773 492.635C564.441 475.745 586.59 462.269 606.322 445.516C626.053 428.763 643.913 407.552 650.09 382.318C655.9 358.596 650.794 334.272 644.596 311.42C634.505 274.078 621.391 237.62 605.384 202.408C594.637 178.81 582.364 155.535 564.39 137.47C530.029 102.925 475.317 91.5729 428.067 109.175C388.92 123.761 357.308 155.415 330.085 188.549C305.26 218.764 282.614 257.198 250.432 279.624C219.726 300.999 187.337 317.884 157.88 341.883Z" fill="#1B51E5"/>
<path d="M197.4 642.686C197.4 642.686 189.979 600.883 162.433 580.167C150.875 571.474 142.419 559.652 138.725 546.189C136.987 539.809 135.873 533.278 135.4 526.686" stroke="#535461" stroke-width="2"/>
<path d="M118.348 513.89C120.602 518.451 135.66 527.686 135.66 527.686C135.66 527.686 137.553 510.435 135.283 505.867C133.012 501.3 127.396 499.395 122.709 501.608C118.022 503.822 116.078 509.322 118.348 513.89Z" fill="#1B51E5"/>
<path d="M116.966 545.341C121.46 547.908 139.4 547.68 139.4 547.68C139.4 547.68 131.306 532.552 126.829 529.985C122.353 527.418 116.5 528.772 113.781 533.013C111.062 537.253 112.479 542.774 116.966 545.341Z" fill="#1B51E5"/>
<path d="M139.785 586.685C145.031 586.759 160.4 577.985 160.4 577.985C160.4 577.985 145.327 568.767 140.075 568.687C134.823 568.607 130.504 572.577 130.402 577.546C130.299 582.515 134.533 586.594 139.785 586.685Z" fill="#1B51E5"/>
<path d="M164.248 615.592C169.469 616.514 186.4 610.297 186.4 610.297C186.4 610.297 173.019 598.743 167.804 597.839C162.589 596.934 157.546 600.129 156.567 605.052C155.587 609.976 159.022 614.676 164.248 615.592Z" fill="#1B51E5"/>
<path d="M157.826 539.66C156.028 544.295 141.845 554.686 141.845 554.686C141.845 554.686 138.089 538.206 139.887 533.571C141.685 528.936 147.159 526.542 152.107 528.223C157.055 529.904 159.624 535.031 157.826 539.66Z" fill="#1B51E5"/>
<path d="M186.44 573.504C183.244 577.552 166.4 583.686 166.4 583.686C166.4 583.686 168.112 566.366 171.284 562.324C174.608 558.257 180.43 557.493 184.648 560.572C186.644 561.98 187.974 564.179 188.314 566.636C188.654 569.093 187.975 571.583 186.44 573.504Z" fill="#1B51E5"/>
<path d="M209.28 609.774C206.767 614.15 190.791 622.686 190.791 622.686C190.791 622.686 189.387 605.858 191.9 601.482C194.413 597.106 200.338 595.417 205.141 597.707C209.944 599.997 211.788 605.398 209.28 609.774Z" fill="#1B51E5"/>
<path opacity="0.25" d="M118.348 513.89C120.602 518.451 135.66 527.686 135.66 527.686C135.66 527.686 137.553 510.435 135.283 505.867C133.012 501.3 127.396 499.395 122.709 501.608C118.022 503.822 116.078 509.322 118.348 513.89Z" fill="black"/>
<path opacity="0.25" d="M116.966 545.341C121.46 547.908 139.4 547.68 139.4 547.68C139.4 547.68 131.306 532.552 126.829 529.985C122.353 527.418 116.5 528.772 113.781 533.013C111.062 537.253 112.479 542.774 116.966 545.341Z" fill="black"/>
<path opacity="0.25" d="M139.785 586.685C145.031 586.759 160.4 577.985 160.4 577.985C160.4 577.985 145.327 568.767 140.075 568.687C134.823 568.607 130.504 572.577 130.402 577.546C130.299 582.515 134.533 586.594 139.785 586.685Z" fill="black"/>
<path opacity="0.25" d="M164.248 615.592C169.469 616.514 186.4 610.297 186.4 610.297C186.4 610.297 173.019 598.743 167.804 597.839C162.589 596.934 157.546 600.129 156.567 605.052C155.587 609.976 159.022 614.676 164.248 615.592Z" fill="black"/>
<path opacity="0.25" d="M157.826 539.66C156.028 544.295 141.845 554.686 141.845 554.686C141.845 554.686 138.089 538.206 139.887 533.571C141.685 528.936 147.159 526.542 152.107 528.223C157.055 529.904 159.624 535.031 157.826 539.66Z" fill="black"/>
<path opacity="0.25" d="M186.44 573.504C183.244 577.552 166.4 583.686 166.4 583.686C166.4 583.686 168.112 566.366 171.284 562.324C174.608 558.257 180.43 557.493 184.648 560.572C186.644 561.98 187.974 564.179 188.314 566.636C188.654 569.093 187.975 571.583 186.44 573.504Z" fill="black"/>
<path opacity="0.25" d="M209.28 609.774C206.767 614.15 190.791 622.686 190.791 622.686C190.791 622.686 189.387 605.858 191.9 601.482C194.413 597.106 200.338 595.417 205.141 597.707C209.944 599.997 211.788 605.398 209.28 609.774Z" fill="black"/>
<path d="M196.524 641.686C196.524 641.686 208.004 600.528 191.45 571.025C184.504 558.648 181.823 544.584 184.311 530.831C185.505 524.291 187.342 517.88 189.796 511.686" stroke="#535461" stroke-width="2"/>
<path d="M180.406 493.874C180.588 498.773 190.604 512.686 190.604 512.686C190.604 512.686 199.579 498.165 199.397 493.26C199.215 488.356 194.819 484.522 189.575 484.691C184.331 484.86 180.218 488.97 180.406 493.874Z" fill="#1B51E5"/>
<path d="M165.085 521.894C168.06 525.984 184.4 532.686 184.4 532.686C184.4 532.686 183.498 515.651 180.523 511.556C177.402 507.441 171.69 506.465 167.417 509.316C165.393 510.608 163.991 512.7 163.549 515.087C163.106 517.475 163.662 519.942 165.085 521.894Z" fill="#1B51E5"/>
<path d="M167.902 568.775C172.653 570.847 190.4 568.735 190.4 568.735C190.4 568.735 180.597 554.585 175.845 552.512C171.094 550.44 165.469 552.399 163.275 556.89C161.081 561.382 163.156 566.702 167.902 568.775Z" fill="#1B51E5"/>
<path d="M177.62 604.119C182.052 606.938 200.4 607.686 200.4 607.686C200.4 607.686 193.075 592.102 188.649 589.289C184.225 586.465 178.328 587.46 175.122 591.572C173.655 593.529 173.089 595.998 173.564 598.382C174.039 600.766 175.51 602.846 177.62 604.119Z" fill="#1B51E5"/>
<path d="M204.721 532.936C201.033 536.522 183.4 540.686 183.4 540.686C183.4 540.686 187.14 524.038 190.822 520.452C194.601 516.862 200.528 516.753 204.439 520.2C206.271 521.8 207.344 524.087 207.398 526.507C207.451 528.926 206.481 531.258 204.721 532.936Z" fill="#1B51E5"/>
<path d="M216.361 574.023C211.668 576.478 193.4 575.488 193.4 575.488C193.4 575.488 202.351 560.255 207.044 557.818C211.738 555.381 217.632 557.004 220.202 561.48C222.772 565.956 221.078 571.569 216.361 574.023Z" fill="#1B51E5"/>
<path d="M221.746 615.691C217.557 618.774 199.4 620.686 199.4 620.686C199.4 620.686 205.518 604.717 209.707 601.633C213.93 598.556 219.853 599.188 223.304 603.084C224.895 604.921 225.632 607.328 225.336 609.722C225.04 612.116 223.738 614.28 221.746 615.691Z" fill="#1B51E5"/>
<path fill-rule="evenodd" clip-rule="evenodd" d="M666.683 396.354C667.41 398.014 668.681 400.911 668.433 401.588C668.295 401.967 668.716 402.861 669.203 403.895C669.925 405.426 670.792 407.266 670.208 408.206C669.428 409.583 668.738 411.009 668.141 412.474C668.141 412.474 664.1 420.158 662.039 421.613C659.978 423.068 650.527 435.278 650.527 435.278C650.527 435.278 640.389 446.897 640.389 450.484C640.389 450.484 639.817 449.533 638.872 448.106L640.384 473.718C640.384 473.718 636.863 476.703 636.09 477.046C632.484 479.522 626.382 475.597 625.437 474.823C624.939 474.411 621.562 474.52 618.568 474.709C619.232 488.568 616.421 491.227 616.421 491.227L616.084 503.259C616.084 503.259 616.519 521.628 615.225 524.527C613.931 527.426 613.931 539.132 613.931 539.132C613.931 539.132 614.79 544.678 613.845 545.875C612.901 547.073 613.593 551.525 614.28 553.817C614.967 556.108 614.361 561.838 614.361 561.838L614.189 594.124C614.189 594.124 613.25 602.489 612.042 603.692C611.336 604.41 611.074 605.453 611.355 606.42C611.355 606.42 610.325 611.198 610.582 612.057C610.84 612.917 611.361 614.876 609.38 615.816C607.4 616.756 607.915 619.746 607.915 619.746C607.705 619.697 607.493 619.659 607.279 619.632C607.337 619.981 607.405 620.342 607.486 620.686C607.584 621.326 607.818 621.938 608.172 622.479C609.037 623.419 609.552 627.602 609.552 627.602C609.552 627.602 612.643 633.75 612.3 635.119C612.048 636.139 611.739 637.972 611.596 638.837C611.527 639.13 611.527 639.307 611.527 639.307C611.527 639.307 609.81 643.066 600.273 644.429C590.736 645.793 590.736 641.267 590.736 641.267C590.736 641.267 590.77 640.78 590.833 640.052C590.861 639.756 590.892 639.42 590.925 639.06C591.116 636.986 591.38 634.105 591.595 633.411C591.909 632.3 591.337 627.43 591.337 627.43L591.234 622.342V621.328C590.347 621.505 589.814 621.626 589.814 621.626C588.364 618.652 587.101 615.59 586.031 612.459C585.567 611.177 585.678 609.758 586.336 608.565C586.994 607.372 588.135 606.521 589.465 606.23C591.274 605.955 588.177 602.793 588.177 602.793C588.177 602.793 588.521 602.363 587.662 599.292C586.829 596.313 587.773 588.828 588.066 586.509L588.091 586.309C588.349 584.258 589.637 574.351 589.637 574.351C589.637 574.351 588.95 561.792 589.465 561.282C589.98 560.772 591.709 555.816 590.845 554.195C589.98 552.573 588.606 541.899 588.606 541.298C588.606 540.696 587.49 526.859 587.49 526.859C587.49 526.859 586.471 517.262 586.729 515.211C586.986 513.16 586.042 505.557 586.042 505.557C586.042 499.214 582.35 492.379 582.35 492.379L582.258 492.625L574.244 513.481C574.244 513.481 572.985 519.8 571.84 523.387C571.126 525.836 570.559 528.325 570.14 530.841L570.065 531.294C570.054 531.356 570.042 531.414 570.031 531.469C570.006 531.588 569.985 531.691 569.985 531.781L569.934 532.119C569.934 532.119 570.535 536.651 569.59 538.1C568.646 539.55 567.615 543.904 567.615 545.102C567.615 546.299 567.695 550.912 567.695 550.912C567.695 550.912 568.073 560.05 567.123 561.076C566.173 562.102 566.688 562.955 566.688 562.955C566.688 562.955 568.199 569.831 567.512 571.624C566.825 573.417 567.34 577.6 567.34 577.6C567.34 577.6 565.972 590.841 565.795 591.523C565.617 592.205 564.667 597.51 565.703 597.934C566.739 598.358 568.709 600.919 568.709 600.919C568.709 600.919 569.144 612.098 567.598 612.951C566.052 613.805 566.905 618.165 566.905 618.165L566.247 618.285C566.31 618.601 566.379 618.939 566.436 619.277C566.68 620.281 566.782 621.315 566.739 622.348C566.632 623.111 566.85 623.885 567.34 624.479L567.724 627.968L567.856 629.183C567.856 629.183 560.643 633.876 557.031 633.194C553.419 632.512 549.721 634.391 549.721 634.391C547.23 637.094 544.097 639.122 540.613 640.287C534.769 642.235 526.611 641.479 521.969 639.943C519.771 639.215 519.599 638.264 520.658 637.118C521.773 635.893 524.258 634.425 527.18 632.699C527.333 632.609 527.487 632.518 527.642 632.426C533.572 628.925 539.926 622.004 539.926 622.004C539.926 622.004 540.035 620.297 541.071 619.529C541.698 618.984 542.273 618.382 542.788 617.73L543.286 617.157L542.714 617.071L543.573 614.263C543.521 614.361 542.954 615.272 542.542 611.777C542.119 608.104 545.725 609.897 545.725 609.897C545.725 609.897 548.559 610.591 544.008 606.145C539.457 601.698 541.661 597.172 541.947 597.172C542.233 597.172 542.806 590.6 542.806 590.6C542.806 590.6 543.573 586.67 542.977 583.593C542.382 580.516 541.867 570.954 541.867 570.954C541.867 570.954 542.29 563.7 541.518 561.047C540.81 558.617 541.831 554.402 542.206 552.858C542.24 552.717 542.269 552.598 542.29 552.505C542.548 551.393 541.518 541.229 541.518 541.229C541.518 541.229 542.382 536.456 541.867 532.95C541.352 529.443 542.382 516.546 542.382 516.546L543.979 501.729C543.979 501.729 545.095 497.117 544.924 495.238C544.752 493.358 546.212 486.781 546.212 486.781C546.126 485.381 546.361 483.98 546.899 482.684C547.245 481.832 547.478 480.938 547.591 480.026C545.113 478.187 543.636 474.909 543.636 474.909C543.445 474.584 543.271 474.249 543.115 473.907L544.489 468.103C544.489 468.103 544.574 460.07 545.433 458.534C546.292 456.999 546.807 452.558 546.807 452.558C546.807 452.558 548.387 442.772 548.662 440.664C548.361 440.609 548.052 440.609 547.752 440.664C547.752 440.664 547.832 440.263 547.969 439.592C547.724 439.574 547.477 439.59 547.236 439.638C547.236 439.638 550.934 421.086 552.909 416.915C554.884 412.744 554.541 401.285 554.541 401.285C554.541 401.285 550.671 402.482 550.499 403.508C550.327 404.533 545.347 411.449 545.347 411.449C545.347 411.449 544.208 415.637 539.05 418.37C533.893 421.103 528.226 417.854 527.367 416.749C526.594 415.746 511.568 409.151 508.557 407.839L508.03 407.61L508.064 407.432V407.341L507.492 407.1L508.064 407.278C508.144 406.911 508.305 406.252 508.545 405.393C508.572 405.363 508.573 405.344 508.575 405.316C508.577 405.296 508.579 405.271 508.591 405.232C508.604 405.191 508.612 405.16 508.622 405.124C508.633 405.082 508.646 405.033 508.671 404.951C508.684 404.911 508.697 404.869 508.71 404.827C508.745 404.715 508.781 404.598 508.814 404.482L508.866 404.31C508.885 404.25 508.905 404.19 508.925 404.129C508.959 404.028 508.994 403.925 509.026 403.817C509.055 403.794 509.055 403.743 509.055 403.743C509.312 402.952 509.627 402.087 509.999 401.193L507.79 398.328L507.526 398.133L497.251 388.525C495.422 386.819 494.388 384.425 494.4 381.922C494.412 379.419 495.468 377.036 497.314 375.347C498.288 374.448 498.723 375.62 498.869 376.013C498.887 376.064 498.901 376.102 498.911 376.12C505.357 376.911 516.33 387.224 516.33 387.224L517.681 388.725L518.185 389.298C518.297 388.838 518.248 388.353 518.048 387.923C517.739 387.465 519.891 389.47 520.91 390.433C520.909 390.421 520.909 390.41 520.91 390.398C520.921 390.423 520.934 390.446 520.95 390.467L521.425 390.914C522.971 393.647 529.76 395.183 529.76 395.183L532.679 393.389C532.937 390.06 537.665 386.13 537.665 386.13C537.665 386.13 539.062 384.589 539.812 381.26C540.562 377.931 543.424 378.355 543.424 378.355L543.767 373.491C543.767 373.491 546.315 372.115 546.057 369.388C545.799 366.661 548.805 361.367 548.805 361.367C548.805 361.367 550.156 360.857 550.436 355.471C550.717 350.085 553.298 349.742 553.298 349.742L560.603 349.318C561.204 347.266 576.843 344.791 576.843 344.791C576.843 344.791 579.591 343.76 581.05 341.543C582.51 339.325 584.061 340.093 584.061 340.093L584.29 340.316C584.282 340.241 584.273 340.176 584.264 340.106C584.255 340.033 584.245 339.955 584.233 339.852C584.224 339.777 584.212 339.703 584.199 339.63C584.179 339.51 584.159 339.394 584.159 339.279C577.264 335.852 572.9 328.816 572.887 321.111V320.819V320.297C572.334 320.558 571.759 320.77 571.17 320.933C571.027 320.973 570.878 321.008 570.735 321.037C570.16 321.159 569.571 321.205 568.983 321.174C568.922 321.169 568.863 321.161 568.803 321.152C568.718 321.14 568.633 321.128 568.548 321.128C568.294 321.093 568.044 321.037 567.798 320.962L567.678 320.933C567.764 320.658 567.861 320.395 567.959 320.131C568.805 317.812 570.125 315.695 571.834 313.915C572.232 313.566 572.557 313.141 572.79 312.666C572.945 312.246 572.971 311.789 572.864 311.354C572.671 310.666 572.404 310.001 572.069 309.371L572 309.211L571.914 309.016C571.903 308.987 571.891 308.958 571.88 308.929C571.84 308.828 571.801 308.729 571.765 308.626C571.763 308.603 571.763 308.58 571.765 308.558C571.758 308.537 571.751 308.513 571.742 308.489C571.703 308.374 571.657 308.235 571.657 308.202V308.082C571.623 307.94 571.599 307.797 571.582 307.652C571.571 307.5 571.571 307.347 571.582 307.194C571.582 307.175 571.581 307.159 571.58 307.142C571.577 307.108 571.574 307.074 571.582 307.016C571.594 306.93 571.611 306.833 571.628 306.758C571.642 306.698 571.659 306.634 571.675 306.579C571.678 306.566 571.682 306.553 571.685 306.541C571.692 306.517 571.701 306.495 571.711 306.472C571.727 306.434 571.742 306.397 571.742 306.357C572.07 305.506 572.617 304.757 573.328 304.186C573.772 303.817 574.252 303.497 574.73 303.178C575.344 302.769 575.957 302.36 576.494 301.848C577.58 300.816 578.301 299.434 579.02 298.056C579.813 296.535 580.604 295.019 581.88 293.982C583.993 292.263 586.901 292.291 589.528 292.658C589.898 292.71 590.27 292.766 590.642 292.823C592.916 293.168 595.227 293.518 597.411 292.824C598.413 292.503 599.339 291.973 600.265 291.443C601.09 290.971 601.916 290.498 602.797 290.171C606.713 288.71 611.475 290.653 613.496 294.537C614.178 295.858 614.557 297.302 614.937 298.747C615.229 299.861 615.521 300.974 615.952 302.032C616.276 302.828 616.674 303.585 617.073 304.341C617.477 305.109 617.882 305.876 618.207 306.684C618.953 308.598 619.245 310.659 619.06 312.706C619.032 313.067 618.98 313.422 618.923 313.777C618.916 313.821 618.905 313.865 618.895 313.909C618.877 313.98 618.86 314.05 618.86 314.121C618.808 314.379 618.751 314.637 618.688 314.889L618.602 315.21C618.505 315.559 618.385 315.931 618.265 316.247C618.144 316.562 618.013 316.877 617.87 317.181C617.554 317.863 617.198 318.529 616.843 319.194C616.082 320.617 615.324 322.036 614.973 323.598C614.852 324.194 614.762 324.797 614.704 325.402C614.697 325.45 614.689 325.497 614.681 325.544C614.661 325.658 614.641 325.772 614.641 325.889C614.641 325.912 614.643 325.929 614.645 325.945C614.649 325.979 614.653 326.013 614.641 326.101C614.624 326.233 614.595 326.422 614.584 326.491C614.579 326.522 614.575 326.543 614.57 326.568C614.564 326.599 614.556 326.637 614.544 326.709C614.538 326.743 614.532 326.782 614.526 326.821C614.51 326.933 614.493 327.052 614.464 327.098C614.423 327.161 614.423 327.23 614.423 327.293C614.378 327.494 614.32 327.683 614.257 327.866C613.959 328.806 613.303 329.59 612.431 330.049C612.407 330.059 612.382 330.071 612.357 330.084C612.307 330.11 612.258 330.135 612.208 330.135C612.023 330.193 611.83 330.223 611.636 330.227C611.556 330.393 611.475 330.565 611.384 330.731C610.521 332.332 609.446 333.81 608.19 335.125C608.391 335.893 608.651 336.644 608.968 337.371L609.002 337.434C609.025 337.471 609.058 337.524 609.1 337.593C609.584 338.386 611.283 341.17 612.237 341.898L615.923 344.717C615.923 344.717 619.621 346.436 620.909 346.436C622.197 346.436 629.158 348.229 630.022 349.169C630.434 349.498 630.95 349.669 631.476 349.65C632.083 349.611 632.687 349.537 633.285 349.426L633.629 349.535C634.035 349.478 634.316 349.426 634.316 349.426C634.316 349.426 637.144 350.389 639.639 350.962C642.135 351.535 643.337 355.643 642.822 357.264C642.403 358.906 642.86 360.647 644.03 361.871C645.06 362.897 645.576 366.225 645.576 366.225C646.838 366.637 647.888 367.528 648.501 368.706C649.096 370.001 649.136 372.373 649.136 373.703C649.102 374.293 649.102 374.682 649.102 374.682C649.113 374.682 654.26 374.774 654.775 379.042C655.29 383.311 660.013 385.276 660.013 385.276C660.013 385.276 663.539 388.777 663.539 390.398C663.539 391.558 664.899 393.373 665.675 394.408C665.984 394.82 666.201 395.109 666.201 395.183C666.201 395.255 666.401 395.712 666.683 396.354ZM638.18 417.998C638.243 416.703 643.681 410.807 646.257 410.549C646.257 410.549 646.669 407.077 645.553 406.991C644.436 406.905 643.492 404.172 643.492 404.172C643.492 404.172 638.094 397.853 636.377 392.495L636.285 392.627C636.285 392.627 636.462 399.543 635.941 401.078C635.644 401.972 636.302 411.168 636.909 418.714C636.931 419.014 636.956 419.313 636.98 419.609C636.999 419.838 637.017 420.065 637.035 420.289C637.567 419.579 638.14 418.674 638.18 417.998Z" fill="url(#paint0_linear)"/>
<path d="M508.4 408.589C508.4 408.589 511.595 391.773 521.882 391.685L529.4 407.2L524.388 410.668C524.388 410.668 513.499 411.014 508.4 408.589Z" fill="#65617D"/>
<path opacity="0.1" d="M529.4 407.196L524.388 410.668C524.388 410.668 516.724 410.914 511.245 409.56C510.268 409.327 509.315 409.001 508.4 408.586C508.4 408.586 508.4 408.492 508.458 408.316C508.458 408.316 508.458 408.275 508.458 408.252C508.93 406.14 509.581 404.072 510.404 402.071C510.725 401.315 511.081 400.535 511.467 399.755C512.974 396.823 515.088 393.996 517.986 392.583C519.057 392.055 520.223 391.75 521.415 391.685H521.718H521.87L522.034 392.031L524.575 397.274L529.4 407.196Z" fill="black"/>
<path d="M613.176 475.923C613.176 475.923 623.873 474.905 624.809 475.67C625.746 476.435 631.823 480.347 635.419 477.879C639.015 475.411 636.616 466.816 636.616 466.477C636.616 466.137 636.275 453.964 636.275 453.964L629.857 445.369L621.82 430.308L605.4 428.685L605.828 452.606L605.741 464.86L613.176 475.923Z" fill="#65617D"/>
<path opacity="0.1" d="M613.176 475.923C613.176 475.923 623.873 474.905 624.809 475.67C625.746 476.435 631.823 480.347 635.419 477.879C639.015 475.411 636.616 466.816 636.616 466.477C636.616 466.137 636.275 453.964 636.275 453.964L629.857 445.369L621.82 430.308L605.4 428.685L605.828 452.606L605.741 464.86L613.176 475.923Z" fill="black"/>
<path d="M519.4 392.22C519.4 392.22 518.557 402.52 512.159 402.685C512.159 402.685 510.343 401.59 507.901 399.764C502.276 395.547 493.356 387.438 495.821 379.894C499.356 369.092 516.537 389.025 516.537 389.025L517.852 390.508L519.4 392.22Z" fill="#FBBEBE"/>
<path opacity="0.1" d="M519.4 392.372C519.4 392.372 518.56 402.522 512.183 402.685C512.183 402.685 510.373 401.606 507.939 399.806L507.4 399.115C508.483 399.674 509.675 399.993 510.895 400.048C512.859 400.126 514.666 398.99 515.434 397.197C516.105 395.892 516.694 394.548 517.198 393.171C517.509 392.369 517.73 391.535 517.857 390.685L519.4 392.372Z" fill="black"/>
<path d="M516.964 410.685L515.557 408.849L510.815 402.651L508.4 399.49C509.461 400.053 510.631 400.373 511.828 400.425C513.403 400.465 515.167 399.862 516.28 397.574C516.937 396.264 517.515 394.915 518.011 393.534C518.79 391.281 518.779 390.154 518.5 389.742C518.222 389.331 520.248 391.252 521.222 392.188L521.255 392.222L521.711 392.655L521.878 392.993L524.266 397.822C524.266 397.822 524.266 397.89 524.266 398.025C524.5 399.574 525.306 409.305 516.964 410.685Z" fill="#E7EFFD"/>
<path d="M567.4 628.337C567.4 628.337 560.306 633.052 556.761 632.392C553.217 631.732 549.581 633.597 549.581 633.597C547.137 636.305 544.056 638.339 540.626 639.51C534.919 641.48 526.871 640.703 522.311 639.163C520.154 638.433 519.977 637.495 521.015 636.33C522.157 635.033 524.817 633.475 527.864 631.622C533.692 628.112 539.936 621.196 539.936 621.196C539.936 621.196 540.021 619.458 541.037 618.717C541.663 618.17 542.236 617.565 542.749 616.91C543.657 615.821 544.507 614.686 544.507 614.686L565.374 615.3C565.374 615.3 565.728 616.823 566.007 618.381C566.245 619.391 566.343 620.43 566.298 621.468C566.19 622.23 566.397 623.003 566.869 623.605L567.246 627.081L567.4 628.337Z" fill="#65617D"/>
<path d="M611.374 634.292C611.126 635.295 610.809 637.092 610.691 637.936L610.617 638.401C610.617 638.401 608.923 642.09 599.675 643.433C590.428 644.776 590.4 640.327 590.4 640.327C590.4 640.327 590.434 639.851 590.49 639.132C590.654 637.171 590.987 633.414 591.236 632.615C591.564 631.527 590.982 626.744 590.982 626.744L590.886 621.752L590.812 618.284L606.194 616.686C606.289 617.839 606.455 618.986 606.691 620.12C606.785 620.749 607.015 621.35 607.363 621.882C608.199 622.806 608.697 626.914 608.697 626.914C608.697 626.914 611.707 632.949 611.374 634.292Z" fill="#65617D"/>
<path opacity="0.1" d="M565.776 615.356C565.776 615.356 566.124 616.839 566.4 618.355C564.179 618.767 554.475 620.452 552.052 619.274C549.303 617.938 543.4 617.188 543.4 617.188L543.495 616.85C544.389 615.79 545.227 614.686 545.227 614.686L565.776 615.356Z" fill="black"/>
<path opacity="0.1" d="M606.4 620.075C602.475 619.42 593.887 621.003 590.474 621.686L590.4 618.263L605.888 616.686C605.987 617.825 606.158 618.957 606.4 620.075Z" fill="black"/>
<path d="M615.166 492.107L614.83 504.072C614.83 504.072 615.252 522.318 613.988 525.203C612.724 528.088 612.724 539.715 612.724 539.715C612.724 539.715 613.567 545.227 612.639 546.414C611.711 547.601 612.388 552.012 613.06 554.307C613.732 556.601 613.145 562.285 613.145 562.285L612.974 594.36C612.974 594.36 612.052 602.671 610.868 603.864C610.176 604.581 609.92 605.617 610.196 606.577C610.196 606.577 609.188 611.327 609.439 612.181C609.689 613.036 610.196 614.98 608.261 615.91C606.325 616.839 606.826 619.816 606.826 619.816C602.197 618.709 589.057 621.685 589.057 621.685C587.638 618.737 586.4 615.702 585.351 612.6C584.893 611.329 585.001 609.922 585.646 608.737C586.291 607.552 587.412 606.704 588.722 606.411C590.486 606.153 587.458 603.015 587.458 603.015C587.458 603.015 587.794 602.591 586.951 599.539C586.108 596.488 587.116 588.641 587.372 586.634C587.628 584.626 588.887 574.755 588.887 574.755C588.887 574.755 588.215 562.285 588.722 561.775C589.228 561.264 590.908 556.343 590.071 554.731C589.234 553.119 587.873 542.514 587.873 541.917C587.873 541.321 586.786 527.578 586.786 527.578C586.786 527.578 585.772 517.987 586.029 515.951C586.285 513.915 585.351 506.367 585.351 506.367C585.351 500.057 581.73 493.295 581.73 493.295L581.639 493.541L573.834 514.259C573.834 514.259 572.57 520.534 571.477 524.096C570.786 526.518 570.236 528.979 569.832 531.467L569.758 531.92C569.758 532.109 569.701 532.27 569.684 532.396L569.632 532.74C569.632 532.74 570.202 537.237 569.291 538.682C568.38 540.128 567.355 544.452 567.355 545.64C567.355 546.827 567.44 551.41 567.44 551.41C567.44 551.41 567.776 560.49 566.871 561.511C565.966 562.532 566.444 563.375 566.444 563.375C566.444 563.375 567.959 570.258 567.287 572.03C566.615 573.803 567.122 577.967 567.122 577.967C567.122 577.967 565.772 591.125 565.607 591.802C565.442 592.479 564.508 597.744 565.522 598.169C566.535 598.593 568.465 601.134 568.465 601.134C568.465 601.134 568.892 612.256 567.372 613.099C565.852 613.942 566.695 618.261 566.695 618.261C566.695 618.261 554.488 620.636 551.71 619.276C548.932 617.917 542.948 617.154 542.948 617.154L543.785 614.367C543.734 614.464 543.176 615.37 542.778 611.894C542.362 608.246 545.897 610.025 545.897 610.025C545.897 610.025 548.676 610.707 544.19 606.296C539.703 601.885 541.912 597.383 542.168 597.383C542.425 597.383 543.017 590.855 543.017 590.855C543.017 590.855 543.774 586.949 543.182 583.892C542.59 580.835 542.089 571.331 542.089 571.331C542.089 571.331 542.51 564.121 541.753 561.494C540.996 558.867 542.254 554.106 542.51 553.005C542.766 551.903 541.724 541.831 541.724 541.831C541.724 541.831 542.567 537.082 542.06 533.606C541.554 530.13 542.567 517.311 542.567 517.311L544.081 502.546C544.081 502.546 545.174 497.958 545.009 496.094C544.844 494.23 546.279 487.696 546.279 487.696C546.193 486.305 546.423 484.912 546.951 483.624C547.793 481.903 548.129 476.328 548.129 476.328L556.219 457.658L560.204 441.196L613.68 440.685C613.68 440.685 613.88 442.114 614.204 444.701C614.529 447.287 614.984 451.13 615.491 455.874C615.958 460.182 616.47 465.246 616.965 470.885C618.582 488.884 615.166 492.107 615.166 492.107Z" fill="#3F3D56"/>
<path d="M611.4 343.413L598.698 356.685C598.698 356.685 582.4 350.299 584.117 348.119C584.778 347.273 584.697 344.605 584.291 341.664C583.711 337.009 582.4 331.656 582.4 331.656C582.4 331.656 610.884 327.115 608.5 331.821C607.624 333.524 607.775 335.545 608.32 337.401C609.01 339.554 610.05 341.584 611.4 343.413Z" fill="#FBBEBE"/>
<path opacity="0.1" d="M608.257 331.815C607.389 333.511 606.975 333.692 607.516 335.54C603.824 339.424 599.127 343.685 593.285 343.685C590.158 343.69 587.074 342.98 584.274 341.611C583.699 336.976 582.4 331.646 582.4 331.646C582.4 331.646 610.638 327.124 608.257 331.815Z" fill="black"/>
<path d="M613.4 322.924C613.216 333.891 604.316 342.685 593.4 342.685C582.484 342.685 573.584 333.891 573.4 322.924C573.4 322.827 573.4 322.73 573.4 322.638C573.478 311.54 582.495 302.607 593.539 302.686C604.583 302.765 613.473 311.825 613.394 322.924H613.4Z" fill="#FBBEBE"/>
<path opacity="0.1" d="M616.4 455.379C613.717 455.379 604.778 455.472 594.785 455.62H594.664L591.366 455.675H591.262C579.416 455.856 567.736 453.651 563.056 454.068C553.098 454.957 566.637 445.294 566.637 445.294C574.061 447.013 581.698 447.751 589.334 447.488L592.212 447.345C601.261 446.857 610.362 446.046 615.116 444.686C615.433 447.197 615.888 450.844 616.4 455.379Z" fill="black"/>
<path d="M616.4 455.379C613.717 455.379 604.778 455.472 594.785 455.62H594.664L591.366 455.675H591.262C579.416 455.856 567.736 453.65 563.056 454.067C553.098 454.962 566.637 445.289 566.637 445.289C574.061 447.009 581.698 447.747 589.334 447.484L592.212 447.341C601.261 446.853 610.362 446.041 615.116 444.686C615.433 447.198 615.888 450.83 616.4 455.379Z" fill="#5F5D7E"/>
<path opacity="0.1" d="M587.98 348.722L572.411 355.987L560.4 448.685C560.4 448.685 567.504 445.478 571.57 447.504C575.637 449.53 588.157 447.675 588.157 447.675C588.157 447.675 597.308 447.167 598.652 448.183C599.996 449.199 615.903 443.937 615.903 443.937C615.903 443.937 618.762 437.523 616.577 436.518C614.393 435.514 617.275 425.555 617.275 425.555L615.903 358.686L613.191 350.074L605.916 345.685L598.481 351.592L594.929 352.1L587.98 348.722Z" fill="black"/>
<path d="M587.974 347.727L572.409 354.986L560.4 447.685C560.4 447.685 567.502 444.478 571.568 446.504C575.634 448.53 588.151 446.67 588.151 446.67C588.151 446.67 597.301 446.168 598.645 447.178C599.989 448.188 615.903 442.955 615.903 442.955C615.903 442.955 618.762 436.54 616.578 435.536C614.393 434.532 617.264 424.545 617.264 424.545L615.891 357.685L613.181 349.08L605.907 344.685L598.473 350.598L594.922 351.106L587.974 347.727Z" fill="#E7EFFD"/>
<path opacity="0.1" d="M587.509 352.082C587.509 352.082 591.993 357.436 591.913 358.545C591.833 359.654 591.656 362.285 591.656 362.285L588.269 369.18C588.269 369.18 586.411 377.763 586.411 379.55C586.411 381.337 583.448 396.786 583.448 396.786L579.884 420.589L575.4 451.786L579.976 459.685L585.387 455.089L592.582 399.498L594.104 388.536C594.104 388.536 595.711 368.818 595.711 366.778C595.711 364.739 594.784 359.384 594.784 359.384C594.784 359.384 595.883 354.282 600.453 353.064C605.023 351.846 600.115 352.806 600.115 352.806L597.49 350.685L595.202 351.616C595.202 351.616 588.864 349.703 587.509 352.082Z" fill="black"/>
<path d="M586.495 352.048C586.495 352.048 590.984 357.404 590.898 358.508C590.812 359.611 590.641 362.249 590.641 362.249L587.261 369.146C587.261 369.146 585.397 377.733 585.397 379.52C585.397 381.308 582.435 396.763 582.435 396.763L578.883 420.568L574.4 451.777L578.975 459.685L584.39 455.088L591.579 399.481L593.105 388.521C593.105 388.521 594.712 368.796 594.712 366.755C594.712 364.715 593.786 359.358 593.786 359.358C593.786 359.358 594.884 354.255 599.453 353.065C604.022 351.875 599.116 352.812 599.116 352.812L596.491 350.685L594.203 351.622C594.203 351.622 587.85 349.662 586.495 352.048Z" fill="#1B51E5"/>
<path opacity="0.1" d="M583.734 342.685C583.734 342.685 583.064 343.198 582.901 346.608C582.737 350.018 580.4 357.685 580.4 357.685C580.4 357.685 589.068 351.551 593.4 352.23L583.734 342.685Z" fill="black"/>
<path d="M583.734 341.685C583.734 341.685 583.064 342.193 582.901 345.604C582.737 349.015 580.4 356.685 580.4 356.685C580.4 356.685 589.068 350.548 593.4 351.234L583.734 341.685Z" fill="#E7EFFD"/>
<path opacity="0.1" d="M608.079 339.685L594.4 351.912C594.4 351.912 605.904 358.875 607.403 360.574C608.901 362.273 610.4 343.928 610.4 343.928L608.079 339.685Z" fill="black"/>
<path d="M608.063 338.685L594.4 350.915C594.4 350.915 605.894 357.876 607.404 359.574C608.913 361.273 610.4 342.932 610.4 342.932L608.063 338.685Z" fill="#E7EFFD"/>
<path opacity="0.1" d="M584.137 342.813C584.137 342.813 582.6 342.051 581.15 344.255C580.082 345.691 578.632 346.805 576.961 347.471C576.961 347.471 561.402 349.927 560.784 351.958L553.516 352.382C553.516 352.382 550.951 352.72 550.697 358.054C550.443 363.388 549.073 363.897 549.073 363.897C549.073 363.897 546.081 369.146 546.341 371.853C546.601 374.56 544.03 375.922 544.03 375.922L554.712 403.44C554.712 403.44 555.059 414.784 553.089 418.933C551.119 423.083 547.45 441.455 547.45 441.455C547.45 441.455 548.987 441.117 548.9 442.13C548.813 443.143 547.074 454.241 547.074 454.241C547.074 454.241 546.56 458.642 545.705 460.17C544.85 461.698 544.763 469.648 544.763 469.648L543.4 475.406C543.4 475.406 546.647 482.605 551.604 481.587C556.561 480.568 565.533 461.355 565.533 461.355L571.265 440.608L575.707 420.118L576.99 406.233L579.041 375.499L582.034 355.175C582.034 355.175 585.339 344.238 584.137 342.813Z" fill="black"/>
<path d="M584.142 341.813C584.142 341.813 582.601 341.052 581.153 343.25C580.088 344.688 578.639 345.802 576.97 346.466C576.97 346.466 561.437 348.921 560.814 350.953L553.555 351.377C553.555 351.377 550.999 351.72 550.739 357.054C550.48 362.389 549.118 362.892 549.118 362.892C549.118 362.892 546.129 368.146 546.389 370.853C546.648 373.561 544.081 374.917 544.081 374.917L554.755 402.435C554.755 402.435 555.096 413.779 553.134 417.928C551.172 422.078 547.497 440.455 547.497 440.455C547.497 440.455 549.031 440.112 548.951 441.131C548.87 442.15 547.07 453.236 547.07 453.236C547.07 453.236 546.556 457.643 545.702 459.165C544.848 460.688 544.767 468.649 544.767 468.649L543.4 474.406C543.4 474.406 546.643 481.601 551.593 480.588C556.544 479.575 565.522 460.35 565.522 460.35L571.24 439.608L575.677 419.119L576.958 405.228L579.007 374.493L581.996 354.175C581.996 354.175 585.336 343.25 584.142 341.813Z" fill="#65617D"/>
<path opacity="0.1" d="M529.4 407.293L524.51 410.668C524.51 410.668 517.034 410.908 511.688 409.591L508.97 408.382L508.4 408.142L508.97 408.319C511.791 409.157 513.996 409.14 515.723 408.559C522.641 406.226 521.878 394.793 521.61 392.21C521.61 391.948 521.564 391.782 521.553 391.72C521.551 391.708 521.551 391.697 521.553 391.685L521.593 391.754C521.688 391.91 521.795 392.058 521.912 392.199C522.009 392.307 522.111 392.421 522.219 392.529L524.664 397.416C524.664 397.416 524.664 397.485 524.664 397.622L529.4 407.293Z" fill="black"/>
<path d="M545.9 374.685L543.53 375.358L543.193 380.165C543.193 380.165 540.406 379.743 539.646 383.017C538.886 386.29 537.533 387.829 537.533 387.829C537.533 387.829 532.884 391.707 532.633 394.997L529.777 396.771C529.777 396.771 523.101 395.248 521.581 392.551C521.581 392.551 524.625 414.316 508.4 409.002C508.4 409.002 526.567 416.928 527.413 418.029C528.258 419.129 533.832 422.328 538.903 419.631C543.975 416.934 545.072 412.788 545.072 412.788C545.072 412.788 549.972 405.946 550.137 404.942C550.303 403.938 554.135 402.747 554.135 402.747L561.4 385.201L545.9 374.685Z" fill="#65617D"/>
<path opacity="0.1" d="M606.118 349.905L608.591 338.685C608.591 338.685 609.697 342.339 610.81 343.19L614.476 345.999C614.476 345.999 618.143 347.694 619.422 347.694C620.702 347.694 627.608 349.48 628.461 350.417C629.314 351.353 632.727 350.67 632.727 350.67C632.727 350.67 635.54 351.606 638.013 352.198C640.486 352.789 641.679 356.874 641.166 358.517C640.743 360.152 641.194 361.888 642.359 363.113C643.385 364.136 643.898 367.451 643.898 367.451C645.147 367.862 646.183 368.747 646.781 369.915C647.634 371.782 647.357 375.861 647.357 375.861L634.675 393.711C634.675 393.711 634.842 400.605 634.335 402.128C633.828 403.65 636.122 429.663 636.122 429.663L638.768 474.365C638.768 474.365 635.269 477.341 634.502 477.68C633.736 478.019 632.969 461.876 632.969 461.278C632.969 460.681 613.271 431.87 613.271 431.87C613.271 431.87 610.626 427.624 610.626 426.699C610.626 425.774 608.153 417.18 608.153 417.18L604.4 400.605L606.118 349.905Z" fill="black"/>
<path d="M648.396 375.634C648.396 376.204 648.396 376.604 648.396 376.604L635.701 394.292C635.701 394.292 635.874 401.139 635.366 402.646C635.066 403.53 635.718 412.614 636.324 420.078C636.751 425.459 637.155 429.995 637.155 429.995L638.28 448.825L639.798 474.388C639.798 474.388 636.301 477.344 635.533 477.68C634.766 478.017 633.998 461.983 633.998 461.39C633.998 460.796 614.275 432.186 614.275 432.186C614.275 432.186 611.626 427.958 611.626 427.051C611.626 426.143 609.151 417.596 609.151 417.596L605.4 401.134L607.102 350.824L608.499 339.685C608.499 339.685 610.634 343.32 611.742 344.159L615.412 346.944C615.412 346.944 619.082 348.655 620.363 348.655C621.644 348.655 628.563 350.424 629.417 351.354C630.271 352.284 633.681 351.605 633.681 351.605C633.681 351.605 636.497 352.535 638.973 353.123C641.448 353.711 642.648 357.768 642.135 359.4C641.709 361.023 642.161 362.749 643.329 363.965C644.351 364.975 644.864 368.267 644.864 368.267C646.114 368.679 647.151 369.56 647.75 370.721C648.361 371.947 648.419 374.293 648.396 375.634Z" fill="#65617D"/>
<path opacity="0.1" d="M544.4 600.686C544.821 600.686 562.735 601.314 562.395 603.995C562.055 606.676 544.4 600.686 544.4 600.686Z" fill="black"/>
<path opacity="0.1" d="M548.4 605.686C548.4 605.686 559.92 607.593 556.893 609.338C553.867 611.083 548.4 605.686 548.4 605.686Z" fill="black"/>
<path opacity="0.1" d="M593.4 598.686C593.4 598.686 613.039 600.529 610.1 602.87C607.162 605.211 600.196 605.592 599.889 605.685C599.583 605.777 593.4 598.686 593.4 598.686Z" fill="black"/>
<path opacity="0.1" d="M590.4 607.686C590.4 607.686 601.066 609.353 601.393 611.278C601.72 613.203 590.4 607.686 590.4 607.686Z" fill="black"/>
<path opacity="0.1" d="M596.4 556.686C596.4 556.686 606.786 559.051 607.4 560.686L596.4 556.686Z" fill="black"/>
<path opacity="0.1" d="M558.036 564.686C558.036 564.686 552.229 566.122 557.852 569.004C563.475 571.887 558.036 564.686 558.036 564.686Z" fill="black"/>
<path opacity="0.1" d="M581.4 482.686C581.966 482.686 591.109 479.718 594.288 481.012C596.564 481.855 598.969 482.306 601.4 482.345L581.4 482.686Z" fill="black"/>
<path opacity="0.1" d="M582.4 492.302L582.308 493.137L574.429 513.649C574.429 513.649 573.156 519.862 572.056 523.388C571.36 525.786 570.807 528.223 570.4 530.686L577.397 487.686L582.4 492.302Z" fill="black"/>
<path d="M594.4 455.626L591.309 455.686H591.212L589.4 446.846L592.097 446.686L594.4 455.626Z" fill="#3F3D56"/>
<path d="M634.4 445.697L632.294 447.386L625.279 453.089C625.279 453.089 606.277 463.088 601.043 453.59C596.431 445.224 617.972 439.251 623.161 437.95C623.863 437.776 624.263 437.685 624.263 437.685L634.4 445.697Z" fill="#FBBEBE"/>
<path opacity="0.1" d="M552.4 361.685C552.4 361.685 556.389 363.56 557.303 366.122C558.216 368.683 552.4 361.685 552.4 361.685Z" fill="black"/>
<path opacity="0.1" d="M541.4 387.685C541.4 387.685 535.608 394.622 537.963 397.303C540.317 399.984 541.4 387.685 541.4 387.685Z" fill="black"/>
<path opacity="0.1" d="M638.4 365.685C638.4 365.685 633.558 366.204 633.4 370.685L638.4 365.685Z" fill="black"/>
<path opacity="0.1" d="M591.4 435.685C591.908 435.187 603.688 418.284 606.4 419.779L591.4 435.685Z" fill="black"/>
<path opacity="0.1" d="M613.4 323.114C613.405 326.456 612.591 329.746 611.032 332.689L610.884 332.66C609.617 332.389 608.959 330.891 607.987 329.958C606.766 328.777 604.938 328.518 603.444 329.313C601.946 330.226 601.084 331.918 601.218 333.685C600.576 330.955 600.78 328.057 600.156 325.321C599.531 322.584 597.651 319.819 595.072 319.773C593.937 319.773 592.67 320.182 591.864 319.341C591.381 318.834 591.296 318.033 590.921 317.411C589.081 314.392 583.475 315.919 581.186 317.469C578.898 319.018 576.245 321.501 573.4 322.826C573.478 311.624 582.495 302.606 593.539 302.686C604.583 302.766 613.473 311.912 613.394 323.114H613.4Z" fill="black"/>
<path d="M590.305 316.585C590.673 317.195 590.771 317.987 591.261 318.489C592.074 319.327 593.393 318.894 594.517 318.917C597.133 318.962 599.04 321.699 599.674 324.407C600.308 327.115 600.1 329.983 600.751 332.685C600.614 330.935 601.492 329.258 603.016 328.358C604.532 327.571 606.386 327.828 607.626 328.997C608.611 329.92 609.279 331.403 610.564 331.671C611.849 331.939 613.088 330.718 613.555 329.39C614.022 328.062 613.987 326.579 614.292 325.188C614.869 322.56 616.597 320.399 617.565 317.896C618.707 314.853 618.676 311.5 617.479 308.477C616.839 306.892 615.889 305.467 615.237 303.888C614.258 301.482 614.004 298.756 612.806 296.476C610.801 292.639 606.076 290.723 602.186 292.165C600.336 292.85 598.729 294.184 596.845 294.782C594.327 295.586 591.63 294.982 589.025 294.623C586.421 294.264 583.534 294.229 581.437 295.923C579.022 297.878 578.365 301.55 576.095 303.694C575.144 304.595 573.963 305.17 572.96 305.974C571.958 306.778 571.088 308.044 571.232 309.395C571.382 311.14 573.11 312.725 572.471 314.344C572.24 314.814 571.919 315.234 571.526 315.581C569.627 317.55 568.215 319.927 567.4 322.526C571.958 323.94 576.896 318.962 580.468 316.607C582.756 315.108 588.438 313.591 590.305 316.585Z" fill="#7C5C5C"/>
<path opacity="0.1" d="M634.4 445.944L632.215 447.685C630.291 444.551 622.4 438.283 622.4 438.283L622.743 437.958C623.471 437.778 623.886 437.685 623.886 437.685L634.4 445.944Z" fill="black"/>
<path d="M636.4 442.637C636.4 442.637 635.646 444.586 634.875 446.264C634.104 447.941 633.253 449.477 633.214 448.231C633.129 445.785 623.4 437.568 623.4 437.568L624.721 436.233L626.246 434.685L636.4 442.637Z" fill="#E7EFFD"/>
<path opacity="0.1" d="M637.245 429.69L638.4 448.685C635.676 444.57 628.203 434.024 623.4 434.364L635.036 421.349C635.521 420.825 635.968 420.269 636.375 419.685C636.813 425.114 637.245 429.69 637.245 429.69Z" fill="black"/>
<path opacity="0.1" d="M636.4 442.243C636.4 442.243 635.625 444.093 634.833 445.685C631.827 441.722 627.697 437.04 624.4 436.154L625.967 434.685L636.4 442.243Z" fill="black"/>
<path d="M645.391 373.685L648.437 376.071C648.437 376.071 653.508 376.158 654.017 380.422C654.525 384.686 659.161 386.645 659.161 386.645C659.161 386.645 662.625 390.137 662.625 391.756C662.625 393.376 665.249 396.274 665.249 396.533C665.249 396.793 667.787 401.99 667.444 402.924C667.101 403.857 670.154 407.955 669.222 409.487C668.458 410.865 667.78 412.289 667.193 413.752C667.193 413.752 663.22 421.427 661.191 422.873C659.161 424.32 649.855 436.513 649.855 436.513C649.855 436.513 639.88 448.107 639.88 451.685C639.88 451.685 630.162 435.32 624.4 435.747L635.65 422.701C635.65 422.701 637.593 420.574 637.679 419.295C637.765 418.016 643.093 412.132 645.631 411.879C645.631 411.879 646.048 408.381 644.95 408.295C643.853 408.208 642.921 405.482 642.921 405.482C642.921 405.482 635.49 396.62 635.393 390.99C635.295 385.36 645.391 373.685 645.391 373.685Z" fill="#65617D"/>
<path opacity="0.1" d="M649.4 381.685C649.4 381.685 642.046 386.821 643.621 388.471C645.196 390.122 649.4 381.685 649.4 381.685Z" fill="black"/>
<path opacity="0.1" d="M649.4 403.685C649.4 403.685 663.003 399.185 664.4 403.685H649.4Z" fill="black"/>
<path opacity="0.1" d="M567.4 628.821C567.4 628.821 560.306 633.351 556.761 632.717C553.217 632.082 549.581 633.874 549.581 633.874C547.137 636.476 544.056 638.431 540.626 639.556C534.919 641.449 526.871 640.703 522.311 639.222C520.154 638.521 519.977 637.62 521.015 636.501C525.975 637.464 537.053 639.384 540.038 637.987C543.919 636.173 549.496 632.221 549.496 632.221C549.496 632.221 556.761 631.236 557.771 631.236C558.491 631.236 564.101 628.977 567.269 627.686L567.4 628.821Z" fill="black"/>
<path opacity="0.1" d="M611.4 637.686L611.324 638.17C611.324 638.17 609.57 642.02 600 643.422C590.429 644.823 590.4 640.181 590.4 640.181C590.4 640.181 590.435 639.684 590.493 638.933C593.534 640.098 600.163 641.399 611.4 637.686Z" fill="black"/>
<path opacity="0.1" d="M556.4 380.685C556.4 380.685 556.4 399.698 554.837 401.575C553.275 403.453 556.4 380.685 556.4 380.685Z" fill="black"/>
<path opacity="0.1" d="M632.4 386.685L635.25 393.685C635.25 393.685 636.386 386.813 632.4 386.685Z" fill="black"/>
<g opacity="0.1">
<path d="M573.056 312.972C573.68 311.366 572.039 309.794 571.826 308.073C571.608 308.558 571.515 309.09 571.554 309.621C571.664 310.915 572.617 312.123 572.871 313.325C572.943 313.213 573.005 313.095 573.056 312.972Z" fill="black"/>
<path d="M601.425 331.38C600.813 328.688 600.992 325.833 600.368 323.135C599.744 320.437 597.82 317.617 595.203 317.571C594.047 317.571 592.753 317.987 591.938 317.144C591.441 316.635 591.36 315.826 590.973 315.208C589.101 312.175 583.404 313.712 581.07 315.266C577.603 317.577 572.773 322.448 568.29 321.35C568.076 321.864 567.879 322.39 567.712 322.927C572.282 324.36 577.234 319.316 580.816 316.93C583.127 315.381 588.847 313.845 590.719 316.878C591.089 317.496 591.187 318.299 591.678 318.808C592.493 319.657 593.816 319.218 594.943 319.241C597.566 319.287 599.478 322.061 600.114 324.805C600.749 327.549 600.541 330.456 601.194 333.194C601.152 332.58 601.231 331.964 601.425 331.38Z" fill="black"/>
<path d="M614.275 328.179C613.813 329.531 612.594 330.779 611.276 330.49C609.959 330.201 609.318 328.717 608.335 327.775C607.086 326.604 605.234 326.347 603.713 327.133C602.262 327.998 601.393 329.582 601.443 331.27C601.789 330.227 602.506 329.347 603.459 328.797C604.979 328 606.839 328.26 608.081 329.445C609.069 330.381 609.739 331.883 611.028 332.154C612.316 332.426 613.559 331.189 614.027 329.843C614.27 329.044 614.427 328.221 614.495 327.388C614.438 327.656 614.365 327.92 614.275 328.179Z" fill="black"/>
<path d="M618.296 316.531C617.337 319.068 615.592 321.252 615.015 323.921C614.899 324.458 614.83 325.007 614.766 325.562C615.344 322.904 617.077 320.726 618.042 318.195C618.468 317.057 618.734 315.865 618.834 314.653C618.702 315.292 618.523 315.92 618.296 316.531Z" fill="black"/>
</g>
<path d="M495.4 377.892C495.514 377.892 495.606 377.799 495.606 377.685C495.606 377.572 495.514 377.479 495.4 377.479C495.286 377.479 495.194 377.572 495.194 377.685C495.194 377.799 495.286 377.892 495.4 377.892Z" fill="#E6E8EC"/>
<path opacity="0.1" d="M568.9 643.686C596.238 643.686 618.4 641.447 618.4 638.686C618.4 635.924 596.238 633.686 568.9 633.686C541.562 633.686 519.4 635.924 519.4 638.686C519.4 641.447 541.562 643.686 568.9 643.686Z" fill="#1B51E5"/>
<path d="M386.441 307.938L236.4 405.164L334.316 581.553C335.241 583.221 336.822 584.426 338.676 584.877L427.395 606.493C430.528 607.25 433.764 605.72 435.164 602.82L479.171 511.502L527.4 447.107L412.948 311.863C406.359 304.081 395.007 302.4 386.441 307.938Z" fill="#DCDFED"/>
<path opacity="0.1" d="M529.4 448.105L528.975 448.678L500.724 486.4L500.214 487.082L481.171 512.507L443.534 590.615L442.479 592.799L437.166 603.818C435.765 606.722 432.522 608.254 429.386 607.491L340.669 585.865C338.814 585.415 337.232 584.21 336.308 582.541L327.777 567.202L326.245 564.44L264.666 453.468L264.138 452.523L238.4 406.165L241.51 404.148L265.084 388.877L265.63 388.522L315.275 356.352L318.408 354.324L388.432 308.946C396.999 303.398 408.36 305.077 414.951 312.866L467.161 374.58L469.456 377.331L507.351 422.107L507.558 422.353L526.612 444.861L529.01 447.698L529.4 448.105Z" fill="black"/>
<path opacity="0.1" d="M505.4 421.607L500.783 453.645L499.391 463.314L498.595 483.91L498.532 485.518L494.39 593.132C494.309 595.153 493.335 597.035 491.73 598.269C490.126 599.502 488.056 599.962 486.079 599.523L441.433 589.568L440.952 589.459L326.45 563.937L324.348 563.468L261.4 549.428L262.843 452.673L262.889 449.44L263.325 420.154L263.806 387.829L313.372 355.711L316.5 353.685C362.475 358.394 423.618 367.451 465.039 373.91L467.33 376.656L505.136 421.361L505.4 421.607Z" fill="black"/>
<path d="M511.4 383.458L505.96 421.196L500.972 455.754L499.579 465.394L498.782 485.978L494.574 595.136C494.493 597.156 493.519 599.036 491.912 600.269C490.306 601.502 488.235 601.962 486.256 601.523L441.093 591.465L326.501 565.958L261.4 551.458L262.89 451.528L263.326 422.259L263.836 388.021L264.358 352.805C275.124 352.296 292.838 353.446 313.987 355.567C361.339 360.307 425.89 369.896 468.095 376.5C493.938 380.542 511.4 383.458 511.4 383.458Z" fill="#1B51E5"/>
<path opacity="0.1" d="M525.018 444.294L500.82 456.143L377.322 516.613L263.51 422.701L240.503 403.685L237.4 405.697L263.081 451.936L261.592 551.826L326.602 566.321L335.097 581.621C336.019 583.285 337.597 584.488 339.448 584.936L427.968 606.495C431.092 607.247 434.318 605.721 435.714 602.831L441.015 591.84L486.114 601.894C488.089 602.333 490.158 601.874 491.762 600.641C493.366 599.408 494.339 597.529 494.42 595.51L498.622 486.395L527.32 448.101L527.4 447.135L525.018 444.294Z" fill="black"/>
<path d="M236.634 405.685L226.412 580.331C226.216 583.669 228.477 586.656 231.749 587.383L503.218 647.528C505.144 647.948 507.158 647.519 508.743 646.35C510.328 645.18 511.33 643.385 511.491 641.425L527.4 447.549L376.765 521.261L236.634 405.685Z" fill="#DCDFED"/>
<path opacity="0.1" d="M228.963 584.165L369.773 497.186C374.078 494.572 379.637 495.444 382.938 499.249L508.969 646.414C509.427 646.942 509.65 646.563 508.969 646.414L228.963 584.165C228.265 584.583 228.162 583.987 228.963 584.165Z" fill="black"/>
<path d="M229.132 583.509L368.866 499.261C373.427 496.512 379.308 497.435 382.802 501.449L508.032 645.193C508.457 645.684 508.52 646.391 508.188 646.949C507.856 647.506 507.203 647.789 506.569 647.651L229.586 586.265C228.982 586.134 228.52 585.649 228.42 585.041C228.32 584.433 228.602 583.825 229.132 583.509Z" fill="#E3E5F1"/>
<defs>
<linearGradient id="paint0_linear" x1="670.421" y1="644.67" x2="670.421" y2="289.684" gradientUnits="userSpaceOnUse">
<stop stop-color="#808080" stop-opacity="0.25"/>
<stop offset="0.54" stop-color="#808080" stop-opacity="0.12"/>
<stop offset="1" stop-color="#808080" stop-opacity="0.1"/>
</linearGradient>
</defs>
</svg>
