<svg width="740" height="814" viewBox="0 0 740 814" fill="none" xmlns="http://www.w3.org/2000/svg">
<path opacity="0.2" d="M157.88 341.883C135.328 360.264 113.48 380.832 99.7521 406.78C79.564 444.93 79.8753 492.921 100.593 528.296C118.134 558.289 147.714 577.818 173.021 600.986C204.2 629.519 229.426 664.291 253.301 699.65C266.13 718.643 279.066 738.338 297.803 751.058C323.82 768.715 358.894 770.462 389.526 759.125C420.157 747.789 446.377 724.386 465.206 696.574C475.226 681.774 483.515 665.048 484.71 647.455C485.975 628.84 479.231 610.845 480.632 592.23C481.929 574.98 490.137 558.664 499.732 543.996C512.258 524.845 527.421 507.554 544.773 492.635C564.441 475.745 586.59 462.269 606.322 445.516C626.053 428.763 643.913 407.552 650.09 382.318C655.9 358.596 650.794 334.272 644.596 311.42C634.505 274.078 621.391 237.62 605.384 202.408C594.637 178.81 582.364 155.535 564.39 137.47C530.029 102.925 475.317 91.5729 428.067 109.175C388.92 123.761 357.308 155.415 330.085 188.549C305.26 218.764 282.614 257.198 250.432 279.624C219.726 300.999 187.337 317.884 157.88 341.883Z" fill="#1B51E5"/>
<path d="M612.693 267.703H610.901V171.093C610.901 149.788 593.353 132.532 571.706 132.532H352.16C330.513 132.532 312.966 149.804 312.966 171.093V211.139H312.829H312.444C311.181 211.13 310.15 212.143 310.137 213.405V232.685C310.15 233.946 311.181 234.959 312.444 234.95H312.87H313.006V254.64H312.299C311.693 254.636 311.111 254.872 310.68 255.297C310.249 255.722 310.004 256.301 310 256.906V293.771C310.009 295.032 311.037 296.049 312.299 296.045H313.006V310.505H312.395C311.789 310.498 311.204 310.734 310.771 311.159C310.338 311.584 310.093 312.164 310.088 312.77V349.997C310.093 350.604 310.338 351.183 310.771 351.609C311.204 352.034 311.789 352.269 312.395 352.263H313.006V689.972C313.006 711.276 330.554 728.532 352.2 728.532H571.698C593.345 728.532 610.892 711.26 610.892 689.972V339.955H612.693C613.955 339.964 614.987 338.951 615 337.69V269.968C614.987 268.707 613.955 267.694 612.693 267.703Z" fill="url(#paint0_linear)"/>
<g opacity="0.9">
<rect x="603.286" y="268.903" width="8.67422" height="71.2499" rx="2.29" fill="#E5E7EB"/>
<rect x="314.846" y="213.087" width="4.8727" height="23.4558" rx="2.29" fill="#E5E7EB"/>
<rect x="314.668" y="256.028" width="5.49287" height="40.8231" rx="2.29" fill="#E5E7EB"/>
<rect x="314.757" y="311.138" width="5.22708" height="41.176" rx="2.29" fill="#E5E7EB"/>
<rect x="317.6" y="135.572" width="290.365" height="590.767" rx="36" fill="white"/>
<rect x="434.779" y="153.124" width="40.5522" height="8.19831" rx="3.87" fill="#E5E7EB"/>
<path d="M486.123 161.876C488.703 161.876 490.795 159.793 490.795 157.223C490.795 154.654 488.703 152.571 486.123 152.571C483.543 152.571 481.452 154.654 481.452 157.223C481.452 159.793 483.543 161.876 486.123 161.876Z" fill="#E5E7EB"/>
</g>
<path d="M566.987 151.532H533.813V155.542C533.808 165.983 525.324 174.444 514.859 174.444H409.092C398.627 174.444 390.142 165.983 390.137 155.542V151.532H359.013C346.303 151.532 336 161.812 336 174.493V685.572C336 698.253 346.303 708.532 359.013 708.532H566.987C579.697 708.532 590 698.253 590 685.572V174.493C590 161.812 579.697 151.532 566.987 151.532Z" fill="#ECECF3"/>
<g opacity="0.4">
<path d="M660.516 698.424C674.992 698.424 686.727 696.364 686.727 693.824C686.727 691.283 674.992 689.224 660.516 689.224C646.04 689.224 634.305 691.283 634.305 693.824C634.305 696.364 646.04 698.424 660.516 698.424Z" fill="#5E81F4"/>
<path d="M671.349 686.299C672.544 685.287 673.417 683.925 673.854 682.391C674.176 680.832 673.533 678.966 672.104 678.399C670.498 677.766 668.787 678.916 667.486 680.066C666.185 681.216 664.7 682.566 662.997 682.316C664.789 680.638 665.592 678.102 665.109 675.649C665.037 675.154 664.834 674.69 664.523 674.307C663.632 673.316 662.018 673.741 660.958 674.516C657.569 677.016 656.621 681.774 656.597 686.074C656.26 684.524 656.549 682.907 656.541 681.316C656.533 679.724 656.107 677.982 654.815 677.099C654.008 676.653 653.102 676.435 652.189 676.466C650.663 676.407 648.977 676.566 647.925 677.716C646.632 679.157 646.969 681.566 648.093 683.149C649.217 684.732 650.928 685.724 652.51 686.816C653.77 687.598 654.845 688.663 655.658 689.932C655.755 690.109 655.833 690.296 655.891 690.491H665.447C667.588 689.376 669.573 687.966 671.349 686.299Z" fill="#5E81F4"/>
</g>
<rect x="356" y="194.532" width="42" height="42" fill="#D6D8E0"/>
<rect x="428" y="197.532" width="86" height="7" fill="#D6D8E0"/>
<rect x="427" y="211.532" width="142" height="7" fill="#D6D8E0"/>
<rect x="427" y="224.532" width="142" height="7" fill="#D6D8E0"/>
<rect x="356" y="268.532" width="42" height="42" fill="#D6D8E0"/>
<rect x="428" y="273.532" width="86" height="7" fill="#D6D8E0"/>
<rect x="427" y="286.532" width="142" height="7" fill="#D6D8E0"/>
<rect x="427" y="300.532" width="142" height="7" fill="#D6D8E0"/>
<rect x="357" y="344.532" width="42" height="42" fill="#D6D8E0"/>
<rect x="428" y="348.532" width="86" height="7" fill="#D6D8E0"/>
<rect x="427" y="361.532" width="142" height="7" fill="#D6D8E0"/>
<rect x="427" y="374.532" width="142" height="7" fill="#D6D8E0"/>
<rect x="357" y="418.532" width="42" height="42" fill="#D6D8E0"/>
<rect x="429" y="423.532" width="86" height="7" fill="#D6D8E0"/>
<rect x="428" y="436.532" width="142" height="7" fill="#D6D8E0"/>
<rect x="428" y="450.532" width="142" height="7" fill="#D6D8E0"/>
<rect x="357" y="494.532" width="42" height="42" fill="#D6D8E0"/>
<rect x="429" y="499.532" width="86" height="7" fill="#D6D8E0"/>
<rect x="428" y="512.532" width="142" height="7" fill="#D6D8E0"/>
<rect x="428" y="525.532" width="142" height="7" fill="#D6D8E0"/>
<rect x="357" y="570.532" width="42" height="42" fill="#D6D8E0"/>
<rect x="429" y="573.532" width="86" height="7" fill="#D6D8E0"/>
<rect x="428" y="587.532" width="142" height="7" fill="#D6D8E0"/>
<rect x="428" y="600.532" width="142" height="7" fill="#D6D8E0"/>
<rect x="358" y="644.532" width="42" height="42" fill="#D6D8E0"/>
<rect x="429" y="649.532" width="86" height="7" fill="#D6D8E0"/>
<rect x="428" y="662.532" width="142" height="7" fill="#D6D8E0"/>
<rect x="428" y="676.532" width="142" height="7" fill="#D6D8E0"/>
<rect x="289" y="318.532" width="350" height="87" fill="url(#paint1_linear)"/>
<rect x="291" y="321.532" width="347" height="82" fill="white"/>
<rect x="357" y="341.532" width="42" height="42" fill="#5E81F4"/>
<g opacity="0.5">
<rect x="428.449" y="343.804" width="85.8739" height="7.784" fill="#5E81F4"/>
<rect x="428.449" y="357.428" width="141.495" height="7.784" fill="#5E81F4"/>
<rect x="428.449" y="371.052" width="141.495" height="7.784" fill="#5E81F4"/>
</g>
<path fill-rule="evenodd" clip-rule="evenodd" d="M404.812 392.762C407.445 391.176 411.084 391.889 413.274 394.044C415.418 396.332 416.375 399.48 415.866 402.567C415.73 403.965 415.188 405.293 414.304 406.389C413.389 407.419 412.137 407.996 410.863 408.583C410.512 408.745 410.159 408.907 409.812 409.08C405.754 411.158 402.656 414.709 401.157 418.998C399.969 422.396 399.237 425.878 398.507 429.349C397.565 433.831 396.626 438.294 394.716 442.534C393.438 445.37 392.068 448.163 390.699 450.955C388.438 455.566 386.179 460.174 384.338 464.964C383.971 465.924 383.618 466.891 383.265 467.859C382.015 471.284 380.763 474.714 378.88 477.838C377.69 479.791 376.174 481.528 374.395 482.973C374.581 485.793 374.637 488.62 374.637 491.4C373.527 491.377 372.483 491.925 371.875 492.85C371.286 493.763 370.878 494.78 370.676 495.846C370.111 498.17 370.192 500.574 370.273 502.979C370.35 505.273 370.427 507.567 369.943 509.793C367.218 522.494 368.054 535.696 372.359 547.957C373.453 551.073 374.838 561.351 373.671 564.435C370.27 564.075 367.17 565.603 364.036 567.147C363.133 567.592 362.228 568.038 361.313 568.441C360.971 570.873 361.169 573.351 361.892 575.699C363.325 579.921 363.325 584.495 363.325 588.965L363.132 622.018C363.108 626.216 363.076 630.461 362.013 634.515C361.618 635.999 361.089 637.493 360.557 638.996C359.449 642.122 358.328 645.285 358.382 648.478C358.465 653.428 357.343 658.284 356.222 663.137C355.056 668.188 353.89 673.235 354.083 678.382C354.137 679.694 354.276 680.998 354.416 682.302C354.482 682.926 354.549 683.55 354.606 684.174C355.09 689.293 354.96 694.451 354.22 699.539C353.731 702.919 352.976 706.281 352.222 709.639C350.714 716.355 349.209 723.056 349.848 729.86C349.912 730.549 350.146 731.495 350.806 731.719C349.99 732.638 349.148 733.524 348.278 734.379C348.452 734.672 348.692 734.922 348.978 735.108C349.93 735.603 350.981 735.877 352.054 735.909C353.311 735.941 354.532 736.34 355.564 737.054C356.327 737.768 356.841 738.705 357.029 739.73C357.616 741.768 357.262 743.961 356.063 745.714C355.347 746.616 354.41 747.319 353.342 747.757C349.615 749.343 345.356 748.189 341.475 747.02L326.387 742.47C325.46 742.278 324.605 741.834 323.916 741.188C323.597 740.819 323.388 740.37 323.312 739.89C319.923 740.723 316.235 739.714 312.846 738.689L297.645 734.106C296.718 733.915 295.863 733.471 295.174 732.825C294.622 732.153 294.393 731.275 294.546 730.421L294.216 730.293C293.056 729.764 291.76 728.755 292.082 727.521C292.195 727.082 292.497 726.737 292.802 726.39C293.042 726.117 293.283 725.843 293.435 725.519C293.758 724.543 293.544 723.47 292.871 722.691C292.601 722.328 292.292 721.997 291.983 721.665C291.602 721.256 291.222 720.848 290.915 720.384C289.399 718.073 290.081 715.134 290.726 712.358C290.828 711.92 290.928 711.486 291.02 711.059C291.802 707.366 291.752 703.583 291.703 699.794C291.662 696.72 291.622 693.643 292.026 690.607C292.237 689.032 292.567 687.477 292.896 685.922C293.045 685.222 293.193 684.523 293.33 683.822C294.266 678.463 294.884 673.055 295.182 667.624C295.369 665.152 295.715 662.692 296.061 660.239C296.8 654.989 297.535 649.77 296.695 644.528C296.076 640.016 295.807 635.463 295.89 630.91C295.801 628.012 295.931 625.112 296.277 622.234C296.414 621.269 296.602 620.312 296.79 619.356C297.02 618.184 297.25 617.012 297.388 615.825C297.58 613.4 297.623 610.966 297.517 608.535C297.406 603.124 297.909 597.717 299.014 592.418C299.739 589.11 300.762 585.863 301.784 582.62C303.009 578.732 304.233 574.848 304.94 570.868L303.652 571.173C303.606 566.587 306.879 557.644 309.084 551.619C309.583 550.255 310.027 549.041 310.366 548.061C310.634 547.407 310.797 546.715 310.849 546.01C310.737 545.087 310.564 544.172 310.334 543.271C310.191 542.083 310.538 540.934 310.886 539.778C311.108 539.04 311.331 538.299 311.429 537.543C311.532 536.179 311.429 534.807 311.123 533.473C309.842 526.342 308.242 519.274 306.64 512.199L306.614 512.084C305.904 509.515 305.662 506.84 305.898 504.186C306.272 501.334 305.392 498.461 303.482 496.303C302.777 495.656 302.177 494.905 301.703 494.076C301.432 493.363 301.312 492.602 301.349 491.841C301.382 488.544 301.867 485.266 302.79 482.099C301.381 479.544 300.858 476.404 300.447 473.448L300.434 473.35C299.537 466.83 298.636 460.285 298.676 453.709C298.605 450.184 299.091 446.67 300.117 443.295C300.878 441.214 301.798 439.195 302.871 437.254C303.637 435.788 304.396 434.308 305.158 432.823C308.616 426.084 312.122 419.251 316.509 413.166C317.72 411.486 317.459 409.341 317.2 407.208C317.11 406.462 317.019 405.717 316.992 404.995C316.863 401.63 318.2 398.41 319.52 395.309C320.185 393.407 321.212 391.649 322.547 390.134C323.455 389.141 324.732 388.561 326.082 388.532C327.618 388.723 328.997 389.564 329.865 390.839C331.829 393.503 332.643 396.836 332.128 400.1C331.596 403.338 330.178 406.367 328.03 408.856C326.994 410.111 325.807 411.236 324.495 412.204C323.148 416.413 321.806 420.619 320.47 424.822C318.385 431.511 316.259 438.224 313.224 444.552C313.15 444.709 313.074 444.867 312.999 445.024C312.194 446.708 311.372 448.427 311.284 450.28C311.185 452.189 311.866 454.025 312.533 455.824C312.63 456.086 312.727 456.348 312.822 456.609C314.361 460.904 315.235 465.407 315.414 469.963C315.649 470.064 315.875 470.185 316.09 470.323C317.308 471.118 318.124 472.365 318.938 473.609C319.814 474.946 320.687 476.281 322.056 477.045C323.103 477.625 324.295 477.791 325.49 477.956C326.059 478.035 326.629 478.114 327.185 478.238L327.651 478.366C327.669 478.289 327.689 478.211 327.708 478.134C327.769 477.894 327.829 477.656 327.829 477.413C327.845 477.208 327.845 477.002 327.829 476.796C323.723 474.547 320.275 471.276 317.821 467.303C317.298 466.572 316.898 465.76 316.638 464.9C316.42 463.873 316.379 462.817 316.517 461.776C316.645 458.306 317.136 454.858 317.982 451.49C318.847 448.108 320.726 445.068 323.368 442.774C324.035 442.236 324.753 441.767 325.471 441.299C326.174 440.84 326.877 440.381 327.531 439.858C328.567 439.026 329.472 438.037 330.373 437.051C331.711 435.588 333.04 434.135 334.777 433.225C338.612 431.353 343.247 432.531 345.71 436.005C346.103 436.784 346.651 437.476 347.32 438.04C347.544 438.194 347.788 438.304 348.031 438.414C348.304 438.537 348.575 438.658 348.809 438.841C349.703 439.554 349.743 440.899 349.462 441.997C348.909 444.252 348.599 446.558 348.536 448.878C353.927 455.138 353.947 464.368 348.584 470.652C348.584 472.142 348.608 473.632 348.648 475.114C348.652 475.244 348.662 475.371 348.672 475.499C348.684 475.654 348.697 475.809 348.697 475.963C349.626 475.642 350.457 475.091 351.112 474.361C351.505 473.876 351.755 473.288 352.005 472.703C352.328 471.943 352.65 471.188 353.278 470.668C354.07 470.147 354.975 469.817 355.918 469.707C358.263 469.175 360.461 468.139 362.359 466.671C362.615 466.472 362.873 466.265 363.134 466.055C364.381 465.052 365.687 464.001 367.125 463.722C370.127 458.125 373.63 452.808 377.592 447.837C378.596 446.656 379.511 445.403 380.329 444.088C381.503 442.05 382.118 439.77 382.733 437.486C383.025 436.402 383.318 435.318 383.67 434.258C385.032 430.153 387.301 426.406 389.564 422.67C392.382 418.016 395.19 413.379 396.222 408.087C396.686 405.711 397.871 403.554 399.056 401.398C399.597 400.414 400.138 399.43 400.609 398.426C401.64 396.271 402.767 393.988 404.812 392.762ZM320.035 723.884C319.729 724.277 319.407 724.637 319.077 724.998C319.279 725.7 319.692 726.323 320.261 726.784C321.212 727.279 322.263 727.553 323.336 727.585C323.864 727.637 324.388 727.72 324.906 727.834C325.063 726.521 325.161 725.194 325.258 723.886C325.285 723.518 325.313 723.151 325.341 722.787C325.776 717.347 326.621 711.948 327.474 706.557C327.712 705.086 327.916 703.582 328.122 702.067C328.703 697.782 329.297 693.409 330.695 689.438C333.778 680.666 336.902 671.637 336.508 662.353C336.461 661.256 336.364 660.158 336.267 659.061C336.179 658.06 336.091 657.058 336.041 656.056C335.945 654.3 335.966 652.53 335.987 650.762C336.027 647.297 336.067 643.838 335.235 640.491C335.007 639.563 334.712 638.65 334.416 637.737C333.982 636.395 333.548 635.053 333.327 633.666C333.089 631.537 333.062 629.391 333.247 627.257C333.596 619.908 332.979 612.545 331.411 605.355C329.93 607.294 329.439 609.825 328.996 612.229C327.987 617.655 326.978 623.083 325.969 628.515C325.817 629.334 325.666 630.157 325.516 630.983C323.884 639.915 322.192 649.173 317.829 657.041C318.506 660.142 319.158 663.45 318.055 666.422C317.815 667.078 317.497 667.689 317.179 668.298C316.869 668.894 316.559 669.489 316.324 670.123C315.746 671.669 315.641 673.322 315.535 674.979C315.494 675.632 315.452 676.285 315.382 676.932C315.225 678.405 314.93 679.864 314.638 681.313C313.97 684.619 313.314 687.871 314.327 691.096C315.841 695.877 316.823 700.809 317.258 705.804C317.334 707.195 317.495 708.581 317.741 709.953C317.861 710.546 318.017 711.116 318.172 711.682C318.348 712.325 318.523 712.962 318.642 713.622C318.97 715.395 318.893 717.219 318.417 718.958C318.052 719.922 317.829 720.934 317.757 721.962C317.781 722.987 319.021 723.724 320.035 723.884Z" fill="url(#paint2_linear)"/>
<path d="M351.773 735.814C353.023 735.849 354.236 736.249 355.267 736.966C356.024 737.684 356.535 738.628 356.725 739.661C357.307 741.716 356.955 743.927 355.763 745.691C355.049 746.598 354.117 747.302 353.055 747.737C349.345 749.36 345.107 748.183 341.245 747.006L326.117 742.388C325.195 742.197 324.344 741.75 323.658 741.097C322.805 739.935 322.779 738.351 323.593 737.161C324.407 736.016 325.516 735.121 326.798 734.572C331.51 732.25 336.814 731.715 342.022 731.617C343.945 731.577 345.836 731.155 347.142 732.656C347.831 733.468 347.711 734.328 348.744 735.018C349.681 735.513 350.717 735.785 351.773 735.814Z" fill="#3F3D56"/>
<path d="M323.773 728.807C325.022 728.835 326.237 729.233 327.266 729.952C328.019 730.674 328.529 731.617 328.724 732.649C329.308 734.705 328.955 736.918 327.763 738.684C327.049 739.593 326.117 740.301 325.055 740.738C321.345 742.363 317.106 741.177 313.244 739.999L298.117 735.378C297.194 735.19 296.342 734.742 295.657 734.086C294.805 732.923 294.779 731.338 295.593 730.147C296.405 729 297.514 728.103 298.798 727.556C303.51 725.233 308.806 724.697 313.982 724.6C315.897 724.6 317.795 724.137 319.101 725.639C319.79 726.451 319.67 727.32 320.704 728.003C321.653 728.503 322.703 728.778 323.773 728.807Z" fill="#3F3D56"/>
<path d="M336.368 562.399C327.465 561.499 318.508 561.246 309.569 561.642C308.978 561.635 308.391 561.727 307.832 561.916C305.862 562.722 305.558 565.315 305.366 567.441C304.614 576.034 300.843 584.048 298.962 592.48C297.862 597.776 297.362 603.179 297.473 608.588C297.578 611.004 297.535 613.425 297.345 615.836C297.097 617.995 296.545 620.097 296.241 622.279C295.896 625.154 295.768 628.051 295.857 630.945C295.774 635.488 296.042 640.031 296.657 644.532C297.882 652.215 295.736 659.834 295.152 667.598C294.856 673.023 294.241 678.426 293.311 683.778C292.871 686.033 292.318 688.272 292.014 690.551C291.118 697.325 292.423 704.307 291.014 710.984C290.349 714.109 289.165 717.62 290.91 720.294C291.462 721.14 292.254 721.792 292.855 722.597C293.522 723.375 293.735 724.448 293.415 725.424C293.071 726.157 292.27 726.64 292.07 727.422C291.75 728.654 293.039 729.669 294.192 730.192C302.877 734.13 314.075 731.352 319.935 723.789C318.926 723.628 317.693 722.895 317.669 721.872C317.741 720.844 317.963 719.832 318.326 718.868C318.8 717.131 318.877 715.308 318.55 713.537C318.326 712.305 317.909 711.121 317.653 709.872C317.409 708.504 317.249 707.121 317.173 705.733C316.741 700.743 315.764 695.817 314.259 691.043C312.81 686.412 314.796 681.724 315.308 676.892C315.556 674.613 315.444 672.245 316.245 670.095C316.717 668.814 317.493 667.679 317.966 666.398C319.062 663.426 318.414 660.132 317.741 657.031C322.48 648.438 324.049 638.202 325.834 628.537C326.837 623.114 327.841 617.691 328.844 612.268C329.284 609.852 329.772 607.348 331.245 605.407C332.805 612.589 333.418 619.946 333.07 627.289C332.889 629.404 332.916 631.533 333.15 633.643C333.519 635.971 334.487 638.169 335.048 640.465C336.296 645.506 335.568 650.814 335.848 656.009C335.952 658.103 336.224 660.197 336.312 662.299C336.705 671.568 333.599 680.589 330.533 689.343C328.652 694.715 328.236 700.82 327.331 706.441C326.483 711.829 325.642 717.217 325.21 722.654C324.818 727.647 324.649 733.051 321.56 736.973C324.377 738.818 327.299 740.694 330.597 741.33C334.451 741.936 338.394 741.17 341.748 739.164C345.075 737.156 348.05 734.609 350.553 731.626C349.896 731.4 349.664 730.45 349.6 729.765C348.648 719.577 352.49 709.631 353.947 699.483C354.682 694.4 354.811 689.246 354.331 684.132C354.155 682.208 353.891 680.291 353.811 678.358C353.434 668.274 358.253 658.57 358.085 648.486C358.005 643.767 360.487 639.104 361.695 634.537C362.752 630.51 362.784 626.25 362.808 622.062L363 589.041C363 584.571 363 580.005 361.575 575.785C359.814 570.719 361.823 564.888 362.127 559.532C353.81 562.175 345.058 563.15 336.368 562.399Z" fill="#3F3D56"/>
<path d="M365.545 469.995C368.911 463.061 373.023 456.519 377.806 450.489C378.802 449.31 379.712 448.059 380.528 446.746C382.25 443.745 382.763 440.204 383.852 436.913C386.895 427.684 394.486 420.271 396.336 410.728C397.009 407.267 399.203 404.274 400.7 401.048C401.725 398.886 402.847 396.611 404.881 395.401C407.499 393.788 411.119 394.538 413.297 396.692C415.421 398.971 416.371 402.117 415.868 405.202C415.737 406.604 415.196 407.934 414.314 409.026C413.153 410.341 411.415 410.938 409.846 411.728C405.815 413.791 402.731 417.343 401.237 421.642C398.562 429.435 398.226 437.679 394.831 445.189C391.435 452.699 387.447 459.919 384.508 467.607C382.851 471.971 381.513 476.48 379.079 480.514C376.645 484.547 372.817 487.927 368.22 488.532C368.226 485.617 367.772 482.72 366.875 479.949C365.906 476.747 364.088 472.963 365.545 469.995Z" fill="#A0616A"/>
<path d="M314.956 475.165C315.164 469.477 314.268 463.803 312.317 458.447C311.568 456.396 310.647 454.312 310.761 452.132C310.859 450.113 311.845 448.246 312.724 446.42C315.795 440.105 317.945 433.404 320.054 426.726L324.126 414.144C325.451 413.178 326.651 412.057 327.702 410.805C329.871 408.325 331.306 405.302 331.847 402.069C332.368 398.809 331.544 395.479 329.559 392.825C328.678 391.55 327.282 390.714 325.731 390.532C324.365 390.556 323.07 391.138 322.156 392.141C320.806 393.651 319.766 395.405 319.093 397.306C317.757 400.395 316.406 403.613 316.536 406.96C316.642 409.743 317.7 412.849 316.047 415.109C310.631 422.519 306.543 431.038 302.25 439.14C301.166 441.074 300.234 443.089 299.465 445.165C298.426 448.538 297.934 452.051 298.007 455.575C297.966 462.172 298.887 468.729 299.799 475.269C300.369 479.356 301.135 483.813 304.27 486.532C307.536 482.437 310.81 478.399 314.956 475.165Z" fill="#A0616A"/>
<path d="M335.5 477.532C344.613 477.532 352 470.145 352 461.032C352 451.92 344.613 444.532 335.5 444.532C326.387 444.532 319 451.92 319 461.032C319 470.145 326.387 477.532 335.5 477.532Z" fill="#A0616A"/>
<path d="M327.56 479.062C327.161 482.031 325.556 484.677 323.992 487.235C323.042 488.814 321.844 490.496 320 490.67C324.795 493.165 329.835 495.17 335.04 496.656C336.813 497.243 338.671 497.539 340.541 497.532C342.123 497.415 343.672 497.022 345.115 496.371C351.515 493.597 356.267 488.063 358 481.368C355.94 481.422 353.88 481.266 351.853 480.902C350.719 480.697 349.498 480.365 348.835 479.441C348.375 478.637 348.159 477.718 348.213 476.796C348.133 474.064 348.133 471.331 348.213 468.599C344.143 468.34 340.06 468.835 336.174 470.06C334.577 470.573 332.981 471.197 331.344 471.6C330.338 471.845 327.568 471.6 326.826 472.176C325.7 473.053 327.855 477.048 327.56 479.062Z" fill="#A0616A"/>
<path d="M334.651 489.369C334.272 484.883 331.072 481.143 326.704 480.079C324.99 479.702 323.14 479.742 321.602 478.892C318.974 477.423 318.181 473.845 315.666 472.201C313.151 470.556 309.562 471.471 307.367 473.556C305.172 475.642 304.059 478.595 303.161 481.483C301.818 485.398 301.091 489.498 301.007 493.637C300.969 494.397 301.089 495.156 301.359 495.868C301.833 496.694 302.43 497.444 303.129 498.09C305.027 500.227 305.904 503.084 305.533 505.92C305.298 508.565 305.539 511.231 306.245 513.79C307.848 520.858 309.45 527.934 310.731 535.066C311.032 536.381 311.134 537.733 311.036 539.078C310.787 541.003 309.714 542.84 309.946 544.766C310.176 545.666 310.347 546.579 310.459 547.501C310.407 548.199 310.244 548.884 309.978 549.531C308.152 554.826 303.242 566.94 303.298 572.532C311.829 570.342 324.405 569.853 333.209 569.821C335.635 569.787 338.061 569.894 340.474 570.141C346.266 570.759 352.194 572.452 357.809 570.888C363.016 569.435 367.638 565.272 373.029 565.801C374.191 562.729 372.813 552.5 371.723 549.403C367.441 537.21 366.609 524.068 369.32 511.432C370.305 506.891 368.952 502.077 370.049 497.56C370.249 496.497 370.655 495.483 371.243 494.576C371.849 493.653 372.887 493.107 373.99 493.132C374.09 485.879 373.419 478.637 371.988 471.527C371.451 469 370.338 466.015 367.798 465.582C365.507 465.197 363.577 467.13 361.742 468.558C359.848 470.015 357.662 471.044 355.334 471.575C354.395 471.683 353.496 472.01 352.706 472.53C351.601 473.444 351.449 475.097 350.552 476.212C348.949 478.21 345.369 478.033 344.231 480.336C343.975 481.022 343.772 481.728 343.622 482.446C343.085 483.81 342.171 484.993 340.987 485.855C339.196 487.532 337.02 488.739 334.651 489.369Z" fill="#5E81F4"/>
<path d="M349.846 444.103C350.126 443.009 350.086 441.708 349.198 440.974C348.758 440.63 348.189 440.503 347.717 440.175C347.052 439.617 346.507 438.93 346.116 438.156C343.644 434.711 339.037 433.553 335.223 435.418C332.334 436.926 330.581 439.944 328.02 441.987C326.708 443.041 325.195 443.823 323.882 444.869C321.259 447.138 319.391 450.151 318.528 453.506C317.688 456.844 317.203 460.26 317.079 463.699C316.942 464.731 316.983 465.779 317.199 466.797C317.461 467.64 317.858 468.435 318.376 469.151C321.009 473.143 324.499 476.775 328.861 478.826C333.223 480.878 338.529 481.221 342.835 479.074C343.267 478.893 343.638 478.594 343.907 478.212C344.154 477.629 344.21 476.984 344.067 476.368C343.84 473.93 344.326 471.479 345.468 469.311C346.268 467.715 347.461 466.342 348.109 464.681C348.697 462.83 348.952 460.89 348.862 458.95C348.926 453.945 348.581 448.94 349.846 444.103Z" fill="#2D293D"/>
<rect x="357" y="341.532" width="42" height="42" fill="#5E81F4"/>
<path d="M383.347 376.309C382.772 377.559 381.818 378.535 380.659 379.059C379.973 379.341 379.252 379.495 378.522 379.514C377.734 379.579 376.942 379.469 376.191 379.19C375.192 378.747 374.334 377.975 373.729 376.974C373.131 375.974 372.651 374.891 372.299 373.752C372.063 373.184 371.964 372.555 372.012 371.93C372.626 371.846 373.185 371.49 373.565 370.941C373.791 370.388 373.805 369.754 373.604 369.189C373.558 369.014 373.511 368.848 373.457 368.69C373.34 368.305 372.936 367.578 373.216 367.254C373.496 366.93 374.148 366.939 374.405 366.807C375.164 366.296 375.975 365.887 376.821 365.59C377.587 365.475 378.366 365.532 379.113 365.757C379.215 365.775 379.312 365.817 379.4 365.879C379.498 365.971 379.571 366.093 379.61 366.229C379.827 366.825 379.952 367.482 380.122 368.095C380.272 368.738 380.566 369.326 380.977 369.802C381.332 370.142 381.733 370.414 382.166 370.608L383.207 371.142C383.389 371.224 383.556 371.346 383.696 371.501C383.829 371.713 383.91 371.961 383.929 372.219C384.122 373.618 383.918 375.049 383.347 376.309Z" fill="#A0616A"/>
<path opacity="0.1" d="M380 369.269C378.3 370.617 375.625 370.922 373.485 370.01C373.438 369.892 373.392 369.779 373.337 369.672C373.221 369.411 372.817 368.919 373.097 368.699C373.376 368.479 374.029 368.485 374.285 368.396C375.044 368.049 375.855 367.773 376.7 367.572C377.466 367.494 378.244 367.532 378.991 367.684C379.093 367.697 379.19 367.725 379.278 367.767C379.376 367.83 379.449 367.912 379.487 368.005C379.705 368.426 379.829 368.853 380 369.269Z" fill="black"/>
<path d="M376.5 370.532C379.538 370.532 382 368.07 382 365.032C382 361.995 379.538 359.532 376.5 359.532C373.462 359.532 371 361.995 371 365.032C371 368.07 373.462 370.532 376.5 370.532Z" fill="#A0616A"/>
<path d="M393 382.532H366.373C365.557 380.787 364.823 379.034 364 377.288C364.088 376.873 364.251 376.476 364.481 376.114C364.72 375.756 365.13 375.536 365.574 375.527C365.81 375.527 366.079 375.613 366.25 375.449C366.421 375.284 366.364 375.151 366.487 375.042C366.609 374.932 366.902 374.932 367.131 374.948C367.628 374.963 368.1 374.737 368.386 374.345C368.474 374.199 368.581 374.065 368.704 373.946C368.919 373.846 369.151 373.788 369.389 373.774C370.049 373.633 370.441 372.991 370.938 372.592C371.182 372.328 371.566 372.226 371.917 372.334C371.996 372.373 372.066 372.429 372.12 372.498C372.254 372.695 372.346 372.916 372.389 373.148C372.685 374.448 373.436 375.611 374.517 376.443C375.681 377.288 377.181 377.582 378.596 377.243C380.012 376.904 381.192 375.968 381.806 374.697C382.2 373.752 382.426 372.749 382.475 371.731C382.475 371.676 382.475 371.645 382.475 371.598C383.146 371.438 383.857 371.573 384.415 371.966C384.956 372.364 385.535 372.712 386.143 373.007C386.869 373.281 387.774 373.281 388.271 373.79C388.483 373.993 388.63 374.275 388.899 374.4C389.066 374.463 389.242 374.503 389.421 374.517C390.344 374.757 391.099 375.392 391.467 376.239C392.057 377.495 392.442 378.831 392.609 380.2L393 382.532Z" fill="#F86D70"/>
<path d="M372.522 355.608C372.114 355.935 371.767 356.331 371.499 356.777C370.996 357.597 370.292 358.28 369.453 358.764C369.101 358.886 368.781 359.082 368.515 359.34C368.384 359.536 368.3 359.759 368.269 359.991C368.098 360.801 368.01 361.627 368.007 362.454C367.976 362.871 368.046 363.289 368.21 363.673C368.379 364.024 368.701 364.324 368.76 364.708C368.772 365.012 368.738 365.316 368.658 365.61C368.577 365.926 368.702 366.258 368.971 366.445C369.124 366.499 369.283 366.535 369.445 366.554C370.29 366.737 370.578 367.722 370.704 368.532C370.992 368.532 371.119 368.19 371.186 367.923L372.032 364.041C372.133 363.623 372.285 363.13 372.717 362.989C373.012 362.926 373.318 362.926 373.613 362.989C374.78 363.089 375.76 362.195 376.902 361.945C377.27 361.877 377.645 361.854 378.018 361.878C378.914 361.878 379.963 362.287 380.157 363.114C380.157 363.247 380.208 363.414 380.335 363.481C380.464 363.518 380.602 363.518 380.732 363.481C381.298 363.423 381.637 364.057 381.806 364.575L382.398 366.47C382.491 366.754 382.643 367.096 382.956 367.13C383.252 367.128 383.501 366.91 383.539 366.62C383.552 366.337 383.512 366.054 383.421 365.785C383.142 364.55 383.573 363.281 383.835 362.037C384.097 360.793 384.139 359.365 383.26 358.405C382.939 358.063 382.516 357.804 382.22 357.437C381.924 357.069 381.789 356.677 381.501 356.334C380.353 355.34 378.92 354.721 377.401 354.564C375.705 354.416 374.004 354.78 372.522 355.608Z" fill="#3F3D56"/>
<g opacity="0.1">
<path d="M382.744 365.93C382.448 365.93 382.304 365.562 382.216 365.284L381.656 363.427C381.496 362.919 381.176 362.298 380.64 362.347C380.517 362.383 380.387 362.383 380.264 362.347C380.144 362.281 380.128 362.126 380.096 361.987C379.912 361.169 378.92 360.817 378.072 360.776C377.718 360.751 377.363 360.776 377.016 360.849C375.936 361.087 375.008 361.962 373.904 361.864C373.624 361.811 373.336 361.811 373.056 361.864C372.648 362.011 372.504 362.486 372.408 362.903C372.128 364.171 371.856 365.439 371.608 366.699C371.544 366.961 371.424 367.28 371.152 367.297C371.032 366.479 370.76 365.538 369.96 365.358C369.807 365.344 369.656 365.308 369.512 365.251C369.405 365.193 369.323 365.097 369.28 364.981C369.28 365.096 369.232 365.219 369.216 365.333C369.139 365.642 369.257 365.968 369.512 366.151C369.657 366.204 369.807 366.24 369.96 366.258C370.76 366.438 371.032 367.403 371.152 368.197C371.424 368.197 371.544 367.861 371.608 367.599C371.888 366.331 372.16 365.063 372.408 363.795C372.504 363.386 372.648 362.903 373.056 362.764C373.335 362.703 373.624 362.703 373.904 362.764C375.008 362.862 375.936 361.987 377.016 361.741C377.364 361.674 377.719 361.653 378.072 361.676C378.92 361.676 379.912 362.077 380.096 362.887C380.096 363.018 380.144 363.181 380.264 363.247C380.387 363.283 380.517 363.283 380.64 363.247C381.176 363.189 381.496 363.811 381.656 364.319L382.216 366.176C382.304 366.454 382.448 366.789 382.744 366.822C383.024 366.821 383.26 366.607 383.296 366.323C383.313 366.102 383.286 365.879 383.216 365.669C383.122 365.843 382.938 365.945 382.744 365.93Z" fill="black"/>
<path d="M369.28 363.574C369.224 363.198 368.92 362.903 368.76 362.559C368.655 362.328 368.593 362.078 368.576 361.823C368.576 361.962 368.576 362.093 368.576 362.232C368.546 362.64 368.612 363.05 368.768 363.427C368.896 363.705 369.12 363.95 369.232 364.245C369.289 364.026 369.305 363.799 369.28 363.574Z" fill="black"/>
<path d="M383.576 360.948C383.258 362.008 383.104 363.112 383.12 364.22C383.224 363.415 383.376 362.617 383.576 361.831C383.709 361.231 383.755 360.613 383.712 359.999C383.687 360.318 383.641 360.635 383.576 360.948Z" fill="black"/>
</g>
<path d="M368.715 382.532H363C363.252 380.864 363.703 379.238 364.342 377.695C364.393 377.537 364.475 377.392 364.585 377.274C364.608 377.246 364.635 377.221 364.665 377.202C364.834 377.059 365.069 377.003 365.252 376.868C365.435 376.733 365.457 376.589 365.626 376.534C366.261 376.518 366.893 376.631 367.489 376.868C367.658 376.888 367.824 376.934 367.981 377.003C368.353 377.227 368.631 377.597 368.759 378.037C369.243 379.461 368.876 381.005 368.715 382.532Z" fill="#F86D70"/>
<defs>
<linearGradient id="paint0_linear" x1="614.998" y1="728.548" x2="614.998" y2="132.492" gradientUnits="userSpaceOnUse">
<stop stop-color="#808080" stop-opacity="0.25"/>
<stop offset="0.54" stop-color="#808080" stop-opacity="0.12"/>
<stop offset="1" stop-color="#808080" stop-opacity="0.1"/>
</linearGradient>
<linearGradient id="paint1_linear" x1="639.02" y1="405.54" x2="639.02" y2="318.532" gradientUnits="userSpaceOnUse">
<stop stop-color="#808080" stop-opacity="0.25"/>
<stop offset="0.54" stop-color="#808080" stop-opacity="0.12"/>
<stop offset="1" stop-color="#808080" stop-opacity="0.1"/>
</linearGradient>
<linearGradient id="paint2_linear" x1="289.933" y1="748.575" x2="415.971" y2="748.575" gradientUnits="userSpaceOnUse">
<stop stop-color="#808080" stop-opacity="0.25"/>
<stop offset="0.54" stop-color="#808080" stop-opacity="0.12"/>
<stop offset="1" stop-color="#808080" stop-opacity="0.1"/>
</linearGradient>
</defs>
</svg>
