<svg width="740" height="814" viewBox="0 0 740 814" fill="none" xmlns="http://www.w3.org/2000/svg">
<path opacity="0.2" d="M157.88 341.883C135.328 360.264 113.48 380.832 99.7521 406.78C79.564 444.93 79.8753 492.921 100.593 528.296C118.134 558.289 147.714 577.818 173.021 600.986C204.2 629.519 229.426 664.291 253.301 699.65C266.13 718.643 279.066 738.338 297.803 751.058C323.82 768.715 358.894 770.462 389.526 759.125C420.157 747.789 446.377 724.386 465.206 696.574C475.226 681.774 483.515 665.048 484.71 647.455C485.975 628.84 479.231 610.845 480.632 592.23C481.929 574.98 490.137 558.664 499.732 543.996C512.258 524.845 527.421 507.554 544.773 492.635C564.441 475.745 586.59 462.269 606.322 445.516C626.053 428.763 643.913 407.552 650.09 382.318C655.9 358.596 650.794 334.272 644.596 311.42C634.505 274.078 621.391 237.62 605.384 202.408C594.637 178.81 582.364 155.535 564.39 137.47C530.029 102.925 475.317 91.5729 428.067 109.175C388.92 123.761 357.308 155.415 330.085 188.549C305.26 218.764 282.614 257.198 250.432 279.624C219.726 300.999 187.337 317.884 157.88 341.883Z" fill="#1B51E5"/>
<path d="M586.845 335.685C586.845 335.685 550.183 372.513 570.879 427.159C591.576 481.806 535.4 572.685 535.4 572.685C535.4 572.685 535.991 572.596 537.121 572.4C612.42 559.048 649.833 472.54 607.961 408.276C592.415 384.386 579.613 356.356 586.845 335.685Z" fill="#1B51E5"/>
<path d="M586.902 335.685C586.902 335.685 566.183 380.828 586.902 417.655C607.621 454.482 590.454 557.836 535.4 572.685" stroke="#535461" stroke-width="2"/>
<path d="M652.4 484.145C652.4 484.145 610.587 477.459 606.775 515.077C602.963 552.695 526.4 557.903 526.4 557.903C526.4 557.903 526.896 558.247 527.836 558.864C591.072 600.534 651.525 585.406 642.418 530.074C639.008 509.507 639.28 488.844 652.4 484.145Z" fill="#1B51E5"/>
<path opacity="0.2" d="M652.4 484.145C652.4 484.145 610.587 477.459 606.775 515.077C602.963 552.695 526.4 557.903 526.4 557.903C526.4 557.903 526.896 558.247 527.836 558.864C591.072 600.534 651.525 585.406 642.418 530.074C639.008 509.507 639.28 488.844 652.4 484.145Z" fill="#F5F5F5"/>
<path d="M652.4 484.686C652.4 484.686 619.949 491.838 622.613 521.456C625.278 551.074 574.403 586.563 526.4 558.41" stroke="#535461" stroke-width="2"/>
<g opacity="0.5">
<path fill-rule="evenodd" clip-rule="evenodd" d="M262.052 316.271C264.913 325.151 266.37 334.425 266.372 343.756C266.372 343.756 272.867 361.556 272.813 375.126C272.843 378.923 272.392 382.434 271.178 385.185L269.992 402.415C269.992 402.415 269.696 402.249 269.157 401.987C269.868 408.523 269.352 420.495 256.558 422.746C256.272 422.671 256.003 422.537 255.77 422.354C254.887 420.572 254.096 418.746 253.4 416.882L253.252 416.93L253.4 417.666L252.452 417.963C257.068 427.992 256.025 448.835 254.982 450.902C254.573 451.788 254.224 454.277 253.981 457.135C253.528 462.684 253.727 468.268 254.573 473.771C255.166 477.573 255.344 482.225 253.388 484.162C249.832 487.679 250.229 514.659 250.229 514.659C249.985 515.267 249.71 515.862 249.406 516.441L250.627 516.614C250.627 516.614 250.627 527.172 248.653 534.598C247.521 538.888 249.127 544.437 250.698 548.394C252.871 553.717 253.349 559.584 252.067 565.19C250.911 570.027 248.493 574.851 243.515 576.437C232.452 579.961 230.081 561.584 230.081 561.584C230.081 561.584 230.478 547.497 230.081 545.542C229.957 544.942 229.388 543.261 228.653 541.229C225.983 533.816 224.971 525.906 225.69 518.058L226.147 513.114L228.292 513.423C228.303 513.231 228.315 513.035 228.327 512.835C228.347 512.506 228.368 512.167 228.387 511.819C228.414 511.344 228.44 510.855 228.464 510.352C228.487 509.845 228.511 509.326 228.535 508.795C228.558 508.264 228.58 507.722 228.6 507.167C228.62 506.89 228.629 506.611 228.629 506.329C228.724 503.798 228.801 501.095 228.861 498.421C228.869 498.016 228.879 497.616 228.89 497.218C228.911 496.441 228.932 495.672 228.932 494.886C228.973 494.019 228.973 493.163 228.973 492.326V491.494C229.015 490.121 229.015 488.802 229.015 487.614V486.901V485.558V484.929V483.74V482.712V481.833C228.997 480.366 228.955 479.712 228.896 480.253C228.774 481.34 228.499 485.906 228.498 485.906C228.498 485.906 228.599 484.225 228.896 479.064C229.53 468.019 219.616 441.693 215.77 431.949C214.543 432.586 213.356 433.296 212.215 434.076C210.917 449.429 212.695 478.88 213.287 487.549V487.584C213.304 487.816 213.322 488.033 213.34 488.234C213.372 488.612 213.4 488.935 213.4 489.194V489.266L213.429 489.694V489.729V489.854V489.919C213.429 489.919 218.567 521.985 218.567 529.411C218.567 535.133 221.382 543.403 222.674 546.903C224.552 547.717 226.075 548.566 226.075 548.566L225.678 577.893C225.678 577.893 230.022 592.36 214.224 595.877C198.425 599.395 205.139 581.41 205.139 581.41L206.324 568.506L200.795 548.566L202.348 548.252C199.065 537.741 190.271 508.801 190.917 502.432C191.634 495.308 188.09 487.531 187.456 486.212L187.361 486.01C190.751 478.975 180.452 442.044 175.747 426.097C169.892 423.287 165.637 421.106 165.637 421.106C165.637 421.106 165.755 420.91 165.963 420.512L165.637 420.346C168.161 415.598 170.193 410.603 171.699 405.439L171.361 405.095L171.616 404.376C170.81 403.597 170.372 403.14 170.372 403.14C170.372 403.14 158.917 405.077 161.678 399.623C164.44 394.168 163.652 385.957 163.652 385.957V355.983L158.123 357.807C147.723 359.524 145.856 347.861 145.915 338.949C145.9 335.446 146.15 331.946 146.662 328.481C146.662 328.481 154.567 267.879 168.392 269.834C181.347 271.663 192.736 264.059 194.129 263.09C194.299 262.567 194.451 262.052 194.585 261.545C193.792 260.667 193.08 259.719 192.458 258.711C192.025 258.694 191.587 258.652 191.172 258.604V258.254L190.775 258.212C190.86 255.471 189.843 252.81 187.954 250.827C187.19 250.097 186.314 249.495 185.358 249.045C184.457 248.625 183.5 248.337 182.543 248.049C181.469 247.726 180.396 247.403 179.403 246.894C178.737 246.546 178.136 246.085 177.625 245.533C176.44 244.458 175.669 242.973 176.078 241.487C176.144 241.26 176.236 241.038 176.328 240.816C176.5 240.4 176.671 239.984 176.671 239.539C176.671 238.839 176.28 238.24 175.889 237.641C175.749 237.425 175.608 237.21 175.486 236.99C174.135 234.518 175.349 231.446 176.973 229.171C177.35 228.643 177.752 228.123 178.156 227.603C179.492 225.878 180.838 224.14 181.293 222.041C181.395 221.583 181.452 221.114 181.508 220.646C181.589 219.974 181.669 219.302 181.886 218.661C183.071 215.137 187.622 214.086 191.367 214.282C192.054 214.318 192.751 214.374 193.451 214.431C196.568 214.683 199.75 214.94 202.401 213.426C203.032 212.988 203.71 212.621 204.422 212.333C205.242 212.139 206.097 212.139 206.917 212.333C211.658 213.171 216.001 215.53 219.954 218.274C221.539 219.339 223.019 220.552 224.375 221.899C225.269 222.75 226.065 223.701 226.745 224.733C228.345 227.204 229.098 230.371 228.114 233.146C227.548 234.678 226.554 236.014 225.252 236.996C228.413 241.141 229.773 246.39 229.025 251.554C228.276 256.718 225.483 261.361 221.275 264.433C221.932 265.511 222.677 266.533 223.504 267.487V267.32C223.504 267.32 235.557 273.381 239.901 272.596C244.144 271.83 255.16 278.9 254.941 293.07V294.163L262.052 316.271ZM250.176 378.162C250.176 378.162 251.391 385.227 252.268 392.731L253.649 384.531L244.25 349.359V357.047L250.176 378.162Z" fill="url(#paint0_linear)"/>
</g>
<path d="M225.045 507.686L224.612 512.489C223.93 520.122 224.897 527.814 227.448 535.032C228.144 537.011 228.688 538.642 228.805 539.227C229.179 541.13 228.805 554.809 228.805 554.809C228.805 554.809 231.062 572.671 241.594 569.25C246.33 567.714 248.611 563.016 249.733 558.319C250.95 552.871 250.493 547.177 248.423 541.998C246.926 538.152 245.394 532.745 246.476 528.591C248.359 521.371 248.359 511.113 248.359 511.113L225.045 507.686Z" fill="#5A5773"/>
<path d="M213.4 424.981C213.4 424.981 228.223 461.02 227.46 474.291C226.698 487.563 227.271 477.134 227.46 475.43C227.797 472.392 227.46 508.461 226.32 512.589C226.32 512.589 241.905 523.967 247.987 508.797C247.987 508.797 247.608 482.626 251.025 479.21C252.904 477.335 252.721 472.817 252.165 469.13C251.345 463.797 251.147 458.388 251.574 453.01C251.805 450.237 252.124 447.796 252.538 446.964C253.678 444.687 254.819 418.893 247.975 411.686L213.4 424.981Z" fill="#605D82"/>
<path opacity="0.1" d="M229.192 512.591C230.33 508.42 230.667 472.368 230.33 475.424C230.142 477.129 229.569 487.565 230.33 474.285C231.092 461.005 216.294 424.965 216.294 424.965L249.4 412.234C249.246 412.04 249.087 411.857 248.928 411.686L214.4 424.965C214.4 424.965 229.198 461.011 228.436 474.285C227.675 487.559 228.248 477.129 228.436 475.424C228.773 472.386 228.436 508.461 227.298 512.591C227.298 512.591 233.511 517.133 239.617 516.649C234.183 516.242 229.192 512.591 229.192 512.591Z" fill="black"/>
<path d="M200.4 541.785L205.835 561.366L204.669 574.034C204.669 574.034 198.069 591.694 213.6 588.237C229.132 584.78 224.863 570.578 224.863 570.578L225.249 541.785C225.249 541.785 219.035 538.328 216.318 538.716C213.6 539.104 200.4 541.785 200.4 541.785Z" fill="#5A5773"/>
<path d="M174.4 415.686C174.4 415.686 191.92 472.492 187.733 481.261C187.733 481.261 191.92 489.649 191.162 497.268C190.404 504.886 203.352 545.686 203.352 545.686L222.4 542.253C222.4 542.253 217.827 530.817 217.827 523.572C217.827 516.328 212.876 485.037 212.876 485.037C212.876 485.037 208.688 427.845 213.64 421.744L174.4 415.686Z" fill="#605D82"/>
<g opacity="0.1">
<path d="M213.002 425.861C209.817 438.762 213.337 486.237 213.337 486.237C213.337 486.237 218.333 517.384 218.333 524.632C218.333 530.143 221.016 538.082 222.289 541.532L223.328 541.349C223.328 541.349 218.715 529.954 218.715 522.736C218.715 515.518 213.719 484.341 213.719 484.341C213.719 484.341 210.505 440.954 213.002 425.861Z" fill="black"/>
<path d="M188.359 480.531L188.455 480.725C188.485 480.531 188.514 480.324 188.532 480.135C188.482 480.27 188.424 480.402 188.359 480.531Z" fill="black"/>
<path d="M213.624 423.097C213.799 422.442 214.092 421.823 214.49 421.272L174.908 415.193C174.908 415.193 175.141 415.932 175.541 417.249L213.624 423.097Z" fill="black"/>
</g>
<path d="M265.499 394.683C265.499 394.683 271.13 415.676 254.242 418.685C253.968 418.614 253.712 418.487 253.489 418.312C253.489 418.312 243.733 399.185 251.237 391.685L265.499 394.683Z" fill="#A1616A"/>
<path d="M196.391 252.685C196.391 252.685 197.541 268.622 184.898 276.218C172.256 283.815 211.708 304.685 211.708 304.685L232.4 272.039C232.4 272.039 223.594 273.167 218.232 257.998L196.391 252.685Z" fill="#A1616A"/>
<path opacity="0.1" d="M188.068 278.685C188.068 278.685 207.599 318.937 225.212 280.965L252.4 414.621C252.4 414.621 210.272 427.534 209.897 433.61C209.522 439.685 167.4 418.045 167.4 418.045C167.4 418.045 176.588 401.335 174.295 391.085C172.003 380.835 188.068 278.685 188.068 278.685Z" fill="black"/>
<path d="M188.068 276.685C188.068 276.685 207.599 316.935 225.212 278.965L252.4 412.621C252.4 412.621 210.272 425.534 209.897 431.61C209.522 437.685 167.4 416.04 167.4 416.04C167.4 416.04 176.588 399.331 174.295 389.081C172.003 378.831 188.068 276.685 188.068 276.685Z" fill="#E1E7EF"/>
<path d="M207.456 552.686C207.456 552.686 202.557 541.686 213.86 541.686C225.164 541.686 223.283 551.547 223.283 551.547L207.456 552.686Z" fill="#5A5773"/>
<path d="M233.309 524.686C233.309 524.686 228.708 513.068 240.211 512.695C251.714 512.322 245.962 523.182 245.962 523.182L233.309 524.686Z" fill="#5A5773"/>
<path opacity="0.1" d="M222.4 268.685C222.4 268.685 234.147 274.616 238.388 273.833C242.629 273.05 253.795 280.315 253.028 294.808L259.989 316.43C262.773 325.1 264.187 334.144 264.182 343.241C264.182 343.241 274.197 370.698 268.806 382.903L267.65 399.685C267.65 399.685 258.791 394.728 249.542 396.252L251.872 382.547L241.449 343.638L224.113 302.067L222.4 268.685Z" fill="black"/>
<path d="M222.4 267.685C222.4 267.685 234.147 273.616 238.388 272.833C242.629 272.05 253.795 279.315 253.028 293.808L259.989 315.43C262.773 324.1 264.187 333.144 264.182 342.241C264.182 342.241 274.197 369.698 268.806 381.903L267.65 398.685C267.65 398.685 258.791 393.728 249.542 395.252L251.854 381.523L241.449 342.627L224.131 301.055L222.4 267.685Z" fill="#67647E"/>
<path opacity="0.1" d="M241.753 314.085V356.901L247.503 377.364C247.503 377.364 251.335 399.717 250.185 406.54C249.035 413.363 230.641 414.877 225.659 409.192C220.678 403.506 223.359 354.986 223.359 354.986L222.4 283.96L223.169 281.685L241.753 314.085Z" fill="black"/>
<path d="M242.753 312.888V355.79L248.503 376.293C248.503 376.293 252.335 398.692 251.185 405.528C250.035 412.364 231.641 413.882 226.659 408.185C221.678 402.488 224.359 353.871 224.359 353.871L223.4 282.685L242.753 312.888Z" fill="#67647E"/>
<path opacity="0.1" d="M166.4 347.87L178.557 385.851L172.856 402.07C172.856 402.07 199.829 430.693 216.924 416.954C216.924 416.954 218.826 358.558 215.022 344.82C211.218 331.081 192.988 284.881 192.988 284.881L189.214 272.685L169.082 284.133L166.4 347.87Z" fill="black"/>
<path d="M164.704 346.897V384.28C164.704 384.28 165.461 392.297 162.813 397.637C160.165 402.977 171.122 401.073 171.122 401.073C171.122 401.073 197.934 429.692 214.927 415.955C214.927 415.955 216.818 357.566 213.036 343.829C209.255 330.092 191.134 283.897 191.134 283.897L187.358 271.685L167.346 283.132L164.704 346.897Z" fill="#67647E"/>
<path opacity="0.1" d="M194.828 263.685C194.828 263.685 183.261 272.277 169.984 270.365C156.706 268.453 149.121 327.644 149.121 327.644C149.121 327.644 144.19 358.192 160.121 355.52L195.4 343.681C195.4 343.681 187.815 335.659 188.953 325.352L171.877 332.221L172.644 299.387L194.828 263.685Z" fill="black"/>
<path opacity="0.1" d="M150.121 326.952C150.121 326.952 145.19 357.164 161.121 354.522L196.4 342.813C196.4 342.813 188.815 334.885 189.953 324.685L172.889 331.485L150.121 326.952Z" fill="black"/>
<path d="M188.4 328.721C188.4 328.721 200.59 313.289 209.567 320.698C218.545 328.107 191.619 341.685 191.619 341.685L188.4 328.721Z" fill="#A1616A"/>
<path d="M194.828 263.685C194.828 263.685 183.261 272.277 169.984 270.365C156.706 268.453 149.121 327.644 149.121 327.644C149.121 327.644 144.19 358.192 160.121 355.52L195.4 343.681C195.4 343.681 187.815 335.659 188.953 325.352L171.877 332.227L172.644 299.387L191.991 283.356L194.828 263.685Z" fill="#67647E"/>
<path opacity="0.1" d="M218.386 258.805L196.59 253.685C196.59 253.685 197.726 254.914 196.4 259.721C199.908 263.572 204.218 268.685 209.973 268.685C214.091 268.693 218.101 267.421 221.4 265.062C220.169 263.083 219.159 260.986 218.386 258.805Z" fill="black"/>
<path d="M210.4 267.685C220.893 267.685 229.4 259.179 229.4 248.685C229.4 238.192 220.893 229.685 210.4 229.685C199.906 229.685 191.4 238.192 191.4 248.685C191.4 259.179 199.906 267.685 210.4 267.685Z" fill="#A1616A"/>
<path opacity="0.1" d="M216.3 241.68C220.687 240.928 225.508 238.966 226.978 234.736C227.919 232.028 227.201 228.947 225.667 226.535C224.132 224.124 221.874 222.269 219.546 220.61C215.765 217.932 211.597 215.633 207.046 214.827C206.261 214.638 205.443 214.638 204.658 214.827C203.976 215.109 203.327 215.466 202.724 215.894C199.614 217.701 195.745 216.919 192.14 216.729C188.536 216.54 184.215 217.565 183.08 220.995C182.727 222.056 182.75 223.2 182.492 224.29C181.904 226.956 179.911 229.03 178.376 231.252C176.841 233.474 175.66 236.478 176.953 238.872C177.394 239.683 178.129 240.43 178.129 241.354C178.016 242.011 177.818 242.651 177.541 243.256C177.006 245.223 178.564 247.208 180.363 248.144C182.163 249.081 184.232 249.371 186.067 250.242C189.573 251.986 191.749 255.63 191.635 259.568C193.305 259.764 195.251 259.864 196.38 258.608C196.885 258.045 197.132 257.293 197.591 256.695C198.179 255.912 199.096 255.45 199.849 254.822C203.806 251.546 200.995 247.019 203.236 243.487C204.411 241.668 206.281 242.225 208.175 242.255C210.895 242.319 213.615 242.127 216.3 241.68Z" fill="black"/>
<path d="M216.3 240.666C220.687 239.914 225.508 237.954 226.978 233.725C227.919 231.019 227.201 227.939 225.667 225.529C224.132 223.119 221.874 221.265 219.546 219.607C215.765 216.93 211.597 214.633 207.046 213.827C206.261 213.638 205.443 213.638 204.658 213.827C203.976 214.109 203.327 214.466 202.724 214.893C199.614 216.699 195.745 215.918 192.14 215.728C188.536 215.539 184.215 216.563 183.08 219.992C182.727 221.052 182.75 222.195 182.492 223.285C181.904 225.95 179.911 228.022 178.376 230.243C176.841 232.464 175.66 235.466 176.953 237.859C177.394 238.67 178.129 239.416 178.129 240.34C178.016 240.997 177.818 241.636 177.541 242.241C177.006 244.207 178.564 246.191 180.363 247.127C182.163 248.063 184.232 248.353 186.067 249.223C189.588 250.964 191.772 254.619 191.652 258.568C193.322 258.764 195.268 258.864 196.397 257.609C196.903 257.046 197.15 256.294 197.609 255.696C198.197 254.914 199.114 254.452 199.866 253.825C203.824 250.55 201.013 246.025 203.253 242.496C204.429 240.678 206.299 241.234 208.192 241.264C210.907 241.319 213.622 241.119 216.3 240.666Z" fill="#4A4347"/>
<path opacity="0.1" d="M238.4 304.685C238.4 304.685 242.913 326.469 240.864 334.878C239.612 339.769 239.797 344.884 241.4 349.685" fill="black"/>
<path opacity="0.1" d="M172.018 314.685C172.018 314.685 169.942 328.731 173.4 331.685L172.018 314.685Z" fill="black"/>
<path d="M277.4 492.686C277.952 492.686 278.4 492.238 278.4 491.686C278.4 491.133 277.952 490.686 277.4 490.686C276.848 490.686 276.4 491.133 276.4 491.686C276.4 492.238 276.848 492.686 277.4 492.686Z" fill="black"/>
<g opacity="0.5">
<path d="M551.807 388.961V388.469L389.995 264.23C389.785 264.075 389.499 264.075 389.289 264.23L227.471 388.469V581.046H227.78V581.354H552.121V388.777L551.807 388.961Z" fill="url(#paint1_linear)"/>
</g>
<path d="M546.4 576.685H233.4V390.836L389.9 270.685L546.4 390.836V576.685Z" fill="white"/>
<path d="M535.4 565.685H245.4V392.591L390.4 280.685L535.4 392.591V565.685Z" fill="#E0E0E0"/>
<path d="M261.961 324.649L438.996 278.172L498.024 503.65L320.989 550.127L261.961 324.649Z" fill="#1B51E5"/>
<rect x="298.4" y="311.685" width="183" height="234" fill="#F5F5F5"/>
<path opacity="0.05" d="M234.4 390.685L390.4 483.685L234.4 576.685V390.685Z" fill="black"/>
<path d="M233.4 390.685L389.4 483.685L233.4 576.685V390.685Z" fill="white"/>
<path opacity="0.05" d="M544.4 390.685L388.4 483.685L544.4 576.685V390.685Z" fill="black"/>
<path d="M545.4 390.685L389.4 483.685L545.4 576.685V390.685Z" fill="white"/>
<path opacity="0.05" d="M233.4 573.686L389.9 451.686L546.4 573.686H233.4Z" fill="black"/>
<path d="M233.4 576.686L389.9 454.686L546.4 576.686H233.4Z" fill="white"/>
<path d="M265.577 590.686C265.577 590.686 257.506 564.062 267.092 544.455C271.165 536.259 272.393 527 270.592 518.068C269.703 513.835 268.418 509.691 266.751 505.686" stroke="#535461" stroke-width="2"/>
<path d="M272.4 493.398C272.4 496.551 266.4 505.686 266.4 505.686C266.4 505.686 260.4 496.546 260.4 493.398C260.4 490.243 263.086 487.686 266.4 487.686C269.714 487.686 272.4 490.243 272.4 493.398Z" fill="#1B51E5"/>
<path d="M282.57 511.385C280.752 514.061 270.4 518.686 270.4 518.686C270.4 518.686 270.588 507.783 272.406 505.107C274.289 502.592 277.913 501.935 280.633 503.615C283.352 505.294 284.206 508.717 282.57 511.385Z" fill="#1B51E5"/>
<path d="M282.021 541.896C279.188 543.352 268.4 542.348 268.4 542.348C268.4 542.348 274.024 532.888 276.85 531.433C278.693 530.38 280.952 530.444 282.734 531.6C284.517 532.756 285.535 534.817 285.386 536.969C285.236 539.12 283.944 541.014 282.021 541.902V541.896Z" fill="#1B51E5"/>
<path d="M276.218 564.936C273.578 566.831 262.4 567.686 262.4 567.686C262.4 567.686 266.514 557.552 269.154 555.657C271.792 553.947 275.348 554.55 277.234 557.027C279.12 559.505 278.673 562.985 276.218 564.936Z" fill="#1B51E5"/>
<path d="M258.016 519.24C260.407 521.42 271.4 523.686 271.4 523.686C271.4 523.686 268.704 513.289 266.337 511.109C263.945 509.101 260.314 509.232 258.09 511.407C255.866 513.582 255.833 517.033 258.016 519.245V519.24Z" fill="#1B51E5"/>
<path d="M251.419 546.881C254.326 548.365 265.4 547.342 265.4 547.342C265.4 547.342 259.627 537.701 256.726 536.217C253.847 534.898 250.456 536.114 249.033 538.974C247.61 541.834 248.662 545.323 251.419 546.887V546.881Z" fill="#1B51E5"/>
<path d="M248.971 574.798C251.537 576.788 262.4 577.686 262.4 577.686C262.4 577.686 258.401 567.045 255.836 565.056C254.186 563.639 251.927 563.291 249.959 564.151C247.991 565.01 246.634 566.937 246.427 569.164C246.221 571.391 247.198 573.556 248.971 574.798Z" fill="#1B51E5"/>
<rect opacity="0.5" x="309.4" y="323.685" width="74" height="5" fill="#1B51E5"/>
<rect opacity="0.5" x="310.4" y="347.685" width="159" height="5" fill="#1B51E5"/>
<rect opacity="0.5" x="310.4" y="362.685" width="159" height="5" fill="#1B51E5"/>
<rect opacity="0.4" x="310.4" y="377.685" width="159" height="5" fill="#1B51E5"/>
<rect opacity="0.4" x="310.4" y="393.685" width="159" height="5" fill="#1B51E5"/>
<rect opacity="0.3" x="310.4" y="408.686" width="90" height="5" fill="#1B51E5"/>
<rect opacity="0.3" x="309.4" y="424.686" width="124" height="5" fill="#1B51E5"/>
<defs>
<linearGradient id="paint0_linear" x1="145.921" y1="596.254" x2="272.748" y2="596.254" gradientUnits="userSpaceOnUse">
<stop stop-color="#808080" stop-opacity="0.25"/>
<stop offset="0.54" stop-color="#808080" stop-opacity="0.12"/>
<stop offset="1" stop-color="#808080" stop-opacity="0.1"/>
</linearGradient>
<linearGradient id="paint1_linear" x1="552.134" y1="581.372" x2="552.134" y2="264.112" gradientUnits="userSpaceOnUse">
<stop stop-color="#808080" stop-opacity="0.25"/>
<stop offset="0.54" stop-color="#808080" stop-opacity="0.12"/>
<stop offset="1" stop-color="#808080" stop-opacity="0.1"/>
</linearGradient>
</defs>
</svg>
