<svg width="56" height="56" viewBox="0 0 56 56" fill="none" xmlns="http://www.w3.org/2000/svg">
<rect width="56" height="56" rx="10" fill="white"/>
<rect width="56" height="56" rx="10" fill="#5E81F4" fill-opacity="0.1"/>
<path d="M41.5352 35.9883C41.8789 36.2747 41.9076 36.6042 41.6211 36.9766L41.1914 37.4922C40.9336 37.8359 40.6185 37.8646 40.2461 37.5781L14.5508 17.5117C14.207 17.2253 14.1784 16.8958 14.4648 16.5234L14.8945 16.0078C15.1523 15.6641 15.4674 15.6354 15.8398 15.9219L41.5352 35.9883ZM28.043 17.8125C27.2695 17.8125 26.5534 18.013 25.8945 18.4141C25.2643 18.8151 24.7773 19.3451 24.4336 20.0039L22.8008 18.7148C23.3451 17.7982 24.0755 17.082 24.9922 16.5664C25.9375 16.0221 26.9544 15.75 28.043 15.75C29.7617 15.75 31.2227 16.3516 32.4258 17.5547C33.6289 18.7578 34.2305 20.2188 34.2305 21.9375C34.2305 23.6276 33.6432 25.0742 32.4688 26.2773L30.793 24.9883C31.7096 24.1576 32.168 23.1406 32.168 21.9375C32.168 20.7917 31.7669 19.8177 30.9648 19.0156C30.1628 18.2135 29.1888 17.8125 28.043 17.8125ZM20.4805 35.6875H34.4453L36.6797 37.4492C36.3359 37.6497 35.9779 37.75 35.6055 37.75H20.4805C19.9076 37.75 19.4206 37.5495 19.0195 37.1484C18.6185 36.7474 18.418 36.2604 18.418 35.6875V34.5703C18.418 32.9948 18.9766 31.6484 20.0938 30.5312C21.2396 29.3854 22.6003 28.8125 24.1758 28.8125C24.6055 28.8125 25.0781 28.8984 25.5938 29.0703C25.6797 29.099 25.8086 29.1419 25.9805 29.1992C26.0951 29.2279 26.1667 29.2422 26.1953 29.2422L29.0742 31.4766C28.5586 31.5339 28.2148 31.5625 28.043 31.5625C26.9544 31.5625 25.9089 31.3906 24.9062 31.0469C24.5911 30.9323 24.3477 30.875 24.1758 30.875C23.1732 30.875 22.2995 31.2474 21.5547 31.9922C20.8385 32.7083 20.4805 33.5677 20.4805 34.5703V35.6875Z" fill="#5E81F4"/>
</svg>
