<svg width="18" height="13" viewBox="0 0 18 13" fill="none" xmlns="http://www.w3.org/2000/svg">
<path d="M14.9834 5.21875C15.7673 5.49219 16.3962 5.97526 16.8701 6.66797C17.3623 7.34245 17.6084 8.09896 17.6084 8.9375C17.6084 10.0312 17.2256 10.9609 16.46 11.7266C15.6943 12.4922 14.7646 12.875 13.6709 12.875H4.4834C3.28027 12.875 2.25033 12.4466 1.39355 11.5898C0.536784 10.7331 0.108398 9.70312 0.108398 8.5C0.108398 7.60677 0.354492 6.79557 0.84668 6.06641C1.3571 5.31901 2.02246 4.78125 2.84277 4.45312C3.06152 3.34115 3.6084 2.42969 4.4834 1.71875C5.37663 0.989583 6.39746 0.625 7.5459 0.625C8.29329 0.625 8.99512 0.789062 9.65137 1.11719C10.3076 1.44531 10.8636 1.88281 11.3193 2.42969C11.5199 2.39323 11.7204 2.375 11.9209 2.375C12.723 2.375 13.4157 2.64844 13.999 3.19531C14.6006 3.74219 14.9287 4.41667 14.9834 5.21875ZM13.6709 11.5625C14.4001 11.5625 15.0199 11.3073 15.5303 10.7969C16.0407 10.2865 16.2959 9.66667 16.2959 8.9375C16.2959 8.20833 16.0407 7.58854 15.5303 7.07812C15.0199 6.56771 14.4001 6.3125 13.6709 6.3125C13.5798 6.3125 13.4977 6.3125 13.4248 6.3125C13.5889 6.03906 13.6709 5.7474 13.6709 5.4375C13.6709 4.96354 13.4977 4.55339 13.1514 4.20703C12.805 3.86068 12.3949 3.6875 11.9209 3.6875C11.4834 3.6875 11.1006 3.82422 10.7725 4.09766C10.5173 3.45964 10.098 2.9401 9.51465 2.53906C8.93132 2.13802 8.27507 1.9375 7.5459 1.9375C6.57975 1.9375 5.75033 2.28385 5.05762 2.97656C4.38314 3.65104 4.0459 4.47135 4.0459 5.4375V5.46484C3.2985 5.57422 2.6696 5.92057 2.15918 6.50391C1.66699 7.06901 1.4209 7.73438 1.4209 8.5C1.4209 9.33854 1.72168 10.0586 2.32324 10.6602C2.9248 11.2617 3.64486 11.5625 4.4834 11.5625H13.6709ZM10.6084 6.75L11.0459 7.1875C11.21 7.35156 11.21 7.51562 11.0459 7.67969L8.20215 10.5234C8.05632 10.6693 7.91048 10.6693 7.76465 10.5234L4.9209 7.67969C4.75684 7.51562 4.75684 7.35156 4.9209 7.1875L5.3584 6.75C5.52246 6.58594 5.68652 6.58594 5.85059 6.75L7.32715 8.28125V4.45312C7.32715 4.23438 7.43652 4.125 7.65527 4.125H8.31152C8.53027 4.125 8.63965 4.23438 8.63965 4.45312V8.28125L10.1162 6.75C10.2803 6.58594 10.4443 6.58594 10.6084 6.75Z" fill="white"/>
</svg>
