<svg width="16" height="15" viewBox="0 0 16 15" fill="none" xmlns="http://www.w3.org/2000/svg">
<path d="M11.1172 10.1836L11.9922 9.30859C12.0651 9.23568 12.1471 9.21745 12.2383 9.25391C12.3294 9.29036 12.375 9.36328 12.375 9.47266V13.4375C12.375 13.8021 12.2474 14.112 11.9922 14.3672C11.737 14.6224 11.4271 14.75 11.0625 14.75H1.4375C1.07292 14.75 0.763021 14.6224 0.507812 14.3672C0.252604 14.112 0.125 13.8021 0.125 13.4375V3.8125C0.125 3.44792 0.252604 3.13802 0.507812 2.88281C0.763021 2.6276 1.07292 2.5 1.4375 2.5H8.92969C9.02083 2.5 9.08464 2.54557 9.12109 2.63672C9.15755 2.72786 9.13932 2.8099 9.06641 2.88281L8.19141 3.75781C8.15495 3.79427 8.10938 3.8125 8.05469 3.8125H1.4375V13.4375H11.0625V10.3203C11.0625 10.2656 11.0807 10.2201 11.1172 10.1836ZM15.4102 4.66016L8.21875 11.8516L5.75781 12.125C5.39323 12.1615 5.08333 12.0521 4.82812 11.7969C4.57292 11.5417 4.46354 11.2318 4.5 10.8672L4.77344 8.40625L11.9648 1.21484C12.2747 0.904948 12.6484 0.75 13.0859 0.75C13.5234 0.75 13.9062 0.904948 14.2344 1.21484L15.4102 2.39062C15.7201 2.70052 15.875 3.08333 15.875 3.53906C15.875 3.97656 15.7201 4.35026 15.4102 4.66016ZM12.7031 5.50781L11.1172 3.92188L6.03125 9.00781L5.83984 10.7852L7.61719 10.5938L12.7031 5.50781ZM14.4805 3.32031L13.3047 2.14453C13.1589 2.01693 13.0221 2.01693 12.8945 2.14453L12.0469 2.99219L13.6328 4.57812L14.4805 3.73047C14.6081 3.60286 14.6081 3.46615 14.4805 3.32031Z" fill="#F79320"/>
</svg>
