<svg width="18" height="16" viewBox="0 0 18 16" fill="none" xmlns="http://www.w3.org/2000/svg">
<path d="M12.5625 10.7812L13.5625 9.78125C13.6458 9.69792 13.7396 9.67708 13.8438 9.71875C13.9479 9.76042 14 9.84375 14 9.96875V14.5C14 14.9167 13.8542 15.2708 13.5625 15.5625C13.2708 15.8542 12.9167 16 12.5 16H1.5C1.08333 16 0.729167 15.8542 0.4375 15.5625C0.145833 15.2708 0 14.9167 0 14.5V3.5C0 3.08333 0.145833 2.72917 0.4375 2.4375C0.729167 2.14583 1.08333 2 1.5 2H10.0625C10.1667 2 10.2396 2.05208 10.2812 2.15625C10.3229 2.26042 10.3021 2.35417 10.2188 2.4375L9.21875 3.4375C9.17708 3.47917 9.125 3.5 9.0625 3.5H1.5V14.5H12.5V10.9375C12.5 10.875 12.5208 10.8229 12.5625 10.7812ZM17.4688 4.46875L9.25 12.6875L6.4375 13C6.02083 13.0417 5.66667 12.9167 5.375 12.625C5.08333 12.3333 4.95833 11.9792 5 11.5625L5.3125 8.75L13.5312 0.53125C13.8854 0.177083 14.3125 0 14.8125 0C15.3125 0 15.75 0.177083 16.125 0.53125L17.4688 1.875C17.8229 2.22917 18 2.66667 18 3.1875C18 3.6875 17.8229 4.11458 17.4688 4.46875ZM14.375 5.4375L12.5625 3.625L6.75 9.4375L6.53125 11.4688L8.5625 11.25L14.375 5.4375ZM16.4062 2.9375L15.0625 1.59375C14.8958 1.44792 14.7396 1.44792 14.5938 1.59375L13.625 2.5625L15.4375 4.375L16.4062 3.40625C16.5521 3.26042 16.5521 3.10417 16.4062 2.9375Z" fill="#FAFBFF"/>
</svg>
