<svg width="360" height="200" viewBox="0 0 360 200" fill="none" xmlns="http://www.w3.org/2000/svg">
<g clip-path="url(#clip0)">
<path opacity="0.18" d="M359.728 141.83C359.374 148.019 357.592 154.077 354.493 159.629C349.441 168.54 341.579 175.82 332.274 181.449C327.083 184.568 321.538 187.195 315.73 189.287C312.534 190.448 309.272 191.462 305.958 192.325C285.889 197.54 264.713 197.795 243.824 198.012L96.8087 199.531L77.4731 199.729C71.3217 199.795 65.0525 199.833 58.8487 199.531C47.0126 198.966 35.3946 197.172 25.2077 192.007C19.9601 189.332 15.3772 185.741 11.7356 181.449C4.82938 173.356 1.09489 163.034 0.916016 152.748V151.667C0.990182 141.628 4.48036 131.729 11.7356 124C12.198 123.512 12.6692 123.027 13.1622 122.559C14.1874 121.575 15.3087 120.621 16.4866 119.668C23.9861 113.659 33.8895 108.274 38.3787 100.533C46.2753 86.9104 36.4286 81.3506 35.1329 67.9878C32.9515 45.5164 58.5695 19.6936 79.3797 9.3838C101.756 -1.72796 129.939 -3.06075 153.524 5.85422C178.479 15.2922 201.767 35.8459 228.092 30.0498C236.556 28.1862 244.33 23.5989 253.051 23.4633C269.167 23.1883 280.353 37.7443 285.37 51.359C290.387 64.9736 293.11 80.3394 305.037 89.975C313.597 96.8869 325.398 99.4867 335.764 104.078C338.912 105.434 341.894 107.076 344.66 108.979C350.767 113.264 354.964 119.079 357.381 125.542C359.3 130.794 360.096 136.318 359.728 141.83Z" fill="#F79421"/>
<path opacity="0.18" d="M332.366 181.577C324.282 186.392 315.404 190.059 306.05 192.449C287.29 197.327 267.566 197.873 248.026 198.09L243.929 198.136L189.954 198.698L162.538 198.985L101.517 199.616L96.8879 199.663L77.5479 199.864C71.3965 199.93 65.1316 199.965 58.9234 199.663C47.0743 199.113 35.4563 197.319 25.2606 192.17C20.0324 189.484 15.4704 185.886 11.8496 181.593L332.366 181.577Z" fill="#F79421"/>
<path opacity="0.05" d="M272.875 190.279C273.001 191.895 271.71 193.456 272.076 195.041C272.617 197.365 275.606 196.978 278.284 196.804C284.794 196.331 293.118 195.448 299.457 193.995C305.325 192.646 309.596 191.345 315.189 189.733C315.625 189.605 315.49 188.505 315.512 188.098C315.547 187.559 314.744 187.358 314.137 187.323C308.605 187.164 303.012 187.323 297.585 186.354C295.146 185.913 292.756 185.239 290.282 184.987C287.228 184.681 284.174 185.014 281.12 184.808C278.908 184.657 273.52 182.507 271.466 183.39C268.385 184.743 272.722 188.326 272.875 190.279Z" fill="#000405"/>
<path opacity="0.05" d="M144.703 191.736C151.095 193.328 156.265 196.699 161.893 199.31C141.551 199.517 121.21 199.726 100.871 199.938C102.577 198.493 104.483 197.245 106.543 196.226C113.231 192.902 121.088 192.135 128.705 191.43C134.028 190.934 139.529 190.45 144.703 191.736Z" fill="#000405"/>
<path opacity="0.05" d="M248.444 196.509C248.352 197.027 248.101 197.512 247.72 197.912C247.585 198.067 247.471 198.236 247.38 198.415L243.283 198.462L189.299 199.012C190.278 198.337 191.165 197.563 191.943 196.707C193.068 195.467 193.967 194.06 195.276 192.983C199.141 189.799 205.262 190.391 210.27 191.821C211.793 192.263 213.324 192.766 214.93 192.747C217.774 192.716 220.217 191.073 222.783 189.942C230.841 186.37 241.508 188.284 247.371 194.355C247.947 194.983 248.518 195.711 248.444 196.509Z" fill="#000405"/>
<path d="M219.651 142.19L209.673 185.781L202.968 185.099L202.195 185.018C202.195 185.018 204.115 172.1 204.944 153.678C205.489 141.473 207.841 131.508 208.966 123.225C209.316 120.943 209.9 118.694 210.711 116.507C212.073 112.842 214.145 109.413 216.78 109.765C222.6 110.54 230.265 115.007 231.277 117.805C233.04 122.686 219.651 142.19 219.651 142.19Z" fill="#25233A"/>
<path opacity="0.24" d="M212.674 116.619C212.674 116.619 208.202 147.386 208.058 156.983C207.914 166.579 203.469 185.018 203.469 185.018L202.954 185.099L202.182 185.018C202.182 185.018 204.101 172.1 204.93 153.678C205.476 141.473 207.827 131.508 208.953 123.225C209.302 120.943 209.886 118.694 210.698 116.507C211.359 116.476 212.022 116.514 212.674 116.619Z" fill="white"/>
<path d="M242.525 185.711H235.108V185.673C234.908 184.785 231.182 168.397 225.916 156.526C221.99 147.673 220.092 129.641 219.372 120.412C219.084 116.925 218.971 114.694 218.971 114.694C218.971 114.694 234.031 110.746 235.985 112.497C237.94 114.248 240.161 122.183 240.161 122.183C240.161 122.183 235.004 153.604 238.285 155.735C241.565 157.866 242.525 185.711 242.525 185.711Z" fill="#3F3D56"/>
<path d="M125.166 60.1267C125.166 60.1267 114.198 63.1294 109.757 91.242C108.152 101.377 118.361 119.281 118.361 119.281L125.166 60.1267Z" fill="#F79421"/>
<path d="M125.166 60.1267C125.166 60.1267 114.198 63.1294 109.757 91.242C108.152 101.377 118.361 119.281 118.361 119.281L125.166 60.1267Z" fill="url(#paint0_linear)"/>
<path d="M117.157 115.771C116.485 115.673 115.796 115.719 115.147 115.905C114.499 116.092 113.91 116.412 113.428 116.841C112.947 117.27 112.588 117.794 112.381 118.371C112.174 118.947 112.124 119.559 112.236 120.156C113.074 124.55 114.671 130.648 117.472 134.104C122.201 139.889 128.658 147.87 128.658 147.87L135.333 188.551L143.565 187.563L143.491 148.579L134.198 118.27L117.157 115.771Z" fill="#25233A"/>
<path d="M134.177 118.27L133.108 152.132L115.46 188.578L109.549 186.358L107.83 185.703L117.603 151.531C117.603 151.531 113.798 142.233 110.997 135.453C108.31 128.948 111.966 116.057 112.271 115.019V114.949L134.177 118.27Z" fill="#3F3D56"/>
<path d="M207.25 96.6117L185.476 106.197L181.41 101.598L180.367 100.413L198.97 91.4356C198.97 91.4356 205.361 78.8167 206.749 73.0167C207.015 71.9396 207.281 71.0795 207.529 70.3395C208.014 68.9951 212.634 64.2451 214.187 63.9622C215.74 63.6794 213.991 67.918 215.025 68.999C216.16 70.4813 216.74 72.2437 216.682 74.0357C216.861 77.6388 207.25 96.6117 207.25 96.6117Z" fill="#F79421"/>
<path d="M235.981 107.836C235.981 107.836 225.165 119.378 212.697 116.631C211.838 116.439 210.998 116.187 210.184 115.879C209.125 115.473 208.289 114.712 207.861 113.76C207.433 112.809 207.446 111.746 207.898 110.804V110.78C209.102 108.355 209.137 104.849 209.028 101.614C208.775 94.1709 206.654 86.116 206.497 82.7647C206.393 80.6221 206.781 77.5885 207.492 74.5587C208.744 69.1733 210.982 63.8073 213.299 63.4973C220.122 62.5636 222.461 64.2141 222.461 64.2141L234.109 70.2233C239.907 75.5932 237.089 84.0238 235.981 107.836Z" fill="#F79421"/>
<path d="M218.883 77.4374L221.863 81.6993L213.613 89.111L211.916 90.6375L220.881 63.6523L220.916 60.9519L222.055 61.9864V61.9902L223.547 63.3463L224.119 74.52L218.883 77.4374Z" fill="#F79421"/>
<path d="M234.872 83.8031L233.606 112.896C233.606 112.896 215.806 120.408 213.455 111.966C211.636 105.442 216.291 97.9989 216.291 97.9989L234.872 83.8031Z" fill="url(#paint1_linear)"/>
<path d="M217.343 99.9362L211.99 119.08L245.068 125.108L249.824 106.379L217.343 99.9362Z" fill="white"/>
<path d="M221.147 56.6824C221.147 56.7676 221.03 61.1031 220.86 63.8616C220.737 65.9964 219.612 67.4997 217.893 68.9874C216.894 69.9138 215.693 70.6494 214.363 71.1493C213.899 71.301 213.385 71.2829 212.936 71.0992C212.486 70.9155 212.137 70.5811 211.964 70.1691C211.833 69.8455 211.816 69.4941 211.916 69.1618C212.086 68.5884 212.256 67.922 212.387 67.2246C212.666 65.7872 212.788 64.2297 212.348 63.1294C212.336 63.0886 212.321 63.0485 212.304 63.0093C212.042 62.4397 212.304 61.8198 212.897 61.196C213.731 60.3165 215.188 59.4254 216.641 58.6738C218.099 57.9345 219.604 57.2696 221.147 56.6824Z" fill="url(#paint2_linear)"/>
<path d="M213.337 66.9301C213.038 67.0625 212.721 67.1614 212.395 67.2245C212.674 65.7871 212.796 64.2296 212.355 63.1293L212.905 61.1921L213.32 59.7508L216.648 58.6698L220.021 57.5773C219.209 62.9084 215.998 65.8104 213.337 66.9301Z" fill="url(#paint3_linear)"/>
<path d="M212.422 41.5334C211.164 41.602 209.933 41.89 208.8 42.381C207.667 42.8721 206.655 43.5564 205.82 44.3951C204.985 45.2337 204.344 46.2102 203.934 47.2688C203.524 48.3273 203.353 49.4473 203.43 50.5646C203.438 50.7841 203.462 51.0029 203.504 51.2194C203.809 54.6835 204.817 58.0701 206.48 61.2153C209.617 65.942 217.496 62.0289 218.739 60.0762C219.982 58.1235 224.672 49.2899 222.692 46.7832C221.383 45.0397 217.535 41.3242 212.422 41.5334Z" fill="url(#paint4_linear)"/>
<path d="M204.078 38.2015L205.701 38.9376C204.734 38.9202 203.776 39.1072 202.906 39.4831C202.036 39.8589 201.279 40.413 200.697 41.0995C199.215 42.4201 198.376 44.2055 198.363 46.0704L201.116 44.9081C201.116 44.9081 200.911 47.9262 206.129 48.147C211.347 48.3679 216.87 48.5345 216.87 48.5345L215.099 46.3609C215.099 46.3609 218.345 47.5233 218.912 48.5732C219.432 50.2787 219.805 52.0169 220.029 53.7727C220.029 53.7727 221.316 50.7933 221.852 51.448C222.389 52.1028 221.294 54.7994 220.618 55.3922C219.941 55.9849 220.055 57.7594 219.994 57.9066C219.933 58.0539 223.226 55.6169 223.37 54.78C223.514 53.9431 226.778 45.4815 224.636 43.7147L225.944 43.6256C225.177 43.165 224.301 42.8656 223.383 42.75C223.383 42.75 214.789 32.8006 204.078 38.2015Z" fill="#3F3D56"/>
<path d="M170.163 104.38C171.591 103.273 173.152 102.31 174.818 101.509C176.125 101.1 177.489 100.849 178.871 100.765C178.871 100.765 179.098 102.458 177.999 102.571C176.899 102.683 175.983 104.167 175.983 104.167C175.983 104.167 183.038 106.732 184.011 106.491C184.984 106.251 184.792 107.499 183.007 107.417C181.223 107.336 180.787 109.552 179.552 109.521C178.317 109.49 176.363 110.168 174.548 110.226C172.714 110.091 170.912 109.718 169.199 109.118L170.163 104.38Z" fill="url(#paint5_linear)"/>
<path d="M142.861 86.399L136.945 115.93C136.945 115.93 134.904 121.582 124.337 120.738C120.474 120.453 116.837 119 114.037 116.619L113.867 116.476L113.749 116.367C111.725 114.59 110.14 112.457 109.094 110.106C109.094 110.106 115.882 68.445 123.011 61.2154C123.722 60.4948 124.433 60.1112 125.149 60.1461C127.101 60.3748 128.965 61.0064 130.593 61.9903C135.167 64.4893 138.785 68.1561 140.974 72.5112C143.163 76.8662 143.821 81.7066 142.861 86.399Z" fill="#F79421"/>
<path d="M131.741 85.411L124.324 120.734C124.324 120.734 135.689 122.121 136.932 115.93L140.423 97.964L131.741 85.411Z" fill="url(#paint6_linear)"/>
<path d="M125.166 60.1267C125.166 60.1267 126.296 52.529 126.75 47.5892C127.203 42.6493 129.018 36.0319 138.355 36.8804C147.691 37.7289 147.721 50.2625 145.143 55.5084C142.565 60.7544 139.127 60.6033 139.127 60.6033C139.127 60.6033 134.476 59.7044 134.651 64.6714L125.166 60.1267Z" fill="url(#paint7_linear)"/>
<path d="M128.612 35.8303C127.253 36.9904 126.272 38.4548 125.772 40.0689C125.353 41.3773 125.07 42.7169 124.926 44.0712L125.877 43.1452C125.83 45.4634 125.636 47.7775 125.297 50.0765C124.942 52.2181 124.796 54.3828 124.86 56.5467L126.606 56.4692L128.787 58.8481L131.195 57.3991L133.019 56.5661L134.633 53.0249C134.232 52.7684 133.938 52.4015 133.795 51.9811C133.653 51.5607 133.672 51.1104 133.848 50.7002C134.441 49.2551 135.916 48.9219 136.26 49.7743C136.523 50.8362 136.669 51.9184 136.697 53.0055L139.271 46.5314C139.271 46.5314 140.885 44.5206 142.298 45.9037C143.146 46.7412 144.217 47.3754 145.413 47.748L144.541 45.6093L146.875 46.1401L146.692 43.6682L148.437 44.7492C148.437 44.7492 149.2 40.7469 147.721 38.9724C146.242 37.198 140.361 30.0885 128.612 35.8303Z" fill="#3F3D56"/>
<path d="M170.361 103.578L169.179 109.126L168.86 110.618L147.566 109.207C141.672 108.758 135.887 105.178 135.154 99.9438L127.785 76.8408C127.453 75.8936 127.397 74.887 127.622 73.9152C127.847 72.9434 128.346 72.0382 129.072 71.2843C129.798 70.5303 130.727 69.9522 131.774 69.604C132.82 69.2559 133.948 69.149 135.053 69.2935C136.456 69.4798 137.772 70.0117 138.852 70.8287C139.931 71.6457 140.731 72.7152 141.161 73.9156L145.799 94.5933C146.068 95.8107 146.727 96.9335 147.696 97.8268C148.666 98.7201 149.905 99.3462 151.265 99.63L170.361 103.578Z" fill="#F79421"/>
<path d="M181.41 101.594L178.444 102.416C178.444 102.416 174.736 102.71 173.501 103.648C172.266 104.585 172.956 105.008 172.956 105.008C172.956 105.008 176.882 104.496 177.728 104.787C178.575 105.077 182.715 106.538 184.024 106.519C185.333 106.499 185.477 106.197 185.477 106.197L181.41 101.594Z" fill="url(#paint8_linear)"/>
<path d="M172.462 108.483C172.681 108.31 172.942 108.185 173.224 108.118C173.507 108.051 173.803 108.043 174.09 108.095C174.154 108.105 174.213 108.132 174.26 108.173C174.288 108.22 174.302 108.273 174.302 108.326C174.302 108.379 174.288 108.432 174.26 108.479C174.063 109.07 173.75 109.624 173.335 110.118C173.797 109.978 174.011 109.521 174.303 109.176C174.524 108.918 174.807 108.706 175.131 108.557C175.456 108.408 175.814 108.326 176.179 108.316C176.267 108.309 176.355 108.325 176.432 108.363C176.611 108.471 176.533 108.719 176.432 108.894C176.249 109.219 176.07 109.548 175.887 109.878C176.35 109.285 176.885 108.739 177.484 108.25C177.627 108.115 177.807 108.015 178.007 107.96C178.108 107.932 178.216 107.938 178.312 107.976C178.408 108.013 178.486 108.081 178.531 108.165C178.57 108.268 178.57 108.38 178.531 108.483C178.405 108.931 178.183 109.353 177.876 109.727C178.245 109.187 178.707 108.701 179.246 108.289C179.284 108.249 179.333 108.218 179.388 108.198C179.442 108.179 179.502 108.171 179.56 108.177C179.626 108.196 179.681 108.238 179.713 108.293C179.896 108.564 179.713 108.909 179.521 109.18C179.168 109.68 178.718 110.215 178.06 110.304C177.912 110.311 177.765 110.335 177.623 110.374C177.522 110.42 177.427 110.475 177.34 110.54C177.113 110.679 176.846 110.755 176.571 110.761C176.295 110.766 176.025 110.701 175.791 110.571C175.473 110.751 175.102 110.843 174.726 110.838C174.349 110.832 173.982 110.729 173.671 110.54C173.6 110.485 173.51 110.451 173.416 110.445C173.321 110.439 173.227 110.46 173.147 110.505C172.863 110.591 172.556 110.597 172.269 110.521C171.981 110.445 171.727 110.292 171.542 110.083C171.149 109.587 172.03 108.816 172.462 108.483Z" fill="url(#paint9_linear)"/>
<path d="M236.389 118.126L229.104 115.891L228.855 115.813L234.164 100.657C234.164 100.657 227.184 83.6093 226.024 78.3905C225.649 76.6552 225.631 74.8739 225.971 73.133C226.142 72.2286 226.617 71.3913 227.333 70.7309C228.049 70.0706 228.974 69.6181 229.985 69.4329C231.116 69.2114 232.298 69.3485 233.327 69.8204C234.236 70.2383 235.11 70.7121 235.944 71.2384C236.614 71.6702 237.088 72.2991 237.284 73.0129C238.593 77.7861 243.858 97.2588 244.055 99.1069C244.269 101.226 236.389 118.126 236.389 118.126Z" fill="#F79421"/>
<path d="M226.953 117.177C226.595 117.479 226.255 118.022 226.635 118.309C226.726 118.378 226.853 118.417 226.927 118.502C227.11 118.708 226.883 118.994 226.674 119.176L224.929 120.684C224.283 121.238 223.581 121.931 223.729 122.718C223.801 122.997 223.957 123.254 224.179 123.462C224.402 123.67 224.683 123.821 224.994 123.899C225.62 124.044 226.279 124.037 226.901 123.88C226.89 124.043 226.934 124.205 227.026 124.346C227.118 124.488 227.255 124.602 227.42 124.674C227.754 124.813 228.116 124.891 228.484 124.907C229.548 125.075 230.639 125.048 231.691 124.829C231.769 124.934 231.848 125.035 231.931 125.135C233.31 124.918 234.06 123.609 234.549 122.446C235.037 121.284 235.535 119.99 235.953 118.739C236.031 118.57 236.045 118.384 235.993 118.208C235.928 118.104 235.839 118.014 235.732 117.942C235.625 117.871 235.503 117.82 235.373 117.793C233.707 117.231 232.044 116.658 230.373 116.104C228.829 115.593 228.127 116.205 226.953 117.177Z" fill="url(#paint10_linear)"/>
<path d="M218.883 77.4374L221.863 81.6993L213.613 89.111L211.916 90.6375L220.881 63.6523L220.916 60.9519L222.055 61.9864V61.9902L223.547 63.3463L224.119 74.52L218.883 77.4374Z" fill="#F79421"/>
<path d="M212.396 67.2245L211.283 71.8738L211.916 90.6336L220.044 66.1746L216.553 68.135C216.366 68.2396 216.174 68.3365 215.973 68.4256C215.67 68.561 215.34 68.642 215.002 68.6641C214.663 68.6862 214.323 68.6488 214.001 68.5542C213.679 68.4596 213.381 68.3095 213.124 68.1126C212.868 67.9157 212.657 67.6758 212.505 67.4066C212.47 67.3446 212.439 67.2826 212.409 67.2168L212.396 67.2245Z" fill="white"/>
<path d="M212.448 63.478L208.822 69.5105L210.026 72.0288L208.059 75.8063L211.902 90.6336C211.902 90.6336 210.851 72.5092 212.382 67.2168C212.395 67.2246 212.901 64.7023 212.448 63.478Z" fill="#F79421"/>
<path d="M218.883 77.4374L221.863 81.6993L213.613 89.111L211.916 90.6375L220.881 63.6523L220.916 60.9519L222.055 61.9864V61.9902L223.547 63.3463L224.119 74.52L218.883 77.4374Z" fill="url(#paint11_linear)"/>
<path d="M212.448 63.478L208.822 69.5105L210.026 72.0288L208.059 75.8063L211.902 90.6336C211.902 90.6336 210.851 72.5092 212.382 67.2168C212.395 67.2246 212.901 64.7023 212.448 63.478Z" fill="url(#paint12_linear)"/>
<path d="M124.869 58.856L135.58 63.5866L138.477 68.5729L123.02 61.1883L124.869 58.856Z" fill="#F79421"/>
<path d="M124.869 58.856L135.58 63.5866L138.477 68.5729L123.02 61.1883L124.869 58.856Z" fill="url(#paint13_linear)"/>
<path d="M96.2417 124.449V200H86.8749V165.727H2.38634C1.13515 161.642 0.465341 157.434 0.392578 153.201L0.392578 152.132C0.466744 142.097 3.95256 132.171 11.2165 124.465L96.2417 124.449Z" fill="#F79421"/>
<path d="M106.237 120.106V124.438H11.2168C11.6749 123.95 12.1504 123.465 12.639 122.997C13.6686 122.012 14.7855 121.059 15.9678 120.106H106.237Z" fill="#F79421"/>
<path d="M54.5551 95.1782C53.4819 94.2639 52.1992 93.5665 51.0649 92.7296C50.6636 92.4351 50.2404 92.0399 50.3189 91.5673C50.3692 91.3842 50.4786 91.2182 50.6336 91.0895C50.7885 90.9608 50.9824 90.8751 51.1914 90.8428C51.6157 90.7922 52.047 90.8159 52.461 90.9125L50.0179 88.4716C49.791 88.243 49.5467 87.9292 49.7125 87.6619C49.8783 87.3946 50.3451 87.4101 50.6679 87.5457C50.9605 87.7241 51.3002 87.8323 51.6539 87.8595C50.7813 86.7708 49.6732 85.8835 48.744 84.8491C47.8147 83.8146 47.0687 82.5244 47.2083 81.2226C47.2119 81.0332 47.2872 80.8503 47.422 80.7035C47.7013 80.4555 48.1724 80.5601 48.5345 80.7035C51.1191 81.7023 53.1922 83.52 54.3501 85.8022C53.9472 84.6912 53.7844 83.5226 53.8702 82.3578C53.8616 82.2222 53.8869 82.0866 53.9442 81.9607C54.0015 81.8348 54.0895 81.7217 54.2017 81.6295C54.638 81.3621 55.2139 81.8232 55.4669 82.2532C57.1858 85.2249 55.9861 88.8397 56.6885 92.1291C56.7801 91.2145 57.2606 90.3652 58.0322 89.7541C58.2457 91.4473 58.1722 93.1595 57.8141 94.8334C58.3507 95.0426 58.3071 95.7245 58.1718 96.2359C57.9973 97.0108 57.7792 97.7857 57.5174 98.5606C56.5576 98.4908 56.5402 98.0259 56.2391 97.3401C55.8595 96.5203 55.2851 95.7829 54.5551 95.1782Z" fill="#F79421"/>
<path d="M62.2465 85.0506C63.1496 84.1401 64.2315 83.2762 65.5709 83.0282C65.9766 83.7217 65.5709 84.578 65.0081 85.1862C64.4453 85.7945 63.7473 86.3485 63.4637 87.0692C64.6322 85.8304 66.2132 84.9527 67.9791 84.5625C68.606 84.3726 69.2915 84.4073 69.89 84.6593C69.9756 84.6995 70.0514 84.7545 70.1128 84.821C70.1742 84.8876 70.2201 84.9643 70.2477 85.0468C70.3524 85.4729 69.7417 85.7286 69.2618 85.8216C65.8941 86.6093 62.9383 88.4099 60.8984 90.9165C62.889 89.8471 65.2224 89.3934 67.5341 89.6263C67.9355 89.6689 68.4067 89.7774 68.555 90.1067C68.7862 90.5949 68.1623 91.0598 67.5952 91.2264C65.4138 91.8696 62.6828 91.1838 60.9202 92.5088C61.8751 92.4157 62.8339 92.6515 63.5989 93.1675C64.2141 93.582 64.6678 94.4305 64.1268 94.9187C63.9437 95.045 63.7315 95.1341 63.5054 95.1796C63.2792 95.2252 63.0446 95.226 62.818 95.1822C61.5572 95.0853 60.004 94.8993 59.2798 95.8214C58.8828 96.329 58.9134 96.9838 58.765 97.6037C58.6472 98.0957 58.1891 98.9674 57.5871 98.487C57.1857 98.1654 57.3428 97.0419 57.3428 96.6157C57.3726 92.3697 59.1084 88.2726 62.2378 85.0623L62.2465 85.0506Z" fill="#F79421"/>
<path d="M54.5551 95.1782C53.4819 94.2639 52.1992 93.5665 51.0649 92.7296C50.6636 92.4351 50.2404 92.0399 50.3189 91.5673C50.3692 91.3842 50.4786 91.2182 50.6336 91.0895C50.7885 90.9608 50.9824 90.8751 51.1914 90.8428C51.6157 90.7922 52.047 90.8159 52.461 90.9125L50.0179 88.4716C49.791 88.243 49.5467 87.9292 49.7125 87.6619C49.8783 87.3946 50.3451 87.4101 50.6679 87.5457C50.9605 87.7241 51.3002 87.8323 51.6539 87.8595C50.7813 86.7708 49.6732 85.8835 48.744 84.8491C47.8147 83.8146 47.0687 82.5244 47.2083 81.2226C47.2119 81.0332 47.2872 80.8503 47.422 80.7035C47.7013 80.4555 48.1724 80.5601 48.5345 80.7035C51.1191 81.7023 53.1922 83.52 54.3501 85.8022C53.9472 84.6912 53.7844 83.5226 53.8702 82.3578C53.8616 82.2222 53.8869 82.0866 53.9442 81.9607C54.0015 81.8348 54.0895 81.7217 54.2017 81.6295C54.638 81.3621 55.2139 81.8232 55.4669 82.2532C57.1858 85.2249 55.9861 88.8397 56.6885 92.1291C56.7801 91.2145 57.2606 90.3652 58.0322 89.7541C58.2457 91.4473 58.1722 93.1595 57.8141 94.8334C58.3507 95.0426 58.3071 95.7245 58.1718 96.2359C57.9973 97.0108 57.7792 97.7857 57.5174 98.5606C56.5576 98.4908 56.5402 98.0259 56.2391 97.3401C55.8595 96.5203 55.2851 95.7829 54.5551 95.1782Z" fill="url(#paint14_linear)"/>
<path d="M62.2465 85.0506C63.1496 84.1401 64.2315 83.2762 65.5709 83.0282C65.9766 83.7217 65.5709 84.578 65.0081 85.1862C64.4453 85.7945 63.7473 86.3485 63.4637 87.0692C64.6322 85.8304 66.2132 84.9527 67.9791 84.5625C68.606 84.3726 69.2915 84.4073 69.89 84.6593C69.9756 84.6995 70.0514 84.7545 70.1128 84.821C70.1742 84.8876 70.2201 84.9643 70.2477 85.0468C70.3524 85.4729 69.7417 85.7286 69.2618 85.8216C65.8941 86.6093 62.9383 88.4099 60.8984 90.9165C62.889 89.8471 65.2224 89.3934 67.5341 89.6263C67.9355 89.6689 68.4067 89.7774 68.555 90.1067C68.7862 90.5949 68.1623 91.0598 67.5952 91.2264C65.4138 91.8696 62.6828 91.1838 60.9202 92.5088C61.8751 92.4157 62.8339 92.6515 63.5989 93.1675C64.2141 93.582 64.6678 94.4305 64.1268 94.9187C63.9437 95.045 63.7315 95.1341 63.5054 95.1796C63.2792 95.2252 63.0446 95.226 62.818 95.1822C61.5572 95.0853 60.004 94.8993 59.2798 95.8214C58.8828 96.329 58.9134 96.9838 58.765 97.6037C58.6472 98.0957 58.1891 98.9674 57.5871 98.487C57.1857 98.1654 57.3428 97.0419 57.3428 96.6157C57.3726 92.3697 59.1084 88.2726 62.2378 85.0623L62.2465 85.0506Z" fill="url(#paint15_linear)"/>
<path d="M63.1633 120.075L58.1724 120.098H53.2338C42.3706 114.38 54.9265 102.749 54.9265 102.749C54.9265 102.749 55.4239 100.936 54.7738 99.7927C54.6242 99.517 54.3898 99.2846 54.0976 99.1224C52.4965 98.2701 54.7302 97.933 54.7302 97.933H61.4313C61.4313 97.933 63.7261 98.1035 62.0029 99.1767C60.2796 100.25 61.2394 102.749 61.2394 102.749C74.646 115.988 63.1633 120.075 63.1633 120.075Z" fill="white"/>
<path opacity="0.51" d="M58.5345 119.75C58.4242 119.874 58.3031 119.991 58.1724 120.098H53.2338C42.3706 114.38 54.9265 102.749 54.9265 102.749C54.9265 102.749 55.4239 100.936 54.7738 99.7927C56.9552 99.6455 58.0066 102.144 57.7143 103.733C57.4918 104.957 57.278 106.185 57.0381 107.41C56.7585 108.555 56.6849 109.731 56.8199 110.897C57.0904 112.446 58.0851 113.814 58.7352 115.271C59.3852 116.728 59.6208 118.51 58.5345 119.75Z" fill="url(#paint16_linear)"/>
<path d="M96.2417 124.449L47.4315 136.766C38.9659 138.902 31.0939 142.58 24.3172 147.566C17.5405 152.552 12.0076 158.737 8.07098 165.727H2.39943C1.14395 161.643 0.469747 157.435 0.392578 153.201L0.392578 152.132C0.466744 142.097 3.95256 132.171 11.2165 124.465L96.2417 124.449Z" fill="url(#paint17_linear)"/>
<path opacity="0.61" d="M91.3512 165.727H86.875V199.938H91.3512V165.727Z" fill="url(#paint18_linear)"/>
<path d="M359.2 142.279C358.843 148.468 357.061 154.525 353.965 160.078C352.817 162.101 351.52 164.054 350.082 165.925C345.248 172.232 338.926 177.548 331.758 181.903C326.566 185.019 321.022 187.644 315.215 189.737L303.649 187.842L281.482 184.212C280.396 184.034 279.345 183.921 278.35 183.824C274.262 183.414 271.082 183.212 269.882 179.528C268.394 174.991 269.882 168.048 269.882 163.29C269.882 155.022 270.855 145.177 278.961 141.117C285.688 137.754 294.23 140.129 301.738 138.572C302.462 138.467 303.144 138.2 303.719 137.797C304.592 137.08 304.727 135.918 304.749 134.864C304.936 126.863 301.926 117.89 307.31 111.474C311.428 106.569 318.963 105.217 325.821 104.651C327.932 104.473 330.052 104.392 332.173 104.407C333.202 104.407 334.231 104.446 335.257 104.523C342.364 105.012 349.135 107.038 352.747 112.233C354.68 115.007 355.365 118.301 356.011 121.513C356.303 122.996 356.595 124.492 356.883 125.987C357.843 131.342 358.716 136.824 359.2 142.279Z" fill="#3F3D56"/>
<path d="M359.2 142.279C358.843 148.468 357.061 154.525 353.965 160.078C352.818 162.101 351.52 164.054 350.082 165.925C347.425 166.928 344.227 166.917 341.265 166.955C336.602 167.018 331.95 167.373 327.343 168.017C325.275 168.304 323.12 168.687 321.497 169.865C319.355 171.415 318.614 174.061 318.496 176.521C318.378 178.981 318.749 181.473 318.278 183.902C318.166 184.721 317.816 185.499 317.261 186.161C316.149 187.35 314.207 187.563 312.462 187.66C309.513 187.818 306.562 187.882 303.61 187.854C296.186 187.769 288.786 187.079 281.504 185.793C280.243 185.568 278.773 185.169 278.372 184.08C278.343 183.999 278.322 183.916 278.311 183.832C278.245 183.321 278.298 182.802 278.468 182.31L282.46 167.134C283.001 165.072 283.559 162.973 284.794 161.163C287.254 157.541 291.931 155.689 296.316 154.05L308.121 149.629C311.35 148.428 313.544 148.273 313.256 144.898C312.624 137.436 310.861 130.176 310.861 122.644C310.861 120.482 310.974 118.247 312.021 116.302C313.069 114.357 314.949 112.877 316.882 111.575C321.52 108.505 326.663 106.086 332.129 104.403C333.159 104.403 334.187 104.442 335.214 104.52C342.321 105.008 349.092 107.034 352.704 112.23C354.637 115.004 355.322 118.297 355.967 121.509C356.26 122.993 356.552 124.488 356.84 125.984C357.472 129.382 358.053 132.814 358.519 136.255C358.79 138.254 359.008 140.253 359.2 142.279Z" fill="#25233A"/>
<path d="M359.201 142.279C358.844 148.468 357.062 154.525 353.965 160.078C352.818 162.101 351.521 164.054 350.083 165.925C347.426 166.928 344.228 166.917 341.266 166.955C336.603 167.018 331.951 167.373 327.344 168.017C325.276 168.304 323.121 168.687 321.498 169.865C321.498 169.865 324.207 156.568 335.258 152.089C346.309 147.611 358.52 136.247 358.52 136.247C358.791 138.254 359.009 140.253 359.201 142.279Z" fill="#3F3D56"/>
<path d="M116.673 114.802C116.611 114.756 116.555 114.705 116.498 114.655L116.537 114.686C116.588 114.72 116.633 114.759 116.673 114.802Z" fill="url(#paint19_linear)"/>
<path opacity="0.24" d="M111.838 108.638C111.838 108.638 112.471 114.872 114.094 116.457C112.024 114.638 110.403 112.457 109.334 110.052C109.334 110.052 115.743 68.5961 123.011 61.196L125.192 62.2228L111.838 108.638Z" fill="white"/>
<path opacity="0.24" d="M206.518 75.0315L206.619 79.2933L200.354 93.2992L181.21 102.21L180.137 100.99L199.163 91.8231C199.163 91.8231 205.1 80.9748 206.518 75.0315Z" fill="white"/>
<path opacity="0.24" d="M169.589 108.603L169.266 110.13L147.487 108.688C141.458 108.227 135.542 104.566 134.791 99.2155L127.274 75.5817C126.935 74.612 126.877 73.5818 127.106 72.5868C127.335 71.5918 127.843 70.6643 128.583 69.8903C128.583 69.8903 135.603 99.1419 138.181 101.761C140.76 104.38 145.672 105.949 145.672 105.949L169.589 108.603Z" fill="white"/>
<path opacity="0.24" d="M121.074 154.457L109.36 187.311L107.615 186.645L117.61 151.698C117.61 151.698 113.719 142.19 110.857 135.251C108.108 128.599 111.847 115.418 112.166 114.357L113.662 115.732C113.662 115.732 109.736 131.33 114.788 138.746C119.84 146.161 121.074 154.457 121.074 154.457Z" fill="white"/>
<path opacity="0.24" d="M212.967 116.619C212.089 116.421 211.23 116.162 210.397 115.844C209.86 115.64 209.373 115.344 208.964 114.972C208.556 114.6 208.234 114.161 208.016 113.679C207.799 113.197 207.691 112.681 207.699 112.162C207.706 111.643 207.828 111.13 208.059 110.653V110.594C209.294 108.115 209.328 104.527 209.215 101.218C208.958 93.6091 206.789 85.3838 206.628 81.9433C206.523 79.7543 206.92 76.6509 207.644 73.5514L209.014 68.4023C209.014 68.4023 207.758 76.7555 207.435 79.0453C207.112 81.3351 210.053 94.3724 211.148 96.2631C212.243 98.1538 210.323 109.281 210.581 111.923C210.838 114.566 212.967 116.619 212.967 116.619Z" fill="white"/>
<path opacity="0.24" d="M237.263 185.789L235.479 186.564C235.274 185.653 231.456 168.896 226.077 156.754C222.059 147.699 220.122 129.246 219.367 119.823L221.579 120.211C221.579 120.211 224.86 144.271 228.463 153.166C232.067 162.062 237.263 185.789 237.263 185.789Z" fill="white"/>
<path opacity="0.24" d="M236.18 99.8277L230.395 116.375L229.086 116.154L228.829 116.077L234.26 100.579C234.26 100.579 227.149 83.1678 225.945 77.8056C225.562 76.0307 225.543 74.209 225.888 72.428C226.063 71.5029 226.548 70.6463 227.281 69.9708C228.013 69.2952 228.959 68.8323 229.994 68.6427C229.994 68.6427 226.067 71.0719 227.262 76.4419C228.824 83.3421 236.18 99.8277 236.18 99.8277Z" fill="white"/>
<path opacity="0.24" d="M222.956 64.373L213.912 89.851L212.176 91.4124L221.346 63.8151L221.381 61.0526L222.546 62.1103V62.1142L222.956 64.373Z" fill="white"/>
<path d="M108.946 185.994L106.438 190.047L108.959 191.329L109.897 190.663L113.963 193.987C113.963 193.987 115.416 194.878 118.972 194.878C122.527 194.878 123.23 194.425 123.23 194.425C123.23 194.425 123.23 189.775 118.867 189.989C114.504 190.202 114.203 187.997 114.203 187.997L108.946 185.994Z" fill="#F79421"/>
<path d="M136.701 188.427L136.291 194.417H139.345V192.17L143.49 194.417L153.738 194.394C153.738 194.394 153.738 188.195 149.131 188.52C144.523 188.846 142.665 188.52 142.665 188.52L141.936 187.656L136.701 188.427Z" fill="#F79421"/>
<path d="M242.115 185.696L242.551 191.682H239.497V189.419L235.383 191.689L225.135 191.713C225.135 191.713 225.135 185.514 229.711 185.82C234.288 186.126 236.177 185.82 236.177 185.82L236.897 184.952L242.115 185.696Z" fill="#F79421"/>
<path d="M208.709 185.769L209.145 191.752H206.091V189.489L201.951 191.782L191.703 191.806C191.703 191.806 191.703 185.607 196.28 185.913C200.856 186.219 202.745 185.913 202.745 185.913L203.465 185.045L208.709 185.769Z" fill="#F79421"/>
<path d="M108.946 185.994L106.438 190.047L108.959 191.329L109.897 190.663L113.963 193.987C113.963 193.987 115.416 194.878 118.972 194.878C122.527 194.878 123.23 194.425 123.23 194.425C123.23 194.425 123.23 189.775 118.867 189.989C114.504 190.202 114.203 187.997 114.203 187.997L108.946 185.994Z" fill="url(#paint20_linear)"/>
<path d="M136.701 188.427L136.291 194.417H139.345V192.17L143.49 194.417L153.738 194.394C153.738 194.394 153.738 188.195 149.131 188.52C144.523 188.846 142.665 188.52 142.665 188.52L141.936 187.656L136.701 188.427Z" fill="url(#paint21_linear)"/>
<path d="M242.115 185.696L242.551 191.682H239.497V189.419L235.383 191.689L225.135 191.713C225.135 191.713 225.135 185.514 229.711 185.82C234.288 186.126 236.177 185.82 236.177 185.82L236.897 184.952L242.115 185.696Z" fill="url(#paint22_linear)"/>
<path d="M208.709 185.769L209.145 191.752H206.091V189.489L201.951 191.782L191.703 191.806C191.703 191.806 191.703 185.607 196.28 185.913C200.856 186.219 202.745 185.913 202.745 185.913L203.465 185.045L208.709 185.769Z" fill="url(#paint23_linear)"/>
</g>
<defs>
<linearGradient id="paint0_linear" x1="125.677" y1="88.4989" x2="80.9023" y2="105.977" gradientUnits="userSpaceOnUse">
<stop stop-opacity="0"/>
<stop offset="0.91" stop-opacity="0.8"/>
<stop offset="1"/>
</linearGradient>
<linearGradient id="paint1_linear" x1="11260.4" y1="8692.48" x2="12480.9" y2="8169.94" gradientUnits="userSpaceOnUse">
<stop stop-opacity="0"/>
<stop offset="0.91" stop-opacity="0.8"/>
<stop offset="1"/>
</linearGradient>
<linearGradient id="paint2_linear" x1="212.165" y1="63.9662" x2="221.496" y2="63.9662" gradientUnits="userSpaceOnUse">
<stop stop-color="#ECC4D7"/>
<stop offset="0.42" stop-color="#EFD4D1"/>
<stop offset="1" stop-color="#F2EAC9"/>
</linearGradient>
<linearGradient id="paint3_linear" x1="4043.63" y1="4447.94" x2="3647.21" y2="4971.99" gradientUnits="userSpaceOnUse">
<stop stop-color="#ECC4D7"/>
<stop offset="0.42" stop-color="#EFD4D1"/>
<stop offset="1" stop-color="#F2EAC9"/>
</linearGradient>
<linearGradient id="paint4_linear" x1="9443.9" y1="9701.21" x2="10339.1" y2="9701.21" gradientUnits="userSpaceOnUse">
<stop stop-color="#ECC4D7"/>
<stop offset="0.42" stop-color="#EFD4D1"/>
<stop offset="1" stop-color="#F2EAC9"/>
</linearGradient>
<linearGradient id="paint5_linear" x1="6117.31" y1="5637.98" x2="6414.88" y2="5449.3" gradientUnits="userSpaceOnUse">
<stop stop-color="#ECC4D7"/>
<stop offset="0.42" stop-color="#EFD4D1"/>
<stop offset="1" stop-color="#F2EAC9"/>
</linearGradient>
<linearGradient id="paint6_linear" x1="4826.52" y1="7943.09" x2="6909.57" y2="10230.8" gradientUnits="userSpaceOnUse">
<stop stop-opacity="0"/>
<stop offset="0.91" stop-opacity="0.8"/>
<stop offset="1"/>
</linearGradient>
<linearGradient id="paint7_linear" x1="6886.6" y1="12157.2" x2="7162.13" y2="12223.1" gradientUnits="userSpaceOnUse">
<stop stop-color="#ECC4D7"/>
<stop offset="0.42" stop-color="#EFD4D1"/>
<stop offset="1" stop-color="#F2EAC9"/>
</linearGradient>
<linearGradient id="paint8_linear" x1="5443.39" y1="2902.03" x2="5391.85" y2="3215.84" gradientUnits="userSpaceOnUse">
<stop stop-color="#ECC4D7"/>
<stop offset="0.42" stop-color="#EFD4D1"/>
<stop offset="1" stop-color="#F2EAC9"/>
</linearGradient>
<linearGradient id="paint9_linear" x1="3541.82" y1="1798.63" x2="3536.01" y2="1859.4" gradientUnits="userSpaceOnUse">
<stop stop-color="#ECC4D7"/>
<stop offset="0.42" stop-color="#EFD4D1"/>
<stop offset="1" stop-color="#F2EAC9"/>
</linearGradient>
<linearGradient id="paint10_linear" x1="6549.68" y1="5793.28" x2="6897.33" y2="5793.28" gradientUnits="userSpaceOnUse">
<stop stop-color="#ECC4D7"/>
<stop offset="0.42" stop-color="#EFD4D1"/>
<stop offset="1" stop-color="#F2EAC9"/>
</linearGradient>
<linearGradient id="paint11_linear" x1="6302.1" y1="-10378.8" x2="6201.01" y2="-2665.16" gradientUnits="userSpaceOnUse">
<stop stop-opacity="0"/>
<stop offset="0.91" stop-opacity="0.8"/>
<stop offset="1"/>
</linearGradient>
<linearGradient id="paint12_linear" x1="2411.37" y1="9687.97" x2="2186.05" y2="2637.77" gradientUnits="userSpaceOnUse">
<stop stop-opacity="0"/>
<stop offset="0.91" stop-opacity="0.8"/>
<stop offset="1"/>
</linearGradient>
<linearGradient id="paint13_linear" x1="131.496" y1="58.8598" x2="129.875" y2="75.4107" gradientUnits="userSpaceOnUse">
<stop stop-opacity="0"/>
<stop offset="0.44" stop-opacity="0.35"/>
<stop offset="0.91" stop-opacity="0.8"/>
<stop offset="1"/>
</linearGradient>
<linearGradient id="paint14_linear" x1="1423.52" y1="5239.19" x2="1649.84" y2="5196.01" gradientUnits="userSpaceOnUse">
<stop stop-opacity="0"/>
<stop offset="0.91" stop-opacity="0.8"/>
<stop offset="1"/>
</linearGradient>
<linearGradient id="paint15_linear" x1="1930.62" y1="4507.14" x2="1767.87" y2="4505.1" gradientUnits="userSpaceOnUse">
<stop stop-opacity="0"/>
<stop offset="0.91" stop-opacity="0.8"/>
<stop offset="1"/>
</linearGradient>
<linearGradient id="paint16_linear" x1="66.8542" y1="103.268" x2="39.9696" y2="125.179" gradientUnits="userSpaceOnUse">
<stop stop-color="white" stop-opacity="0"/>
<stop offset="1" stop-color="#3F3D56"/>
</linearGradient>
<linearGradient id="paint17_linear" x1="10620.5" y1="6165.04" x2="8944.93" y2="14302.1" gradientUnits="userSpaceOnUse">
<stop stop-opacity="0"/>
<stop offset="0.91" stop-opacity="0.8"/>
<stop offset="1"/>
</linearGradient>
<linearGradient id="paint18_linear" x1="-52.7936" y1="132.423" x2="159.179" y2="227.898" gradientUnits="userSpaceOnUse">
<stop offset="0.17" stop-color="#00272E"/>
<stop offset="1" stop-color="#69B9EB" stop-opacity="0"/>
</linearGradient>
<linearGradient id="paint19_linear" x1="116.498" y1="114.729" x2="116.673" y2="114.729" gradientUnits="userSpaceOnUse">
<stop stop-color="#68E1FD"/>
<stop offset="1" stop-color="#69B9EB"/>
</linearGradient>
<linearGradient id="paint20_linear" x1="4950.29" y1="7067.67" x2="4468.27" y2="7469.88" gradientUnits="userSpaceOnUse">
<stop stop-opacity="0"/>
<stop offset="0.91" stop-opacity="0.8"/>
<stop offset="1"/>
</linearGradient>
<linearGradient id="paint21_linear" x1="6296.66" y1="5390.75" x2="6071.03" y2="5780.88" gradientUnits="userSpaceOnUse">
<stop stop-opacity="0"/>
<stop offset="0.91" stop-opacity="0.8"/>
<stop offset="1"/>
</linearGradient>
<linearGradient id="paint22_linear" x1="9251.18" y1="5353.03" x2="9414.57" y2="5671.47" gradientUnits="userSpaceOnUse">
<stop stop-opacity="0"/>
<stop offset="0.91" stop-opacity="0.8"/>
<stop offset="1"/>
</linearGradient>
<linearGradient id="paint23_linear" x1="7700.74" y1="5344.01" x2="8152.33" y2="5934.26" gradientUnits="userSpaceOnUse">
<stop stop-opacity="0"/>
<stop offset="0.91" stop-opacity="0.8"/>
<stop offset="1"/>
</linearGradient>
<clipPath id="clip0">
<rect width="359.423" height="200" fill="white" transform="translate(0.392578)"/>
</clipPath>
</defs>
</svg>
