<svg width="20" height="14" viewBox="0 0 20 14" fill="none" xmlns="http://www.w3.org/2000/svg">
<path d="M18.75 5.28125C18.2708 5.76042 17.6875 6 17 6C16.3125 6 15.7188 5.76042 15.2188 5.28125C14.7396 4.78125 14.5 4.1875 14.5 3.5C14.5 2.8125 14.7396 2.22917 15.2188 1.75C15.7188 1.25 16.3125 1 17 1C17.6875 1 18.2708 1.25 18.75 1.75C19.25 2.22917 19.5 2.8125 19.5 3.5C19.5 4.1875 19.25 4.78125 18.75 5.28125ZM17.6875 2.8125C17.5 2.60417 17.2708 2.5 17 2.5C16.7292 2.5 16.4896 2.60417 16.2812 2.8125C16.0938 3 16 3.22917 16 3.5C16 3.77083 16.0938 4.01042 16.2812 4.21875C16.4896 4.40625 16.7292 4.5 17 4.5C17.2708 4.5 17.5 4.40625 17.6875 4.21875C17.8958 4.01042 18 3.77083 18 3.5C18 3.22917 17.8958 3 17.6875 2.8125ZM4.75 5.28125C4.27083 5.76042 3.6875 6 3 6C2.3125 6 1.71875 5.76042 1.21875 5.28125C0.739583 4.78125 0.5 4.1875 0.5 3.5C0.5 2.8125 0.739583 2.22917 1.21875 1.75C1.71875 1.25 2.3125 1 3 1C3.6875 1 4.27083 1.25 4.75 1.75C5.25 2.22917 5.5 2.8125 5.5 3.5C5.5 4.1875 5.25 4.78125 4.75 5.28125ZM3.6875 2.8125C3.5 2.60417 3.27083 2.5 3 2.5C2.72917 2.5 2.48958 2.60417 2.28125 2.8125C2.09375 3 2 3.22917 2 3.5C2 3.77083 2.09375 4.01042 2.28125 4.21875C2.48958 4.40625 2.72917 4.5 3 4.5C3.27083 4.5 3.5 4.40625 3.6875 4.21875C3.89583 4.01042 4 3.77083 4 3.5C4 3.22917 3.89583 3 3.6875 2.8125ZM15.375 9.09375C15.7917 9.69792 16 10.3646 16 11.0938V12.5C16 12.9167 15.8542 13.2708 15.5625 13.5625C15.2708 13.8542 14.9167 14 14.5 14H5.5C5.08333 14 4.72917 13.8542 4.4375 13.5625C4.14583 13.2708 4 12.9167 4 12.5V11.0938C4 10.3646 4.19792 9.69792 4.59375 9.09375C5.03125 8.46875 5.61458 8.04167 6.34375 7.8125C7.09375 7.5625 7.84375 7.55208 8.59375 7.78125C9.05208 7.92708 9.51042 8 9.96875 8C10.4479 8 10.9271 7.92708 11.4062 7.78125C12.1562 7.55208 12.8958 7.5625 13.625 7.8125C14.375 8.04167 14.9583 8.46875 15.375 9.09375ZM14.5 12.5V11.0938C14.5 10.5312 14.3021 10.0521 13.9062 9.65625C13.5104 9.23958 13.0312 9.02083 12.4688 9C11.6562 9.33333 10.8333 9.5 10 9.5C9.16667 9.5 8.34375 9.33333 7.53125 9C6.96875 9.02083 6.48958 9.23958 6.09375 9.65625C5.69792 10.0521 5.5 10.5312 5.5 11.0938V12.5H14.5ZM17.375 7C17.7292 7 18.0625 7.07292 18.375 7.21875C18.7083 7.34375 18.9896 7.53125 19.2188 7.78125C19.4688 8.01042 19.6562 8.29167 19.7812 8.625C19.9271 8.9375 20 9.27083 20 9.625C20 9.83333 19.9271 10.0104 19.7812 10.1562C19.6354 10.3021 19.4583 10.375 19.25 10.375C19.0417 10.375 18.8646 10.3021 18.7188 10.1562C18.5729 10.0104 18.5 9.83333 18.5 9.625C18.5 9.3125 18.3854 9.05208 18.1562 8.84375C17.9479 8.61458 17.6875 8.5 17.375 8.5H16.625C16.5208 8.5 16.3958 8.52083 16.25 8.5625C15.9583 8.14583 15.5938 7.77083 15.1562 7.4375C15.5938 7.14583 16.0833 7 16.625 7H17.375ZM12.4688 5.96875C11.7812 6.65625 10.9583 7 10 7C9.04167 7 8.21875 6.65625 7.53125 5.96875C6.84375 5.28125 6.5 4.45833 6.5 3.5C6.5 2.54167 6.84375 1.71875 7.53125 1.03125C8.21875 0.34375 9.04167 0 10 0C10.9583 0 11.7812 0.34375 12.4688 1.03125C13.1562 1.71875 13.5 2.54167 13.5 3.5C13.5 4.45833 13.1562 5.28125 12.4688 5.96875ZM11.4062 2.09375C11.0104 1.69792 10.5417 1.5 10 1.5C9.45833 1.5 8.98958 1.69792 8.59375 2.09375C8.19792 2.48958 8 2.95833 8 3.5C8 4.04167 8.19792 4.51042 8.59375 4.90625C8.98958 5.30208 9.45833 5.5 10 5.5C10.5417 5.5 11.0104 5.30208 11.4062 4.90625C11.8021 4.51042 12 4.04167 12 3.5C12 2.95833 11.8021 2.48958 11.4062 2.09375ZM4.84375 7.4375C4.40625 7.77083 4.04167 8.14583 3.75 8.5625C3.625 8.52083 3.5 8.5 3.375 8.5H2.625C2.3125 8.5 2.04167 8.61458 1.8125 8.84375C1.60417 9.05208 1.5 9.3125 1.5 9.625C1.5 9.83333 1.42708 10.0104 1.28125 10.1562C1.13542 10.3021 0.958333 10.375 0.75 10.375C0.541667 10.375 0.364583 10.3021 0.21875 10.1562C0.0729167 10.0104 0 9.83333 0 9.625C0 8.89583 0.25 8.28125 0.75 7.78125C1.27083 7.26042 1.89583 7 2.625 7H3.375C3.91667 7 4.40625 7.14583 4.84375 7.4375Z" fill="#8181A5"/>
</svg>
