<svg width="23" height="17" viewBox="0 0 23 17" fill="none" xmlns="http://www.w3.org/2000/svg">
<path d="M19.2964 7.26562C18.6402 7.92188 17.8433 8.25 16.9058 8.25C15.9683 8.25 15.1714 7.92188 14.5152 7.26562C13.8589 6.60938 13.5308 5.8125 13.5308 4.875C13.5308 3.9375 13.8589 3.14063 14.5152 2.48438C15.1714 1.82812 15.9683 1.5 16.9058 1.5C17.8433 1.5 18.6402 1.82812 19.2964 2.48438C19.9527 3.14063 20.2808 3.9375 20.2808 4.875C20.2808 5.8125 19.9527 6.60938 19.2964 7.26562ZM18.4879 3.29297C18.0425 2.84766 17.5152 2.625 16.9058 2.625C16.2964 2.625 15.7691 2.84766 15.3238 3.29297C14.8785 3.73828 14.6558 4.26563 14.6558 4.875C14.6558 5.48437 14.8785 6.01172 15.3238 6.45703C15.7691 6.90234 16.2964 7.125 16.9058 7.125C17.5152 7.125 18.0425 6.90234 18.4879 6.45703C18.9332 6.01172 19.1558 5.48437 19.1558 4.875C19.1558 4.26563 18.9332 3.73828 18.4879 3.29297ZM9.55817 7.08984C8.78473 7.86328 7.85895 8.25 6.78082 8.25C5.7027 8.25 4.77692 7.86328 4.00348 7.08984C3.23004 6.31641 2.84332 5.39063 2.84332 4.3125C2.84332 3.23437 3.23004 2.30859 4.00348 1.53516C4.77692 0.761719 5.7027 0.375 6.78082 0.375C7.85895 0.375 8.78473 0.761719 9.55817 1.53516C10.3316 2.30859 10.7183 3.23437 10.7183 4.3125C10.7183 5.39063 10.3316 6.31641 9.55817 7.08984ZM8.74957 2.34375C8.21051 1.78125 7.55426 1.5 6.78082 1.5C6.00739 1.5 5.33942 1.78125 4.77692 2.34375C4.23785 2.88281 3.96832 3.53906 3.96832 4.3125C3.96832 5.08594 4.23785 5.75391 4.77692 6.31641C5.33942 6.85547 6.00739 7.125 6.78082 7.125C7.55426 7.125 8.21051 6.85547 8.74957 6.31641C9.31207 5.75391 9.59332 5.08594 9.59332 4.3125C9.59332 3.53906 9.31207 2.88281 8.74957 2.34375ZM9.59332 8.95312C11.023 8.95312 12.1011 9.50391 12.8277 10.6055C13.2964 11.2852 13.5308 12.0352 13.5308 12.8555V14.4375C13.5308 14.9062 13.3668 15.3047 13.0386 15.6328C12.7105 15.9609 12.3121 16.125 11.8433 16.125H1.71832C1.24957 16.125 0.851135 15.9609 0.52301 15.6328C0.194885 15.3047 0.0308228 14.9062 0.0308228 14.4375V12.8555C0.0308228 12.0352 0.265198 11.2852 0.733948 10.6055C1.46051 9.50391 2.53864 8.95312 3.96832 8.95312C4.34332 8.95312 4.78864 9.02344 5.30426 9.16406C5.81989 9.30469 6.31207 9.375 6.78082 9.375C7.24957 9.375 7.74176 9.30469 8.25739 9.16406C8.77301 9.02344 9.21832 8.95312 9.59332 8.95312ZM12.4058 14.4375V12.8555C12.4058 12.2695 12.2418 11.7305 11.9136 11.2383C11.398 10.4648 10.6246 10.0781 9.59332 10.0781C9.31207 10.0781 8.90192 10.1484 8.36285 10.2891C7.84723 10.4297 7.31989 10.5 6.78082 10.5C6.24176 10.5 5.7027 10.4297 5.16364 10.2891C4.64801 10.1484 4.24957 10.0781 3.96832 10.0781C2.93707 10.0781 2.16364 10.4648 1.64801 11.2383C1.31989 11.7305 1.15582 12.2695 1.15582 12.8555V14.4375C1.15582 14.6016 1.2027 14.7422 1.29645 14.8594C1.41364 14.9531 1.55426 15 1.71832 15H11.8433C12.0074 15 12.1363 14.9531 12.23 14.8594C12.3472 14.7422 12.4058 14.6016 12.4058 14.4375ZM21.9683 10.3945C22.3433 10.957 22.5308 11.5898 22.5308 12.293V13.5938C22.5308 13.9922 22.3902 14.332 22.1089 14.6133C21.8511 14.8711 21.523 15 21.1246 15H14.5855C14.6324 14.8125 14.6558 14.4375 14.6558 13.875H21.1246C21.3121 13.875 21.4058 13.7812 21.4058 13.5938V12.293C21.4058 11.8242 21.2769 11.4023 21.0191 11.0273C20.6207 10.4414 20.0347 10.1484 19.2613 10.1484C19.0504 10.1484 18.7222 10.207 18.2769 10.3242C17.8316 10.4414 17.3746 10.5 16.9058 10.5C16.4371 10.5 15.98 10.4414 15.5347 10.3242C15.0894 10.207 14.7613 10.1484 14.5504 10.1484C14.3629 10.1484 14.1519 10.1836 13.9175 10.2539C13.73 9.90234 13.4957 9.58594 13.2144 9.30469C13.6597 9.11719 14.105 9.02344 14.5504 9.02344C14.8785 9.02344 15.2535 9.08203 15.6754 9.19922C16.0972 9.31641 16.5074 9.375 16.9058 9.375C17.3043 9.375 17.7144 9.31641 18.1363 9.19922C18.5582 9.08203 18.9332 9.02344 19.2613 9.02344C20.4332 9.02344 21.3355 9.48047 21.9683 10.3945Z" fill="#1C1D21"/>
</svg>
