<svg width="56" height="56" viewBox="0 0 56 56" fill="none" xmlns="http://www.w3.org/2000/svg">
<rect width="56" height="56" rx="10" fill="white"/>
<rect width="56" height="56" rx="10" fill="#FF808B" fill-opacity="0.1"/>
<path d="M22.0703 27.6953L21.5547 27.1797C21.2396 26.8646 21.2396 26.5495 21.5547 26.2344L24.7773 23.0117C25.0924 22.6966 25.4076 22.6966 25.7227 23.0117L29.375 26.6641L33.1562 22.8828L31.8672 21.6367C31.5521 21.3216 31.4805 20.9492 31.6523 20.5195C31.8242 20.0898 32.1393 19.875 32.5977 19.875H36.9375C37.138 19.875 37.2956 19.9466 37.4102 20.0898C37.5534 20.2044 37.625 20.362 37.625 20.5625V24.9023C37.625 25.3607 37.4102 25.6758 36.9805 25.8477C36.5508 26.0195 36.1784 25.9479 35.8633 25.6328L34.6172 24.3438L29.8477 29.1133C29.5326 29.4284 29.2174 29.4284 28.9023 29.1133L25.25 25.4609L23.0156 27.6953C22.7005 28.0104 22.3854 28.0104 22.0703 27.6953ZM38.3125 32.9375C38.513 32.9375 38.6706 33.0091 38.7852 33.1523C38.9284 33.2669 39 33.4245 39 33.625V34.3125C39 34.513 38.9284 34.6849 38.7852 34.8281C38.6706 34.9427 38.513 35 38.3125 35H18.375C18.0026 35 17.6732 34.8711 17.3867 34.6133C17.1289 34.3268 17 33.9974 17 33.625V19.1875C17 18.987 17.0573 18.8294 17.1719 18.7148C17.3151 18.5716 17.487 18.5 17.6875 18.5H18.375C18.5755 18.5 18.7331 18.5716 18.8477 18.7148C18.9909 18.8294 19.0625 18.987 19.0625 19.1875V32.9375H38.3125Z" fill="#FF808B"/>
</svg>
