<svg width="245" height="190" viewBox="0 0 245 190" fill="none" xmlns="http://www.w3.org/2000/svg">
<path d="M205.724 42C205.724 42 184.541 63.2882 196.499 94.8772C208.457 126.466 176 179 176 179C176 179 176.342 178.949 176.994 178.835C220.5 171.116 242.117 121.11 217.924 83.9618C208.942 70.152 201.545 53.9489 205.724 42Z" fill="#1B51E5"/>
<path d="M205.184 42C205.184 42 193.444 68.0952 205.184 89.3835C216.925 110.672 207.197 170.416 176 179" stroke="#535461" stroke-width="2"/>
<path d="M244 127.269C244 127.269 219.775 123.352 217.567 145.391C215.358 167.43 171 170.481 171 170.481C171 170.481 171.288 170.683 171.832 171.044C208.469 195.457 243.493 186.594 238.217 154.177C236.241 142.127 236.399 130.022 244 127.269Z" fill="#1B51E5"/>
<path opacity="0.2" d="M244 127.269C244 127.269 219.775 123.352 217.567 145.391C215.358 167.43 171 170.481 171 170.481C171 170.481 171.288 170.683 171.832 171.044C208.469 195.457 243.493 186.594 238.217 154.177C236.241 142.127 236.399 130.022 244 127.269Z" fill="#F5F5F5"/>
<path d="M244 127C244 127 225.199 131.087 226.743 148.012C228.287 164.936 198.811 185.216 171 169.128" stroke="#535461" stroke-width="2"/>
<path d="M22.4492 74.7762C22.4492 74.7762 25.8904 87.2168 15.5703 89C15.4028 88.9578 15.2462 88.8825 15.1102 88.7788C15.1102 88.7788 9.14781 77.4441 13.7337 73L22.4492 74.7762Z" fill="#A1616A"/>
<g opacity="0.5">
<path d="M187.657 72.0925V71.8096L94.0549 0.31353C93.9336 0.224347 93.7679 0.224347 93.6466 0.31353L0.0411682 71.8096V182.632H0.219562V182.809H187.839V71.9868L187.657 72.0925Z" fill="url(#paint0_linear)"/>
</g>
<path d="M183 181H4V74.7137L93.5 6L183 74.7137V181Z" fill="white"/>
<path d="M176 175H8V75.3948L92 11L176 75.3948V175Z" fill="#E0E0E0"/>
<path d="M19.0578 35.7512L121.052 8.96747L155.06 138.907L53.0654 165.691L19.0578 35.7512Z" fill="#1B51E5"/>
<rect x="39" y="28" width="107" height="135" fill="#F5F5F5"/>
<path opacity="0.05" d="M4 74L93 128L4 182V74Z" fill="black"/>
<path d="M93 128.069L5.89201 180.988L4 181V74L93 128.069Z" fill="white"/>
<path opacity="0.05" d="M182 74L93 128L182 182V74Z" fill="black"/>
<path d="M182 74L93 128L182 182V74Z" fill="white"/>
<path opacity="0.05" d="M4 181L93.5 111L183 181H4Z" fill="black"/>
<path d="M4 181L93.5 111L183 181H4Z" fill="white"/>
<path d="M21.1178 189C21.1178 189 15.7376 173.966 22.1281 162.894C24.8434 158.265 25.6621 153.037 24.4611 147.993C23.8688 145.602 23.0118 143.262 21.9009 141" stroke="#535461" stroke-width="2"/>
<path d="M25 133.491C25 135.418 21.5 141 21.5 141C21.5 141 18 135.414 18 133.491C18 131.563 19.567 130 21.5 130C23.433 130 25 131.563 25 133.491Z" fill="#1B51E5"/>
<path d="M31.4894 144.893C30.3705 146.399 24 149 24 149C24 149 24.1156 142.868 25.2346 141.362C26.3934 139.948 28.6235 139.578 30.2971 140.523C31.9708 141.467 32.496 143.393 31.4894 144.893Z" fill="#1B51E5"/>
<path d="M30.8133 160.54C28.9808 161.389 22 160.803 22 160.803C22 160.803 25.6391 155.285 27.4679 154.436C28.66 153.822 30.122 153.859 31.2752 154.533C32.4284 155.208 33.0871 156.41 32.9907 157.665C32.8943 158.92 32.0582 160.025 30.8133 160.543V160.54Z" fill="#1B51E5"/>
<path d="M27.7725 175.308C26.2876 176.474 20 177 20 177C20 177 22.3144 170.764 23.7993 169.598C25.2833 168.546 27.2832 168.917 28.3442 170.441C29.4051 171.966 29.1536 174.107 27.7725 175.308Z" fill="#1B51E5"/>
<path d="M15.9694 147.46C17.404 148.705 24 150 24 150C24 150 22.3824 144.059 20.9621 142.814C19.527 141.666 17.3485 141.741 16.014 142.984C14.6795 144.227 14.6598 146.199 15.9694 147.463V147.46Z" fill="#1B51E5"/>
<path d="M11.9533 163.531C13.8343 164.396 21 163.8 21 163.8C21 163.8 17.2645 158.175 15.3873 157.31C13.5249 156.541 11.3301 157.25 10.4096 158.918C9.48911 160.587 10.1697 162.622 11.9533 163.534V163.531Z" fill="#1B51E5"/>
<path d="M12.4464 179.35C13.8896 180.487 20 181 20 181C20 181 17.7508 174.92 16.3077 173.783C15.3796 172.974 14.1092 172.775 13.0022 173.266C11.8952 173.757 11.1316 174.858 11.0154 176.13C10.8991 177.403 11.4492 178.64 12.4464 179.35Z" fill="#1B51E5"/>
<rect opacity="0.5" x="46" y="37" width="42" height="2" fill="#1B51E5"/>
<rect opacity="0.5" x="46" y="49" width="92" height="2" fill="#1B51E5"/>
<rect opacity="0.5" x="46" y="58" width="92" height="2" fill="#1B51E5"/>
<rect opacity="0.4" x="46" y="67" width="92" height="2" fill="#1B51E5"/>
<rect opacity="0.4" x="46" y="76" width="92" height="2" fill="#1B51E5"/>
<rect opacity="0.3" x="46" y="84" width="52" height="2" fill="#1B51E5"/>
<rect opacity="0.3" x="46" y="93" width="72" height="2" fill="#1B51E5"/>
<defs>
<linearGradient id="paint0_linear" x1="187.846" y1="182.819" x2="187.846" y2="0.24537" gradientUnits="userSpaceOnUse">
<stop stop-color="#808080" stop-opacity="0.25"/>
<stop offset="0.54" stop-color="#808080" stop-opacity="0.12"/>
<stop offset="1" stop-color="#808080" stop-opacity="0.1"/>
</linearGradient>
</defs>
</svg>
