<svg width="16" height="14" viewBox="0 0 16 14" fill="none" xmlns="http://www.w3.org/2000/svg">
<path d="M14.5 3C14.9167 3 15.2708 3.14583 15.5625 3.4375C15.8542 3.72917 16 4.08333 16 4.5V12.5C16 12.9167 15.8542 13.2708 15.5625 13.5625C15.2708 13.8542 14.9167 14 14.5 14H1.5C1.08333 14 0.729167 13.8542 0.4375 13.5625C0.145833 13.2708 0 12.9167 0 12.5V4.5C0 4.08333 0.145833 3.72917 0.4375 3.4375C0.729167 3.14583 1.08333 3 1.5 3H4V1.5C4 1.08333 4.14583 0.729167 4.4375 0.4375C4.72917 0.145833 5.08333 0 5.5 0H10.5C10.9167 0 11.2708 0.145833 11.5625 0.4375C11.8542 0.729167 12 1.08333 12 1.5V3H14.5ZM5.5 1.5V3H10.5V1.5H5.5ZM1.6875 4.5C1.5625 4.5 1.5 4.5625 1.5 4.6875V7H14.5V4.6875C14.5 4.5625 14.4375 4.5 14.3125 4.5H1.6875ZM14.3125 12.5C14.4375 12.5 14.5 12.4375 14.5 12.3125V8.5H10V9.25C10 9.45833 9.92708 9.63542 9.78125 9.78125C9.63542 9.92708 9.45833 10 9.25 10H6.75C6.54167 10 6.36458 9.92708 6.21875 9.78125C6.07292 9.63542 6 9.45833 6 9.25V8.5H1.5V12.3125C1.5 12.4375 1.5625 12.5 1.6875 12.5H14.3125Z" fill="#8181A5"/>
</svg>
