<svg width="38" height="38" viewBox="0 0 38 38" fill="none" xmlns="http://www.w3.org/2000/svg">
<rect width="38" height="38" rx="8" fill="white"/>
<rect width="38" height="38" rx="8" fill="#5E81F4" fill-opacity="0.1"/>
<path d="M13.375 11.9375V26.5625H24.625V15.6465L20.916 11.9375H13.375ZM14.5 13.0625H20.125V16.4375H23.5V25.4375H14.5V13.0625ZM21.25 13.8535L22.709 15.3125H21.25V13.8535ZM15.625 17.5625V18.6875H22.375V17.5625H15.625ZM15.625 20.375V21.5H19.5625V20.375H15.625ZM20.6875 20.375V21.5H22.375V20.375H20.6875ZM15.625 22.625V23.75H19.5625V22.625H15.625ZM20.6875 22.625V23.75H22.375V22.625H20.6875Z" fill="#5E81F4"/>
</svg>
