<svg width="56" height="56" viewBox="0 0 56 56" fill="none" xmlns="http://www.w3.org/2000/svg">
<g clip-path="url(#clip0)">
<rect y="-0.00012207" width="56" height="56" rx="10" fill="white"/>
<rect y="-0.00012207" width="56" height="56" rx="10" fill="#FF808B" fill-opacity="0.1"/>
<path d="M36.25 20.5624C37.0234 20.5624 37.668 20.8345 38.1836 21.3788C38.7279 21.8944 39 22.5389 39 23.3124V33.6249C39 34.3983 38.7279 35.0428 38.1836 35.5585C37.668 36.1027 37.0234 36.3749 36.25 36.3749H21.125C19.9792 36.3749 19.0052 35.9738 18.2031 35.1718C17.401 34.3697 17 33.3957 17 32.2499V21.2499C17 20.104 17.401 19.1301 18.2031 18.328C19.0052 17.5259 19.9792 17.1249 21.125 17.1249H33.5C34.2734 17.1249 34.918 17.397 35.4336 17.9413C35.9779 18.4569 36.25 19.1014 36.25 19.8749V20.5624ZM36.9375 33.6249V23.3124C36.9375 23.1119 36.8659 22.9543 36.7227 22.8397C36.6081 22.6965 36.4505 22.6249 36.25 22.6249H21.8125C21.612 22.6249 21.4401 22.5676 21.2969 22.453C21.1823 22.3098 21.125 22.1379 21.125 21.9374C21.125 21.7369 21.1823 21.5793 21.2969 21.4647C21.4401 21.3215 21.612 21.2499 21.8125 21.2499H34.1875V19.8749C34.1875 19.6744 34.1159 19.5168 33.9727 19.4022C33.8581 19.259 33.7005 19.1874 33.5 19.1874H21.125C20.5521 19.1874 20.0651 19.3879 19.6641 19.7889C19.263 20.19 19.0625 20.677 19.0625 21.2499V32.2499C19.0625 32.8228 19.263 33.3098 19.6641 33.7108C20.0651 34.1119 20.5521 34.3124 21.125 34.3124H36.25C36.4505 34.3124 36.6081 34.2551 36.7227 34.1405C36.8659 33.9973 36.9375 33.8254 36.9375 33.6249ZM32.5117 27.1796C32.7982 26.8931 33.1276 26.7499 33.5 26.7499C33.8724 26.7499 34.1875 26.8931 34.4453 27.1796C34.7318 27.4374 34.875 27.7525 34.875 28.1249C34.875 28.4973 34.7318 28.8267 34.4453 29.1132C34.1875 29.371 33.8724 29.4999 33.5 29.4999C33.1276 29.4999 32.7982 29.371 32.5117 29.1132C32.2539 28.8267 32.125 28.4973 32.125 28.1249C32.125 27.7525 32.2539 27.4374 32.5117 27.1796Z" fill="#9698D6"/>
</g>
<defs>
<clipPath id="clip0">
<rect width="56" height="56" fill="white" transform="translate(0 -0.00012207)"/>
</clipPath>
</defs>
</svg>
