<svg width="13" height="16" viewBox="0 0 13 16" fill="none" xmlns="http://www.w3.org/2000/svg">
<path d="M12.4964 3.0625C12.7881 3.35417 12.9339 3.70833 12.9339 4.125V14.5C12.9339 14.9167 12.7881 15.2708 12.4964 15.5625C12.2047 15.8542 11.8506 16 11.4339 16H2.43391C2.01724 16 1.66308 15.8542 1.37141 15.5625C1.07974 15.2708 0.933908 14.9167 0.933908 14.5V1.5C0.933908 1.22917 0.996408 0.979167 1.12141 0.75C1.26724 0.520833 1.45474 0.34375 1.68391 0.21875C1.91308 0.0729167 2.16308 0 2.43391 0H8.80891C9.22558 0 9.57974 0.145833 9.87141 0.4375L12.4964 3.0625ZM8.93391 1.625V4H11.3089L8.93391 1.625ZM11.4339 14.5V5.5H8.18391C7.97558 5.5 7.79849 5.42708 7.65266 5.28125C7.50683 5.13542 7.43391 4.95833 7.43391 4.75V1.5H2.43391V14.5H11.4339ZM7.43391 6.75V7.5C7.78808 7.52083 8.11099 7.64583 8.40266 7.875C8.56933 7.97917 8.57974 8.10417 8.43391 8.25L8.05891 8.59375C7.97558 8.67708 7.87141 8.6875 7.74641 8.625C7.62141 8.54167 7.48599 8.5 7.34016 8.5H6.46516C6.36099 8.5 6.26724 8.54167 6.18391 8.625C6.12141 8.70833 6.09016 8.80208 6.09016 8.90625C6.09016 9.11458 6.18391 9.25 6.37141 9.3125L7.77766 9.71875C8.06933 9.82292 8.30891 10 8.49641 10.25C8.68391 10.5 8.77766 10.7812 8.77766 11.0938C8.77766 11.2396 8.74641 11.3854 8.68391 11.5312C8.64224 11.6771 8.57974 11.8125 8.49641 11.9375C8.43391 12.0417 8.34016 12.1354 8.21516 12.2188C8.11099 12.3021 7.98599 12.375 7.84016 12.4375C7.71516 12.4792 7.57974 12.5 7.43391 12.5V13.25C7.43391 13.4167 7.35058 13.5 7.18391 13.5H6.68391C6.51724 13.5 6.43391 13.4167 6.43391 13.25V12.5C6.07974 12.4792 5.75683 12.3542 5.46516 12.125C5.29849 12.0208 5.28808 11.8958 5.43391 11.75L5.80891 11.4062C5.89224 11.3229 5.99641 11.3125 6.12141 11.375C6.24641 11.4583 6.38183 11.5 6.52766 11.5H7.40266C7.50683 11.5 7.59016 11.4583 7.65266 11.375C7.73599 11.2917 7.77766 11.1979 7.77766 11.0938C7.77766 10.8854 7.68391 10.75 7.49641 10.6875L6.09016 10.2812C5.79849 10.1771 5.55891 10 5.37141 9.75C5.18391 9.5 5.09016 9.21875 5.09016 8.90625C5.09016 8.53125 5.21516 8.20833 5.46516 7.9375C5.73599 7.66667 6.05891 7.52083 6.43391 7.5V6.75C6.43391 6.58333 6.51724 6.5 6.68391 6.5H7.18391C7.35058 6.5 7.43391 6.58333 7.43391 6.75ZM3.68391 3.5C3.51724 3.5 3.43391 3.41667 3.43391 3.25V2.75C3.43391 2.58333 3.51724 2.5 3.68391 2.5H6.18391C6.35058 2.5 6.43391 2.58333 6.43391 2.75V3.25C6.43391 3.41667 6.35058 3.5 6.18391 3.5H3.68391ZM6.43391 5.25C6.43391 5.41667 6.35058 5.5 6.18391 5.5H3.68391C3.51724 5.5 3.43391 5.41667 3.43391 5.25V4.75C3.43391 4.58333 3.51724 4.5 3.68391 4.5H6.18391C6.35058 4.5 6.43391 4.58333 6.43391 4.75V5.25Z" fill="#8181A5"/>
</svg>
