<svg width="15" height="16" viewBox="0 0 15 16" fill="none" xmlns="http://www.w3.org/2000/svg">
<path d="M6.59112 12.75C6.42445 12.75 6.34112 12.6667 6.34112 12.5V11.5C6.34112 11.3333 6.42445 11.25 6.59112 11.25H11.0911C11.2578 11.25 11.3411 11.3333 11.3411 11.5V12.5C11.3411 12.6667 11.2578 12.75 11.0911 12.75H6.59112ZM3.84112 13C3.69529 13 3.57029 12.9583 3.46612 12.875C3.38279 12.7708 3.34112 12.6458 3.34112 12.5V11.5C3.34112 11.3542 3.38279 11.2396 3.46612 11.1562C3.57029 11.0521 3.69529 11 3.84112 11H4.84112C4.98695 11 5.10154 11.0521 5.18487 11.1562C5.28904 11.2396 5.34112 11.3542 5.34112 11.5V12.5C5.34112 12.6458 5.28904 12.7708 5.18487 12.875C5.10154 12.9583 4.98695 13 4.84112 13H3.84112ZM3.84112 9C3.69529 9 3.57029 8.95833 3.46612 8.875C3.38279 8.77083 3.34112 8.64583 3.34112 8.5V7.5C3.34112 7.35417 3.38279 7.23958 3.46612 7.15625C3.57029 7.05208 3.69529 7 3.84112 7H4.84112C4.98695 7 5.10154 7.05208 5.18487 7.15625C5.28904 7.23958 5.34112 7.35417 5.34112 7.5V8.5C5.34112 8.64583 5.28904 8.77083 5.18487 8.875C5.10154 8.95833 4.98695 9 4.84112 9H3.84112ZM6.59112 8.75C6.42445 8.75 6.34112 8.66667 6.34112 8.5V7.5C6.34112 7.33333 6.42445 7.25 6.59112 7.25H11.0911C11.2578 7.25 11.3411 7.33333 11.3411 7.5V8.5C11.3411 8.66667 11.2578 8.75 11.0911 8.75H6.59112ZM3.84112 5C3.69529 5 3.57029 4.95833 3.46612 4.875C3.38279 4.77083 3.34112 4.64583 3.34112 4.5V3.5C3.34112 3.35417 3.38279 3.23958 3.46612 3.15625C3.57029 3.05208 3.69529 3 3.84112 3H4.84112C4.98695 3 5.10154 3.05208 5.18487 3.15625C5.28904 3.23958 5.34112 3.35417 5.34112 3.5V4.5C5.34112 4.64583 5.28904 4.77083 5.18487 4.875C5.10154 4.95833 4.98695 5 4.84112 5H3.84112ZM6.59112 4.75C6.42445 4.75 6.34112 4.66667 6.34112 4.5V3.5C6.34112 3.33333 6.42445 3.25 6.59112 3.25H11.0911C11.2578 3.25 11.3411 3.33333 11.3411 3.5V4.5C11.3411 4.66667 11.2578 4.75 11.0911 4.75H6.59112ZM13.3411 0C13.612 0 13.8411 0.104167 14.0286 0.3125C14.237 0.5 14.3411 0.729167 14.3411 1V15C14.3411 15.2708 14.237 15.5 14.0286 15.6875C13.8411 15.8958 13.612 16 13.3411 16H1.34112C1.07029 16 0.830702 15.8958 0.622369 15.6875C0.434869 15.5 0.341119 15.2708 0.341119 15V1C0.341119 0.729167 0.434869 0.5 0.622369 0.3125C0.830702 0.104167 1.07029 0 1.34112 0H13.3411ZM12.8411 14.5V1.5H1.84112V14.5H12.8411Z" fill="#8181A5"/>
</svg>
