<svg width="18" height="18" viewBox="0 0 18 18" fill="none" xmlns="http://www.w3.org/2000/svg">
<path d="M2.8125 3.09766C4.52344 1.38672 6.58594 0.53125 9 0.53125C11.4141 0.53125 13.4648 1.38672 15.1523 3.09766C16.8633 4.78516 17.7188 6.83594 17.7188 9.25C17.7188 11.6641 16.8633 13.7266 15.1523 15.4375C13.4648 17.125 11.4141 17.9688 9 17.9688C6.58594 17.9688 4.52344 17.125 2.8125 15.4375C1.125 13.7266 0.28125 11.6641 0.28125 9.25C0.28125 6.83594 1.125 4.78516 2.8125 3.09766ZM9 16.8438C11.1094 16.8438 12.9023 16.1055 14.3789 14.6289C15.8555 13.1289 16.5938 11.3359 16.5938 9.25C16.5938 7.14062 15.8438 5.34766 14.3438 3.87109C12.8672 2.39453 11.0859 1.65625 9 1.65625C6.89062 1.65625 5.09766 2.40625 3.62109 3.90625C2.14453 5.38281 1.40625 7.16406 1.40625 9.25C1.40625 11.3594 2.14453 13.1523 3.62109 14.6289C5.12109 16.1055 6.91406 16.8438 9 16.8438ZM13.9922 7.17578L7.62891 13.4688C7.44141 13.6797 7.24219 13.6797 7.03125 13.4688L4.00781 10.4102C3.82031 10.2227 3.82031 10.0234 4.00781 9.8125L4.32422 9.53125C4.51172 9.34375 4.71094 9.34375 4.92188 9.53125L7.34766 11.9922L13.0781 6.26172C13.2891 6.07422 13.4883 6.08594 13.6758 6.29688L13.9922 6.57812C14.1797 6.78906 14.1797 6.98828 13.9922 7.17578Z" fill="#1C1D21"/>
</svg>
