<svg width="18" height="19" viewBox="0 0 18 19" fill="none" xmlns="http://www.w3.org/2000/svg">
<path d="M12.2695 2.07812C13.9336 3.39062 15.6328 4.76172 17.3672 6.19141C17.7891 6.54297 18 6.97656 18 7.49219V16.5625C18 17.0312 17.8359 17.4297 17.5078 17.7578C17.1797 18.0859 16.7812 18.25 16.3125 18.25H1.6875C1.21875 18.25 0.820312 18.0859 0.492188 17.7578C0.164063 17.4297 0 17.0312 0 16.5625V7.49219C0 6.97656 0.210938 6.54297 0.632812 6.19141C2.36719 4.76172 4.06641 3.39062 5.73047 2.07812C5.77734 2.03125 5.92969 1.90234 6.1875 1.69141C6.46875 1.45703 6.69141 1.28125 6.85547 1.16406C7.01953 1.04688 7.23047 0.90625 7.48828 0.742188C7.74609 0.578125 8.00391 0.460938 8.26172 0.390625C8.51953 0.296875 8.76562 0.25 9 0.25C9.1875 0.25 9.375 0.273438 9.5625 0.320312C9.75 0.367187 9.92578 0.4375 10.0898 0.53125C10.2773 0.601562 10.4414 0.683594 10.582 0.777344C10.7461 0.871094 10.9102 0.988281 11.0742 1.12891C11.2617 1.24609 11.4141 1.36328 11.5312 1.48047C11.6484 1.57422 11.7773 1.69141 11.918 1.83203C12.082 1.94922 12.1992 2.03125 12.2695 2.07812ZM16.3125 17.125C16.4766 17.125 16.6055 17.0664 16.6992 16.9492C16.8164 16.8555 16.875 16.7266 16.875 16.5625V7.49219C16.875 7.32812 16.8047 7.1875 16.6641 7.07031C15.0469 5.73438 13.3477 4.36328 11.5664 2.95703C11.543 2.95703 11.3672 2.82812 11.0391 2.57031C10.7344 2.28906 10.5 2.08984 10.3359 1.97266C10.1719 1.85547 9.94922 1.72656 9.66797 1.58594C9.41016 1.44531 9.1875 1.375 9 1.375C8.8125 1.375 8.57812 1.44531 8.29688 1.58594C8.03906 1.72656 7.82812 1.85547 7.66406 1.97266C7.5 2.08984 7.25391 2.28906 6.92578 2.57031C6.62109 2.82812 6.45703 2.95703 6.43359 2.95703C4.67578 4.36328 2.97656 5.73438 1.33594 7.07031C1.19531 7.1875 1.125 7.32812 1.125 7.49219V16.5625C1.125 16.7266 1.17188 16.8555 1.26562 16.9492C1.38281 17.0664 1.52344 17.125 1.6875 17.125H16.3125ZM15.9961 9.53125C16.1836 9.74219 16.1602 9.94141 15.9258 10.1289C15.1055 10.7852 13.8867 11.7578 12.2695 13.0469C12.2227 13.0938 12.0586 13.2344 11.7773 13.4688C11.5195 13.6797 11.3086 13.8438 11.1445 13.9609C10.9805 14.0781 10.7695 14.2188 10.5117 14.3828C10.2539 14.5469 9.99609 14.6758 9.73828 14.7695C9.48047 14.8398 9.23438 14.875 9 14.875C8.76562 14.875 8.51953 14.8398 8.26172 14.7695C8.00391 14.6758 7.73438 14.5469 7.45312 14.3828C7.19531 14.2188 6.98438 14.0781 6.82031 13.9609C6.65625 13.8438 6.44531 13.668 6.1875 13.4336C5.92969 13.1992 5.77734 13.0703 5.73047 13.0469C4.11328 11.7578 2.89453 10.7852 2.07422 10.1289C1.83984 9.94141 1.81641 9.74219 2.00391 9.53125L2.17969 9.28516C2.34375 9.07422 2.54297 9.0625 2.77734 9.25C3.59766 9.90625 4.81641 10.8789 6.43359 12.168C6.43359 12.168 6.59766 12.3086 6.92578 12.5898C7.25391 12.8477 7.5 13.0352 7.66406 13.1523C7.82812 13.2695 8.03906 13.3984 8.29688 13.5391C8.57812 13.6797 8.8125 13.75 9 13.75C9.1875 13.75 9.41016 13.6797 9.66797 13.5391C9.94922 13.3984 10.1719 13.2695 10.3359 13.1523C10.5 13.0352 10.7461 12.8477 11.0742 12.5898C11.4023 12.3086 11.5664 12.168 11.5664 12.168C13.1836 10.8789 14.4023 9.90625 15.2227 9.25C15.457 9.0625 15.6562 9.07422 15.8203 9.28516L15.9961 9.53125Z" fill="#1C1D21"/>
</svg>
