<svg width="16" height="16" viewBox="0 0 16 16" fill="none" xmlns="http://www.w3.org/2000/svg">
<path d="M2.5 2.53125C4.02083 1.01042 5.85417 0.25 8 0.25C10.1458 0.25 11.9688 1.01042 13.4688 2.53125C14.9896 4.03125 15.75 5.85417 15.75 8C15.75 10.1458 14.9896 11.9792 13.4688 13.5C11.9688 15 10.1458 15.75 8 15.75C5.85417 15.75 4.02083 15 2.5 13.5C1 11.9792 0.25 10.1458 0.25 8C0.25 5.85417 1 4.03125 2.5 2.53125ZM3.5625 12.4375C4.79167 13.6458 6.27083 14.25 8 14.25C9.72917 14.25 11.1979 13.6458 12.4062 12.4375C13.6354 11.2083 14.25 9.72917 14.25 8C14.25 6.27083 13.6354 4.80208 12.4062 3.59375C11.1979 2.36458 9.72917 1.75 8 1.75C6.27083 1.75 4.79167 2.36458 3.5625 3.59375C2.35417 4.80208 1.75 6.27083 1.75 8C1.75 9.72917 2.35417 11.2083 3.5625 12.4375ZM7.0625 4.09375C7.33333 3.82292 7.64583 3.6875 8 3.6875C8.35417 3.6875 8.65625 3.82292 8.90625 4.09375C9.17708 4.34375 9.3125 4.64583 9.3125 5C9.3125 5.35417 9.17708 5.66667 8.90625 5.9375C8.65625 6.1875 8.35417 6.3125 8 6.3125C7.64583 6.3125 7.33333 6.1875 7.0625 5.9375C6.8125 5.66667 6.6875 5.35417 6.6875 5C6.6875 4.64583 6.8125 4.34375 7.0625 4.09375ZM9.75 11.625C9.75 11.875 9.625 12 9.375 12H6.625C6.375 12 6.25 11.875 6.25 11.625V10.875C6.25 10.625 6.375 10.5 6.625 10.5H7V8.5H6.625C6.375 8.5 6.25 8.375 6.25 8.125V7.375C6.25 7.125 6.375 7 6.625 7H8.625C8.875 7 9 7.125 9 7.375V10.5H9.375C9.625 10.5 9.75 10.625 9.75 10.875V11.625Z" fill="#9698D6"/>
</svg>
