<svg width="20" height="16" viewBox="0 0 20 16" fill="none" xmlns="http://www.w3.org/2000/svg">
<path d="M10.1875 7.6875C9.3125 8.5625 8.25 9 7 9C5.75 9 4.6875 8.5625 3.8125 7.6875C2.9375 6.8125 2.5 5.75 2.5 4.5C2.5 3.25 2.9375 2.1875 3.8125 1.3125C4.6875 0.4375 5.75 0 7 0C8.25 0 9.3125 0.4375 10.1875 1.3125C11.0625 2.1875 11.5 3.25 11.5 4.5C11.5 5.75 11.0625 6.8125 10.1875 7.6875ZM9.125 2.375C8.54167 1.79167 7.83333 1.5 7 1.5C6.16667 1.5 5.45833 1.79167 4.875 2.375C4.29167 2.95833 4 3.66667 4 4.5C4 5.33333 4.29167 6.04167 4.875 6.625C5.45833 7.20833 6.16667 7.5 7 7.5C7.83333 7.5 8.54167 7.20833 9.125 6.625C9.70833 6.04167 10 5.33333 10 4.5C10 3.66667 9.70833 2.95833 9.125 2.375ZM9.8125 9.5C10.9583 9.5 11.9375 9.91667 12.75 10.75C13.5833 11.5625 14 12.5417 14 13.6875V14.5C14 14.9167 13.8542 15.2708 13.5625 15.5625C13.2708 15.8542 12.9167 16 12.5 16H1.5C1.08333 16 0.729167 15.8542 0.4375 15.5625C0.145833 15.2708 0 14.9167 0 14.5V13.6875C0 12.5417 0.40625 11.5625 1.21875 10.75C2.05208 9.91667 3.04167 9.5 4.1875 9.5C4.45833 9.5 4.85417 9.58333 5.375 9.75C5.91667 9.91667 6.45833 10 7 10C7.54167 10 8.08333 9.91667 8.625 9.75C9.16667 9.58333 9.5625 9.5 9.8125 9.5ZM12.5 14.5V13.6875C12.5 12.9583 12.2292 12.3333 11.6875 11.8125C11.1667 11.2708 10.5417 11 9.8125 11C9.75 11 9.41667 11.0833 8.8125 11.25C8.22917 11.4167 7.625 11.5 7 11.5C6.375 11.5 5.76042 11.4167 5.15625 11.25C4.57292 11.0833 4.25 11 4.1875 11C3.45833 11 2.82292 11.2708 2.28125 11.8125C1.76042 12.3333 1.5 12.9583 1.5 13.6875V14.5H12.5ZM19.5 6.75C19.6458 6.75 19.7604 6.80208 19.8438 6.90625C19.9479 6.98958 20 7.10417 20 7.25V7.75C20 7.89583 19.9479 8.02083 19.8438 8.125C19.7604 8.20833 19.6458 8.25 19.5 8.25H17.25V10.5C17.25 10.6458 17.1979 10.7708 17.0938 10.875C17.0104 10.9583 16.8958 11 16.75 11H16.25C16.1042 11 15.9792 10.9583 15.875 10.875C15.7917 10.7708 15.75 10.6458 15.75 10.5V8.25H13.5C13.3542 8.25 13.2292 8.20833 13.125 8.125C13.0417 8.02083 13 7.89583 13 7.75V7.25C13 7.10417 13.0417 6.98958 13.125 6.90625C13.2292 6.80208 13.3542 6.75 13.5 6.75H15.75V4.5C15.75 4.35417 15.7917 4.23958 15.875 4.15625C15.9792 4.05208 16.1042 4 16.25 4H16.75C16.8958 4 17.0104 4.05208 17.0938 4.15625C17.1979 4.23958 17.25 4.35417 17.25 4.5V6.75H19.5Z" fill="#FAFBFF"/>
</svg>
