<svg width="34" height="34" viewBox="0 0 34 34" fill="none" xmlns="http://www.w3.org/2000/svg">
<circle cx="17" cy="17" r="17" fill="#ECECF2"/>
<path d="M17.1845 22V15.224C17.1845 15.0653 17.1845 14.8973 17.1845 14.72C17.1938 14.5333 17.2031 14.342 17.2125 14.146C16.8951 14.454 16.5265 14.7247 16.1065 14.958C15.6865 15.182 15.2571 15.3453 14.8185 15.448L14.5245 14.426C14.6925 14.4073 14.9025 14.3467 15.1545 14.244C15.4158 14.132 15.6865 13.9967 15.9665 13.838C16.2558 13.67 16.5218 13.4927 16.7645 13.306C17.0071 13.1193 17.1938 12.9373 17.3245 12.76H18.3045V22H17.1845Z" fill="#979797"/>
</svg>
