<svg width="34" height="34" viewBox="0 0 34 34" fill="none" xmlns="http://www.w3.org/2000/svg">
<circle cx="17" cy="16.9999" r="17" fill="#ECECF2"/>
<path d="M13.9549 21.9999V21.0899C14.8789 20.4086 15.6489 19.8113 16.2649 19.2979C16.8903 18.7846 17.3896 18.3179 17.7629 17.8979C18.1363 17.4779 18.4023 17.0813 18.5609 16.7079C18.7196 16.3253 18.7989 15.9286 18.7989 15.5179C18.7989 14.9673 18.6216 14.5239 18.2669 14.1879C17.9216 13.8426 17.4456 13.6699 16.8389 13.6699C16.2043 13.6699 15.6956 13.8799 15.3129 14.2999C14.9303 14.7106 14.7063 15.2613 14.6409 15.9519L13.6609 15.3639C13.7823 14.5613 14.1136 13.9033 14.6549 13.3899C15.2056 12.8766 15.9476 12.6199 16.8809 12.6199C17.5156 12.6199 18.0616 12.7459 18.5189 12.9979C18.9856 13.2406 19.3449 13.5813 19.5969 14.0199C19.8489 14.4493 19.9749 14.9486 19.9749 15.5179C19.9749 16.0966 19.8349 16.6659 19.5549 17.2259C19.2749 17.7766 18.8129 18.3553 18.1689 18.9619C17.5249 19.5686 16.6523 20.2406 15.5509 20.9779V20.9919C15.6536 20.9826 15.7936 20.9779 15.9709 20.9779C16.1576 20.9686 16.3396 20.9639 16.5169 20.9639C16.7036 20.9546 16.8436 20.9499 16.9369 20.9499H20.1709V21.9999H13.9549Z" fill="#979797"/>
</svg>
