<svg width="16" height="19" viewBox="0 0 16 19" fill="none" xmlns="http://www.w3.org/2000/svg">
<path d="M14.1875 8.125C14.6562 8.125 15.0547 8.28906 15.3828 8.61719C15.7109 8.94531 15.875 9.34375 15.875 9.8125V16.5625C15.875 17.0312 15.7109 17.4297 15.3828 17.7578C15.0547 18.0859 14.6562 18.25 14.1875 18.25H1.8125C1.34375 18.25 0.945312 18.0859 0.617188 17.7578C0.289063 17.4297 0.125 17.0312 0.125 16.5625V9.8125C0.125 9.34375 0.289063 8.94531 0.617188 8.61719C0.945312 8.28906 1.34375 8.125 1.8125 8.125H2.375V5.875C2.375 4.32812 2.92578 3.00391 4.02734 1.90234C5.12891 0.800781 6.45312 0.25 8 0.25C9.57031 0.25 10.8945 0.8125 11.9727 1.9375C13.0742 3.03906 13.625 4.375 13.625 5.94531V8.125H14.1875ZM3.5 5.875V8.125H12.5V5.875C12.5 4.63281 12.0547 3.57813 11.1641 2.71094C10.2969 1.82031 9.24219 1.375 8 1.375C6.75781 1.375 5.69141 1.82031 4.80078 2.71094C3.93359 3.57813 3.5 4.63281 3.5 5.875ZM14.1875 17.125C14.3516 17.125 14.4805 17.0664 14.5742 16.9492C14.6914 16.8555 14.75 16.7266 14.75 16.5625V9.8125C14.75 9.64844 14.6914 9.51953 14.5742 9.42578C14.4805 9.30859 14.3516 9.25 14.1875 9.25H1.8125C1.64844 9.25 1.50781 9.30859 1.39062 9.42578C1.29688 9.51953 1.25 9.64844 1.25 9.8125V16.5625C1.25 16.7266 1.29688 16.8555 1.39062 16.9492C1.50781 17.0664 1.64844 17.125 1.8125 17.125H14.1875Z" fill="#8181A5"/>
</svg>
