<svg width="49" height="49" viewBox="0 0 49 49" fill="none" xmlns="http://www.w3.org/2000/svg">
<path d="M10.4847 48.98C6.24849 48.9839 2.42697 46.4384 0.801796 42.5304C-0.823376 38.6223 0.0677803 34.121 3.05979 31.1252C3.51719 30.6797 4.01424 30.2766 4.54478 29.9211L5.05753 29.5952C5.41712 29.3823 5.79003 29.1894 6.18292 29.0031C6.38269 28.9166 6.58246 28.8235 6.80221 28.7437C7.21105 28.5945 7.62926 28.4722 8.05413 28.3778L8.32049 28.3046C8.36618 28.2883 8.41289 28.2749 8.46033 28.2647L10.831 28.0917C11.1373 28.0917 11.4969 28.1516 11.8232 28.1982H11.8964H12.2094H12.3093H12.4092H13.0485C17.1466 28.1601 21.0586 26.4829 23.9095 23.5416C26.7761 20.6225 28.3458 16.6736 28.2645 12.5852V12.4721V12.359C28.241 12.2317 28.2277 12.1026 28.2246 11.9732V11.6539L28.138 11.3479C28.138 11.1616 28.0914 10.962 28.0847 10.7691L28.2446 8.57383V8.52062V8.4807C28.2446 8.42748 28.3444 8.13478 28.3444 8.13478C28.4457 7.68378 28.5747 7.23945 28.7307 6.80432C28.8039 6.60475 28.8971 6.40518 28.9904 6.20561C29.1652 5.81168 29.3654 5.42948 29.5897 5.06141V5.00154C29.6829 4.84854 29.7695 4.69553 29.876 4.54918C30.2259 4.02252 30.625 3.53025 31.068 3.07902C35.165 -1.02114 41.8135 -1.02709 45.9178 3.06571C50.0222 7.15852 50.0281 13.8002 45.9312 17.9004C45.4763 18.3421 44.9814 18.7407 44.4528 19.0912C44.293 19.2042 44.1532 19.2841 44.0133 19.3706L43.9334 19.4171C43.5472 19.6433 43.1743 19.8429 42.8147 20.0092C42.6016 20.1023 42.4085 20.1954 42.2087 20.2686C41.7884 20.4211 41.3592 20.5477 40.9235 20.6478C40.8313 20.6673 40.7401 20.6918 40.6505 20.721L40.484 20.7675L38.16 20.9272C37.867 20.9272 37.554 20.874 37.2277 20.8341H37.0812H36.7815H36.5884H36.4819H35.9625C27.4692 20.9581 20.6693 27.9086 20.7397 36.3938V36.5069V36.6267C20.7577 36.7434 20.7689 36.8612 20.773 36.9792C20.773 37.1056 20.773 37.2254 20.8063 37.3451C20.8396 37.4649 20.8063 37.5713 20.8463 37.691C20.8695 37.8631 20.8829 38.0363 20.8862 38.2099L20.7198 40.4917C20.7074 40.5523 20.6918 40.6123 20.6731 40.6713L20.6132 40.8775C20.5179 41.3293 20.3911 41.7739 20.2336 42.208C20.1604 42.4075 20.0605 42.6138 19.9673 42.82C19.798 43.2042 19.6091 43.5794 19.4013 43.9442C19.2947 44.1305 19.1948 44.2968 19.0816 44.4565C18.7288 44.9887 18.3251 45.4855 17.8763 45.9399C15.919 47.9031 13.2583 49.0046 10.4847 49V48.98Z" fill="white"/>
</svg>
