<svg width="228" height="202" viewBox="0 0 228 202" fill="none" xmlns="http://www.w3.org/2000/svg">
<g clip-path="url(#clip0)">
<path opacity="0.18" d="M24.2499 170.331C16.7538 163.552 10.7299 155.28 6.55751 146.037C2.3851 136.795 0.154491 126.78 0.00608983 116.625C-0.178978 96.3566 11.4224 79.606 26.2105 65.936C36.742 56.1576 74.062 -23.3012 144.908 6.93853C168.041 16.8162 167.07 52.1785 182.5 72.2314C187.127 78.2583 192.869 83.3167 198.225 88.7136C207.738 98.2762 216.315 109.227 220.624 122.075C224.932 134.922 224.429 149.928 216.865 161.124C210.416 170.669 199.752 176.405 189.035 180.442C161.622 190.763 131.745 192.228 102.51 191.3C75.8317 190.454 44.2545 188.202 24.2499 170.331Z" fill="#F79421"/>
<path d="M106.784 131.281C106.728 131.535 106.615 131.773 106.454 131.976C104.048 135.523 101.477 138.944 98.7391 142.238C98.6482 142.368 98.5244 142.471 98.3806 142.536C98.2353 142.56 98.0864 142.546 97.9478 142.496C97.8091 142.446 97.6854 142.362 97.5883 142.25C97.4495 142.133 97.3164 142.023 97.1834 141.894C93.6671 138.814 91.4001 134.519 89.214 130.342C88.2597 128.522 87.317 126.701 86.3628 124.887C85.5136 123.366 84.7902 121.778 84.1998 120.138C83.3381 117.53 83.1472 114.758 82.9622 112.016C82.5805 106.485 80.9842 100.552 78.9601 95.1314C78.4222 93.6787 77.8497 92.2667 77.2598 90.9131C81.7 91.5957 86.0985 92.5307 90.4342 93.7137C91.1634 93.8719 91.8625 94.1477 92.5047 94.5305C93.8175 95.4056 94.4248 97.0218 94.8874 98.5445C95.7087 101.252 96.3275 104.006 96.8827 106.783C98.4962 114.998 101.324 123.306 106.31 130.12C106.605 130.435 106.774 130.849 106.784 131.281Z" fill="#F79421"/>
<path d="M102.434 134.403C102.382 134.657 102.271 134.894 102.111 135.097C100.538 137.431 98.8912 139.695 97.1716 141.888C93.6553 138.808 91.3882 134.514 89.2021 130.336C88.2479 128.516 87.3052 126.696 86.3509 124.881C85.5018 123.361 84.7784 121.772 84.188 120.132C83.3262 117.524 83.1354 114.753 82.9503 112.01C82.5686 106.479 80.9724 100.546 78.9482 95.1256C81.4987 95.6623 84.0781 96.2925 86.0849 96.8351C86.8109 96.9978 87.5075 97.2733 88.1496 97.6519C89.4682 98.5329 90.0812 100.143 90.5439 101.666C91.3431 104.376 92.0051 107.126 92.5276 109.904C94.1527 118.125 96.9807 126.433 101.96 133.242C102.255 133.556 102.424 133.97 102.434 134.403Z" fill="url(#paint0_linear)"/>
<path d="M84.7372 96.7126C86.7787 100.026 87.6289 103.953 88.0511 107.833C88.4732 111.713 88.427 115.639 88.8665 119.502C89.1788 122.302 89.734 125.109 89.4738 127.915C88.9533 133.539 83.8176 136.952 84.5868 144.782C84.7025 145.949 80.3129 144.531 79.3182 145.121C78.1153 145.838 76.6752 145.996 75.2698 146.13C68.1852 146.813 60.8577 147.431 54.1085 145.161C53.3763 144.968 52.6965 144.611 52.1191 144.117C51.5864 143.517 51.1915 142.806 50.9624 142.034C49.6845 138.517 48.6998 134.899 48.0187 131.217C47.4056 127.862 47.0413 124.467 46.3935 121.118C45.6934 117.506 44.6654 113.967 43.3226 110.546C42.5476 108.574 41.657 106.614 41.3852 104.507C40.8936 100.773 37.3368 95.1139 40.3673 92.8793C41.6049 91.9575 53.4724 90.6914 55.404 89.828C56.3878 89.3725 57.4001 88.9827 58.4345 88.6611C60.5117 88.13 62.656 87.9156 64.7962 88.0251C66.8191 88.0177 68.8378 88.2131 70.8224 88.6086C72.6731 89.017 74.2925 90.073 76.0622 90.4872C77.8495 90.8813 79.5394 91.6359 81.0302 92.7057C82.521 93.7755 83.782 95.1385 84.7372 96.7126Z" fill="#F79421"/>
<path d="M84.7372 96.7126C86.7787 100.026 87.6289 103.953 88.0511 107.833C88.4732 111.713 88.427 115.639 88.8665 119.502C89.1788 122.302 89.734 125.109 89.4738 127.915C88.9533 133.539 83.8176 136.952 84.5868 144.782C84.7025 145.949 80.3129 144.531 79.3182 145.121C78.1153 145.838 76.6752 145.996 75.2698 146.13C68.1852 146.813 60.8577 147.431 54.1085 145.161C53.3763 144.968 52.6965 144.611 52.1191 144.117C51.5864 143.517 51.1915 142.806 50.9624 142.034C49.6845 138.517 48.6998 134.899 48.0187 131.217C47.4056 127.862 47.0413 124.467 46.3935 121.118C45.6934 117.506 44.6654 113.967 43.3226 110.546C42.5476 108.574 41.657 106.614 41.3852 104.507C40.8936 100.773 37.3368 95.1139 40.3673 92.8793C41.6049 91.9575 53.4724 90.6914 55.404 89.828C56.3878 89.3725 57.4001 88.9827 58.4345 88.6611C60.5117 88.13 62.656 87.9156 64.7962 88.0251C66.8191 88.0177 68.8378 88.2131 70.8224 88.6086C72.6731 89.017 74.2925 90.073 76.0622 90.4872C77.8495 90.8813 79.5394 91.6359 81.0302 92.7057C82.521 93.7755 83.782 95.1385 84.7372 96.7126Z" fill="url(#paint1_linear)"/>
<path d="M12.7461 201.878H227.922L182.222 144.584H13.735L12.7461 201.878Z" fill="#3F3D56"/>
<path d="M12.7461 201.878H227.922L182.222 144.584H13.735L12.7461 201.878Z" fill="url(#paint2_linear)"/>
<path d="M57.7236 156.69V158.487L65.2883 168.546L85.0847 165.063L85.3045 160.926L77.4796 153.493L57.7236 156.69Z" fill="#F79421"/>
<path d="M57.7236 156.69V158.487L65.2883 168.546L85.0847 165.063L85.3045 160.926L77.4796 153.493L57.7236 156.69Z" fill="url(#paint3_linear)"/>
<path d="M48.5225 111.503C48.4697 112.654 48.2755 113.795 47.9441 114.898C47.493 116.293 46.7123 117.553 46.2091 118.924C45.5107 120.706 45.2526 122.632 45.4573 124.537C45.6032 125.321 45.6518 126.121 45.6019 126.917C45.5267 127.501 45.3127 128.032 45.1855 128.598C44.7633 130.535 45.4168 132.524 46.0645 134.397C44.3149 134.948 42.6267 135.682 41.0272 136.585L40.5935 136.859C38.8642 137.925 37.5855 139.598 37.002 141.556C36.8343 142.238 36.6492 143.09 35.9726 143.242C35.6502 143.289 35.3223 143.208 35.0588 143.014C33.9021 142.244 33.6592 140.681 33.5436 139.28C33.1445 134.444 30.9411 107.249 37.0136 96.66C37.7076 95.4465 39.1766 92.0509 42.4326 92.2317C44.9599 92.3717 46.5156 94.0462 47.4525 96.45C49.0661 100.639 48.8174 107.051 48.5225 111.503Z" fill="#F79421"/>
<path d="M48.5221 111.503C48.4694 112.654 48.2751 113.795 47.9438 114.898C47.4927 116.293 46.7119 117.553 46.2088 118.924C45.5103 120.706 45.2523 122.632 45.457 124.537C45.6029 125.321 45.6515 126.121 45.6015 126.917C45.5264 127.501 45.3124 128.032 45.1851 128.598C44.7629 130.535 45.4165 132.524 46.0642 134.397C44.3146 134.948 42.6264 135.682 41.0269 136.585C40.4486 126.626 40.171 108.218 44.9191 99.9448C45.3644 99.1688 46.122 97.506 47.458 96.4442C49.0658 100.639 48.8171 107.051 48.5221 111.503Z" fill="url(#paint4_linear)"/>
<path d="M60.083 88.5385C60.248 89.7375 60.3407 90.9455 60.3606 92.1559C60.8695 103.095 64.5362 113.644 69.0935 123.58C69.9447 125.253 70.6156 127.013 71.0945 128.831C71.3394 130.097 71.4806 131.381 71.5167 132.67L71.962 140.383C71.7289 136.522 72.4482 132.663 74.0556 129.152C75.3858 126.235 77.3 123.656 78.4047 120.669C80.3999 115.278 79.5613 109.28 78.4856 103.626C77.7338 99.5947 76.3227 94.7288 76.6928 90.6389C76.8605 90.5981 67.4047 87.5934 62.5641 87.2258C62.0673 87.1645 61.5638 87.2572 61.1206 87.4918C60.6774 87.7263 60.3154 88.0914 60.083 88.5385Z" fill="white"/>
<path d="M56.9483 89.3204L51.8994 105.61L58.423 108.597L56.208 115.692L65.097 124.875C66.4116 126.238 67.4455 127.85 68.1391 129.619L71.8404 139.094C71.8404 139.094 73.0318 130.581 68.2258 120.622C63.4199 110.663 60.0829 88.5327 60.0829 88.5327L56.9483 89.3204Z" fill="#F79421"/>
<path d="M56.9483 89.3204L51.8994 105.61L58.423 108.597L56.208 115.692L65.097 124.875C66.4116 126.238 67.4455 127.85 68.1391 129.619L71.8404 139.094C71.8404 139.094 73.0318 130.581 68.2258 120.622C63.4199 110.663 60.0829 88.5327 60.0829 88.5327L56.9483 89.3204Z" fill="url(#paint5_linear)"/>
<path d="M76.6931 90.6623L78.4281 91.2457L85.1542 104.134C85.1542 104.134 82.4418 110.482 82.4418 109.968C82.4418 109.455 85.4028 116.818 85.4028 116.818C85.4028 116.818 80.5969 127.022 77.2714 128.516C73.946 130.009 71.8987 140.716 71.8987 140.716C71.8987 140.716 70.6611 131.171 78.4108 120.68C78.8619 120.097 79.7351 115.569 78.8734 108.101C78.0117 100.633 75.5769 92.8793 76.6931 90.6623Z" fill="#F79421"/>
<path d="M76.6931 90.6623L78.4281 91.2457L85.1542 104.134C85.1542 104.134 82.4418 110.482 82.4418 109.968C82.4418 109.455 85.4028 116.818 85.4028 116.818C85.4028 116.818 80.5969 127.022 77.2714 128.516C73.946 130.009 71.8987 140.716 71.8987 140.716C71.8987 140.716 70.6611 131.171 78.4108 120.68C78.8619 120.097 79.7351 115.569 78.8734 108.101C78.0117 100.633 75.5769 92.8793 76.6931 90.6623Z" fill="url(#paint6_linear)"/>
<path d="M52.1488 78.4567C51.4317 73.6608 49.5521 60.37 56.7003 53.5204C65.4968 45.0722 74.7444 46.3383 81.2218 51.1867C83.642 52.8915 85.538 55.249 86.6928 57.9896C87.7049 60.5625 87.942 63.3631 88.0866 66.1052C88.2803 67.9744 88.2919 69.8582 88.1213 71.7296C87.8675 73.5485 87.2476 75.2957 86.2996 76.8639C85.9641 77.4181 85.5882 77.9432 85.2643 78.5092C84.3696 80.152 83.8407 81.9718 83.7144 83.8418C83.5872 85.7083 83.622 87.5825 83.8185 89.4429C83.8474 89.7521 84.0383 89.7579 83.7086 89.8863C83.44 89.9269 83.1659 89.909 82.9047 89.8338C82.4131 89.7579 81.9331 89.6179 81.4473 89.5479C79.8974 89.332 78.3532 89.0986 76.8206 88.8653L59.3838 88.6377L51.2871 87.2725C52.3327 84.4602 52.6298 81.4208 52.1488 78.4567Z" fill="#FF979A"/>
<path d="M52.1488 78.4567C51.4316 73.6608 49.552 60.37 56.7003 53.5204C65.4967 45.0722 74.7443 46.3383 81.2217 51.1867C84.5883 53.7757 86.8838 57.5321 87.6643 61.7294C88.01 63.4702 88.192 65.2401 88.208 67.0154C88.2485 69.2033 88.208 71.8696 87.4272 73.9292C86.9299 75.2944 86.0392 76.473 85.4146 77.7857C84.6076 79.6947 84.0759 81.7106 83.8358 83.7718C83.5062 85.7793 83.5513 87.8313 83.9688 89.8221C82.7254 89.9796 81.1639 89.5129 79.9204 89.3262C78.8852 89.1803 77.85 89.0228 76.8148 88.8653L59.3779 88.6377L51.2812 87.2725C52.3288 84.4608 52.6279 81.4213 52.1488 78.4567Z" fill="url(#paint7_linear)"/>
<path d="M74.8427 96.0065C74.342 96.778 73.6795 97.4291 72.902 97.914C72.1246 98.3989 71.2511 98.7058 70.3433 98.8129C70.2104 98.8216 70.0771 98.8216 69.9442 98.8129C69.4804 98.8068 69.0194 98.7381 68.5736 98.6087C67.3555 98.2251 66.2292 97.5914 65.2655 96.7475C63.0526 94.9165 61.309 92.5752 60.1819 89.9213C60.0725 89.6921 60.004 89.4452 59.9795 89.192C59.9795 89.0344 60.4248 88.7369 61.0089 87.9959C61.9485 86.7514 62.5988 85.3098 62.9117 83.7776C63.1835 82.6458 62.7729 79.8511 62.7324 78.305C62.7324 77.6515 62.7324 77.2198 62.929 77.2139C63.3865 77.2484 63.8224 77.4236 64.1782 77.7157C66.2574 79.1622 67.9935 81.055 69.2618 83.2584L69.5452 83.7776C70.2258 84.9796 70.7303 86.2747 71.0431 87.6225C71.3091 89.0519 72.7029 88.3635 74.328 88.7894C74.5478 88.8477 74.727 89.227 74.8716 89.7812C75.3343 91.5724 75.4153 95.2014 74.8427 96.0065Z" fill="#FFDAD2"/>
<path d="M74.8716 89.7929C74.8716 89.9913 74.8716 90.2013 74.8716 90.3764C74.8138 91.7766 74.7675 93.1769 74.7097 94.5771C74.6808 95.3239 74.5998 96.1758 74.0041 96.6017C72.7277 97.4625 71.372 98.1971 69.9558 98.7954C69.6981 98.9311 69.4017 98.9723 69.1172 98.9121C68.9322 98.8187 68.7543 98.7114 68.5851 98.5912C66.2024 96.8409 62.5878 91.1115 61.0205 87.9784C61.9601 86.7339 62.6103 85.2923 62.9232 83.7601C63.1951 82.6283 62.7844 79.8336 62.7439 78.2875C63.8023 79.0926 66.746 81.3389 69.2734 83.2409C71.0546 84.5886 72.6277 85.7672 73.1771 86.1581C73.5504 86.3931 73.8892 86.6799 74.1834 87.0099C74.7231 87.8302 74.9662 88.813 74.8716 89.7929Z" fill="url(#paint8_linear)"/>
<path d="M64.9064 142.95C65.6351 143.353 66.2655 143.919 66.9652 144.374C67.3065 144.596 67.665 144.788 68.012 144.957C69.1131 145.583 70.1547 146.309 71.1235 147.128C71.2471 147.209 71.3529 147.316 71.4345 147.44C71.516 147.564 71.5716 147.704 71.5977 147.851C71.5856 147.994 71.5373 148.131 71.4572 148.25C71.3772 148.369 71.2682 148.464 71.1408 148.528C70.8008 148.682 70.4322 148.762 70.0593 148.762C69.6865 148.762 69.3179 148.682 68.9778 148.528C68.2997 148.216 67.5813 148.002 66.8438 147.892C66.5488 147.892 66.2655 147.892 65.9647 147.892C65.6485 147.827 65.3466 147.705 65.0741 147.53C63.7184 146.627 62.5929 145.413 61.7891 143.989C61.5041 143.621 61.3259 143.181 61.2744 142.717C61.2744 142.256 61.7313 142.308 62.1014 142.291C63.0781 142.253 64.0468 142.481 64.9064 142.95Z" fill="#FFDAD2"/>
<path d="M106.026 132.448C111.329 134.454 116.864 135.769 122.497 136.363C125.007 136.626 127.604 136.766 129.871 137.892C132.601 139.251 134.498 141.853 136.233 144.368C136.405 144.551 136.534 144.771 136.61 145.011C136.686 145.252 136.708 145.507 136.672 145.757C136.481 146.34 135.718 146.521 135.093 146.498C131.56 146.363 128.68 143.493 125.215 142.781C125.159 143.093 125.2 143.415 125.331 143.703C125.463 143.991 125.679 144.231 125.95 144.391C126.496 144.701 127.022 145.046 127.523 145.424C127.691 145.582 127.847 145.815 127.76 146.007C127.703 146.119 127.612 146.209 127.5 146.264C126.702 146.719 125.707 146.451 124.84 146.153C122.989 145.529 121.092 144.776 119.785 143.306C119.207 142.629 118.698 141.789 117.882 141.404C117.17 141.136 116.4 141.062 115.65 141.188C110.503 141.597 103.933 143.82 98.9128 142.6C98.581 142.539 98.2646 142.412 97.9816 142.227C97.3455 141.754 96.7035 139.893 96.744 139.076C96.7823 137.388 97.3949 135.765 98.479 134.479C99.601 133.248 104.471 131.877 106.032 132.425" fill="#FFDAD2"/>
<path d="M101.816 156.457L132.827 168.546L179.776 159.071L149.419 147.087L101.816 154.368V156.457Z" fill="#F79421"/>
<path d="M101.816 154.368L132.827 166.463L179.776 156.988L149.419 144.998L101.816 154.368Z" fill="#F79421"/>
<path d="M101.816 154.368L132.827 166.463L179.776 156.988L149.419 144.998L101.816 154.368Z" fill="url(#paint9_linear)"/>
<path d="M65.6986 164.456L85.3042 160.926L77.4793 153.493L58.2207 156.667L65.6986 164.456Z" fill="#F79421"/>
<path d="M45.9775 158.796L57.3707 189.345L20.2705 190.693L20.4787 159.199L45.9775 158.796Z" fill="white"/>
<path d="M51.3331 139.245C53.0681 140.208 54.8956 141.177 56.8677 141.532C58.464 141.824 60.118 141.696 61.6911 142.081C64.4035 142.746 66.6069 144.899 67.8388 147.431C69.0706 149.963 69.435 152.869 69.4697 155.669C69.4697 155.914 69.4061 156.253 69.1689 156.253C69.048 156.253 68.931 156.21 68.8393 156.13C66.9424 154.765 66.6763 151.854 64.7909 150.465L66.1327 155.36C66.2541 155.809 66.3062 156.422 65.8782 156.597C65.7046 156.661 65.514 156.661 65.3404 156.597C63.9466 156.188 63.027 154.905 62.2521 153.68C61.4771 152.454 60.7542 151.078 59.505 150.342C60.2067 152.287 60.8679 154.232 61.4886 156.177C60.8409 156.451 60.118 156.019 59.5975 155.541C58.0476 154.094 57.128 152.104 56.2489 150.167C56.7168 151.756 56.9544 153.405 56.9545 155.062C56.2374 155.15 55.74 154.386 55.4219 153.726L52.0039 146.603C51.914 146.386 51.7845 146.188 51.6222 146.019C51.4211 145.866 51.1907 145.757 50.9456 145.698C46.5676 144.345 41.8946 145.056 37.5109 143.703C36.882 143.538 36.2787 143.287 35.718 142.956C34.7348 142.314 34.3994 139.088 34.3994 137.909C34.4055 137.315 34.5558 136.732 34.837 136.21C35.1183 135.688 35.5221 135.244 36.013 134.916C37.2159 134.134 38.6907 134.187 40.0613 134.134C41.218 134.094 43.4099 133.592 44.422 134.204C47.1228 135.838 48.5686 137.746 51.3331 139.245Z" fill="#FFDAD2"/>
<path d="M64.2529 161.311L65.8491 163.318L83.3727 160.185L80.6661 158.207L64.2529 161.311Z" fill="white"/>
<path d="M132.826 168.552L179.775 159.071L191.053 116.748L144.109 126.223L132.826 168.552Z" fill="#F79421"/>
<path d="M132.826 168.552L179.775 159.071L191.053 116.748L144.109 126.223L132.826 168.552Z" fill="url(#paint10_linear)"/>
<path d="M134.104 168.336L181.054 158.855L192.331 116.532L145.382 126.007L134.104 168.336Z" fill="#F79421"/>
<path d="M46.7639 134.49C46.5462 133.969 46.2299 133.495 45.8327 133.096C45.546 132.721 45.1882 132.408 44.7802 132.174C44.2722 131.977 43.7259 131.901 43.184 131.952L37.3312 132.046C36.1746 132.046 34.9196 132.11 33.9769 132.81C32.8954 133.615 32.5195 135.109 32.6004 136.462C32.7837 137.811 33.0561 139.147 33.4159 140.459C33.5086 141.381 33.7818 142.275 34.2198 143.09C34.7345 143.849 35.8449 144.31 36.5852 143.773C36.1985 142.034 36.1572 140.236 36.4637 138.481C36.5258 138.029 36.6894 137.598 36.942 137.22C37.1946 136.842 37.5295 136.527 37.9211 136.299C38.3779 136.13 38.8639 136.057 39.3496 136.083L44.2597 136.019C45.4221 136.001 47.4116 136.381 46.7639 134.49Z" fill="#F79421"/>
<path d="M46.7639 134.49C46.5462 133.969 46.2299 133.495 45.8327 133.096C45.546 132.721 45.1882 132.408 44.7802 132.174C44.2722 131.977 43.7259 131.901 43.184 131.952L37.3312 132.046C36.1746 132.046 34.9196 132.11 33.9769 132.81C32.8954 133.615 32.5195 135.109 32.6004 136.462C32.7837 137.811 33.0561 139.147 33.4159 140.459C33.5086 141.381 33.7818 142.275 34.2198 143.09C34.7345 143.849 35.8449 144.31 36.5852 143.773C36.1985 142.034 36.1572 140.236 36.4637 138.481C36.5258 138.029 36.6894 137.598 36.942 137.22C37.1946 136.842 37.5295 136.527 37.9211 136.299C38.3779 136.13 38.8639 136.057 39.3496 136.083L44.2597 136.019C45.4221 136.001 47.4116 136.381 46.7639 134.49Z" fill="url(#paint11_linear)"/>
<path d="M23.8858 187.525L53.618 186.067L45.1512 161.439H22.8506L23.8858 187.525Z" stroke="url(#paint12_linear)" stroke-width="0.95" stroke-miterlimit="10"/>
<path d="M23.8857 184.812L52.3803 183.768" stroke="url(#paint13_linear)" stroke-width="0.95" stroke-miterlimit="10"/>
<path d="M23.8857 182.414L52.3803 181.37" stroke="url(#paint14_linear)" stroke-width="0.95" stroke-miterlimit="10"/>
<path d="M23.6885 179.544L50.3671 178.499" stroke="url(#paint15_linear)" stroke-width="0.92" stroke-miterlimit="10"/>
<path d="M23.5439 176.906L49.5922 176.101" stroke="url(#paint16_linear)" stroke-width="0.92" stroke-miterlimit="10"/>
<path d="M23.4746 174.666L49.1238 173.283" stroke="url(#paint17_linear)" stroke-width="0.92" stroke-miterlimit="10"/>
<path d="M23.4746 172.268L48.505 171.171" stroke="url(#paint18_linear)" stroke-width="0.92" stroke-miterlimit="10"/>
<path d="M23.4746 170.022L47.9671 169.059" stroke="url(#paint19_linear)" stroke-width="0.92" stroke-miterlimit="10"/>
<path d="M23.3994 167.781L47.1921 166.865" stroke="url(#paint20_linear)" stroke-width="0.92" stroke-miterlimit="10"/>
<path d="M23.2549 165.613L46.4172 164.987" stroke="url(#paint21_linear)" stroke-width="0.92" stroke-miterlimit="10"/>
<path d="M23.1104 163.29L45.8736 162.951" stroke="url(#paint22_linear)" stroke-width="0.92" stroke-miterlimit="10"/>
<path d="M26.5685 187.111L25.0186 161.439" stroke="url(#paint23_linear)" stroke-width="0.92" stroke-miterlimit="10"/>
<path d="M32.4795 161.387L36.0652 186.586" stroke="url(#paint24_linear)" stroke-width="0.92" stroke-miterlimit="10"/>
<path d="M41.1895 161.387L48.0427 186.376" stroke="url(#paint25_linear)" stroke-width="0.92" stroke-miterlimit="10"/>
<path d="M83.7202 84.0227C83.0304 85.1424 82.2196 86.1814 81.3027 87.1208C79.7065 88.8711 78.0467 90.6856 75.8953 91.6774C75.1943 92.0222 74.4254 92.2037 73.6456 92.2084C72.298 92.1617 71.0951 91.3507 70.0657 90.458C63.5478 84.9329 60.6908 75.6737 61.969 67.1729C62.2035 65.1165 62.8955 63.14 63.9931 61.391C65.8496 58.678 69.0998 57.1903 72.3443 56.8052C74.796 56.4735 77.2911 56.8058 79.5735 57.7679C81.8525 58.7442 83.7263 60.4862 84.8768 62.698C85.3632 63.7661 85.7504 64.8775 86.0335 66.0177C86.6234 68.0714 84.5067 82.675 83.7202 84.0227Z" fill="#FFDAD2"/>
<path d="M81.2971 63.6781C79.8109 64.99 78.0753 65.9826 76.1962 66.5953C74.9832 67.0457 73.7407 67.4102 72.4775 67.6864C70.4591 68.124 68.354 68.3515 66.5438 69.3492C64.0106 70.7378 62.4318 73.4333 61.5007 76.1929C60.5461 75.4145 59.7938 74.4132 59.3088 73.2757C58.8077 72.0375 58.541 70.7156 58.5222 69.3783C58.4044 66.3887 59.0098 63.415 60.2862 60.7143C61.3846 58.2549 63.219 56.2044 65.5317 54.8507C66.8212 54.1927 68.1985 53.727 69.6205 53.4679C71.5524 53.0116 73.5467 52.8873 75.5195 53.1004C78.2904 53.4824 80.8542 54.7911 82.8008 56.8169C83.8765 57.9429 83.9574 58.5672 83.5468 60.0316C83.1359 61.4293 82.3587 62.6891 81.2971 63.6781Z" fill="#FF979A"/>
<path d="M63.5707 160.804L61.8877 159.257L64.7331 158.715L66.4912 160.15L63.5707 160.804Z" fill="url(#paint26_linear)"/>
<path d="M61.4544 159.012L59.7715 157.466L62.6227 156.924L64.375 158.365L61.4544 159.012Z" fill="url(#paint27_linear)"/>
<path d="M66.971 160.203L65.2881 158.662L68.1335 158.12L69.8916 159.555L66.971 160.203Z" fill="url(#paint28_linear)"/>
<path d="M64.8607 158.417L63.1777 156.871L66.0231 156.328L67.7755 157.764L64.8607 158.417Z" fill="url(#paint29_linear)"/>
<path d="M70.3724 159.607L68.6895 158.067L71.5406 157.519L73.293 158.96L70.3724 159.607Z" fill="url(#paint30_linear)"/>
<path d="M68.2611 157.822L66.5781 156.276L69.4235 155.733L71.1817 157.169L68.2611 157.822Z" fill="url(#paint31_linear)"/>
<path d="M73.7787 159.012L72.0957 157.466L74.9411 156.924L76.6992 158.365L73.7787 159.012Z" fill="url(#paint32_linear)"/>
<path d="M71.6615 157.221L69.9785 155.681L72.8297 155.138L74.5821 156.574L71.6615 157.221Z" fill="url(#paint33_linear)"/>
<path d="M77.1791 158.417L75.4961 156.871L78.3415 156.328L80.0996 157.764L77.1791 158.417Z" fill="url(#paint34_linear)"/>
<path d="M75.0677 156.626L73.3848 155.086L76.2302 154.543L77.9825 155.978L75.0677 156.626Z" fill="url(#paint35_linear)"/>
</g>
<defs>
<linearGradient id="paint0_linear" x1="77.8725" y1="125.925" x2="95.8211" y2="113.099" gradientUnits="userSpaceOnUse">
<stop offset="0.01"/>
<stop offset="1" stop-opacity="0"/>
</linearGradient>
<linearGradient id="paint1_linear" x1="4305.17" y1="14700.3" x2="7060.97" y2="11362.7" gradientUnits="userSpaceOnUse">
<stop offset="0.01"/>
<stop offset="1" stop-opacity="0"/>
</linearGradient>
<linearGradient id="paint2_linear" x1="43598.7" y1="21825.2" x2="43746.7" y2="14686.5" gradientUnits="userSpaceOnUse">
<stop offset="0.01"/>
<stop offset="1" stop-opacity="0"/>
</linearGradient>
<linearGradient id="paint3_linear" x1="3477.47" y1="4058.02" x2="3468.59" y2="4680.15" gradientUnits="userSpaceOnUse">
<stop offset="0.01"/>
<stop offset="1" stop-opacity="0"/>
</linearGradient>
<linearGradient id="paint4_linear" x1="964.536" y1="9763.13" x2="175.534" y2="9557.53" gradientUnits="userSpaceOnUse">
<stop offset="0.01"/>
<stop offset="1" stop-opacity="0"/>
</linearGradient>
<linearGradient id="paint5_linear" x1="2967.34" y1="9291.64" x2="1939.04" y2="9522.69" gradientUnits="userSpaceOnUse">
<stop offset="0.01"/>
<stop offset="1" stop-opacity="0"/>
</linearGradient>
<linearGradient id="paint6_linear" x1="1670.07" y1="9679.38" x2="2265.64" y2="9745.34" gradientUnits="userSpaceOnUse">
<stop offset="0.01"/>
<stop offset="1" stop-opacity="0"/>
</linearGradient>
<linearGradient id="paint7_linear" x1="5289.72" y1="7333.52" x2="4072.35" y2="4028.26" gradientUnits="userSpaceOnUse">
<stop offset="0.01"/>
<stop offset="1" stop-opacity="0"/>
</linearGradient>
<linearGradient id="paint8_linear" x1="1986.05" y1="2798.52" x2="1557.41" y2="3236.42" gradientUnits="userSpaceOnUse">
<stop offset="0.01"/>
<stop offset="1" stop-opacity="0"/>
</linearGradient>
<linearGradient id="paint9_linear" x1="19454.5" y1="6142.26" x2="19358.1" y2="5208.15" gradientUnits="userSpaceOnUse">
<stop offset="0.01"/>
<stop offset="1" stop-opacity="0"/>
</linearGradient>
<linearGradient id="paint10_linear" x1="13505.8" y1="12772.4" x2="19368.1" y2="12772.4" gradientUnits="userSpaceOnUse">
<stop offset="0.01"/>
<stop offset="1" stop-opacity="0"/>
</linearGradient>
<linearGradient id="paint11_linear" x1="960.133" y1="3197.99" x2="1135.47" y2="2816.95" gradientUnits="userSpaceOnUse">
<stop offset="0.01"/>
<stop offset="1" stop-opacity="0"/>
</linearGradient>
<linearGradient id="paint12_linear" x1="1223.4" y1="7957.92" x2="2895.61" y2="7957.92" gradientUnits="userSpaceOnUse">
<stop offset="0.01"/>
<stop offset="1" stop-opacity="0"/>
</linearGradient>
<linearGradient id="paint13_linear" x1="1200.14" y1="513.446" x2="2604.93" y2="513.446" gradientUnits="userSpaceOnUse">
<stop offset="0.01"/>
<stop offset="1" stop-opacity="0"/>
</linearGradient>
<linearGradient id="paint14_linear" x1="1200.14" y1="506.759" x2="2604.93" y2="506.759" gradientUnits="userSpaceOnUse">
<stop offset="0.01"/>
<stop offset="1" stop-opacity="0"/>
</linearGradient>
<linearGradient id="paint15_linear" x1="1115.91" y1="498.77" x2="2347.4" y2="498.77" gradientUnits="userSpaceOnUse">
<stop offset="0.01"/>
<stop offset="1" stop-opacity="0"/>
</linearGradient>
<linearGradient id="paint16_linear" x1="1083.71" y1="419.516" x2="2257.44" y2="419.516" gradientUnits="userSpaceOnUse">
<stop offset="0.01"/>
<stop offset="1" stop-opacity="0"/>
</linearGradient>
<linearGradient id="paint17_linear" x1="1063.81" y1="585.334" x2="2202.89" y2="585.334" gradientUnits="userSpaceOnUse">
<stop offset="0.01"/>
<stop offset="1" stop-opacity="0"/>
</linearGradient>
<linearGradient id="paint18_linear" x1="1038.96" y1="493.791" x2="2123.27" y2="493.791" gradientUnits="userSpaceOnUse">
<stop offset="0.01"/>
<stop offset="1" stop-opacity="0"/>
</linearGradient>
<linearGradient id="paint19_linear" x1="1017.14" y1="448.606" x2="2055.13" y2="448.606" gradientUnits="userSpaceOnUse">
<stop offset="0.01"/>
<stop offset="1" stop-opacity="0"/>
</linearGradient>
<linearGradient id="paint20_linear" x1="985.577" y1="429.382" x2="1965.36" y2="429.382" gradientUnits="userSpaceOnUse">
<stop offset="0.01"/>
<stop offset="1" stop-opacity="0"/>
</linearGradient>
<linearGradient id="paint21_linear" x1="954.381" y1="342.41" x2="1882.5" y2="342.41" gradientUnits="userSpaceOnUse">
<stop offset="0.01"/>
<stop offset="1" stop-opacity="0"/>
</linearGradient>
<linearGradient id="paint22_linear" x1="932.504" y1="257.848" x2="1828.92" y2="257.848" gradientUnits="userSpaceOnUse">
<stop offset="0.01"/>
<stop offset="1" stop-opacity="0"/>
</linearGradient>
<linearGradient id="paint23_linear" x1="91.356" y1="7824.6" x2="96.9358" y2="7824.6" gradientUnits="userSpaceOnUse">
<stop offset="0.01"/>
<stop offset="1" stop-opacity="0"/>
</linearGradient>
<linearGradient id="paint24_linear" x1="232.202" y1="7671.13" x2="257.732" y2="7671.13" gradientUnits="userSpaceOnUse">
<stop offset="0.01"/>
<stop offset="1" stop-opacity="0"/>
</linearGradient>
<linearGradient id="paint25_linear" x1="526.264" y1="7604.04" x2="613.506" y2="7604.04" gradientUnits="userSpaceOnUse">
<stop offset="0.01"/>
<stop offset="1" stop-opacity="0"/>
</linearGradient>
<linearGradient id="paint26_linear" x1="571.915" y1="735.309" x2="572.201" y2="727.291" gradientUnits="userSpaceOnUse">
<stop offset="0.01"/>
<stop offset="1" stop-opacity="0"/>
</linearGradient>
<linearGradient id="paint27_linear" x1="552.995" y1="727.13" x2="553.272" y2="719.115" gradientUnits="userSpaceOnUse">
<stop offset="0.01"/>
<stop offset="1" stop-opacity="0"/>
</linearGradient>
<linearGradient id="paint28_linear" x1="602.385" y1="730.972" x2="602.669" y2="722.976" gradientUnits="userSpaceOnUse">
<stop offset="0.01"/>
<stop offset="1" stop-opacity="0"/>
</linearGradient>
<linearGradient id="paint29_linear" x1="582.818" y1="724.396" x2="583.104" y2="716.358" gradientUnits="userSpaceOnUse">
<stop offset="0.01"/>
<stop offset="1" stop-opacity="0"/>
</linearGradient>
<linearGradient id="paint30_linear" x1="632.901" y1="729.852" x2="633.177" y2="721.836" gradientUnits="userSpaceOnUse">
<stop offset="0.01"/>
<stop offset="1" stop-opacity="0"/>
</linearGradient>
<linearGradient id="paint31_linear" x1="613.94" y1="721.65" x2="614.226" y2="713.632" gradientUnits="userSpaceOnUse">
<stop offset="0.01"/>
<stop offset="1" stop-opacity="0"/>
</linearGradient>
<linearGradient id="paint32_linear" x1="663.375" y1="727.13" x2="663.661" y2="719.112" gradientUnits="userSpaceOnUse">
<stop offset="0.01"/>
<stop offset="1" stop-opacity="0"/>
</linearGradient>
<linearGradient id="paint33_linear" x1="644.457" y1="717.351" x2="644.731" y2="709.358" gradientUnits="userSpaceOnUse">
<stop offset="0.01"/>
<stop offset="1" stop-opacity="0"/>
</linearGradient>
<linearGradient id="paint34_linear" x1="693.845" y1="724.396" x2="694.131" y2="716.357" gradientUnits="userSpaceOnUse">
<stop offset="0.01"/>
<stop offset="1" stop-opacity="0"/>
</linearGradient>
<linearGradient id="paint35_linear" x1="674.176" y1="714.627" x2="674.461" y2="706.632" gradientUnits="userSpaceOnUse">
<stop offset="0.01"/>
<stop offset="1" stop-opacity="0"/>
</linearGradient>
<clipPath id="clip0">
<rect width="227.922" height="201.765" fill="white" transform="translate(0 0.112274)"/>
</clipPath>
</defs>
</svg>
