<svg width="20" height="14" viewBox="0 0 20 14" fill="none" xmlns="http://www.w3.org/2000/svg">
<path d="M19 0C19.2708 0 19.5 0.104167 19.6875 0.3125C19.8958 0.5 20 0.729167 20 1V13C20 13.2708 19.8958 13.5 19.6875 13.6875C19.5 13.8958 19.2708 14 19 14H1C0.729167 14 0.489583 13.8958 0.28125 13.6875C0.09375 13.5 0 13.2708 0 13V1C0 0.729167 0.09375 0.5 0.28125 0.3125C0.489583 0.104167 0.729167 0 1 0H19ZM18.5 12.5V1.5H1.5V12.5H18.5ZM9.25 9C9.08333 9 9 8.91667 9 8.75V7.75C9 7.58333 9.08333 7.5 9.25 7.5H11.75C11.9167 7.5 12 7.58333 12 7.75V8.75C12 8.91667 11.9167 9 11.75 9H9.25ZM16.75 7.5C16.9167 7.5 17 7.58333 17 7.75V8.75C17 8.91667 16.9167 9 16.75 9H14.25C14.0833 9 14 8.91667 14 8.75V7.75C14 7.58333 14.0833 7.5 14.25 7.5H16.75ZM9.25 6.5C9.08333 6.5 9 6.41667 9 6.25V5.25C9 5.08333 9.08333 5 9.25 5H16.75C16.9167 5 17 5.08333 17 5.25V6.25C17 6.41667 16.9167 6.5 16.75 6.5H9.25ZM4.21875 7.0625C3.92708 6.97917 3.6875 6.82292 3.5 6.59375C3.33333 6.36458 3.25 6.11458 3.25 5.84375C3.25 5.48958 3.36458 5.19792 3.59375 4.96875C3.84375 4.71875 4.14583 4.58333 4.5 4.5625V4.25C4.5 4.08333 4.58333 4 4.75 4H5.25C5.41667 4 5.5 4.08333 5.5 4.25V4.5625C5.83333 4.58333 6.125 4.6875 6.375 4.875C6.52083 4.97917 6.53125 5.09375 6.40625 5.21875L6.03125 5.625C5.96875 5.70833 5.875 5.71875 5.75 5.65625C5.64583 5.59375 5.52083 5.5625 5.375 5.5625H4.5625C4.35417 5.5625 4.25 5.65625 4.25 5.84375C4.25 5.96875 4.32292 6.05208 4.46875 6.09375L5.78125 6.4375C6.07292 6.52083 6.30208 6.67708 6.46875 6.90625C6.65625 7.13542 6.75 7.38542 6.75 7.65625C6.75 8.01042 6.625 8.3125 6.375 8.5625C6.14583 8.79167 5.85417 8.91667 5.5 8.9375V9.25C5.5 9.41667 5.41667 9.5 5.25 9.5H4.75C4.58333 9.5 4.5 9.41667 4.5 9.25V8.9375C4.16667 8.91667 3.875 8.8125 3.625 8.625C3.47917 8.52083 3.46875 8.40625 3.59375 8.28125L3.96875 7.875C4.03125 7.79167 4.11458 7.78125 4.21875 7.84375C4.34375 7.90625 4.47917 7.9375 4.625 7.9375H5.4375C5.64583 7.9375 5.75 7.84375 5.75 7.65625C5.75 7.53125 5.67708 7.44792 5.53125 7.40625L4.21875 7.0625Z" fill="#2B3A90"/>
</svg>
