<svg width="255" height="201" viewBox="0 0 255 201" fill="none" xmlns="http://www.w3.org/2000/svg">
<g clip-path="url(#clip0)">
<path opacity="0.18" d="M245.455 121.673C244.389 119.669 243.265 117.697 242.084 115.758C240.972 113.909 239.826 112.1 238.644 110.332C233.5 102.613 227.785 95.0145 225.269 86.0858C222.16 75.0378 225.269 62.7872 221.935 52.1074C219.104 42.8179 210.475 33.1001 203.972 26.2233C189.591 10.9363 169.983 -0.232016 148.55 0.0460651C144.427 0.121078 140.317 0.540916 136.264 1.30119C128.236 2.75924 120.358 5.29955 112.608 7.92253C92.9781 14.5814 73.2951 21.9994 56.4583 34.1072C39.6215 46.215 25.736 63.644 21.9136 84.0266C19.931 94.5485 20.6445 105.642 17.235 115.818C13.1498 127.993 4.07801 135.99 1.19428 148.639C-2.12502 163.197 1.34447 180.4 13.5327 189.006C19.8785 193.478 27.8012 195.146 35.4686 196.056C54.8013 198.297 74.3889 196.411 92.9405 190.524C103.402 187.195 113.757 182.565 124.737 182.52C136.557 182.467 147.634 187.736 158.658 192.005C175.525 198.543 193.811 202.978 211.669 200.114C229.527 197.251 246.845 185.834 252.717 168.736C258.057 153.194 253.356 136.501 245.455 121.673Z" fill="#F79421"/>
<path d="M135.408 179.129L135.904 179.197C136.264 179.483 135.258 179.543 135.408 179.129Z" fill="url(#paint0_linear)"/>
<path d="M245.455 121.672C241.76 123.175 237.878 124.588 235.482 126.279L178.776 166.142C174.427 169.283 169.896 172.164 165.206 174.77C161.384 176.837 159.199 180.783 154.573 181.835C152.273 182.234 149.918 182.194 147.634 181.715C143.905 181.106 140.236 180.173 136.669 178.926C136.226 178.776 135.61 178.686 135.415 179.107C102.372 174.597 70.7641 162.572 37.9992 156.327C37.6166 156.256 37.2674 156.062 37.0042 155.775C36.741 155.489 36.578 155.124 36.5399 154.736C36.5018 154.349 36.5905 153.959 36.7928 153.627C36.995 153.294 37.2998 153.036 37.6612 152.892C40.4037 151.92 43.2365 151.225 46.1172 150.818C51.374 149.848 56.5632 148.901 61.805 148.044C72.3693 146.213 83.0354 145.028 93.7438 144.497C111.527 143.745 129.468 145.647 147.063 142.889C163.757 140.296 179.52 133.599 195.072 126.933C198.827 125.324 202.642 123.656 205.586 120.83C207.884 118.62 209.739 115.689 212.675 114.231C215.612 112.773 219.434 112.991 222.708 113.141C229.219 113.585 235.693 114.454 242.091 115.742C243.287 117.691 244.409 119.668 245.455 121.672Z" fill="url(#paint1_linear)"/>
<path d="M39.4636 145.151L113.69 112.833C115.296 112.022 117.112 111.721 118.894 111.969L210.7 119.778C212.457 120.026 212.142 127.587 210.7 128.797L156.495 175.033C154.858 176.469 152.901 177.491 150.789 178.014C148.676 178.537 146.469 178.546 144.352 178.04L40.117 152.682C38.7878 152.358 38.217 145.775 39.4636 145.151Z" fill="#F79421"/>
<path d="M39.4636 145.151L113.69 112.833C115.296 112.022 117.112 111.721 118.894 111.969L210.7 119.778C212.457 120.026 212.142 127.587 210.7 128.797L156.495 175.033C154.858 176.469 152.901 177.491 150.789 178.014C148.676 178.537 146.469 178.546 144.352 178.04L40.117 152.682C38.7878 152.358 38.217 145.775 39.4636 145.151Z" fill="url(#paint2_linear)"/>
<path d="M210.723 123.445L156.495 169.637C154.863 171.079 152.909 172.109 150.798 172.638C148.686 173.168 146.478 173.183 144.359 172.681L40.1093 147.323C38.78 147 38.6073 144.895 39.8464 144.271L68.4359 128.135L75.9456 123.911L98.7827 111.029C100.387 110.221 102.2 109.919 103.979 110.165L209.791 119.417C211.549 119.627 212.142 122.235 210.723 123.445Z" fill="#F79421"/>
<path d="M103.972 112.721L200.697 127.038L170.929 151.239L71.6504 131.134L103.972 112.721Z" fill="url(#paint3_linear)"/>
<path d="M142.805 138.161C146.917 137.271 150.85 135.693 154.437 133.494C155.429 132.863 156.518 131.728 155.939 130.691C155.549 129.939 154.588 129.736 154.287 128.947C155.601 128.413 157.043 128.661 158.237 127.632C159.431 126.602 159.559 124.625 158.29 123.874C159.285 123.807 160.247 123.486 161.084 122.942C161.491 122.659 161.793 122.249 161.944 121.776C162.095 121.303 162.085 120.793 161.917 120.326C161.459 119.372 160.258 119.101 159.221 118.936C157.77 118.65 156.291 118.532 154.813 118.583C153.122 118.733 151.483 119.246 150.007 120.086C148.625 120.837 147.506 122.145 146.132 122.837C143.323 124.25 139.636 124.092 136.617 124.753C134.364 125.242 132.186 126.091 129.971 126.76C127.755 127.429 125.653 127.91 123.467 128.391C118.181 129.553 112.881 130.656 107.569 131.698C107.915 134.065 110.446 135.373 112.661 136.267C115.736 137.616 118.949 138.624 122.243 139.274C124.824 139.647 127.435 139.765 130.038 139.627C134.331 139.552 138.607 139.061 142.805 138.161Z" fill="url(#paint4_linear)"/>
<path d="M93.8491 137.132L133.711 145.196L113.097 162.031L71.6504 152.719L93.8491 137.132Z" fill="url(#paint5_linear)"/>
<path d="M73.9111 155.628C74.3179 156.448 74.8946 157.173 75.6028 157.754C76.3111 158.334 77.1347 158.757 78.019 158.995C80.9477 159.701 98.0173 164.075 98.0173 164.075C98.0173 164.075 100.796 164.406 102.335 162.572L73.9111 155.628Z" fill="url(#paint6_linear)"/>
<path d="M100.931 110.158L210.092 125.7C210.893 125.815 211.707 125.618 212.367 125.15C213.026 124.681 213.481 123.977 213.637 123.182L229.212 44.4779C229.378 43.6379 229.367 42.7721 229.177 41.937C228.987 41.1019 228.623 40.3162 228.109 39.6312C227.596 38.9462 226.943 38.3772 226.195 37.9614C225.447 37.5455 224.62 37.2922 223.767 37.2178L115.965 27.7254C114.378 27.5863 112.8 28.0749 111.569 29.0864C110.338 30.098 109.552 31.552 109.379 33.1367L100.931 110.158Z" fill="#F79421"/>
<path d="M100.931 110.158L209.822 125.663C210.701 125.787 211.595 125.57 212.32 125.056C213.045 124.541 213.546 123.769 213.719 122.897L229.234 44.4779C229.401 43.6379 229.389 42.7721 229.199 41.937C229.009 41.1019 228.645 40.3162 228.132 39.6312C227.618 38.9462 226.966 38.3772 226.218 37.9614C225.47 37.5455 224.642 37.2921 223.79 37.2178L115.965 27.7254C114.378 27.5863 112.8 28.0749 111.569 29.0864C110.338 30.098 109.552 31.552 109.379 33.1367L100.931 110.158Z" fill="url(#paint7_linear)"/>
<path d="M208.14 121.183L223.647 41.7647L113.697 31.6035L104.956 106.798L208.14 121.183Z" fill="white"/>
<path d="M96.3871 154.132C96.3658 154.341 96.3897 154.551 96.4571 154.75C96.5245 154.948 96.6338 155.13 96.7777 155.282C96.9348 155.392 97.1142 155.467 97.3033 155.5C97.7975 155.598 98.3029 155.629 98.8053 155.59C99.7374 155.525 100.664 155.392 101.576 155.192L103.153 154.891C103.252 154.885 103.349 154.859 103.438 154.815C103.527 154.771 103.606 154.71 103.672 154.636C103.716 154.536 103.731 154.426 103.715 154.318C103.699 154.21 103.653 154.109 103.581 154.027C103.31 153.718 102.96 153.489 102.568 153.366C101.624 152.982 100.653 152.673 99.6614 152.441C99.4971 152.416 99.3405 152.355 99.2033 152.261C99.008 152.088 98.9705 151.795 98.8353 151.562C98.6991 151.366 98.5076 151.216 98.2855 151.13C98.0634 151.045 97.8207 151.027 97.5887 151.081C97.1381 151.171 96.4848 151.479 96.3796 151.975C96.3033 152.692 96.3058 153.416 96.3871 154.132Z" fill="#F9C6D6"/>
<path d="M101.463 152.629C101.304 152.587 101.136 152.588 100.976 152.632C100.817 152.675 100.671 152.76 100.555 152.877C100.299 153.26 100.637 153.869 100.322 154.215C100.226 154.294 100.116 154.352 99.9973 154.387C99.8785 154.422 99.754 154.432 99.6311 154.418H97.8813C97.4154 154.437 96.9488 154.399 96.492 154.305C96.3864 154.266 96.2731 154.253 96.1616 154.267C96.0858 154.291 96.0186 154.337 95.968 154.398C95.9174 154.459 95.8855 154.534 95.8762 154.613C95.8578 154.772 95.8811 154.932 95.9438 155.079C96.0537 155.397 96.2162 155.694 96.4244 155.958C96.4792 156.038 96.551 156.105 96.6347 156.154C96.7332 156.19 96.8376 156.208 96.9426 156.206C97.9714 156.206 99.0003 156.206 100.029 156.161C100.743 156.109 101.448 156.003 102.162 155.943C103.185 155.942 104.201 155.766 105.166 155.425C105.292 155.382 105.408 155.314 105.508 155.224C105.607 155.135 105.687 155.027 105.744 154.906C105.774 154.795 105.779 154.678 105.757 154.564C105.734 154.451 105.686 154.344 105.616 154.252C105.477 154.072 105.304 153.921 105.106 153.809C104.543 153.45 103.927 153.184 103.281 153.02C102.685 152.846 102.078 152.716 101.463 152.629Z" fill="#565056"/>
<path d="M77.3503 152.208C77.3429 152.245 77.3429 152.284 77.3503 152.321C77.4104 153.704 79.2428 153.741 80.2266 153.689C81.1607 153.623 82.0891 153.492 83.0052 153.298L84.5747 152.997C84.6742 152.99 84.7713 152.963 84.8602 152.918C84.9492 152.873 85.0283 152.81 85.0929 152.734C85.1378 152.636 85.1532 152.527 85.1372 152.42C85.1212 152.313 85.0745 152.214 85.0027 152.133C84.7344 151.822 84.3865 151.591 83.9964 151.464C83.1477 151.139 82.283 150.859 81.4056 150.622C80.6546 150.389 81.2779 149.314 81.3605 148.743C81.3983 148.631 81.3983 148.51 81.3605 148.398C81.2763 148.272 81.1474 148.183 81.0001 148.15C80.545 147.994 80.069 147.908 79.5882 147.894C79.4925 147.884 79.3958 147.902 79.3104 147.947C79.2327 148.005 79.175 148.087 79.1452 148.18L77.6432 151.381C77.4948 151.636 77.3955 151.917 77.3503 152.208Z" fill="#F9C6D6"/>
<path d="M78.0186 111.458C78.0186 111.458 76.8997 117.771 79.2127 122.513C80.4281 125.06 81.7845 127.536 83.2754 129.931C83.2754 129.931 78.4542 135.147 78.4542 141.724C78.4542 148.3 78.334 148.601 78.334 148.601L81.2253 150.104L88.4346 129.939C88.4346 129.939 88.8702 127.083 88.4346 126.114C87.999 125.144 84.3043 114.156 84.3043 114.156L78.0186 111.458Z" fill="#473F47"/>
<path d="M104.204 85.8369C102.702 85.8369 101.073 84.2435 100.164 81.7784C99.1128 78.9299 99.5634 76.3145 101.216 75.7057C102.868 75.0969 104.903 76.788 105.954 79.6439C107.006 82.4924 106.555 85.1078 104.903 85.7166C104.679 85.7977 104.443 85.8384 104.204 85.8369ZM101.952 76.9308C101.872 76.928 101.793 76.9407 101.719 76.9683C100.968 77.2539 100.667 79.1704 101.456 81.3124C102.244 83.4544 103.709 84.7396 104.46 84.454C105.211 84.1684 105.511 82.2519 104.723 80.1099C103.964 78.1633 102.702 76.9308 101.899 76.9308H101.952Z" fill="#473F47"/>
<path d="M110.138 92.0974C110.036 92.0984 109.936 92.0767 109.843 92.0338C109.751 91.9909 109.67 91.9279 109.605 91.8494L104.633 85.5964C104.523 85.4568 104.472 85.2791 104.493 85.1022C104.513 84.9253 104.603 84.7638 104.742 84.6531C104.882 84.5425 105.059 84.4918 105.236 84.5123C105.413 84.5327 105.574 84.6226 105.685 84.7621L110.656 91.0453C110.736 91.1426 110.787 91.2608 110.802 91.386C110.818 91.5112 110.797 91.6382 110.742 91.752C110.688 91.8657 110.602 91.9616 110.495 92.0281C110.388 92.0946 110.264 92.1291 110.138 92.1275V92.0974Z" fill="#473F47"/>
<path d="M101.321 82.7855C101.401 83.4462 101.428 84.1121 101.403 84.7772C101.277 85.2946 100.964 85.747 100.525 86.0473C100.084 86.3439 99.5928 86.5578 99.0755 86.6786C98.9225 86.7105 98.7771 86.7718 98.6474 86.859C98.5572 86.9692 98.4907 87.0968 98.4519 87.2339C98.4131 87.3709 98.403 87.5145 98.4221 87.6557V89.3542C98.4429 89.531 98.4004 89.7095 98.302 89.8578C98.2232 89.9411 98.1211 89.9987 98.0091 90.0231C97.5972 90.1177 97.1651 90.0651 96.7879 89.8742C96.4107 89.6834 96.1121 89.3665 95.9439 88.9784C95.7445 88.6045 95.5265 88.2407 95.2906 87.8887C95.0628 87.4182 94.9301 86.9074 94.9001 86.3855C94.7284 84.7529 95.0336 83.1056 95.7787 81.6431C96.2417 80.7137 96.9155 79.9055 97.7463 79.2832C98.4146 78.8022 99.7063 78.0882 100.39 78.9149C100.728 79.3207 100.72 79.9295 101.036 80.3579C101.261 80.6661 101.666 80.884 101.726 81.2598C101.786 81.6356 101.539 81.9061 101.426 82.2218C101.357 82.4018 101.322 82.5928 101.321 82.7855Z" fill="#F9C6D6"/>
<path d="M106.307 86.2277C106.311 86.1927 106.311 86.1574 106.307 86.1225C106.313 85.7309 106.46 85.3546 106.72 85.0627C106.852 84.9205 107.028 84.8279 107.219 84.8005C107.411 84.7731 107.606 84.8127 107.772 84.9124C107.899 85.0026 107.997 85.1529 108.147 85.2206C108.297 85.2882 108.62 85.2206 108.778 85.401C108.936 85.5813 108.891 85.7316 108.966 85.8895C109.041 86.0473 109.259 86.1901 109.401 86.3404C110.107 87.092 109.326 88.4674 109.048 89.2415C108.628 90.3989 108.215 91.5638 107.869 92.7513C107.454 92.8113 107.031 92.7292 106.668 92.5183C106.536 92.4389 106.419 92.3371 106.322 92.2177C106.207 92.0127 106.135 91.7859 106.112 91.5517C106.089 91.3176 106.114 91.0811 106.187 90.8574C106.276 90.5167 106.301 90.1626 106.262 89.8127C106.161 89.4343 106.036 89.0628 105.887 88.7004C105.782 88.3922 105.692 88.0014 105.932 87.7834C106.028 87.7237 106.118 87.6558 106.202 87.5805C106.261 87.4914 106.293 87.3868 106.292 87.2799C106.322 86.9266 106.292 86.5734 106.307 86.2277Z" fill="#F9C6D6"/>
<path d="M92.5796 114.156L99.5862 129.939L99.2933 152.291L96.0792 152.058C96.0792 152.058 90.5821 139.341 94.1191 131.465C94.1191 131.465 85.6256 124.197 82.4866 120.063C78.6341 114.975 79.4827 110.706 79.4827 110.706L92.5796 114.156Z" fill="#565056"/>
<path d="M95.8238 87.0093C96.6839 87.2078 97.518 87.5054 98.3095 87.8962C100.998 89.1363 101.118 91.2632 102.064 93.811C102.665 95.4336 103.35 97.0241 104.115 98.576L105.414 90.8949L109.003 92.353C109.003 92.353 109.364 103.687 106.75 105.212C105.053 106.189 102.673 105.047 101.133 104.258C100.57 103.972 99.6312 103.108 99.038 103.025C97.889 102.867 97.8139 104.235 96.7851 105.032C96.1201 105.421 95.4827 105.855 94.8776 106.332C94.3071 106.988 93.8799 107.756 93.6235 108.587C93.3346 109.615 93.2504 110.69 93.3756 111.751C93.4556 112.106 93.4595 112.473 93.387 112.83C93.3145 113.186 93.1673 113.523 92.9551 113.818C92.6588 114.07 92.2965 114.231 91.9113 114.284C90.6325 114.468 89.3329 114.453 88.0588 114.239C85.5326 114.04 83.0323 113.592 80.5941 112.901C79.7065 112.626 78.8385 112.293 77.9958 111.901C77.8131 111.823 77.6453 111.714 77.5001 111.578C77.3466 111.398 77.2453 111.18 77.2072 110.947C76.8693 109.399 77.9582 107.941 78.5515 106.49C78.927 105.498 79.0471 104.416 79.385 103.409C79.8266 102.383 80.3969 101.419 81.0822 100.538C81.5854 99.786 81.8332 98.824 82.3739 98.0123C83.726 95.9331 85.2321 93.9584 86.8797 92.105C87.841 90.91 88.9121 89.8079 90.0789 88.8131C91.4087 87.6312 93.1146 86.9601 94.8926 86.9191C95.205 86.9236 95.5164 86.9538 95.8238 87.0093Z" fill="#F79421"/>
<path d="M92.7976 72.6092C91.8625 72.7405 90.976 73.1077 90.2218 73.6764C88.5772 75.0142 88.2017 77.4343 86.6397 78.8698C85.303 80.0798 83.3729 80.3203 81.5781 80.5082C81.8679 81.3416 82.3195 82.1094 82.9071 82.7673C83.4946 83.4253 84.2064 83.9604 85.0015 84.3418C85.7965 84.7232 86.6591 84.9435 87.5396 84.9898C88.4201 85.0362 89.301 84.9077 90.1317 84.6118L88.2918 86.4456C88.2436 86.4836 88.2093 86.5364 88.1942 86.5959C88.1942 86.7162 88.3068 86.7913 88.4195 86.8289C89.2714 87.1438 90.2112 87.1223 91.0479 86.7688C91.0602 87.1592 91.2103 87.5327 91.4715 87.8229C91.7326 88.1132 92.0881 88.3015 92.4747 88.3546C93.0183 88.433 93.5729 88.3656 94.0818 88.1592C94.3659 88.0465 94.67 87.9928 94.9755 88.0014C95.2308 88.0014 95.4636 88.1367 95.7264 88.0465C96.5051 87.5555 97.1298 86.8548 97.5288 86.0248C98.122 84.687 97.2509 83.0185 97.9643 81.6957C98.5576 80.6435 100.42 80.3278 100.698 79.1404C100.998 77.8251 100.285 75.9011 99.5264 74.8639C98.6638 73.6808 97.3923 72.861 95.9592 72.5641C95.1209 72.4158 94.2647 72.398 93.421 72.5115L92.7976 72.6092Z" fill="#FC682D"/>
<path d="M82.5996 150.487C82.439 150.445 82.2704 150.447 82.1108 150.492C81.9512 150.537 81.8063 150.623 81.6909 150.742C81.4356 151.118 81.7735 151.727 81.4581 152.073C81.3635 152.153 81.2532 152.213 81.1341 152.248C81.0151 152.283 80.8901 152.292 80.7672 152.276H79.0174C78.5513 152.302 78.0838 152.264 77.6281 152.163C77.5217 152.128 77.4092 152.115 77.2977 152.125C77.2219 152.149 77.1547 152.195 77.1041 152.256C77.0535 152.317 77.0216 152.392 77.0123 152.471C76.9972 152.63 77.0203 152.789 77.0799 152.937C77.1898 153.255 77.3523 153.552 77.5605 153.816C77.6174 153.894 77.6888 153.961 77.7708 154.012C77.8686 154.051 77.9735 154.069 78.0787 154.064C79.1075 154.064 80.1364 154.064 81.1652 154.019C81.9162 153.967 82.5845 153.861 83.298 153.809C84.3218 153.805 85.3375 153.627 86.3018 153.283C86.4281 153.24 86.5445 153.172 86.6438 153.083C86.7432 152.993 86.8235 152.885 86.8801 152.764C86.9105 152.653 86.9148 152.536 86.8926 152.422C86.8705 152.309 86.8225 152.202 86.7524 152.11C86.6114 151.932 86.4382 151.781 86.2418 151.667C85.6794 151.308 85.0633 151.042 84.4169 150.878C83.8204 150.708 83.2133 150.577 82.5996 150.487Z" fill="#565056"/>
<path d="M128.626 138.8C116.483 138.627 106.69 134.471 106.765 129.503C106.765 128.954 106.352 125.835 106.593 125.339C108.508 121.176 118.083 120.687 128.882 120.83C139.508 120.988 148.407 120.83 150.419 124.941C150.712 125.527 150.757 129.526 150.75 130.119C150.682 135.095 140.777 138.958 128.626 138.8Z" fill="#E8A825"/>
<path d="M150.595 125.994C150.666 121.034 140.877 116.872 128.73 116.698C116.583 116.524 106.679 120.404 106.608 125.364C106.537 130.323 116.326 134.485 128.473 134.659C140.62 134.833 150.524 130.953 150.595 125.994Z" fill="#F8C244"/>
<path d="M147.336 125.947C147.396 121.722 139.057 118.177 128.71 118.028C118.364 117.88 109.927 121.185 109.866 125.41C109.806 129.635 118.145 133.181 128.492 133.329C138.839 133.477 147.275 130.172 147.336 125.947Z" fill="#E8A825"/>
<path d="M116.783 124.783L119.787 124.828C119.846 124.438 119.998 124.067 120.231 123.748C120.464 123.428 120.77 123.17 121.124 122.995L123.114 123.303C122.769 123.459 122.469 123.701 122.242 124.004C122.015 124.308 121.868 124.663 121.815 125.039C121.815 125.903 123.016 126.542 124.698 126.542C125.349 126.589 126.003 126.493 126.614 126.262C127.225 126.031 127.778 125.67 128.235 125.204C128.898 124.515 129.707 123.983 130.603 123.65C131.499 123.317 132.458 123.191 133.41 123.28C135.873 123.28 137.743 124.032 138.178 125.174L141.182 125.219V125.971L138.291 125.926C138.247 126.251 138.128 126.562 137.944 126.835C137.761 127.107 137.517 127.333 137.232 127.496L135.279 127.166C135.556 127.013 135.792 126.797 135.969 126.536C136.147 126.275 136.26 125.976 136.301 125.663C136.301 124.738 134.957 124.355 133.763 124.34C133.12 124.304 132.479 124.416 131.887 124.669C131.296 124.922 130.771 125.308 130.353 125.798C129.091 127.023 127.529 127.632 124.856 127.632C122.498 127.632 120.268 126.88 119.817 125.64L116.73 125.595L116.783 124.783Z" fill="#F8C244"/>
<path d="M125.157 129.939C113.014 129.766 103.221 125.61 103.296 120.642C103.296 120.093 102.883 116.974 103.116 116.478C105.039 112.315 114.613 111.826 125.412 111.969C136.039 112.127 144.938 111.969 146.95 116.08C147.243 116.666 147.288 120.665 147.281 121.258C147.213 126.181 137.308 130.074 125.157 129.939Z" fill="#E8A825"/>
<path d="M147.13 117.095C147.2 112.136 137.411 107.974 125.264 107.8C113.117 107.626 103.213 111.505 103.142 116.465C103.071 121.425 112.861 125.587 125.007 125.761C137.154 125.935 147.059 122.055 147.13 117.095Z" fill="#F8C244"/>
<path d="M143.87 117.049C143.931 112.823 135.592 109.278 125.245 109.13C114.898 108.982 106.461 112.287 106.4 116.512C106.34 120.737 114.679 124.282 125.026 124.43C135.373 124.579 143.81 121.274 143.87 117.049Z" fill="#E8A825"/>
<path d="M113.315 115.885L116.318 115.93C116.377 115.539 116.53 115.168 116.763 114.849C116.995 114.53 117.301 114.271 117.655 114.096L119.645 114.404C119.3 114.561 119 114.802 118.773 115.105C118.546 115.409 118.399 115.765 118.346 116.14C118.346 117.004 119.548 117.643 121.23 117.643C121.885 117.696 122.543 117.606 123.16 117.377C123.776 117.149 124.335 116.788 124.797 116.321C125.458 115.63 126.267 115.098 127.163 114.764C128.06 114.431 129.019 114.305 129.971 114.397C132.434 114.397 134.304 115.148 134.74 116.29L137.744 116.336V117.087L134.852 117.042C134.808 117.368 134.69 117.679 134.506 117.951C134.322 118.223 134.079 118.45 133.794 118.613L131.841 118.282C132.117 118.129 132.353 117.914 132.531 117.652C132.708 117.391 132.822 117.092 132.862 116.779C132.862 115.862 131.518 115.479 130.324 115.464C129.682 115.428 129.04 115.54 128.449 115.793C127.857 116.046 127.332 116.432 126.915 116.922C125.653 118.147 124.091 118.756 121.418 118.756C119.059 118.756 116.829 118.004 116.378 116.764L113.292 116.719L113.315 115.885Z" fill="#F8C244"/>
<path d="M135.393 125.678C123.242 125.497 113.449 121.341 113.524 116.381C113.524 115.832 113.111 112.713 113.351 112.217C115.266 108.053 124.849 107.565 135.648 107.708C146.274 107.865 155.173 107.708 157.178 111.819C157.471 112.405 157.516 116.411 157.509 117.004C157.449 121.965 147.536 125.85 135.393 125.678Z" fill="#E8A825"/>
<path d="M157.362 112.872C157.433 107.912 147.643 103.751 135.497 103.577C123.35 103.403 113.445 107.282 113.375 112.242C113.304 117.202 123.093 121.363 135.24 121.537C147.387 121.711 157.291 117.832 157.362 112.872Z" fill="#F8C244"/>
<path d="M154.103 112.825C154.163 108.6 145.824 105.055 135.477 104.907C125.13 104.759 116.693 108.064 116.633 112.289C116.572 116.514 124.911 120.059 135.258 120.207C145.605 120.355 154.042 117.051 154.103 112.825Z" fill="#E8A825"/>
<path d="M123.542 111.653L126.546 111.698C126.604 111.307 126.757 110.937 126.989 110.617C127.222 110.298 127.529 110.04 127.883 109.865L129.873 110.18C129.529 110.339 129.23 110.581 129.002 110.884C128.774 111.187 128.624 111.542 128.566 111.916C128.566 112.773 129.768 113.382 131.457 113.419C132.112 113.473 132.771 113.382 133.387 113.153C134.003 112.925 134.562 112.564 135.024 112.097C135.685 111.407 136.493 110.876 137.388 110.543C138.282 110.21 139.241 110.083 140.191 110.173C142.662 110.173 144.532 110.924 144.96 112.074L147.964 112.119V112.871L145.08 112.826C145.033 113.151 144.912 113.462 144.727 113.734C144.543 114.006 144.299 114.233 144.014 114.397L142.061 114.066C142.337 113.912 142.573 113.696 142.752 113.435C142.931 113.175 143.046 112.876 143.09 112.563C143.09 111.646 141.738 111.262 140.552 111.24C139.91 111.205 139.268 111.319 138.677 111.572C138.086 111.825 137.561 112.21 137.142 112.698C135.873 113.931 134.318 114.539 131.638 114.539C129.279 114.539 127.057 113.788 126.606 112.548L123.52 112.503L123.542 111.653Z" fill="#F8C244"/>
<path d="M120.547 82.6352C120.194 82.3872 122.049 69.9862 122.049 69.9862L128.349 70.6025L126.735 83.0636L120.547 82.6352Z" fill="#F79421"/>
<path d="M133.139 83.8602C132.786 83.6047 135.933 65.071 135.933 65.071L142.233 65.6873L139.349 84.3262L133.139 83.8602Z" fill="#F79421"/>
<path d="M145.734 85.0778C145.388 84.8297 150.412 51.7832 150.412 51.7832L156.713 52.3995L151.944 85.5062L145.734 85.0778Z" fill="#F79421"/>
<path d="M158.328 86.3028C157.983 86.0548 161.933 61.1929 161.933 61.1929L168.233 61.8092L164.539 86.7312L158.328 86.3028Z" fill="#F79421"/>
<path d="M164.657 90.1509L115.318 86.5659L115.363 86.2652C115.874 82.327 120.38 47.7773 120.62 47.1385L121.161 47.3113C120.973 48.0629 117.721 72.7821 115.994 86.0398L164.717 89.5721L164.657 90.1509Z" fill="#F79421"/>
<path opacity="0.39" d="M185.535 101.379L186.691 95.2991C183.497 95.3712 180.356 94.4752 177.68 92.7288L179.933 88.6928C182.407 90.3802 185.342 91.2597 188.336 91.2106C192.782 91.2106 196.214 88.7079 196.867 85.2807C197.52 81.8535 195.47 79.9445 191.227 78.1558C185.34 75.7959 181.96 73.0526 182.967 67.8367C183.92 62.8463 188.306 59.0359 194.231 58.0663L195.388 52.0012H199.24L198.076 57.8333C200.773 57.8091 203.426 58.5183 205.751 59.8851L203.461 63.9286C201.233 62.5381 198.642 61.8422 196.018 61.9294C191.235 61.9294 188.914 64.7403 188.456 67.1378C187.855 70.2643 189.86 71.8126 194.839 73.9395C200.765 76.4197 203.393 79.5161 202.349 84.8673C201.448 89.6173 197.167 94.0966 190.589 95.1638L189.44 101.379H185.535Z" fill="#F79421"/>
</g>
<defs>
<linearGradient id="paint0_linear" x1="134.815" y1="178.618" x2="137.039" y2="180.277" gradientUnits="userSpaceOnUse">
<stop offset="0.01"/>
<stop offset="0.08" stop-opacity="0.69"/>
<stop offset="0.21" stop-opacity="0.32"/>
<stop offset="1" stop-opacity="0"/>
</linearGradient>
<linearGradient id="paint1_linear" x1="-16364" y1="525.404" x2="23723.4" y2="91210.3" gradientUnits="userSpaceOnUse">
<stop offset="0.01"/>
<stop offset="0.08" stop-opacity="0.69"/>
<stop offset="0.21" stop-opacity="0.32"/>
<stop offset="1" stop-opacity="0"/>
</linearGradient>
<linearGradient id="paint2_linear" x1="30274.4" y1="11389.8" x2="32438.1" y2="29271.7" gradientUnits="userSpaceOnUse">
<stop offset="0.01"/>
<stop offset="0.08" stop-opacity="0.69"/>
<stop offset="0.21" stop-opacity="0.32"/>
<stop offset="1" stop-opacity="0"/>
</linearGradient>
<linearGradient id="paint3_linear" x1="25199.7" y1="3244.23" x2="24639.4" y2="15930" gradientUnits="userSpaceOnUse">
<stop offset="0.01"/>
<stop offset="0.08" stop-opacity="0.69"/>
<stop offset="0.21" stop-opacity="0.32"/>
<stop offset="1" stop-opacity="0"/>
</linearGradient>
<linearGradient id="paint4_linear" x1="9332.32" y1="4308.31" x2="14750.5" y2="9146.67" gradientUnits="userSpaceOnUse">
<stop offset="0.01"/>
<stop offset="0.08" stop-opacity="0.69"/>
<stop offset="0.21" stop-opacity="0.32"/>
<stop offset="1" stop-opacity="0"/>
</linearGradient>
<linearGradient id="paint5_linear" x1="9216.24" y1="3285.68" x2="8841.78" y2="9594.55" gradientUnits="userSpaceOnUse">
<stop offset="0.01"/>
<stop offset="0.08" stop-opacity="0.69"/>
<stop offset="0.21" stop-opacity="0.32"/>
<stop offset="1" stop-opacity="0"/>
</linearGradient>
<linearGradient id="paint6_linear" x1="4223.57" y1="2200.93" x2="4167.43" y2="2685.5" gradientUnits="userSpaceOnUse">
<stop offset="0.01"/>
<stop offset="0.08" stop-opacity="0.69"/>
<stop offset="0.21" stop-opacity="0.32"/>
<stop offset="1" stop-opacity="0"/>
</linearGradient>
<linearGradient id="paint7_linear" x1="29974.1" y1="4172.88" x2="36282.8" y2="76376.7" gradientUnits="userSpaceOnUse">
<stop offset="0.01"/>
<stop offset="0.08" stop-opacity="0.69"/>
<stop offset="0.21" stop-opacity="0.32"/>
<stop offset="1" stop-opacity="0"/>
</linearGradient>
<clipPath id="clip0">
<rect width="255" height="201" fill="white"/>
</clipPath>
</defs>
</svg>
