<svg width="56" height="56" viewBox="0 0 56 56" fill="none" xmlns="http://www.w3.org/2000/svg">
<rect width="56" height="56" rx="10" fill="white"/>
<rect width="56" height="56" rx="10" fill="#9698D6" fill-opacity="0.1"/>
<path d="M20.4375 19.2305C22.5286 17.1393 25.0495 16.0938 28 16.0938C30.9505 16.0938 33.457 17.1393 35.5195 19.2305C37.6107 21.293 38.6562 23.7995 38.6562 26.75C38.6562 29.7005 37.6107 32.2214 35.5195 34.3125C33.457 36.375 30.9505 37.4062 28 37.4062C25.0495 37.4062 22.5286 36.375 20.4375 34.3125C18.375 32.2214 17.3438 29.7005 17.3438 26.75C17.3438 23.7995 18.375 21.293 20.4375 19.2305ZM21.8984 32.8516C23.5885 34.513 25.6224 35.3438 28 35.3438C30.3776 35.3438 32.3971 34.513 34.0586 32.8516C35.7487 31.1615 36.5938 29.1276 36.5938 26.75C36.5938 24.3724 35.7487 22.3529 34.0586 20.6914C32.3971 19.0013 30.3776 18.1562 28 18.1562C25.6224 18.1562 23.5885 19.0013 21.8984 20.6914C20.237 22.3529 19.4062 24.3724 19.4062 26.75C19.4062 29.1276 20.237 31.1615 21.8984 32.8516ZM32.5977 24.3867C32.5977 25.0456 32.4401 25.6042 32.125 26.0625C31.8099 26.5208 31.4518 26.8503 31.0508 27.0508C30.6497 27.2513 30.2917 27.4661 29.9766 27.6953C29.6615 27.9245 29.5039 28.1536 29.5039 28.3828V28.6406C29.5039 28.7839 29.4466 28.9128 29.332 29.0273C29.2461 29.1133 29.1315 29.1562 28.9883 29.1562H27.0117C26.8685 29.1562 26.7396 29.1133 26.625 29.0273C26.5391 28.9128 26.4961 28.7839 26.4961 28.6406V28.2539C26.4961 27.9102 26.5534 27.5951 26.668 27.3086C26.7826 27.0221 26.9688 26.7643 27.2266 26.5352C27.4844 26.306 27.6849 26.1484 27.8281 26.0625C27.9714 25.9479 28.2148 25.8047 28.5586 25.6328C28.7878 25.4896 28.9596 25.3893 29.0742 25.332C29.1888 25.2461 29.3034 25.1602 29.418 25.0742C29.5612 24.9596 29.6471 24.8451 29.6758 24.7305C29.7331 24.6159 29.7617 24.487 29.7617 24.3438C29.7617 24 29.5755 23.7135 29.2031 23.4844C28.8594 23.2552 28.4727 23.1406 28.043 23.1406C27.7279 23.1406 27.4414 23.1979 27.1836 23.3125C26.9544 23.3984 26.7539 23.5273 26.582 23.6992C26.4102 23.8711 26.1953 24.1146 25.9375 24.4297C25.737 24.6875 25.5078 24.7161 25.25 24.5156L24.0469 23.6133C23.7891 23.4128 23.7461 23.1693 23.918 22.8828C24.9779 21.3359 26.4245 20.5625 28.2578 20.5625C29.3464 20.5625 30.3346 20.9349 31.2227 21.6797C32.1393 22.4245 32.5977 23.3268 32.5977 24.3867ZM29.2461 30.3164C29.6185 30.6602 29.8047 31.0755 29.8047 31.5625C29.8047 32.0495 29.6185 32.4792 29.2461 32.8516C28.9023 33.1953 28.487 33.3672 28 33.3672C27.513 33.3672 27.0833 33.1953 26.7109 32.8516C26.3672 32.4792 26.1953 32.0495 26.1953 31.5625C26.1953 31.0755 26.3672 30.6602 26.7109 30.3164C27.0833 29.944 27.513 29.7578 28 29.7578C28.487 29.7578 28.9023 29.944 29.2461 30.3164Z" fill="#5E81F4"/>
</svg>
