<svg width="19" height="16" viewBox="0 0 19 16" fill="none" xmlns="http://www.w3.org/2000/svg">
<path d="M18.1997 7.9375C18.3039 8.3125 18.1789 8.60417 17.8247 8.8125C17.4914 9.02083 17.1684 8.98958 16.8559 8.71875H16.8247C15.4289 7.40625 14.1268 7.6875 12.9184 9.5625C12.7309 9.85417 12.4809 10 12.1684 10C11.8768 9.97917 11.6476 9.83333 11.4809 9.5625C11.4809 9.5625 11.4497 9.51042 11.3872 9.40625C11.3247 9.30208 11.283 9.23958 11.2622 9.21875C11.2414 9.19792 11.1997 9.14583 11.1372 9.0625C11.0747 8.95833 11.0226 8.88542 10.9809 8.84375C10.9601 8.80208 10.908 8.75 10.8247 8.6875C10.7622 8.60417 10.6997 8.54167 10.6372 8.5C10.5955 8.45833 10.533 8.40625 10.4497 8.34375C10.3872 8.28125 10.3143 8.22917 10.2309 8.1875C10.1476 8.14583 10.0643 8.10417 9.98094 8.0625V13.75C9.98094 14.375 9.76219 14.9062 9.32469 15.3438C8.88719 15.7812 8.35594 16 7.73094 16C7.25177 16 6.81427 15.8646 6.41844 15.5938C6.04344 15.3229 5.77261 14.9583 5.60594 14.5C5.54344 14.3125 5.55386 14.125 5.63719 13.9375C5.72052 13.75 5.85594 13.625 6.04344 13.5625C6.25177 13.4792 6.44969 13.4896 6.63719 13.5938C6.82469 13.6771 6.94969 13.8125 7.01219 14C7.13719 14.3333 7.37677 14.5 7.73094 14.5C7.93927 14.5 8.11636 14.4271 8.26219 14.2812C8.40802 14.1354 8.48094 13.9583 8.48094 13.75V8.0625C8.00177 8.25 7.50177 8.75 6.98094 9.5625C6.81427 9.83333 6.57469 9.97917 6.26219 10C5.97052 10 5.73094 9.85417 5.54344 9.5625C4.33511 7.6875 3.03302 7.40625 1.63719 8.71875H1.60594C1.29344 8.98958 0.960107 9.02083 0.60594 8.8125C0.272607 8.60417 0.158023 8.3125 0.26219 7.9375C0.69969 6.08333 1.67886 4.59375 3.19969 3.46875C4.74136 2.32292 6.50177 1.67708 8.48094 1.53125V0.75C8.48094 0.541667 8.55386 0.364583 8.69969 0.21875C8.84552 0.0729167 9.02261 0 9.23094 0C9.43927 0 9.61636 0.0729167 9.76219 0.21875C9.90802 0.364583 9.98094 0.541667 9.98094 0.75V1.53125C11.9601 1.67708 13.7101 2.32292 15.2309 3.46875C16.7726 4.59375 17.7622 6.08333 18.1997 7.9375ZM12.2309 7.96875C13.3768 6.61458 14.6476 6.13542 16.0434 6.53125C15.3768 5.40625 14.4184 4.54167 13.1684 3.9375C11.9393 3.3125 10.6268 3 9.23094 3C7.83511 3 6.52261 3.3125 5.29344 3.9375C4.06427 4.54167 3.11636 5.39583 2.44969 6.5C3.09552 6.33333 3.76219 6.375 4.44969 6.625C5.13719 6.85417 5.74136 7.30208 6.26219 7.96875C7.09552 6.92708 8.08511 6.40625 9.23094 6.40625C10.3976 6.40625 11.3976 6.92708 12.2309 7.96875Z" fill="#8181A5"/>
</svg>
