<svg width="27" height="24" viewBox="0 0 27 24" fill="none" xmlns="http://www.w3.org/2000/svg">
<path d="M23.9629 5.75C24.64 5.75 25.2155 5.98698 25.6895 6.46094C26.1634 6.9349 26.4004 7.51042 26.4004 8.1875V21.1875C26.4004 21.8646 26.1634 22.4401 25.6895 22.9141C25.2155 23.388 24.64 23.625 23.9629 23.625H2.83789C2.16081 23.625 1.58529 23.388 1.11133 22.9141C0.63737 22.4401 0.400391 21.8646 0.400391 21.1875V8.1875C0.400391 7.51042 0.63737 6.9349 1.11133 6.46094C1.58529 5.98698 2.16081 5.75 2.83789 5.75H8.52539V2.09375C8.52539 1.75521 8.64388 1.46745 8.88086 1.23047C9.11784 0.99349 9.4056 0.875 9.74414 0.875H17.0566C17.3952 0.875 17.6829 0.99349 17.9199 1.23047C18.1569 1.46745 18.2754 1.75521 18.2754 2.09375V5.75H23.9629ZM10.1504 2.5V5.75H16.6504V2.5H10.1504ZM24.7754 21.1875V13.875H16.6504V15.9062C16.6504 16.2448 16.5319 16.5326 16.2949 16.7695C16.0579 17.0065 15.7702 17.125 15.4316 17.125H11.3691C11.0306 17.125 10.7428 17.0065 10.5059 16.7695C10.2689 16.5326 10.1504 16.2448 10.1504 15.9062V13.875H2.02539V21.1875C2.02539 21.4245 2.0931 21.6276 2.22852 21.7969C2.39779 21.9323 2.60091 22 2.83789 22H23.9629C24.1999 22 24.3861 21.9323 24.5215 21.7969C24.6908 21.6276 24.7754 21.4245 24.7754 21.1875ZM11.7754 15.5H15.0254V13.875H11.7754V15.5ZM24.7754 12.25V8.1875C24.7754 7.95052 24.6908 7.76432 24.5215 7.62891C24.3861 7.45964 24.1999 7.375 23.9629 7.375H2.83789C2.60091 7.375 2.39779 7.45964 2.22852 7.62891C2.0931 7.76432 2.02539 7.95052 2.02539 8.1875V12.25H24.7754Z" fill="#FFA200"/>
</svg>
