<svg width="16" height="12" viewBox="0 0 16 12" fill="none" xmlns="http://www.w3.org/2000/svg">
<path d="M12.4062 9C12.3021 9 12.2083 8.95833 12.125 8.875C12.0417 8.79167 12 8.69792 12 8.59375V1.40625C12 1.30208 12.0417 1.20833 12.125 1.125C12.2083 1.04167 12.3021 1 12.4062 1H13.0938C13.1979 1 13.2917 1.04167 13.375 1.125C13.4583 1.20833 13.5 1.30208 13.5 1.40625V8.59375C13.5 8.69792 13.4583 8.79167 13.375 8.875C13.2917 8.95833 13.1979 9 13.0938 9H12.4062ZM6.40625 9C6.30208 9 6.20833 8.95833 6.125 8.875C6.04167 8.79167 6 8.69792 6 8.59375V2.40625C6 2.30208 6.04167 2.20833 6.125 2.125C6.20833 2.04167 6.30208 2 6.40625 2H7.09375C7.19792 2 7.29167 2.04167 7.375 2.125C7.45833 2.20833 7.5 2.30208 7.5 2.40625V8.59375C7.5 8.69792 7.45833 8.79167 7.375 8.875C7.29167 8.95833 7.19792 9 7.09375 9H6.40625ZM9.40625 9C9.30208 9 9.20833 8.95833 9.125 8.875C9.04167 8.79167 9 8.69792 9 8.59375V4.40625C9 4.30208 9.04167 4.20833 9.125 4.125C9.20833 4.04167 9.30208 4 9.40625 4H10.0938C10.1979 4 10.2917 4.04167 10.375 4.125C10.4583 4.20833 10.5 4.30208 10.5 4.40625V8.59375C10.5 8.69792 10.4583 8.79167 10.375 8.875C10.2917 8.95833 10.1979 9 10.0938 9H9.40625ZM15.5 10.5C15.6458 10.5 15.7604 10.5521 15.8438 10.6562C15.9479 10.7396 16 10.8542 16 11V11.5C16 11.6458 15.9479 11.7708 15.8438 11.875C15.7604 11.9583 15.6458 12 15.5 12H1C0.729167 12 0.489583 11.9062 0.28125 11.7188C0.09375 11.5104 0 11.2708 0 11V0.5C0 0.354167 0.0416667 0.239583 0.125 0.15625C0.229167 0.0520833 0.354167 0 0.5 0H1C1.14583 0 1.26042 0.0520833 1.34375 0.15625C1.44792 0.239583 1.5 0.354167 1.5 0.5V10.5H15.5ZM3.40625 9C3.30208 9 3.20833 8.95833 3.125 8.875C3.04167 8.79167 3 8.69792 3 8.59375V6.40625C3 6.30208 3.04167 6.20833 3.125 6.125C3.20833 6.04167 3.30208 6 3.40625 6H4.09375C4.19792 6 4.29167 6.04167 4.375 6.125C4.45833 6.20833 4.5 6.30208 4.5 6.40625V8.59375C4.5 8.69792 4.45833 8.79167 4.375 8.875C4.29167 8.95833 4.19792 9 4.09375 9H3.40625Z" fill="#8181A5"/>
</svg>
