<svg width="15" height="15" viewBox="0 0 15 15" fill="none" xmlns="http://www.w3.org/2000/svg">
<path d="M13.8906 13.5742C14.0547 13.7201 14.0547 13.875 13.8906 14.0391L13.2891 14.6406C13.125 14.8047 12.9701 14.8047 12.8242 14.6406L9.51562 11.332C9.44271 11.2591 9.40625 11.1862 9.40625 11.1133V10.7305C8.33073 11.6602 7.09115 12.125 5.6875 12.125C4.11979 12.125 2.77995 11.569 1.66797 10.457C0.55599 9.34505 0 8.00521 0 6.4375C0 4.86979 0.55599 3.52995 1.66797 2.41797C2.77995 1.30599 4.11979 0.75 5.6875 0.75C7.25521 0.75 8.59505 1.30599 9.70703 2.41797C10.819 3.52995 11.375 4.86979 11.375 6.4375C11.375 7.84115 10.9102 9.08073 9.98047 10.1562H10.3633C10.4544 10.1562 10.5273 10.1927 10.582 10.2656L13.8906 13.5742ZM2.59766 9.52734C3.45443 10.3841 4.48438 10.8125 5.6875 10.8125C6.89062 10.8125 7.92057 10.3841 8.77734 9.52734C9.63411 8.67057 10.0625 7.64062 10.0625 6.4375C10.0625 5.23438 9.63411 4.20443 8.77734 3.34766C7.92057 2.49089 6.89062 2.0625 5.6875 2.0625C4.48438 2.0625 3.45443 2.49089 2.59766 3.34766C1.74089 4.20443 1.3125 5.23438 1.3125 6.4375C1.3125 7.64062 1.74089 8.67057 2.59766 9.52734Z" fill="#8181A5"/>
</svg>
