<svg width="17" height="19" viewBox="0 0 17 19" fill="none" xmlns="http://www.w3.org/2000/svg">
<path d="M9.6737 14.875C9.39245 14.875 9.25183 14.7344 9.25183 14.4531V6.85938C9.25183 6.57812 9.39245 6.4375 9.6737 6.4375H10.5175C10.7987 6.4375 10.9393 6.57812 10.9393 6.85938V14.4531C10.9393 14.7344 10.7987 14.875 10.5175 14.875H9.6737ZM15.4393 3.0625C15.6034 3.0625 15.7323 3.12109 15.826 3.23828C15.9432 3.33203 16.0018 3.46094 16.0018 3.625V4.1875C16.0018 4.35156 15.9432 4.49219 15.826 4.60938C15.7323 4.70313 15.6034 4.75 15.4393 4.75H14.8768V16.5625C14.8768 17.0312 14.7128 17.4297 14.3846 17.7578C14.0565 18.0859 13.6581 18.25 13.1893 18.25H3.06433C2.59558 18.25 2.19714 18.0859 1.86902 17.7578C1.54089 17.4297 1.37683 17.0312 1.37683 16.5625V4.75H0.814329C0.650267 4.75 0.509642 4.70313 0.392454 4.60938C0.298704 4.49219 0.251829 4.35156 0.251829 4.1875V3.625C0.251829 3.46094 0.298704 3.33203 0.392454 3.23828C0.509642 3.12109 0.650267 3.0625 0.814329 3.0625H3.69714L4.89245 1.05859C5.03308 0.847656 5.24402 0.660156 5.52527 0.496094C5.80652 0.332031 6.08777 0.25 6.36902 0.25H9.88464C10.0721 0.25 10.2596 0.285156 10.4471 0.355469C10.6346 0.425781 10.8104 0.53125 10.9745 0.671875C11.1385 0.789062 11.2675 0.917969 11.3612 1.05859L12.5565 3.0625H15.4393ZM6.2987 2.04297L5.66589 3.0625H10.5878L9.95495 2.04297C9.90808 1.97266 9.84949 1.9375 9.77917 1.9375H6.47449C6.40417 1.9375 6.34558 1.97266 6.2987 2.04297ZM13.1893 16.5625V4.75H3.06433V16.5625H13.1893ZM5.7362 14.875C5.45495 14.875 5.31433 14.7344 5.31433 14.4531V6.85938C5.31433 6.57812 5.45495 6.4375 5.7362 6.4375H6.57995C6.8612 6.4375 7.00183 6.57812 7.00183 6.85938V14.4531C7.00183 14.7344 6.8612 14.875 6.57995 14.875H5.7362Z" fill="#FF808B"/>
</svg>
