<svg width="16" height="16" viewBox="0 0 16 16" fill="none" xmlns="http://www.w3.org/2000/svg">
<path d="M14.1562 7.40625C14.1771 7.80208 14.1771 8.19792 14.1562 8.59375L15.125 9.15625C15.4583 9.36458 15.5833 9.64583 15.5 10C15.125 11.3333 14.4479 12.4896 13.4688 13.4688C13.1979 13.7396 12.8958 13.7812 12.5625 13.5938L11.5938 13.0312C11.2604 13.2604 10.9167 13.4583 10.5625 13.625V14.75C10.5625 15.1458 10.375 15.3958 10 15.5C8.66667 15.8542 7.33333 15.8542 6 15.5C5.85417 15.4583 5.71875 15.3646 5.59375 15.2188C5.48958 15.0729 5.4375 14.9167 5.4375 14.75V13.625C5.08333 13.4583 4.73958 13.2604 4.40625 13.0312L3.4375 13.5938C3.10417 13.7812 2.80208 13.7396 2.53125 13.4688C1.55208 12.4896 0.875 11.3333 0.5 10C0.416667 9.64583 0.541667 9.36458 0.875 9.15625L1.84375 8.59375C1.84375 8.40625 1.84375 8.20833 1.84375 8C1.84375 7.79167 1.84375 7.59375 1.84375 7.40625L0.875 6.84375C0.541667 6.63542 0.416667 6.35417 0.5 6C0.875 4.66667 1.55208 3.51042 2.53125 2.53125C2.80208 2.26042 3.10417 2.21875 3.4375 2.40625L4.40625 2.96875C4.73958 2.73958 5.08333 2.54167 5.4375 2.375V1.25C5.4375 0.854167 5.625 0.604167 6 0.5C7.33333 0.145833 8.66667 0.145833 10 0.5C10.1458 0.541667 10.2708 0.635417 10.375 0.78125C10.5 0.927083 10.5625 1.08333 10.5625 1.25V2.375C10.9167 2.54167 11.2604 2.73958 11.5938 2.96875L12.5625 2.40625C12.8958 2.21875 13.1979 2.26042 13.4688 2.53125C14.4479 3.51042 15.125 4.66667 15.5 6C15.5833 6.35417 15.4583 6.63542 15.125 6.84375L14.1562 7.40625ZM12.5 9.375C12.625 8.72917 12.6875 8.27083 12.6875 8C12.6875 7.72917 12.625 7.27083 12.5 6.625L13.875 5.84375C13.625 5.17708 13.2708 4.5625 12.8125 4L11.4375 4.78125C11.0833 4.48958 10.8125 4.28125 10.625 4.15625C10.4375 4.01042 10.2396 3.89583 10.0312 3.8125C9.82292 3.70833 9.5 3.57292 9.0625 3.40625V1.84375C8.70833 1.78125 8.35417 1.75 8 1.75C7.64583 1.75 7.29167 1.78125 6.9375 1.84375V3.40625C6.33333 3.63542 5.90625 3.82292 5.65625 3.96875C5.42708 4.09375 5.0625 4.36458 4.5625 4.78125L3.1875 4C2.72917 4.5625 2.375 5.17708 2.125 5.84375L3.5 6.625C3.375 7.27083 3.3125 7.72917 3.3125 8C3.3125 8.27083 3.375 8.72917 3.5 9.375L2.125 10.1562C2.375 10.8229 2.72917 11.4375 3.1875 12L4.5625 11.2188C5.0625 11.6354 5.42708 11.9167 5.65625 12.0625C5.90625 12.1875 6.33333 12.3646 6.9375 12.5938V14.1562C7.29167 14.2188 7.64583 14.25 8 14.25C8.35417 14.25 8.70833 14.2188 9.0625 14.1562V12.5938C9.5 12.4271 9.82292 12.3021 10.0312 12.2188C10.2396 12.1146 10.4375 12 10.625 11.875C10.8125 11.7292 11.0833 11.5104 11.4375 11.2188L12.8125 12C13.2708 11.4375 13.625 10.8229 13.875 10.1562L12.5 9.375ZM5.875 5.875C6.45833 5.29167 7.16667 5 8 5C8.83333 5 9.54167 5.29167 10.125 5.875C10.7083 6.45833 11 7.16667 11 8C11 8.83333 10.7083 9.54167 10.125 10.125C9.54167 10.7083 8.83333 11 8 11C7.16667 11 6.45833 10.7083 5.875 10.125C5.29167 9.54167 5 8.83333 5 8C5 7.16667 5.29167 6.45833 5.875 5.875ZM6.9375 9.0625C7.22917 9.35417 7.58333 9.5 8 9.5C8.41667 9.5 8.77083 9.35417 9.0625 9.0625C9.35417 8.77083 9.5 8.41667 9.5 8C9.5 7.58333 9.35417 7.22917 9.0625 6.9375C8.77083 6.64583 8.41667 6.5 8 6.5C7.58333 6.5 7.22917 6.64583 6.9375 6.9375C6.64583 7.22917 6.5 7.58333 6.5 8C6.5 8.41667 6.64583 8.77083 6.9375 9.0625Z" fill="#8181A5"/>
</svg>
