<svg width="16" height="16" viewBox="0 0 16 16" fill="none" xmlns="http://www.w3.org/2000/svg">
<path d="M12 7.5V8.5C12 8.75 11.875 8.875 11.625 8.875H8.875V11.625C8.875 11.875 8.75 12 8.5 12H7.5C7.25 12 7.125 11.875 7.125 11.625V8.875H4.375C4.125 8.875 4 8.75 4 8.5V7.5C4 7.25 4.125 7.125 4.375 7.125H7.125V4.375C7.125 4.125 7.25 4 7.5 4H8.5C8.75 4 8.875 4.125 8.875 4.375V7.125H11.625C11.875 7.125 12 7.25 12 7.5ZM13.4688 2.53125C14.9896 4.03125 15.75 5.85417 15.75 8C15.75 10.1458 14.9896 11.9792 13.4688 13.5C11.9688 15 10.1458 15.75 8 15.75C5.85417 15.75 4.02083 15 2.5 13.5C1 11.9792 0.25 10.1458 0.25 8C0.25 5.85417 1 4.03125 2.5 2.53125C4.02083 1.01042 5.85417 0.25 8 0.25C10.1458 0.25 11.9688 1.01042 13.4688 2.53125ZM12.4062 12.4375C13.6354 11.2083 14.25 9.72917 14.25 8C14.25 6.27083 13.6354 4.80208 12.4062 3.59375C11.1979 2.36458 9.72917 1.75 8 1.75C6.27083 1.75 4.79167 2.36458 3.5625 3.59375C2.35417 4.80208 1.75 6.27083 1.75 8C1.75 9.72917 2.35417 11.2083 3.5625 12.4375C4.79167 13.6458 6.27083 14.25 8 14.25C9.72917 14.25 11.1979 13.6458 12.4062 12.4375Z" fill="#8181A5"/>
</svg>
