<svg width="56" height="56" viewBox="0 0 56 56" fill="none" xmlns="http://www.w3.org/2000/svg">
<rect width="56" height="56" rx="10" fill="white"/>
<rect width="56" height="56" rx="10" fill="#F4BE5E" fill-opacity="0.1"/>
<path d="M40.0312 24.3867C39.3724 25.0456 38.5703 25.375 37.625 25.375C36.6797 25.375 35.8633 25.0456 35.1758 24.3867C34.5169 23.6992 34.1875 22.8828 34.1875 21.9375C34.1875 20.9922 34.5169 20.1901 35.1758 19.5312C35.8633 18.8438 36.6797 18.5 37.625 18.5C38.5703 18.5 39.3724 18.8438 40.0312 19.5312C40.7188 20.1901 41.0625 20.9922 41.0625 21.9375C41.0625 22.8828 40.7188 23.6992 40.0312 24.3867ZM38.5703 20.9922C38.3125 20.7057 37.9974 20.5625 37.625 20.5625C37.2526 20.5625 36.9232 20.7057 36.6367 20.9922C36.3789 21.25 36.25 21.5651 36.25 21.9375C36.25 22.3099 36.3789 22.6393 36.6367 22.9258C36.9232 23.1836 37.2526 23.3125 37.625 23.3125C37.9974 23.3125 38.3125 23.1836 38.5703 22.9258C38.8568 22.6393 39 22.3099 39 21.9375C39 21.5651 38.8568 21.25 38.5703 20.9922ZM20.7812 24.3867C20.1224 25.0456 19.3203 25.375 18.375 25.375C17.4297 25.375 16.6133 25.0456 15.9258 24.3867C15.2669 23.6992 14.9375 22.8828 14.9375 21.9375C14.9375 20.9922 15.2669 20.1901 15.9258 19.5312C16.6133 18.8438 17.4297 18.5 18.375 18.5C19.3203 18.5 20.1224 18.8438 20.7812 19.5312C21.4688 20.1901 21.8125 20.9922 21.8125 21.9375C21.8125 22.8828 21.4688 23.6992 20.7812 24.3867ZM19.3203 20.9922C19.0625 20.7057 18.7474 20.5625 18.375 20.5625C18.0026 20.5625 17.6732 20.7057 17.3867 20.9922C17.1289 21.25 17 21.5651 17 21.9375C17 22.3099 17.1289 22.6393 17.3867 22.9258C17.6732 23.1836 18.0026 23.3125 18.375 23.3125C18.7474 23.3125 19.0625 23.1836 19.3203 22.9258C19.6068 22.6393 19.75 22.3099 19.75 21.9375C19.75 21.5651 19.6068 21.25 19.3203 20.9922ZM35.3906 29.6289C35.9635 30.4596 36.25 31.3763 36.25 32.3789V34.3125C36.25 34.8854 36.0495 35.3724 35.6484 35.7734C35.2474 36.1745 34.7604 36.375 34.1875 36.375H21.8125C21.2396 36.375 20.7526 36.1745 20.3516 35.7734C19.9505 35.3724 19.75 34.8854 19.75 34.3125V32.3789C19.75 31.3763 20.0221 30.4596 20.5664 29.6289C21.168 28.7695 21.9701 28.1823 22.9727 27.8672C24.0039 27.5234 25.0352 27.5091 26.0664 27.8242C26.6966 28.0247 27.3268 28.125 27.957 28.125C28.6159 28.125 29.2747 28.0247 29.9336 27.8242C30.9648 27.5091 31.9818 27.5234 32.9844 27.8672C34.0156 28.1823 34.8177 28.7695 35.3906 29.6289ZM34.1875 34.3125V32.3789C34.1875 31.6055 33.9154 30.9466 33.3711 30.4023C32.8268 29.8294 32.168 29.5286 31.3945 29.5C30.2773 29.9583 29.1458 30.1875 28 30.1875C26.8542 30.1875 25.7227 29.9583 24.6055 29.5C23.832 29.5286 23.1732 29.8294 22.6289 30.4023C22.0846 30.9466 21.8125 31.6055 21.8125 32.3789V34.3125H34.1875ZM38.1406 26.75C38.6276 26.75 39.0859 26.8503 39.5156 27.0508C39.974 27.2227 40.3607 27.4805 40.6758 27.8242C41.0195 28.1393 41.2773 28.526 41.4492 28.9844C41.6497 29.4141 41.75 29.8724 41.75 30.3594C41.75 30.6458 41.6497 30.8893 41.4492 31.0898C41.2487 31.2904 41.0052 31.3906 40.7188 31.3906C40.4323 31.3906 40.1888 31.2904 39.9883 31.0898C39.7878 30.8893 39.6875 30.6458 39.6875 30.3594C39.6875 29.9297 39.5299 29.5716 39.2148 29.2852C38.9284 28.9701 38.5703 28.8125 38.1406 28.8125H37.1094C36.9661 28.8125 36.7943 28.8411 36.5938 28.8984C36.1927 28.3255 35.6914 27.8099 35.0898 27.3516C35.6914 26.9505 36.3646 26.75 37.1094 26.75H38.1406ZM31.3945 25.332C30.4492 26.2773 29.3177 26.75 28 26.75C26.6823 26.75 25.5508 26.2773 24.6055 25.332C23.6602 24.3867 23.1875 23.2552 23.1875 21.9375C23.1875 20.6198 23.6602 19.4883 24.6055 18.543C25.5508 17.5977 26.6823 17.125 28 17.125C29.3177 17.125 30.4492 17.5977 31.3945 18.543C32.3398 19.4883 32.8125 20.6198 32.8125 21.9375C32.8125 23.2552 32.3398 24.3867 31.3945 25.332ZM29.9336 20.0039C29.3893 19.4596 28.7448 19.1875 28 19.1875C27.2552 19.1875 26.6107 19.4596 26.0664 20.0039C25.5221 20.5482 25.25 21.1927 25.25 21.9375C25.25 22.6823 25.5221 23.3268 26.0664 23.8711C26.6107 24.4154 27.2552 24.6875 28 24.6875C28.7448 24.6875 29.3893 24.4154 29.9336 23.8711C30.4779 23.3268 30.75 22.6823 30.75 21.9375C30.75 21.1927 30.4779 20.5482 29.9336 20.0039ZM20.9102 27.3516C20.3086 27.8099 19.8073 28.3255 19.4062 28.8984C19.2344 28.8411 19.0625 28.8125 18.8906 28.8125H17.8594C17.4297 28.8125 17.0573 28.9701 16.7422 29.2852C16.4557 29.5716 16.3125 29.9297 16.3125 30.3594C16.3125 30.6458 16.2122 30.8893 16.0117 31.0898C15.8112 31.2904 15.5677 31.3906 15.2812 31.3906C14.9948 31.3906 14.7513 31.2904 14.5508 31.0898C14.3503 30.8893 14.25 30.6458 14.25 30.3594C14.25 29.3568 14.5938 28.5117 15.2812 27.8242C15.9974 27.1081 16.8568 26.75 17.8594 26.75H18.8906C19.6354 26.75 20.3086 26.9505 20.9102 27.3516Z" fill="#5E81F4"/>
</svg>
