<svg width="12" height="12" viewBox="0 0 12 12" fill="none" xmlns="http://www.w3.org/2000/svg">
<path d="M1.68404 0.5L1.57466 0.828125L0.605911 3.5H0.590286V3.53125L0.0902863 4.90625V5.5H1.09029V5.07812L1.29341 4.5H2.88716L3.09029 5.07812V5.5H4.09029V4.90625L3.59029 3.53125V3.5H3.57466L2.60591 0.828125L2.49654 0.5H1.68404ZM8.59029 0.5V9.84375L7.29341 8.54688L6.59029 9.25L8.73091 11.4062L9.09029 11.75L9.44966 11.4062L11.5903 9.25L10.8872 8.54688L9.59029 9.84375V0.5H8.59029ZM2.09029 2.32812L2.51216 3.5H1.66841L2.09029 2.32812ZM0.0902863 6.5V7.5H2.87154L0.230911 10.1406L0.0902863 10.2969V11.5H4.09029V10.5H1.30904L3.94966 7.85938L4.09029 7.70312V6.5H0.0902863Z" fill="#8181A5"/>
</svg>
