<svg width="40" height="40" viewBox="0 0 40 40" fill="none" xmlns="http://www.w3.org/2000/svg">
<path d="M30.625 38.1251H9.375C8.38044 38.1251 7.42661 37.73 6.72335 37.0267C6.02009 36.3235 5.625 35.3696 5.625 34.3751V5.62506C5.625 4.6305 6.02009 3.67667 6.72335 2.97341C7.42661 2.27015 8.38044 1.87506 9.375 1.87506H26.875L34.375 9.37506V34.3751C34.375 35.3696 33.9799 36.3235 33.2767 37.0267C32.5734 37.73 31.6196 38.1251 30.625 38.1251Z" fill="#AEE0D0"/>
<path d="M11.25 12.5001H28.75V22.5001H11.25V12.5001Z" fill="#32A881"/>
<path d="M16.875 15.6251H28.75V22.5001H16.875V15.6251Z" fill="#76D8B6"/>
<path d="M5.625 28.1251H34.375V34.3751C34.375 35.3696 33.9799 36.3235 33.2767 37.0267C32.5734 37.73 31.6196 38.1251 30.625 38.1251H9.375C8.38044 38.1251 7.42661 37.73 6.72335 37.0267C6.02009 36.3235 5.625 35.3696 5.625 34.3751V28.1251Z" fill="#32A881"/>
<path d="M34.375 9.37506H30.625C29.6304 9.37506 28.6766 8.97997 27.9733 8.27671C27.2701 7.57345 26.875 6.61962 26.875 5.62506V1.87506L34.375 9.37506Z" fill="#32A881"/>
<path d="M11.25 15.0001H28.75V16.2501H11.25V15.0001Z" fill="white"/>
<path d="M11.25 18.7501H28.75V20.0001H11.25V18.7501Z" fill="white"/>
<path d="M16.25 12.5001H17.5V22.5001H16.25V12.5001Z" fill="white"/>
<path d="M22.5 12.5001H23.75V22.5001H22.5V12.5001Z" fill="white"/>
</svg>
