<svg width="18" height="19" viewBox="0 0 18 19" fill="none" xmlns="http://www.w3.org/2000/svg">
<path d="M6.9075 0.8125C6.0338 0.8125 5.22456 1.02734 4.47977 1.45703C3.7493 1.88672 3.16922 2.47396 2.73953 3.21875C2.30984 3.94922 2.095 4.7513 2.095 5.625C2.095 6.44141 2.2812 7.20052 2.65359 7.90234C3.04031 8.60417 3.5631 9.17708 4.22195 9.62109C3.40555 9.97917 2.67508 10.4733 2.03055 11.1035C1.40034 11.7337 0.91336 12.457 0.56961 13.2734C0.211537 14.1185 0.0325003 15.0065 0.0325003 15.9375H1.4075C1.4075 14.9349 1.65099 14.0182 2.13797 13.1875C2.63927 12.3424 3.30529 11.6764 4.13602 11.1895C4.98107 10.6882 5.9049 10.4375 6.9075 10.4375C7.62365 10.4375 8.31115 10.5807 8.97 10.8672C9.60021 11.125 10.1731 11.4974 10.6888 11.9844L7.44461 15.2285L6.92898 17.8711L6.71414 18.8809L7.72391 18.666L10.3665 18.1504L17.3059 11.2109C17.707 10.8099 17.9075 10.3229 17.9075 9.75C17.9075 9.17708 17.707 8.6901 17.3059 8.28906C16.9049 7.88802 16.4179 7.6875 15.845 7.6875C15.2864 7.6875 14.8066 7.88086 14.4055 8.26758L11.677 10.9961C11.0611 10.4089 10.3665 9.95052 9.59305 9.62109C10.2519 9.17708 10.7675 8.60417 11.1399 7.90234C11.5266 7.20052 11.72 6.44141 11.72 5.625C11.72 4.7513 11.5052 3.94922 11.0755 3.21875C10.6458 2.47396 10.0585 1.88672 9.31375 1.45703C8.58328 1.02734 7.7812 0.8125 6.9075 0.8125ZM6.9075 2.1875C7.53771 2.1875 8.11063 2.34505 8.62625 2.66016C9.1562 2.96094 9.57156 3.3763 9.87234 3.90625C10.1874 4.42188 10.345 4.99479 10.345 5.625C10.345 6.25521 10.1874 6.83529 9.87234 7.36523C9.57156 7.88086 9.1562 8.29622 8.62625 8.61133C8.11063 8.91211 7.53771 9.0625 6.9075 9.0625C6.27729 9.0625 5.69721 8.91211 5.16727 8.61133C4.65164 8.29622 4.23628 7.88086 3.92117 7.36523C3.62039 6.83529 3.47 6.25521 3.47 5.625C3.47 4.99479 3.62039 4.42188 3.92117 3.90625C4.23628 3.3763 4.65164 2.96094 5.16727 2.66016C5.69721 2.34505 6.27729 2.1875 6.9075 2.1875ZM15.845 9.0625C16.0455 9.0625 16.2102 9.13411 16.3391 9.27734C16.4824 9.40625 16.554 9.5638 16.554 9.75C16.554 9.92188 16.4824 10.0794 16.3391 10.2227L9.67898 16.8828L8.45438 17.1406L8.71219 15.916L15.3723 9.25586C15.5013 9.12695 15.6588 9.0625 15.845 9.0625Z" fill="#2B3A90"/>
</svg>
