<svg width="18" height="19" viewBox="0 0 18 19" fill="none" xmlns="http://www.w3.org/2000/svg">
<path d="M11.7773 2.53516C11.0039 1.76172 10.0781 1.375 9 1.375C7.92188 1.375 6.99609 1.76172 6.22266 2.53516C5.44922 3.30859 5.0625 4.23437 5.0625 5.3125C5.0625 6.39063 5.44922 7.31641 6.22266 8.08984C6.99609 8.86328 7.92188 9.25 9 9.25C10.0781 9.25 11.0039 8.86328 11.7773 8.08984C12.5508 7.31641 12.9375 6.39063 12.9375 5.3125C12.9375 4.23437 12.5508 3.30859 11.7773 2.53516ZM13.5 12.625C12.4219 12.625 11.5547 12.7188 10.8984 12.9062C10.2656 13.0938 9.63281 13.1875 9 13.1875C8.36719 13.1875 7.72266 13.0938 7.06641 12.9062C6.43359 12.7188 5.57812 12.625 4.5 12.625C3.5625 12.625 2.76562 12.9531 2.10938 13.6094C1.45312 14.2656 1.125 15.0625 1.125 16V17.125H16.875V16C16.875 15.0625 16.5469 14.2656 15.8906 13.6094C15.2344 12.9531 14.4375 12.625 13.5 12.625ZM5.41406 1.72656C6.39844 0.742188 7.59375 0.25 9 0.25C10.4062 0.25 11.6016 0.742188 12.5859 1.72656C13.5703 2.71094 14.0625 3.90625 14.0625 5.3125C14.0625 6.71875 13.5703 7.91406 12.5859 8.89844C11.6016 9.88281 10.4062 10.375 9 10.375C7.59375 10.375 6.39844 9.88281 5.41406 8.89844C4.42969 7.91406 3.9375 6.71875 3.9375 5.3125C3.9375 3.90625 4.42969 2.71094 5.41406 1.72656ZM13.5 11.5C14.7422 11.5 15.7969 11.9453 16.6641 12.8359C17.5547 13.7031 18 14.7578 18 16V17.125C18 17.4297 17.8828 17.6875 17.6484 17.8984C17.4375 18.1328 17.1797 18.25 16.875 18.25H1.125C0.820312 18.25 0.550781 18.1328 0.316406 17.8984C0.105469 17.6875 0 17.4297 0 17.125V16C0 14.7578 0.433594 13.7031 1.30078 12.8359C2.19141 11.9453 3.25781 11.5 4.5 11.5C5.69531 11.5 6.59766 11.5938 7.20703 11.7812C7.83984 11.9688 8.4375 12.0625 9 12.0625C9.5625 12.0625 10.1484 11.9688 10.7578 11.7812C11.3906 11.5938 12.3047 11.5 13.5 11.5Z" fill="#1C1D21"/>
</svg>
