<svg width="16" height="14" viewBox="0 0 16 14" fill="none" xmlns="http://www.w3.org/2000/svg">
<path d="M14 2.5C14.5625 2.5 15.0312 2.69792 15.4062 3.09375C15.8021 3.46875 16 3.9375 16 4.5V12C16 12.5625 15.8021 13.0312 15.4062 13.4062C15.0312 13.8021 14.5625 14 14 14H3C2.16667 14 1.45833 13.7083 0.875 13.125C0.291667 12.5417 0 11.8333 0 11V3C0 2.16667 0.291667 1.45833 0.875 0.875C1.45833 0.291667 2.16667 0 3 0H12C12.5625 0 13.0312 0.197917 13.4062 0.59375C13.8021 0.96875 14 1.4375 14 2V2.5ZM14.5 12V4.5C14.5 4.35417 14.4479 4.23958 14.3438 4.15625C14.2604 4.05208 14.1458 4 14 4H3.5C3.35417 4 3.22917 3.95833 3.125 3.875C3.04167 3.77083 3 3.64583 3 3.5C3 3.35417 3.04167 3.23958 3.125 3.15625C3.22917 3.05208 3.35417 3 3.5 3H12.5V2C12.5 1.85417 12.4479 1.73958 12.3438 1.65625C12.2604 1.55208 12.1458 1.5 12 1.5H3C2.58333 1.5 2.22917 1.64583 1.9375 1.9375C1.64583 2.22917 1.5 2.58333 1.5 3V11C1.5 11.4167 1.64583 11.7708 1.9375 12.0625C2.22917 12.3542 2.58333 12.5 3 12.5H14C14.1458 12.5 14.2604 12.4583 14.3438 12.375C14.4479 12.2708 14.5 12.1458 14.5 12ZM11.2812 7.3125C11.4896 7.10417 11.7292 7 12 7C12.2708 7 12.5 7.10417 12.6875 7.3125C12.8958 7.5 13 7.72917 13 8C13 8.27083 12.8958 8.51042 12.6875 8.71875C12.5 8.90625 12.2708 9 12 9C11.7292 9 11.4896 8.90625 11.2812 8.71875C11.0938 8.51042 11 8.27083 11 8C11 7.72917 11.0938 7.5 11.2812 7.3125Z" fill="#8181A5"/>
</svg>
