<svg width="17" height="12" viewBox="0 0 17 12" fill="none" xmlns="http://www.w3.org/2000/svg">
<path fill-rule="evenodd" clip-rule="evenodd" d="M8.78864 2.61517C11.0657 2.61526 13.2557 3.46937 14.906 5.00097C15.0303 5.11921 15.2289 5.11772 15.3513 4.99762L16.5392 3.82729C16.6012 3.76638 16.6358 3.68387 16.6352 3.59802C16.6347 3.51217 16.5992 3.43006 16.5365 3.36986C12.205 -0.682369 5.37158 -0.682369 1.04009 3.36986C0.977348 3.43002 0.941748 3.5121 0.941169 3.59795C0.940591 3.6838 0.975082 3.76634 1.03701 3.82729L2.22527 4.99762C2.34759 5.1179 2.54638 5.11939 2.67057 5.00097C4.32107 3.46927 6.51133 2.61516 8.78864 2.61517ZM8.78864 6.42275C10.0397 6.42267 11.2462 6.87663 12.1736 7.6964C12.299 7.81275 12.4966 7.81023 12.6189 7.69072L13.8054 6.52039C13.8679 6.459 13.9026 6.37572 13.9017 6.28919C13.9008 6.20265 13.8644 6.12008 13.8006 6.05995C10.9766 3.49554 6.60312 3.49554 3.77905 6.05995C3.71526 6.12008 3.67886 6.20269 3.67802 6.28926C3.67719 6.37582 3.71198 6.45909 3.7746 6.52039L4.9608 7.69072C5.08307 7.81023 5.28066 7.81275 5.4061 7.6964C6.33287 6.87717 7.53837 6.42326 8.78864 6.42275ZM11.1655 8.98459C11.1673 9.07137 11.1324 9.15503 11.0689 9.21583L9.01642 11.2378C8.95625 11.2972 8.87422 11.3307 8.78863 11.3307C8.70304 11.3307 8.62101 11.2972 8.56085 11.2378L6.50802 9.21583C6.44461 9.15498 6.40972 9.07129 6.4116 8.98451C6.41348 8.89774 6.45196 8.81556 6.51796 8.75739C7.82875 7.67512 9.74852 7.67512 11.0593 8.75739C11.1253 8.81561 11.1637 8.89781 11.1655 8.98459Z" fill="white"/>
</svg>
